<svg width="44" height="79" fill="none" xmlns="http://www.w3.org/2000/svg">
  <path fill="#E1F7D7" stroke="#292929" stroke-width=".5" d="M.25 8.25h43.5v70.5H.25z"/>
  <path fill="#AECCA0" stroke="#292929" stroke-width=".5" d="M9.25 6.25h25.5v5.5H9.25z"/>
  <path d="M27 6a5 5 0 00-10 0" stroke="#292929" stroke-width=".5"/>
  <path fill="#AECCA0" stroke="#000" stroke-width=".5" d="M5.25 27.25h8.5v8.5h-8.5z"/>
  <path stroke="#000" stroke-width=".5" d="M5.25 41.25h8.5v8.5h-8.5zM5.25 55.25h8.5v8.5h-8.5z"/>
  <path fill="#E1F7D7" stroke="#000" stroke-width=".5" d="M15.25 27.25h23.5v2.5h-23.5zM15.25 32.25h7.5v2.5h-7.5zM15.25 46.25h11.5v2.5h-11.5zM15.25 60.25h7.5v2.5h-7.5zM15.25 41.25h23.5v2.5h-23.5zM15.25 55.25h23.5v2.5h-23.5z"/>
</svg>