<svg width="62" height="71" fill="none" xmlns="http://www.w3.org/2000/svg">
  <path fill="#E1F7D7" stroke="#292929" stroke-width=".5" d="M9.25.25h43.5v67.5H9.25z"/>
  <path fill="#AECCA0" stroke="#292929" stroke-width=".5" d="M.25 67.25h61.5v3.5H.25z"/>
  <path fill="#292929" d="M9 58h44v.5H9zM9 7h44v.5H9z"/>
  <circle cx="25.5" cy="3.5" r="1.25" fill="#AECCA0" stroke="#000" stroke-width=".5"/>
  <circle cx="31.5" cy="3.5" r="1.25" fill="#AECCA0" stroke="#000" stroke-width=".5"/>
  <circle cx="37.5" cy="3.5" r="1.25" fill="#AECCA0" stroke="#000" stroke-width=".5"/>
  <circle cx="31" cy="63" r="2.75" fill="#AECCA0" stroke="#000" stroke-width=".5"/>
  <path d="M38.751 43H24.25a.252.252 0 01-.249-.255c0-8.61 2.839-13.185 3.315-13.89l-1.582-9.557a.261.261 0 01.055-.207.246.246 0 01.19-.091h2.412c.07 0 .135.03.182.081a.26.26 0 01.067.192c-.01.16-.224 3.941 2.861 4.698 3.085-.757 2.871-4.537 2.86-4.698a.26.26 0 01.067-.192.246.246 0 01.182-.081h2.413c.073 0 .142.033.19.09a.261.261 0 01.055.208l-1.582 9.556c.476.706 3.315 5.28 3.315 13.89a.252.252 0 01-.249.256z" fill="#AECCA0"/>
  <path d="M35.424 28.66h-7.846v.511h7.846v-.51z" fill="#AECCA0"/>
  <path d="M29.714 31.256a.245.245 0 01-.164-.063.26.26 0 01-.024-.36l1.768-2.084a.244.244 0 01.351-.025.26.26 0 01.025.36L29.9 31.168a.245.245 0 01-.187.088z" fill="#AECCA0"/>
  <path d="M33.28 31.256a.245.245 0 01-.188-.088l-1.77-2.084a.26.26 0 01.025-.36.244.244 0 01.351.024l1.77 2.085a.26.26 0 01-.025.36.245.245 0 01-.164.063z" fill="#AECCA0"/>
  <path d="M38.751 43H24.25a.252.252 0 01-.249-.255c0-8.61 2.839-13.185 3.315-13.89l-1.582-9.557a.261.261 0 01.055-.207.246.246 0 01.19-.091h2.412c.07 0 .135.03.182.081a.26.26 0 01.067.192c-.01.16-.224 3.941 2.861 4.698 3.085-.757 2.871-4.537 2.86-4.698a.26.26 0 01.067-.192.246.246 0 01.182-.081h2.413c.073 0 .142.033.19.09a.261.261 0 01.055.208l-1.582 9.556c.476.706 3.315 5.28 3.315 13.89a.252.252 0 01-.249.256zM24.5 42.49H38.5c-.06-8.863-3.246-13.377-3.278-13.422a.261.261 0 01-.046-.195l1.55-9.362h-1.865c-.008.972-.265 4.245-3.274 4.963a.414.414 0 01-.177 0c-3.008-.718-3.265-3.99-3.274-4.963h-1.864l1.55 9.362a.263.263 0 01-.046.195c-.032.045-3.218 4.575-3.278 13.421zm6.976-18.513zm.049 0zm-.048 0z" fill="#000"/>
  <path d="M35.424 28.66h-7.846v.511h7.846v-.51z" fill="#000"/>
  <path d="M29.714 31.256a.245.245 0 01-.164-.063.26.26 0 01-.024-.36l1.768-2.084a.244.244 0 01.351-.025.26.26 0 01.025.36L29.9 31.168a.245.245 0 01-.187.088z" fill="#000"/>
  <path d="M33.28 31.256a.245.245 0 01-.188-.088l-1.77-2.084a.26.26 0 01.025-.36.244.244 0 01.351.024l1.77 2.085a.26.26 0 01-.025.36.245.245 0 01-.164.063z" fill="#000"/>
</svg>