<svg width="243" height="37" fill="none" xmlns="http://www.w3.org/2000/svg">
  <mask id="a" maskUnits="userSpaceOnUse" x="0" y="7" width="21" height="23">
    <path d="M0 29.716V7.93h20.504v21.786H0z" fill="#fff"/>
  </mask>
  <g mask="url(#a)">
    <path fill-rule="evenodd" clip-rule="evenodd" d="M9.05 26.031c2.323 0 4.326-1.122 4.646-2.923.28-1.722-1.521-3.003-4.084-3.003-2.404 0-4.367.88-4.367 3.163 0 1.922 1.803 2.763 3.806 2.763zM0 23.628c0-4.766 3.763-7.008 8.33-7.008 2.924 0 5.126.88 6.166 1.882l.481-2.682c.36-2.123-1.042-3.646-3.204-3.646-1.881 0-2.923.64-3.723 1.963H2.963C4.684 9.652 7.849 7.93 12.334 7.93c4.326 0 8.17 2.682 8.17 6.848 0 .401-.04.841-.12 1.281L18.06 29.236h-5.245l.32-1.922c-.96 1.402-3.484 2.403-6.047 2.403C2.402 29.716 0 26.99 0 23.628z" fill="#fff"/>
  </g>
  <path fill-rule="evenodd" clip-rule="evenodd" d="M41.74 29.235h-5.445l2.203-12.496c.039-.24.08-.6.08-.88 0-1.922-1.282-3.083-3.204-3.083-2.604 0-4.086 1.642-4.606 4.565l-2.082 11.894h-5.448L26.923 8.41h5.206l-.52 2.762c1.362-2.123 3.564-3.243 6.287-3.243 2.725 0 4.686 1.202 5.648 3.243 1.642-2.082 3.884-3.243 7.087-3.243 3.925 0 6.609 2.643 6.609 6.608 0 .56-.041 1.12-.16 1.722l-2.283 12.975H49.35l2.203-12.496c.04-.24.08-.6.08-.88 0-1.922-1.282-3.083-3.205-3.083-2.601 0-4.084 1.722-4.605 4.645L41.74 29.235zM74.64 21.106l.64-3.644c.08-.442.121-.882.121-1.202 0-2.524-1.602-4.045-4.245-4.045-2.804 0-4.125 1.642-4.645 4.525l-.641 3.645c-.04.199-.12.68-.12 1.081 0 2.522 1.762 3.965 4.284 3.965 2.643 0 4.125-1.682 4.606-4.325zm-14.017.039c0-.641.04-1.2.16-1.922l.481-2.723c1.042-5.888 4.606-8.57 9.972-8.57 5.846 0 9.371 3.364 9.371 8.49 0 .682-.08 1.402-.2 2.123l-.44 2.522c-.882 5.126-4.287 8.651-10.054 8.651-5.685 0-9.29-3.445-9.29-8.571zM86.665 8.411h5.206l-.52 2.762c1.362-2.123 3.644-3.243 6.367-3.243 3.926 0 6.368 2.643 6.368 6.527 0 .602-.04 1.201-.159 1.842l-2.283 12.936h-5.447L98.4 16.74c.039-.24.08-.52.08-.84 0-1.963-1.362-3.124-3.284-3.124-2.604 0-4.166 1.642-4.686 4.565l-2.082 11.894H82.98L86.665 8.41z" fill="#fff"/>
  <mask id="b" maskUnits="userSpaceOnUse" x="106" y="7" width="24" height="30">
    <path d="M129.45 36.684h-23.428V7.93h23.428v28.755z" fill="#fff"/>
  </mask>
  <g mask="url(#b)">
    <path fill-rule="evenodd" clip-rule="evenodd" d="M122.081 19.263l.28-1.642c.041-.24.08-.64.08-1.08 0-2.524-1.601-4.205-4.324-4.205-2.563 0-4.125 1.441-4.606 4.205l-.36 2.082c-.08.48-.121.8-.121 1.121 0 2.603 1.722 4.205 4.166 4.205 2.682 0 4.405-1.762 4.885-4.686zm-16.059 11.094h5.246c.521 1.4 2.403 2.242 4.485 2.242 2.684 0 4.246-1.4 4.647-3.804l.559-3.284c-.84 1.562-3.163 2.762-5.765 2.762-4.366 0-7.65-3.364-7.65-7.808 0-.561.041-1.042.16-1.722l.481-2.683c.921-5.247 3.885-8.13 9.251-8.13 3.124 0 5.447 1.642 6.327 3.124l.481-2.643h5.206l-3.684 20.865c-.881 4.926-4.887 7.409-10.212 7.409-4.606 0-8.772-2.404-9.532-6.328z" fill="#fff"/>
  </g>
  <path fill-rule="evenodd" clip-rule="evenodd" d="M131.105 23.949c0-.28.04-.681.08-.921l.04-.241h4.765l-.039.2c-.401 2.043 1.642 2.923 3.965 2.923 2.162 0 3.964-.921 3.964-2.802 0-.842-.4-1.482-1.562-1.763l-5.286-1.202c-2.803-.64-4.285-2.362-4.285-4.845 0-4.966 3.765-7.368 9.091-7.368 4.044 0 8.05 1.722 8.05 5.687 0 .32-.041.8-.08 1.04l-.041.241h-4.765l.041-.24c.319-1.923-1.443-2.924-3.526-2.924-2.002 0-3.564.8-3.564 2.683 0 .96.561 1.442 1.562 1.683l5.406 1.32c2.644.682 4.165 2.404 4.165 4.766 0 4.766-4.285 7.53-9.651 7.53-4.405 0-8.33-2.123-8.33-5.767zM153.701 24.59c0-.401.041-.841.121-1.282l1.842-10.493H152.7l.762-4.404h3.003l1.001-5.687h5.447l-1.001 5.687h4.445l-.762 4.404h-4.485l-1.761 10.053c-.241 1.32.319 1.962 1.801 1.962h2.083l-.762 4.405h-3.564c-3.204 0-5.206-1.722-5.206-4.645zM179.703 12.815h-2.643l.721-4.404h2.683l.401-2.323C181.586 1.883 183.668 0 187.953 0h3.844l-.76 4.325h-2.202c-1.603 0-2.324.52-2.604 2.203l-.32 1.883h4.164l-.761 4.404h-4.164l-2.923 16.42h-5.448l2.924-16.42zM196.332 16.82h8.569l.082-.52c.039-.24.08-.6.08-.801 0-2.162-1.443-3.685-3.924-3.685-2.805 0-4.205 1.683-4.766 4.887l-.041.12zm-5.888 4.525c0-.6.041-1.16.162-1.881l.479-2.724c.962-5.366 4.367-8.81 10.133-8.81 5.246 0 8.65 3.124 8.65 8.01 0 .48-.039 1.242-.16 1.921l-.481 2.805h-13.575c-.081.399-.121.8-.121 1.16 0 2.363 1.362 4.046 4.244 4.046 2.164 0 3.485-1.282 4.006-2.725h4.846c-1.081 3.845-4.326 6.569-9.251 6.569-5.967 0-8.932-3.845-8.932-8.37z" fill="#fff"/>
  <mask id="c" maskUnits="userSpaceOnUse" x="213" y="8" width="30" height="22">
    <path d="M243 29.235V8.41h-29.676v20.824H243z" fill="#fff"/>
  </mask>
  <g mask="url(#c)">
    <path fill-rule="evenodd" clip-rule="evenodd" d="M213.324 8.411h5.247l.6 14.136 6.528-14.136h4.766l1.762 14.136 5.487-14.136H243l-9.13 20.824h-4.928l-1.841-14.537-6.968 14.537h-4.926L213.324 8.41z" fill="#fff"/>
  </g>
</svg>