<svg width="54" height="71" fill="none" xmlns="http://www.w3.org/2000/svg"><path fill-rule="evenodd" clip-rule="evenodd" d="M37.563 60.68l-2.737-2.586c.456 1.825.456 3.194-.152 4.867l2.89-2.282zm6.084-6.388v-8.973c-3.802-5.779-6.084-7.147-6.844-7.451l-.152.152c-.304.152-.76.456-1.369.608-1.368.456-3.954.912-8.668.912-3.498 0-5.78-.304-7.3-.608-1.52-.304-2.281-.608-2.737-.912 0 0-.153 0-.153-.152h-.152c-.304.152-.608.456-1.216.912-1.065 1.065-2.89 2.89-5.323 6.54v8.82c.912-.304 2.89-2.433 6.996-9.885h19.77c4.106 7.604 6.235 9.58 7.148 10.037zm-.76 6.083c.76 0 1.368-.152 1.824-.456.456-.304.76-.608 1.065-.912.304-.457.456-.76.608-1.065l-2.585-1.065s-.152 0-.152-.152c0 .152 0 .152-.152.152-.305.304-1.217.304-2.282.304H35.13l3.346 3.042h4.41v.152zm-13.84-.608c.152-.304.608-.608.912-.913a24.26 24.26 0 002.434-2.89h-9.277c.608.153 1.369.457 2.281 1.066.913.456 2.13 1.52 3.65 2.737zm-6.083 3.498c.76-1.673.608-3.194-.456-5.171l-2.13 2.585 2.586 2.586zm-2.433 4.562c1.825 0 3.802-.456 5.322-1.673 1.521-1.064 2.586-2.89 2.738-5.627-1.521-1.368-2.738-2.433-3.65-3.041-.913-.609-1.673-.913-2.13-.913.153.152.305.304.761 1.217v.152c1.065 1.825 1.217 3.802.456 5.475-1.064 2.129-3.497 3.346-6.995 3.65.912.456 2.129.76 3.498.76zm26.461-8.973c-.304.609-.76 1.37-1.673 1.825-.608.304-1.368.609-2.28.609h-4.563l-3.65 2.89h10.493c2.738 0 5.019-2.282 5.019-5.171V50.49l-3.042 7.3c0 .152-.152.608-.304 1.064zm-13.687-2.433c-1.52 2.13-3.346 3.802-3.802 4.258-.152 2.89-1.369 5.019-3.041 6.236-1.673 1.368-3.802 1.825-5.78 1.825-1.52 0-2.889-.305-4.105-.76l.152.151c4.258 3.954 9.124 3.194 12.318 1.065 3.498-2.281 6.387-6.996 4.562-12.166-.152-.153-.152-.457-.304-.609zM8.516 59.92c.457.304 1.065.456 1.825.456h9.125l2.433-3.041H11.71c-.912 0-1.673 0-1.977-.305 0 0-.152-.152-.152-.304L6.844 57.79c0 .152.152.304.152.456.456.76.912 1.217 1.52 1.673zm40.91-9.885l-5.475 6.083h.152l2.585 1.065 2.737-7.148zm-5.02-4.41v8.516l8.67-9.277-8.67.76zM6.084 18.4c0-1.216.456-2.28 1.217-3.193.76-.76 1.977-1.369 3.041-1.369h5.627l4.258-3.041c.152-1.673.152-2.89.152-2.89v-.304c-.152-.152-.152-.152-.304-.152h-.76c.456-2.89 3.498-5.019 7.3-5.019 3.498 0 6.843 2.13 7.604 4.867h-1.065c-.152 0-.304 0-.304.152-.152.152-.152.304-.152.304s0 .76.152 2.737l4.258 3.194h5.78c1.216 0 2.28.456 3.04 1.369.761.76 1.217 1.977 1.217 3.193v13.383l3.042 7.908V16.272c0-2.89-2.281-5.17-5.475-5.17h-9.429v-.913h.76c.305 0 .457-.152.457-.456v-.912C36.5 3.498 31.33 0 26.615 0c-4.867 0-9.885 3.498-9.885 8.82v.76c0 .305.152.457.456.457h.912v.913H7.756c-2.433 0-4.714 2.433-4.714 5.17v23.116l3.041-7.604v-13.23zm13.535 42.735h-9.125c-.912 0-1.672-.153-2.28-.609a3.59 3.59 0 01-1.37-1.216c-.608-.609-.76-1.37-.76-1.521l-2.89-7.452v8.516c0 2.89 2.282 5.171 5.02 5.171h14.295l-2.89-2.89zm0-48.818l-2.89 2.13 1.521 2.28c.457-1.064.913-2.737 1.37-4.41zm23.268 2.434H37.26l-1.825 3.041h5.171c1.52 0 2.89 1.369 2.89 2.89v12.47l2.889-1.673V18.25c0-.913-.456-1.826-1.065-2.586-.608-.456-1.368-.912-2.433-.912zm-28.44 23.573c.76-.608 1.217-.913 1.521-1.065v-.152c0-.608.152-1.216.304-1.977.152-.76.457-1.673.76-2.433a80.22 80.22 0 011.978-4.867c.456-.912.76-1.672.912-1.977.304-.76.913-1.977 1.521-3.345.608-1.37 1.217-2.89 1.825-3.954.912-1.825 2.433-2.89 2.89-3.194v-3.65L22.05 8.06c-.608 2.433-5.93 25.093-21.899 36.043l8.973.76c2.28-3.65 4.106-5.627 5.322-6.54zm29.656-4.258c1.825 2.28 3.346 4.106 5.322 5.779l-2.737-7.3c0-.152-2.585 1.52-2.585 1.52zM3.954 39.693c2.281-1.977 4.106-4.259 5.323-5.78l-2.586-1.52-2.737 7.3zm5.779-18.858c0-1.673 1.217-2.89 2.89-2.89h5.018c.152 0 .152 0 .152-.152l-1.977-2.89h-5.475c-.912 0-1.825.457-2.433 1.065a3.67 3.67 0 00-1.064 2.586v13.078l2.737 1.673v-12.47h.152zm-.912 24.789L0 44.864l8.82 9.276v-8.516zM22.81 7.3l3.803 3.498L30.416 7.3h-7.604zM9.43 56.117l-5.475-5.931 2.737 6.995 2.738-1.064zm17.033-33.305c.76 2.737 2.129 8.212 3.65 11.101h-7.3c1.52-2.889 3.041-8.364 3.65-11.101zm-7.3 6.54c-.608 1.52-1.369 3.345-1.825 5.018-.304 1.064-.456 1.977-.456 2.585v.304l.152.152c.152.152.456.304 1.216.457 1.217.456 3.802.76 8.365.76 6.387 0 8.668-.76 9.429-1.217.152-.152.304-.152.304-.152v-.304c0-.456-.152-1.064-.304-1.825-.152-.76-.457-1.52-.76-2.433-.61-1.673-1.37-3.498-1.826-4.867-.456-.912-.76-1.52-.912-1.977-.456-.76-.913-2.129-1.521-3.498-.608-1.368-1.217-2.889-1.825-3.801-.76-1.521-2.129-2.586-2.585-2.89-.152.152-.457.304-.76.608-.609.457-1.37 1.217-1.826 2.282-.456 1.064-1.216 2.433-1.825 3.802-.608 1.368-1.216 2.737-1.52 3.497-.305.609-.913 1.977-1.521 3.498zM31.176 7.907l-4.106 3.65v3.346c.608.304 1.977 1.52 2.89 3.193.608 1.065 1.216 2.586 1.824 3.954.609 1.37 1.217 2.738 1.521 3.346a31.79 31.79 0 011.521 3.498c.608 1.52 1.369 3.498 1.825 5.018.304 1.065.456 2.13.456 2.738v.152c.304.152.913.456 1.673 1.065 1.217 1.064 3.042 3.041 5.475 6.539l8.82-.76C37.107 33 31.632 10.34 31.176 7.908zm3.802 8.973l1.52-2.434-2.889-1.977c.457 1.521 1.065 3.194 1.37 4.41z" fill="#fff"/></svg>