<svg width="231" height="33" fill="none" xmlns="http://www.w3.org/2000/svg">
  <path d="M205.079 25.52c-.85 0-1.542-.692-1.542-1.543V5.346a.611.611 0 111.222 0v18.63c0 .177.143.32.32.32a.61.61 0 110 1.224zM214.394 25.52c-.85 0-1.542-.692-1.542-1.543v-12.11a.611.611 0 111.222 0v12.11c0 .176.143.32.32.32a.611.611 0 010 1.223zM213.465 5.963c-.081 0-.161-.023-.242-.046a.757.757 0 01-.195-.139.528.528 0 01-.127-.195.61.61 0 01.794-.805c.081.035.149.08.195.138a.622.622 0 01.184.426c0 .08-.011.16-.046.241a.757.757 0 01-.138.195.597.597 0 01-.195.139.761.761 0 01-.23.046zM164.167 25.519h-6.52a.612.612 0 01-.531-.915l6.93-12.126h-5.082c-.335 0-.649.13-.885.366a.612.612 0 01-.865-.864 2.46 2.46 0 011.75-.725h6.135a.612.612 0 01.531.915l-6.93 12.126h5.467a.32.32 0 00.321-.32.611.611 0 111.222 0c0 .85-.691 1.543-1.543 1.543zM179.07 25.519h-6.52a.614.614 0 01-.531-.915l6.93-12.126h-5.082c-.335 0-.649.13-.885.366a.612.612 0 01-.865-.864 2.462 2.462 0 011.75-.725h6.135a.612.612 0 01.532.915l-6.93 12.126h5.466a.32.32 0 00.321-.32.611.611 0 111.223 0c0 .85-.692 1.543-1.544 1.543zM151.211 25.52a.61.61 0 01-.433-.18 4.314 4.314 0 01-1.27-3.067v-6.68a3.118 3.118 0 00-3.114-3.116.612.612 0 010-1.222 4.342 4.342 0 014.337 4.337v6.68c0 .833.324 1.615.912 2.203a.611.611 0 01-.432 1.044z" fill="#fff"/>
  <path d="M143.759 13.57a.61.61 0 01-.432-1.044 4.313 4.313 0 013.067-1.27.612.612 0 110 1.222c-.832 0-1.614.324-2.203.913a.609.609 0 01-.432.18zM146.393 25.52a4.343 4.343 0 01-4.337-4.339c0-1.228.733-2.326 1.87-2.797l4.466-1.85c.527-.218.925-.679 1.063-1.23a.61.61 0 111.186.296 3.043 3.043 0 01-1.78 2.064l-4.467 1.85a1.801 1.801 0 00-1.116 1.667 3.119 3.119 0 003.115 3.116 3.118 3.118 0 003.114-3.116.612.612 0 011.223 0 4.343 4.343 0 01-4.337 4.339zM230.389 25.52a.61.61 0 01-.433-.18 4.315 4.315 0 01-1.27-3.067v-6.68a3.118 3.118 0 00-3.114-3.116.61.61 0 110-1.222 4.34 4.34 0 014.336 4.337v6.68c0 .832.324 1.615.913 2.203a.613.613 0 01-.432 1.044z" fill="#fff"/>
  <path d="M222.937 13.57a.611.611 0 01-.432-1.044 4.308 4.308 0 013.067-1.27.61.61 0 110 1.222c-.832 0-1.615.324-2.203.912a.607.607 0 01-.432.18zM225.572 25.52a4.343 4.343 0 01-4.337-4.339 3.02 3.02 0 011.869-2.797l4.467-1.85a1.82 1.82 0 001.063-1.23.604.604 0 01.741-.446.61.61 0 01.445.741 3.043 3.043 0 01-1.78 2.065l-4.467 1.85a1.802 1.802 0 00-1.115 1.667 3.118 3.118 0 003.114 3.116 3.12 3.12 0 003.116-3.116.611.611 0 111.222 0 4.343 4.343 0 01-4.338 4.339zM195.924 25.52a.61.61 0 01-.433-.18 4.31 4.31 0 01-1.27-3.067v-6.68a3.118 3.118 0 00-3.114-3.116.611.611 0 110-1.222 4.342 4.342 0 014.336 4.337v6.68c0 .832.324 1.615.913 2.203a.613.613 0 01-.432 1.044z" fill="#fff"/>
  <path d="M188.471 13.57a.613.613 0 01-.432-1.045 4.313 4.313 0 013.068-1.27.61.61 0 010 1.223c-.832 0-1.615.324-2.203.913a.613.613 0 01-.433.18zM191.106 25.52a4.342 4.342 0 01-4.336-4.339c0-1.228.733-2.326 1.868-2.797l4.467-1.85a1.82 1.82 0 001.063-1.23.605.605 0 01.741-.446.61.61 0 01.445.741 3.043 3.043 0 01-1.78 2.065l-4.467 1.85a1.803 1.803 0 00-1.116 1.667 3.119 3.119 0 003.115 3.116 3.118 3.118 0 003.115-3.116.61.61 0 111.222 0 4.343 4.343 0 01-4.337 4.339zM116.504 15.738h-1.275a.612.612 0 01-.612-.611V9.258c0-2.493 2.017-4.522 4.496-4.524 1.202 0 2.331.472 3.181 1.327.113.115.177.27.177.431a4.51 4.51 0 01-1.315 3.197 3.293 3.293 0 00-.96 2.335c0 2.048-1.656 3.714-3.692 3.714zm-.664-1.223h.664c1.362 0 2.469-1.117 2.469-2.49 0-1.208.467-2.343 1.315-3.197a3.288 3.288 0 00.95-2.08 3.229 3.229 0 00-2.125-.79c-1.805 0-3.273 1.481-3.273 3.3v5.257zm4.882-5.257h.011-.011z" fill="#fff"/>
  <path d="M115.227 15.738h-1.275c-2.036 0-3.692-1.666-3.692-3.713 0-.883-.341-1.712-.959-2.336h-.001a4.511 4.511 0 01-1.315-3.197.61.61 0 01.178-.43 4.453 4.453 0 013.18-1.328c2.479.002 4.496 2.031 4.496 4.524v5.869a.612.612 0 01-.612.611zm-5.059-6.91a4.507 4.507 0 011.316 3.197c0 1.374 1.106 2.49 2.468 2.49h.664V9.258c0-1.819-1.469-3.3-3.274-3.301a3.23 3.23 0 00-2.124.791c.059.786.391 1.517.95 2.08z" fill="#fff"/>
  <path d="M119.113 25.52c-2.479-.002-4.496-2.031-4.496-4.525v-5.868c0-.337.274-.611.612-.611h1.275c2.036 0 3.692 1.665 3.692 3.713 0 .882.341 1.711.96 2.336a4.509 4.509 0 011.315 3.197.614.614 0 01-.177.43 4.45 4.45 0 01-3.181 1.328zm-3.273-9.781v5.256c0 1.82 1.468 3.3 3.274 3.301.787 0 1.533-.279 2.124-.79a3.287 3.287 0 00-.95-2.08 4.51 4.51 0 01-1.315-3.197c0-1.373-1.108-2.49-2.469-2.49h-.664z" fill="#fff"/>
  <path d="M111.344 25.52a4.447 4.447 0 01-3.181-1.328.61.61 0 01-.178-.43 4.51 4.51 0 011.315-3.197c.619-.625.96-1.454.96-2.336 0-2.048 1.657-3.713 3.692-3.713h1.276c.337 0 .611.273.611.611v5.868c0 2.494-2.017 4.523-4.495 4.524zm-2.126-2.014c.591.512 1.337.79 2.125.79 1.804 0 3.273-1.48 3.273-3.3v-5.257h-.664c-1.362 0-2.468 1.117-2.468 2.49a4.51 4.51 0 01-1.316 3.197 3.293 3.293 0 00-.95 2.08z" fill="#fff"/>
  <path d="M115.226 15.738h-5.867c-2.494 0-4.523-2.016-4.525-4.495 0-1.203.472-2.332 1.329-3.182a.61.61 0 01.43-.177c1.206 0 2.342.468 3.196 1.315.624.62 1.453.96 2.336.96 2.048 0 3.713 1.656 3.713 3.691v1.276a.612.612 0 01-.612.612zm-8.378-6.621a3.228 3.228 0 00-.791 2.125c.001 1.805 1.482 3.273 3.302 3.273h5.256v-.665c0-1.36-1.117-2.468-2.49-2.468a4.505 4.505 0 01-3.197-1.315 3.292 3.292 0 00-2.08-.95z" fill="#fff"/>
  <path d="M106.593 22.369a.609.609 0 01-.429-.178 4.445 4.445 0 01-1.329-3.18c.002-2.479 2.03-4.495 4.524-4.495h5.868c.338 0 .612.274.612.611v1.275c0 2.037-1.666 3.692-3.713 3.692-.883 0-1.713.34-2.336.96a4.509 4.509 0 01-3.197 1.315zm2.766-6.63c-1.819 0-3.3 1.467-3.301 3.272 0 .788.279 1.534.791 2.125a3.284 3.284 0 002.079-.95 4.51 4.51 0 013.197-1.315c1.373 0 2.491-1.108 2.491-2.469v-.663h-5.257z" fill="#fff"/>
  <path d="M121.097 15.738h-5.869a.612.612 0 01-.611-.611V13.85c0-2.035 1.666-3.692 3.713-3.692.882 0 1.712-.34 2.336-.96a4.51 4.51 0 013.197-1.315.61.61 0 01.43.178 4.45 4.45 0 011.328 3.18c-.002 2.48-2.031 4.496-4.524 4.496zm-5.257-1.223h5.257c1.819 0 3.3-1.468 3.301-3.273 0-.788-.279-1.534-.791-2.125a3.291 3.291 0 00-2.08.95 4.507 4.507 0 01-3.197 1.315c-1.373 0-2.49 1.108-2.49 2.469v.664z" fill="#fff"/>
  <path d="M123.863 22.369a4.507 4.507 0 01-3.197-1.315 3.29 3.29 0 00-2.336-.96c-2.047 0-3.713-1.655-3.713-3.692v-1.275c0-.337.274-.611.611-.611h5.869c2.493 0 4.522 2.016 4.524 4.495a4.449 4.449 0 01-1.328 3.18.611.611 0 01-.43.178zm-8.023-6.63v.663c0 1.361 1.117 2.47 2.49 2.47 1.208 0 2.343.466 3.197 1.314.563.559 1.293.891 2.08.95a3.228 3.228 0 00.791-2.125c-.001-1.805-1.482-3.272-3.301-3.272h-5.257zM70.941 25.52a.613.613 0 01-.146-1.206V5.346a.612.612 0 011.223 0v19.096c0 .594-.483 1.078-1.077 1.078zM62.091 23.656a.612.612 0 01-.611-.611v-17.7a.612.612 0 011.223 0v17.7a.612.612 0 01-.612.611zM.612 23.656A.612.612 0 010 23.045v-17.7a.612.612 0 011.223 0v17.7a.612.612 0 01-.611.611zM77.141 32.971a.61.61 0 01-.432-1.043 6.802 6.802 0 002.004-4.838V11.866a.612.612 0 011.223 0V27.09c0 2.152-.839 4.178-2.362 5.702a.606.606 0 01-.433.18zM79.322 5.95a.59.59 0 01-.427-.172.779.779 0 01-.138-.195c-.022-.081-.045-.161-.045-.241a.74.74 0 01.045-.23.604.604 0 01.138-.196c.219-.23.633-.23.863 0a.601.601 0 01.185.426c0 .08-.023.16-.058.24a.512.512 0 01-.127.196.616.616 0 01-.436.173z" fill="#fff"/>
  <path d="M60.229 25.52H17.38a.612.612 0 010-1.224H60.23c.69 0 1.252-.562 1.252-1.252a.612.612 0 011.223 0 2.478 2.478 0 01-2.475 2.475zM11.791 25.52H2.476A2.478 2.478 0 010 23.045a.612.612 0 011.223 0c0 .69.562 1.252 1.252 1.252h9.315a3.118 3.118 0 003.114-3.116.612.612 0 011.223 0 4.343 4.343 0 01-4.337 4.339zM86.777 25.52a.612.612 0 01-.145-1.206V5.346a.612.612 0 011.223 0v19.096a1.08 1.08 0 01-1.078 1.078z" fill="#fff"/>
  <path d="M17.38 25.52a2.478 2.478 0 01-2.475-2.475V11.867a.612.612 0 011.224 0v11.178c0 .69.561 1.252 1.251 1.252a.612.612 0 010 1.223zM86.125 3.095a.458.458 0 01-.175-.883l2.234-.924a.458.458 0 11.35.847l-2.233.925a.464.464 0 01-.176.035z" fill="#fff"/>
  <path d="M87.01 2.679c-.275 0-.545-.109-.75-.313a1.377 1.377 0 01-.407-.981c0-.372.146-.722.409-.984a1.417 1.417 0 011.614-.255.458.458 0 11-.417.817.482.482 0 00-.55.087.468.468 0 000 .668.143.143 0 00.158.032.458.458 0 01.353.846 1.054 1.054 0 01-.41.083zM15.51 32.037a.554.554 0 01-.23-.046.523.523 0 01-.195-.127.63.63 0 01-.185-.438c0-.16.07-.321.185-.424a.711.711 0 01.195-.138.62.62 0 01.667.138.578.578 0 01.184.425.63.63 0 01-.184.437.62.62 0 01-.437.173zM12.256 32.037a.52.52 0 01-.23-.046.486.486 0 01-.207-.127.617.617 0 01-.173-.438c0-.16.07-.322.173-.424.23-.231.644-.231.874 0a.568.568 0 01.173.424c0 .162-.058.311-.173.438a.638.638 0 01-.437.173z" fill="#fff"/>
</svg>