<svg width="156" height="87" fill="none" xmlns="http://www.w3.org/2000/svg">
  <path d="M33.392 86.053c-.173-.276.051-.5.396-.397.587.138.708-.328.76-2.813.051-2.001.103-2.398.31-2.398.207 0 .26.397.311 2.33.017 1.276 0 2.484-.035 2.691-.155.57-1.466 1.019-1.742.587zM87.06 86.053c-.172-.276.052-.5.414-.397.415.104 1.001-.466 1.157-1.104.103-.38-.07-.846-.794-2.244-.5-.983-.863-1.829-.811-1.88.276-.277.69.207 1.398 1.604l.759 1.519.69-1.519c.656-1.38 1.087-1.898 1.38-1.605.052.07-.5 1.33-1.225 2.796-1.035 2.07-1.432 2.71-1.777 2.83-.57.224-1.053.224-1.19 0zM41.934 83.31c0-2.78.138-3.366.604-2.71.19.259.258.259.707.017 1.036-.535 2.606-.207 3.313.69 1.019 1.295-.172 3.02-2.07 3.02-.415 0-.967-.12-1.243-.259-.259-.138-.518-.258-.552-.258-.035 0-.07.5-.07 1.121 0 1.001-.034 1.122-.344 1.122-.328 0-.345-.12-.345-2.744zm3.813 0c.622-.622.639-1.209.087-1.865-.363-.414-.535-.483-1.364-.483-.776 0-1.035.087-1.398.414-.569.535-.603 1.364-.051 1.864.483.449.742.535 1.553.552.518.017.776-.103 1.173-.483zM37.016 83.896c-.483-.466-.518-.639-.242-1.156.259-.483 1.19-.829 2.226-.829.742 0 .863-.051.863-.345 0-.172-.173-.414-.362-.535-.328-.172-.725-.155-2.123.052-.552.086-.5-.328.086-.535 1.157-.397 2.727-.086 2.986.587.051.155.103.949.103 1.743 0 1.19-.051 1.45-.259 1.45a.416.416 0 01-.362-.26c-.086-.224-.138-.224-.466 0-.207.139-.742.26-1.208.26-.656 0-.915-.087-1.242-.432zm2.623-.535c.12-.173.224-.449.224-.621 0-.604-2.33-.311-2.537.31-.034.121.07.328.225.5.396.38 1.76.26 2.088-.19zM48.421 83.965c-1.052-.828-.138-1.898 1.709-2.02.966-.068 1.121-.12 1.121-.396 0-.431-.759-.725-1.553-.604-.328.052-.759.12-.932.138-.552.086-.5-.328.087-.535 1.156-.397 2.726-.086 2.985.587.052.155.104.949.104 1.743 0 1.19-.052 1.45-.26 1.45a.416.416 0 01-.362-.26c-.086-.224-.138-.224-.465 0-.553.397-1.881.328-2.434-.103zm2.192-.345c.466-.242.638-.483.638-.88 0-.604-2.295-.311-2.536.31-.242.621 1.07 1.001 1.898.57zM53.46 82.705c-.017-.914-.034-1.794-.034-1.95-.017-.172.121-.328.294-.362.172-.035.293.052.293.207 0 .345.017.345.621.017.915-.483 2.45-.19 2.727.518.052.155.103.949.103 1.76 0 1.294-.034 1.45-.293 1.398-.259-.052-.31-.276-.362-1.432-.052-1.57-.294-1.985-1.157-1.985-.31 0-.742.155-.966.328-.362.276-.431.535-.5 1.674-.07 1.121-.139 1.363-.38 1.415-.276.052-.31-.12-.345-1.588zM61.554 84.206c-.069-.051-.12-1.45-.12-3.106v-2.985h.431c.431 0 .431.017.431 1.363v1.38l.639-.276c.828-.327 2.157-.224 2.778.242.26.19.57.621.708.966.207.553.19.69-.087 1.277-.552 1.122-2.312 1.623-3.52 1.001-.431-.224-.5-.224-.587 0-.103.276-.483.345-.673.138zm3.624-.724c.587-.38.76-.88.518-1.623-.31-.931-1.795-1.277-2.83-.638-.966.587-.966 1.657 0 2.26a2.307 2.307 0 002.312 0zM68.492 83.93c-.31-.207-.673-.673-.811-1.018-.224-.57-.207-.708.069-1.294.604-1.226 2.364-1.657 3.538-.863.62.414.966 1.104.793 1.57-.086.224-.414.276-1.932.276-2.002 0-2.244.156-1.33.863.38.31.622.362 1.295.293.449-.034.966-.207 1.139-.362.276-.259.345-.259.518-.034.19.224.12.328-.363.62-.81.484-2.14.467-2.916-.05zm2.778-2.364c-.224-.414-.845-.69-1.535-.69-.484 0-1.398.57-1.398.88 0 .086.707.155 1.553.155 1.518 0 1.553-.017 1.38-.345zM73.616 83.966c-1.053-.829-.138-1.899 1.708-2.02 1.122-.069 1.294-.19.95-.724-.173-.294-1.485-.345-2.279-.104-.38.104-.483.087-.483-.12 0-.536 1.95-.846 2.813-.45.621.277.811.864.811 2.4 0 1.121-.052 1.38-.259 1.38a.416.416 0 01-.362-.259c-.087-.224-.138-.224-.466 0-.552.397-1.881.328-2.433-.103zm2.191-.346c.466-.241.639-.483.639-.88 0-.604-2.295-.31-2.537.31-.242.622 1.07 1.002 1.898.57zM79.087 83.913c-.466-.397-.484-.483-.484-1.932 0-1.277.052-1.536.277-1.588.241-.052.293.172.345 1.432.086 1.76.31 2.071 1.432 1.933 1-.138 1.19-.431 1.294-1.967.087-1.036.156-1.346.363-1.346s.276.345.31 1.95c.035 1.656 0 1.933-.224 1.933a.416.416 0 01-.362-.26c-.087-.224-.156-.224-.587 0-.777.398-1.795.329-2.364-.155zM84.852 84.017c-.225-.242-.294-.639-.294-1.64 0-1.294 0-1.311-.465-1.363-.294-.035-.484-.155-.484-.31 0-.156.19-.277.484-.311.397-.052.465-.138.465-.57 0-.38.087-.5.346-.5.258 0 .345.12.345.5 0 .466.052.518.656.57.88.069.88.552-.018.62l-.656.053.052 1.328.052 1.33.656.051c.863.069.742.449-.156.518-.5.034-.776-.035-.983-.276zM95.567 84.137c-.26-.138-.31-.431-.31-1.622v-1.467h-.519c-.397 0-.517-.069-.517-.345 0-.276.12-.345.517-.345.466 0 .518-.052.518-.535 0-.414.07-.518.31-.466.173.034.311.242.346.535.052.414.138.466.656.466.466 0 .586.069.586.345 0 .276-.12.345-.604.345h-.62l.05 1.346.053 1.329h.517c.518 0 .829.207.673.466-.12.19-1.311.155-1.656-.052zM98.19 82.343c0-1.674.035-1.984.26-1.984.155 0 .31.12.362.259.086.224.155.224.586 0 .622-.328 1.208-.328 1.208-.017 0 .138-.258.293-.604.345-.862.172-1.121.638-1.121 2.122 0 1.14-.035 1.26-.345 1.26-.328 0-.346-.12-.346-1.985zM102.195 84.033c-1.174-.57-1.416-1.932-.501-2.916.483-.535.725-.639 1.45-.708 1.139-.12 2.001.277 2.381 1.088.483 1.018.345 1.104-1.829 1.104-1.674 0-1.898.035-1.812.276.052.156.103.294.103.345 0 .035.225.173.518.328.621.328 1.501.328 2.071 0 .552-.31.863-.328.863-.017 0 .673-2.192 1.018-3.244.5zm2.726-2.243c-.017-.431-.776-.915-1.467-.915-.552 0-1.398.415-1.518.777-.104.224.12.259 1.432.259.863 0 1.553-.052 1.553-.121zM106.991 82.36c0-1.69.035-2.001.259-2.001.155 0 .311.12.362.259.087.224.173.207.639-.017.707-.38 1.984-.242 2.381.258.328.397.57 1.812.466 2.779-.034.466-.121.604-.397.604-.31 0-.345-.138-.431-1.519-.104-1.726-.224-1.898-1.277-1.777-1.001.12-1.208.431-1.312 1.967-.069 1.087-.138 1.329-.379 1.38-.276.052-.311-.12-.311-1.932zM113.411 84.051c-.311-.155-.69-.518-.828-.776-.794-1.554.465-3.038 2.45-2.882.569.051 1.07.207 1.277.397.345.31.345.31.345-1.174 0-1.398.017-1.501.345-1.501.345 0 .345.086.311 3.054-.052 2.761-.086 3.072-.345 3.124-.225.034-.311-.052-.311-.328 0-.38 0-.38-.345-.07-.5.45-2.14.536-2.899.156zm2.847-.828c.656-.76.466-1.605-.466-2.088-1.208-.622-2.761.034-2.761 1.173.017 1.018.725 1.536 1.967 1.45.674-.07.95-.173 1.26-.535zM118.984 84.173a1.666 1.666 0 01-.586-.432c-.345-.397.189-.57.707-.207.673.483 2.036.259 2.036-.328 0-.31-.414-.517-1.294-.673-.379-.069-.863-.241-1.07-.38-.914-.586-.103-1.794 1.191-1.794.69 0 1.691.397 1.691.673 0 .293-.569.362-.863.103-.5-.448-1.725-.207-1.725.346 0 .224.345.362 1.76.673.966.224 1.311 1.139.656 1.743-.397.362-1.933.517-2.503.276zM34.513 79.236c-.259-.31-.086-.604.345-.604.173 0 .38.087.432.173.12.19-.207.69-.432.69-.069 0-.224-.12-.345-.259zM33.305 71.902c0-.12 14.875-.172 44.263-.172 29.388 0 44.263.051 44.263.172 0 .12-14.875.173-44.263.173-29.388 0-44.263-.052-44.263-.173zM0 63.792c0-.104.587-.173 1.432-.173 1.674 0 2.433-.31 2.968-1.208.346-.586.346-.862.346-11.475 0-10.354-.018-10.907-.328-11.407-.518-.88-1.208-1.173-2.9-1.242C.674 38.235 0 38.13 0 38.045s3.745-.138 9.63-.104c9.3.07 9.663.087 10.992.45 1.95.534 3.348 1.276 4.366 2.294 2.744 2.744 1.76 6.834-2.088 8.611-1.036.483-2.779 1.019-3.486 1.053-.19.017.138.086.724.173 3.676.465 6.403 2.001 7.473 4.21.328.639.448 1.225.483 2.278.069 1.243.017 1.536-.397 2.416-.76 1.657-2.105 2.83-4.176 3.607-2.364.897-2.934.931-13.616.931-6.488 0-9.905-.051-9.905-.172zm16.6-.742c2.469-1.208 3.797-4.159 3.245-7.213-.587-3.227-2.588-4.953-5.988-5.126l-1.605-.086v13.029l1.691-.07c1.415-.05 1.847-.137 2.658-.534zm-1.742-13.132c2.26-.777 3.607-2.865 3.607-5.609 0-3.348-2.002-5.677-5.126-6.005l-1.087-.104v12.183l.95-.12c.534-.052 1.276-.207 1.656-.345zM32.959 63.792c0-.104.587-.173 1.432-.173 1.657 0 2.434-.31 2.968-1.225.328-.57.346-.95.397-10.837.035-6.851-.017-10.544-.138-11.148-.328-1.57-1.294-2.157-3.486-2.157-.673 0-1.173-.07-1.173-.173 0-.12 4.09-.172 11.907-.172h11.907v5.263c0 3.4-.069 5.263-.172 5.263-.087 0-.173-.328-.173-.724-.017-2.123-.95-4.039-2.916-6.006-2.071-2.053-4.245-3.072-7.248-3.382l-1.053-.12v12.683l.915-.121c1.88-.242 2.83-.742 3.762-2.036.587-.811.863-1.674 1-3.227.052-.622.19-1.122.277-1.122.103 0 .19 2.347.224 6.61.035 5.487 0 6.591-.19 6.591-.172 0-.276-.362-.345-1.294-.224-3.02-1.812-4.78-4.538-5.039l-1.105-.103v12.476h.742c2.813-.017 6.368-1.777 8.318-4.124 1.19-1.45 2.157-3.848 2.157-5.401 0-.363.086-.656.173-.656.103 0 .172 1.863.172 5.263v5.263H44.866c-7.817 0-11.907-.051-11.907-.172zM62.815 63.792c0-.104.586-.173 1.432-.173 1.656 0 2.433-.31 2.968-1.225.328-.57.345-.95.397-10.855.034-7.058 0-10.543-.138-11.147-.328-1.553-1.294-2.14-3.486-2.14-.673 0-1.173-.07-1.173-.173 0-.12 2.968-.172 8.541-.172 4.815 0 8.543.069 8.543.155s-.725.173-1.623.224c-1.777.07-2.312.294-2.864 1.226-.328.535-.345.966-.345 12.338v11.77h.742c2.433-.018 5.625-1.399 7.506-3.245 1.778-1.76 2.71-3.59 2.934-5.73.069-.62.207-1.121.293-1.121.104 0 .19 1.881.225 5.229l.034 5.211H74.808c-7.887 0-11.994-.051-11.994-.172zM90.942 63.792c0-.104.587-.173 1.433-.173 1.587 0 2.364-.276 2.95-1.087.363-.483.363-.673.415-11.269.034-10.354.034-10.82-.294-11.544-.448-1.036-1.104-1.346-2.985-1.433-.846-.034-1.519-.138-1.519-.224s3.762-.155 8.542-.155c4.781 0 8.542.069 8.542.155s-.673.19-1.501.224c-1.674.087-2.45.38-2.933 1.122-.294.431-.311 1.346-.363 12.373l-.052 11.89 1.277-.104c2.641-.19 5.626-1.622 7.421-3.572 1.57-1.69 2.347-3.347 2.623-5.59.276-2.21.431-.674.431 4.296v5.263h-11.993c-7.887 0-11.994-.051-11.994-.172zM119.14 63.809c.052-.07.483-.19.949-.242 1.553-.19 3.038-1.208 4.591-3.14 1.311-1.657 1.846-2.779 5.435-11.39 1.83-4.366 3.383-7.955 3.452-7.99.794-.293 3.589-2.26 4.521-3.175.656-.656 1.243-1.173 1.312-1.173.069 0 1.898 4.297 4.072 9.543 2.174 5.228 4.349 10.388 4.849 11.424 1.743 3.693 3.71 5.625 5.971 5.901 2.381.276 0 .397-8.214.397-5.919 0-9.06-.051-9.06-.172 0-.104.466-.173 1.036-.173 1.311 0 2.036-.293 2.726-1.122.88-1.087.88-1.639-.069-3.951l-.811-2.002h-12.511l-.224.638c-.535 1.657.017 3.676 1.346 4.901 1.104 1.018 2.105 1.415 3.848 1.502.811.034 1.536.138 1.639.224.087.086-2.968.155-7.403.155-4.141 0-7.507-.069-7.455-.155zm20.415-7.955c-.242-.898-5.902-14.134-5.988-14.03-.069.086-1.329 3.054-2.813 6.61-1.484 3.554-2.813 6.764-2.968 7.126l-.259.639h6.057c5.954 0 6.057 0 5.971-.345z" fill="#fff"/>
  <path d="M87.077 46.794c-.449-.483-1.19-2.588-2.174-6.16-2.054-7.559-3.227-16.032-3.072-22.451.034-2.002 0-3.055-.12-3.055-.812 0-13.358 3.572-15.497 4.4-1.364.535-2.347.104-1.156-.517 1.225-.639 7.3-2.45 13.2-3.97 3.866-.983 3.884-.983 3.884-1.587 0-.949.673-4.02 1.311-5.902.725-2.174 1.38-3.313 2.174-3.693 1.726-.828 2.813 1.398 3.02 6.23.087 2.14.138 2.45.38 2.381.777-.241 6.713-1.38 8.939-1.708l2.537-.397.207-1.294c.552-3.538 1.725-6.592 3.14-8.093.967-1.036 1.588-1.208 2.399-.708 1.105.69 1.363 3.02.725 6.35-.414 2.244-.621 2.934-1.398 4.97a34.38 34.38 0 01-3.02 5.954l-.949 1.467.104 1.38c.069.76.328 2.658.569 4.228l.466 2.848.224-.863c.915-3.348 1.778-4.936 3.227-5.902.656-.449 1.001-.57 1.692-.57 1.604 0 2.381.742 2.381 2.296 0 1.639-1.329 3.64-3.365 5.038-.518.363-.949.69-.949.708 0 .035.328.242.742.449.621.345.966.397 2.45.38 2.002 0 3.055-.346 4.798-1.502l1.07-.725.224-1.812c.121-1 .414-2.502.656-3.365.638-2.26 1.121-2.864 1.794-2.243.432.397.432.845 0 1.26-.569.517-1.07 2.795-1.104 4.918-.017 1.69.017 1.898.328 2.122.725.535 2.036-.328 3.52-2.312 1.208-1.605 1.829-2.83 2.433-4.797.535-1.692.691-1.968 1.243-1.968.673 0 .569.95-.363 3.469-1.018 2.778-1.673 11.648-1.242 16.894.242 3.02.535 4.366 1.07 4.936.518.552.276 1-.587 1.07-.587.051-.621.034-.88-.777-1.07-3.279-1.363-11.372-.621-16.618.293-1.967.259-2.037-.432-1.225-.776.949-1.932 1.915-2.623 2.191-.31.138-.897.242-1.328.242-.622 0-.863-.104-1.26-.483l-.483-.5-.863.569c-1.881 1.26-4.401 1.932-6.368 1.708-1.829-.19-3.883-1.363-3.624-2.07.052-.122.535-.501 1.087-.83 1.208-.758 2.675-2.294 3.124-3.26.449-.984.449-2.037 0-2.52-1.105-1.174-2.934.449-3.952 3.538-1.053 3.123-1.156 6.73-.293 9.612.397 1.346.431 1.57.224 1.794-.414.397-.984.087-1.329-.707-.172-.397-.517-1.657-.759-2.796a318.175 318.175 0 01-.777-3.538 42.921 42.921 0 01-.448-2.208l-.121-.725-.5.414c-.708.604-2.14 1.242-3.331 1.484a4.934 4.934 0 01-2.554-.103c-.19-.052-.31 0-.31.138 0 .5-1.053 2.416-1.743 3.158-.967 1.052-1.916 1.535-3.003 1.535-2.761 0-3.4-2.588-1.501-6.177 1.553-2.951 4.296-4.539 5.884-3.4 1.053.76 1.536 2.416.95 3.262-.242.362-.242.396.224.569 1.26.483 3.969-.345 5.125-1.553l.517-.535-.31-2.278c-.432-3.313-.656-8.162-.449-9.94.086-.81.138-1.501.104-1.536-.121-.12-5.091.673-7.87 1.26-1.57.328-3.088.656-3.399.708-.518.086-.57.155-.656.897-.431 3.14-1.794 7.248-3.658 10.854-.639 1.295-1.087 2.364-1.087 2.692 0 2.347 2.416 13.098 3.796 16.895.432 1.173.656 1.553.966 1.674.467.19.518.345.208.655-.346.346-1.157.242-1.588-.224zm3.78-15.03c.776-.363 1.587-1.433 2.208-2.9.466-1.121.5-1.277.31-2.019-.224-.862-.12-1.57.26-1.898.224-.172.19-.259-.121-.621-.535-.552-1.001-.5-1.916.207-.966.725-1.898 1.967-2.485 3.296-1.26 2.847-.345 4.935 1.743 3.934zm-6.558-8.094c1.466-3.417 2.467-6.678 2.778-9.008l.104-.88-1.864.431c-1.036.242-1.933.535-2.002.639-.276.414-.138 11.044.12 10.768.035-.034.415-.897.864-1.95zm18.878-9.664c1.243-2.502 1.933-4.417 2.434-6.816.483-2.226.535-4.608.103-5.591l-.276-.673-.587.552c-1.743 1.691-3.123 6.885-3.313 12.442l-.103 3.02.362-.431c.19-.242.811-1.364 1.38-2.503zM85.42 13.3l1.899-.449v-2.088C87.3 7.76 86.8 5.188 86.162 4.998c-.5-.172-1.794 3.193-2.347 6.075-.345 1.76-.465 2.675-.38 2.675.053 0 .933-.208 1.985-.45zM128.442 26.051c-.707-.362-1.259-1.45-1.259-2.484.017-1.899 1.725-4.988 3.485-6.3 2.002-1.466 3.693-1.155 4.522.83.345.81.345 1.12.017 1.76-.362.69-.121.828 1.467.759 1.57-.07 2.537-.5 3.9-1.743.88-.811.966-.846 1.242-.57.259.26.259.31 0 .76-.431.724-2.26 1.88-3.624 2.295-.949.293-1.466.345-2.364.276l-1.156-.104-.535 1.174c-.673 1.415-1.95 2.881-2.899 3.313-.846.397-2.054.397-2.796.034zm2.641-1.104c1.19-.725 2.709-3.745 2.329-4.607-.276-.587-.224-1.45.087-1.916.276-.38.258-.414-.156-.846-.414-.396-.483-.414-1.018-.19-1.864.76-4.245 4.953-3.814 6.73.276 1.157 1.45 1.52 2.572.829z" fill="#fff"/>
</svg>
