<svg width="179" height="45" fill="none" xmlns="http://www.w3.org/2000/svg">
  <path d="M33.586 25.967c-2.068-1.57-5.08-2.539-9.17-2.94 7.54-.894 11.214-4.023 11.214-9.527 0-6.746-5.422-10.166-16.115-10.166H.23a.23.23 0 00-.23.23v.457c0 .127.103.23.23.23 5.49 0 5.98 1.465 5.98 5.654v27.718c0 4.189-.49 5.654-5.98 5.654a.229.229 0 00-.23.229v.457c0 .128.103.23.23.23h20.592c10.694 0 16.116-3.663 16.116-10.885 0-3.226-1.096-5.628-3.352-7.341zM13.207 23.6h6.112c3.385 0 6.008.907 7.797 2.696 1.634 1.634 2.498 3.99 2.498 6.816 0 2.79-.836 5.304-2.355 7.075-1.697 1.978-4.217 3.024-7.286 3.024h-6.766v-19.61zm12.892-3.558c-1.643 1.71-4.166 2.577-7.5 2.577h-5.392V4.315h5.85c3.204 0 5.639.984 7.235 2.923 1.665 2.025 2.015 4.594 2.015 6.392 0 2.73-.743 4.886-2.208 6.412z" fill="#fff"/>
  <path d="M51.441 43.276c-3.668 0-4.673-.808-4.673-3.758V.23a.23.23 0 00-.257-.228L35.66 1.31a.23.23 0 00-.202.227v.393c0 .127.103.23.23.23 3.626 0 4.674.858 4.674 3.823V39.52c0 2.95-1.005 3.758-4.674 3.758a.23.23 0 00-.23.23v.457c0 .128.103.23.23.23h15.755a.23.23 0 00.23-.23v-.457a.23.23 0 00-.23-.23z" fill="#fff"/>
  <path d="M63.428 16.94c-3.284.2-6.377 1.445-8.71 3.506-2.887 2.548-4.412 6.115-4.412 10.313 0 8.578 6.22 13.09 12.385 13.758l.025.001a.23.23 0 00.051-.454c-1.85-.422-3.311-1.642-4.345-3.627-1.192-2.292-1.797-5.548-1.797-9.678 0-4.125.605-7.37 1.799-9.646 1.158-2.211 2.856-3.46 5.046-3.716a.231.231 0 00.201-.249.231.231 0 00-.243-.208zM102.903 20.446c-2.341-2.061-5.43-3.306-8.7-3.508a.23.23 0 00-.04.457c2.166.255 3.849 1.506 5.001 3.72 1.188 2.278 1.789 5.523 1.789 9.644 0 3.908-.545 7.043-1.622 9.32-1.057 2.233-2.601 3.583-4.591 4.01a.23.23 0 00.048.453h.02c3.839-.337 7.073-1.973 9.354-4.73 2.048-2.48 3.176-5.694 3.176-9.053 0-4.193-1.533-7.76-4.435-10.313z" fill="#fff"/>
  <path d="M174.783 16.54c-1.788 0-3.609.894-5.264 2.585-1.211 1.237-2.303 2.874-3.137 4.689v-6.915a.228.228 0 00-.256-.227l-10.787 1.307a.23.23 0 00-.201.229v.392c0 .127.102.23.229.23 3.625 0 4.674.858 4.674 3.823v16.801c0 2.852-.982 3.743-4.193 3.818-3.245-.072-4.183-.914-4.183-3.753V25.333c0-5.466-2.799-8.728-7.486-8.728-4.78 0-8.423 3.503-10.332 5.456-.898-3.474-3.472-5.456-7.122-5.456-4.176 0-7.494 2.674-9.969 5.16V16.9a.23.23 0 00-.258-.227l-10.721 1.307a.23.23 0 00-.201.229v.392c0 .127.102.23.229.23 3.67 0 4.674.808 4.674 3.758v16.931c0 2.95-1.004 3.758-4.674 3.758a.23.23 0 00-.229.23v.457c0 .128.102.23.229.23h15.493c.128 0 .23-.102.23-.23v-.457a.23.23 0 00-.23-.23c-3.472 0-4.477-.843-4.477-3.758V23.007c1.7-1.755 3.823-3.524 6.7-3.524 2.925 0 4.347 1.806 4.347 5.523v14.513c0 2.914-1.004 3.758-4.478 3.758a.23.23 0 00-.229.23v.457c0 .127.102.23.229.23h15.429a.23.23 0 00.229-.23v-.457a.23.23 0 00-.229-.23c-3.566 0-4.543-.808-4.543-3.758V25.333c0-.582-.07-1.168-.133-1.685-.02-.157-.038-.309-.053-.455 1.876-1.937 4.012-3.71 6.886-3.71 2.884 0 4.347 1.858 4.347 5.523v14.513c0 2.914-1.005 3.758-4.478 3.758a.23.23 0 00-.23.23v.457c0 .127.103.23.23.23h30.473a.23.23 0 00.23-.23v-.457a.23.23 0 00-.23-.23c-3.367 0-4.869-.551-4.869-3.823V25.64c.839-1.954 2.502-4.267 4.737-5.136a4.034 4.034 0 00.981 2.849 3.904 3.904 0 002.943 1.359c2.145 0 3.89-1.805 3.89-4.02 0-2-1.32-4.153-4.217-4.153zM88.827 44.116a4.269 4.269 0 01-.736-.43 5.594 5.594 0 01-1.907-2.464c-.398-.987-.647-2.126-.74-3.388-.006-.069-.01-.138-.014-.21a.23.23 0 00-.392-.147 9.012 9.012 0 01-2.72 1.855 8.492 8.492 0 01-1.992.6 8.29 8.29 0 01-1.207.124 7.563 7.563 0 01-.724 0 8.236 8.236 0 01-1.208-.125 8.482 8.482 0 01-1.992-.599 8.969 8.969 0 01-2.716-1.855.228.228 0 00-.391.148l-.015.211c-.094 1.26-.344 2.399-.74 3.385a5.612 5.612 0 01-1.91 2.465c-.22.162-.468.307-.736.429a.229.229 0 00.137.434c.77-.144 1.518-.346 2.225-.601a15.631 15.631 0 002.354-1.074 12.154 12.154 0 001.347-.867c1.153-.683 2.501-1.027 4.008-1.027 1.506 0 2.849.341 3.992 1.018a14.38 14.38 0 001.371.88c.726.41 1.516.77 2.346 1.07.71.255 1.459.457 2.222.601a.23.23 0 00.138-.433zM78.417 25.87l.084.196.047.11c.037.082.12.137.212.137h.004c.094 0 .176-.059.21-.146.04-.105.08-.207.122-.3a16.108 16.108 0 012.352-3.772.229.229 0 00.03-.25 26.439 26.439 0 01-2.433-7.477l-.03-.196a.23.23 0 00-.226-.19h-.002a.23.23 0 00-.225.194l-.018.113c-.022.14-.044.283-.069.424a26.677 26.677 0 01-2.401 7.18.229.229 0 00.027.25 16.053 16.053 0 012.316 3.727z" fill="#fff"/>
  <path d="M78.264 28.888l.112-.487c.037-.154.072-.303.109-.45a14.143 14.143 0 00-.628-1.68 15.529 15.529 0 00-1.94-3.232 15.593 15.593 0 00-1.61-1.763c-1.511-1.422-3.314-2.574-5.361-3.425a16.364 16.364 0 00-2.82-.88.23.23 0 00-.154.43c.34.177.658.39.946.634 1.107.932 1.933 2.16 2.455 3.653.508 1.454.827 3.136.948 4.994.12 1.831.18 3.716.18 5.616.001.025.03.622.413 1.562a9.516 9.516 0 001.303 2.256c.17.214.348.417.526.605a8.332 8.332 0 002.318 1.718l.108-.2.108-.202c1.663-3.173 2.306-6.08 2.831-8.445l.156-.704zM91.65 17.119a.231.231 0 00-.265-.147c-.97.21-1.918.504-2.82.88-2.046.85-3.85 2.002-5.36 3.424a15.742 15.742 0 00-1.573 1.715c-.785.997-1.45 2.1-1.976 3.28a6.314 6.314 0 00-.18.447c-.293.856-.516 1.858-.77 3.007l-.019.078v.002l-.125.566c-.51 2.269-1.187 4.974-2.727 7.917-.034.068-.07.136-.108.203-.033.067-.07.136-.108.203a7.833 7.833 0 001.673.481c.361.067.742.105 1.126.117a7.018 7.018 0 00.671 0c.39-.011.772-.05 1.125-.116a7.609 7.609 0 001.857-.557 8.366 8.366 0 003.227-2.508 9.504 9.504 0 001.302-2.25c.385-.94.413-1.539.415-1.572 0-1.89.06-3.775.177-5.605.122-1.866.44-3.545.948-4.995.523-1.493 1.35-2.723 2.454-3.653.29-.245.608-.458.947-.635a.233.233 0 00.108-.282z" fill="#fff"/>
</svg>
