<svg width="124" height="81" fill="none" xmlns="http://www.w3.org/2000/svg"><path d="M1.574 73.333c0 .311-.236.572-.61.572a.565.565 0 01-.59-.572c0-.333.242-.582.6-.582.364 0 .589.25.6.582zM.436 78.745v-4.23H1.5v4.23H.436zM2.659 75.776c0-.489-.02-.9-.036-1.26h.93l.052.632h.025c.192-.333.652-.732 1.355-.732.738 0 1.504.483 1.504 1.815v2.514H5.42v-2.392c0-.605-.227-1.066-.807-1.066-.428 0-.722.306-.836.627-.033.084-.05.217-.05.34v2.491H2.66v-2.97zM8.806 73.428v1.088h1.019v.799H8.806v1.865c0 .522.139.782.55.782.188 0 .294-.01.416-.044l.016.81c-.155.056-.443.112-.774.112-.397 0-.719-.133-.918-.35-.236-.244-.339-.633-.339-1.188v-1.987h-.6v-.8h.6v-.793l1.05-.294zM11.335 76.93c.027.76.616 1.094 1.301 1.094.497 0 .844-.078 1.174-.195l.156.733c-.364.156-.87.267-1.477.267-1.371 0-2.179-.839-2.179-2.137 0-1.171.71-2.276 2.068-2.276 1.371 0 1.823 1.132 1.823 2.06 0 .199-.02.354-.036.454h-2.83zm1.86-.75c.007-.388-.167-1.032-.878-1.032-.66 0-.938.6-.982 1.033h1.86zM15.062 72.579h1.066v6.166h-1.066V72.58zM17.293 72.579h1.069v6.166h-1.069V72.58zM20.662 73.333c0 .311-.233.572-.608.572a.567.567 0 01-.59-.572c0-.333.244-.582.599-.582.366 0 .591.25.6.582zm-1.137 5.412v-4.23h1.068v4.23h-1.069zM25.578 78.129c0 .883-.18 1.515-.625 1.915-.435.394-1.052.516-1.632.516-.538 0-1.113-.122-1.476-.338l.233-.81c.27.155.722.321 1.235.321.694 0 1.216-.366 1.216-1.276v-.367h-.02c-.241.378-.669.627-1.232.627-1.052 0-1.799-.865-1.799-2.064 0-1.394.905-2.237 1.921-2.237.652 0 1.024.316 1.224.66h.017l.044-.56h.93a18.63 18.63 0 00-.036 1.215v2.398zm-1.07-1.92c0-.106-.007-.2-.032-.289-.114-.388-.417-.683-.87-.683-.598 0-1.042.517-1.042 1.377 0 .721.366 1.304 1.035 1.304.4 0 .746-.26.869-.65.033-.105.041-.255.041-.377v-.683zM27.481 76.93c.025.76.616 1.094 1.302 1.094.494 0 .844-.078 1.174-.195l.155.733c-.366.156-.868.267-1.476.267-1.374 0-2.181-.839-2.181-2.137 0-1.171.713-2.276 2.067-2.276 1.374 0 1.823 1.132 1.823 2.06 0 .199-.016.354-.033.454h-2.83zm1.857-.75c.011-.388-.164-1.032-.877-1.032-.658 0-.938.6-.98 1.033h1.857zM31.206 75.776c0-.489-.017-.9-.033-1.26h.93l.05.632h.027c.191-.333.65-.732 1.354-.732.739 0 1.502.483 1.502 1.815v2.514h-1.069v-2.392c0-.605-.225-1.066-.807-1.066-.425 0-.72.306-.833.627a.941.941 0 00-.053.34v2.491h-1.068v-2.97zM37.356 73.428v1.088h1.016v.799h-1.016v1.865c0 .522.139.782.547.782.191 0 .294-.01.416-.044l.02.81c-.159.056-.445.112-.775.112-.4 0-.721-.133-.921-.35-.233-.244-.34-.633-.34-1.188v-1.987h-.598v-.8h.599v-.793l1.052-.294zM40.977 72.579h1.069v2.508h.017c.13-.2.313-.366.53-.477.216-.122.468-.194.738-.194.721 0 1.476.483 1.476 1.837v2.492H43.74v-2.381c0-.61-.225-1.077-.816-1.077-.416 0-.714.278-.835.6a.985.985 0 00-.042.321v2.537h-1.069V72.58zM46.7 76.93c.028.76.616 1.094 1.304 1.094.494 0 .841-.078 1.172-.195l.155.733c-.363.156-.869.267-1.476.267-1.371 0-2.179-.839-2.179-2.137 0-1.171.71-2.276 2.067-2.276 1.371 0 1.824 1.132 1.824 2.06 0 .199-.017.354-.036.454H46.7zm1.86-.75c.008-.388-.167-1.032-.878-1.032-.66 0-.938.6-.982 1.033h1.86zM53.71 77.73c0 .377.017.754.07 1.015h-.966l-.078-.472h-.024c-.253.333-.697.566-1.252.566-.852 0-1.33-.616-1.33-1.26 0-1.06.947-1.604 2.512-1.598v-.067c0-.277-.114-.738-.86-.738-.416 0-.852.128-1.138.31l-.208-.693c.31-.194.86-.377 1.53-.377 1.353 0 1.745.86 1.745 1.792v1.521zm-1.043-1.055c-.755-.005-1.476.15-1.476.794 0 .416.269.605.608.605a.878.878 0 00.843-.583c.025-.078.025-.156.025-.233v-.583zM54.84 72.579h1.066v6.166H54.84V72.58zM58.295 73.428v1.088h1.016v.799h-1.016v1.865c0 .522.14.782.547.782.192 0 .297-.01.417-.044l.019.81a2.53 2.53 0 01-.774.112c-.4 0-.722-.133-.922-.35-.233-.244-.338-.633-.338-1.188v-1.987h-.6v-.8h.6v-.793l1.051-.294zM60.119 72.579h1.068v2.508h.017c.13-.2.314-.366.53-.477.216-.122.469-.194.738-.194.722 0 1.477.483 1.477 1.837v2.492H62.88v-2.381c0-.61-.224-1.077-.815-1.077-.417 0-.711.278-.833.6a.91.91 0 00-.044.321v2.537h-1.069V72.58zM66.84 77.752c.236.15.697.316 1.077.316.47 0 .68-.2.68-.477 0-.289-.174-.428-.696-.622-.825-.277-1.163-.727-1.163-1.232 0-.744.616-1.321 1.599-1.321.468 0 .876.116 1.126.255l-.216.744a1.907 1.907 0 00-.894-.239c-.383 0-.59.189-.59.45 0 .266.199.388.737.588.775.272 1.121.66 1.13 1.288 0 .771-.6 1.326-1.721 1.326-.51 0-.971-.122-1.285-.294l.217-.782zM74.528 76.591c0 1.555-1.093 2.249-2.17 2.249-1.19 0-2.12-.816-2.12-2.182 0-1.387.913-2.242 2.19-2.242 1.256 0 2.1.888 2.1 2.175zm-3.189.04c0 .82.408 1.437 1.052 1.437.608 0 1.033-.594 1.033-1.454 0-.66-.295-1.421-1.024-1.421-.755 0-1.06.738-1.06 1.438zM75.405 72.579h1.069v6.166h-1.069V72.58zM81.425 77.474c0 .505.017.921.033 1.271h-.93l-.05-.638h-.027c-.184.3-.6.733-1.363.733-.766 0-1.468-.461-1.468-1.843v-2.482h1.068v2.298c0 .705.225 1.155.791 1.155a.87.87 0 00.816-.572.771.771 0 00.061-.327v-2.554h1.069v2.96zM83.803 73.428v1.088h1.016v.799h-1.016v1.865c0 .522.139.782.547.782.191 0 .297-.01.416-.044l.02.81c-.159.056-.445.112-.775.112-.4 0-.719-.133-.918-.35-.236-.244-.34-.633-.34-1.188v-1.987h-.599v-.8h.6v-.793l1.05-.294zM86.764 73.333c0 .311-.233.572-.608.572a.567.567 0 01-.59-.572c0-.333.244-.582.599-.582.366 0 .591.25.6.582zm-1.138 5.412v-4.23h1.069v4.23h-1.069zM91.871 76.591c0 1.555-1.093 2.249-2.17 2.249-1.19 0-2.117-.816-2.117-2.182 0-1.387.91-2.242 2.186-2.242 1.26 0 2.101.888 2.101 2.175zm-3.186.04c0 .82.408 1.437 1.052 1.437.608 0 1.032-.594 1.032-1.454 0-.66-.294-1.421-1.024-1.421-.757 0-1.06.738-1.06 1.438zM92.75 75.776c0-.489-.019-.9-.035-1.26h.93l.052.632h.025c.192-.333.652-.732 1.354-.732.739 0 1.505.483 1.505 1.815v2.514h-1.069v-2.392c0-.605-.227-1.066-.808-1.066-.427 0-.721.306-.835.627a1.012 1.012 0 00-.052.34v2.491H92.75v-2.97zM97.674 77.752c.233.15.694.316 1.077.316.469 0 .677-.2.677-.477 0-.289-.175-.428-.694-.622-.827-.277-1.165-.727-1.165-1.232 0-.744.618-1.321 1.598-1.321.47 0 .877.116 1.13.255l-.217.744a1.93 1.93 0 00-.896-.239c-.38 0-.588.189-.588.45 0 .266.2.388.738.588.771.272 1.118.66 1.126 1.288 0 .771-.599 1.326-1.717 1.326-.514 0-.975-.122-1.285-.294l.216-.782z" fill="#fff"/><path fill-rule="evenodd" clip-rule="evenodd" d="M109.192 19.064c.577-1.153 1.404-2.554 1.853-3.855.95-2.734 1.707-4.963 2.318-10.417L113.524 0l2.212 4.253c2.503 4.815 4.451 8.043 5.786 10.909 1.393 2.977 2.168 5.699 2.218 9.266-.217 3.09-2.157 8.216-8.698 8.126-5.753-.446-8.262-5.014-7.405-9.241.389-1.682.95-3.03 1.555-4.25zm-8.926 27.171v17.529H88.785v-.366c-.47.1-.938.172-1.41.216-1.174.1-2.354.15-3.528.15-2.206 0-4.337-.444-6.336-1.315a18.548 18.548 0 01-5.167-3.553 18.683 18.683 0 01-3.555-5.167 15.79 15.79 0 01-1.313-6.34V26.486h11.481V47.39c0 .55.125 1.099.403 1.676a6.67 6.67 0 001.14 1.67 6.612 6.612 0 001.671 1.144c.577.278 1.13.4 1.676.4.544 0 1.11-.133 1.685-.406a5.746 5.746 0 001.66-1.137c.499-.5.896-1.055 1.19-1.67.275-.578.403-1.128.403-1.677V26.485h11.481v19.75zm-35.804 5.823v11.484h-6.297s-4.724-.4-6.886-1.305a18.744 18.744 0 01-5.58-3.757 18.77 18.77 0 01-3.761-5.584c-.9-2.16-1.352-4.474-1.352-6.883V15.11H34.72l5.545-9.27h10.951l.855.05V46.012c0 .855.164 1.638.477 2.365a7.02 7.02 0 001.308 1.943c.58.549 1.235.988 1.965 1.315.721.31 1.495.472 2.345.472l6.297-.05zm-43.042-.489a7.428 7.428 0 002.253-1.537 7.143 7.143 0 001.546-2.281c.375-.85.575-1.788.575-2.798 0-1.016-.206-1.947-.575-2.752a6.79 6.79 0 00-1.546-2.284 6.683 6.683 0 00-2.273-1.543 6.807 6.807 0 00-2.761-.579 6.88 6.88 0 00-2.798.575c-.84.358-1.61.873-2.28 1.547a7.46 7.46 0 00-1.555 2.295c-.341.814-.522 1.72-.522 2.741 0 1.021.18 1.943.528 2.798.391.849.904 1.61 1.548 2.28a8.426 8.426 0 002.25 1.538c.861.35 1.8.539 2.829.539.994 0 1.915-.183 2.78-.539zm4.437-23.763c2.27.957 4.255 2.295 5.937 4.016 1.71 1.679 3.036 3.65 3.99 5.911.97 2.262 1.447 4.67 1.447 7.22 0 2.548-.48 4.979-1.446 7.266a18.82 18.82 0 01-4.002 5.922c-1.68 1.682-3.66 3.014-5.915 3.997-2.261.971-4.681 1.454-7.229 1.454-2.545 0-4.982-.483-7.271-1.449-2.254-.988-4.246-2.325-5.926-4.007a20.102 20.102 0 01-3.99-5.907C.485 49.944 0 47.502 0 44.954V8.251h11.484v19.523a18.863 18.863 0 011.865-.665 18.41 18.41 0 015.29-.75c2.548 0 4.957.475 7.218 1.447z" fill="#fff"/></svg>