<svg width="118" height="84" fill="none" xmlns="http://www.w3.org/2000/svg"><path d="M97.273.968c-3.87.408-7.174 1.747-10.043 4.062-.746.6-1.939 1.785-2.576 2.557-2.207 2.678-3.603 5.905-4.069 9.412-.101.784-.101 3.73.007 4.495.453 3.29 1.683 6.3 3.622 8.85.618.817 2.212 2.456 3.016 3.1 2.002 1.613 4.572 2.914 6.931 3.507 1.779.452 2.87.574 4.897.548 1.958-.02 2.889-.147 4.687-.65 5.005-1.384 9.252-4.955 11.516-9.68.854-1.785 1.352-3.443 1.664-5.522.134-.918.153-3.539.032-4.52-.517-4.165-2.283-7.825-5.178-10.713-1.128-1.135-1.875-1.747-3.041-2.506a18.072 18.072 0 00-7.799-2.85c-.631-.07-3.226-.134-3.666-.09zm3.596 6.236c3.144.587 5.809 2.239 7.696 4.77 1.078 1.447 1.779 3.042 2.207 5.025.127.593.146.848.146 2.231 0 1.39-.019 1.645-.153 2.296-.516 2.519-1.645 4.623-3.424 6.396-1.364 1.351-2.959 2.308-4.91 2.952-1.288.42-1.906.504-3.692.504-1.479-.007-1.651-.02-2.397-.179-.944-.198-1.824-.497-2.812-.95-3.954-1.805-6.645-5.758-6.931-10.183-.32-4.942 2.301-9.527 6.688-11.714 1.218-.6 2.34-.956 3.858-1.211.683-.115 2.984-.077 3.724.063z" fill="#fff"/><path d="M97.547 12.216c-1.173.198-2.653.938-3.577 1.786-1.148 1.045-1.97 2.576-2.213 4.093-.115.695-.05 2.226.121 2.889.306 1.224.938 2.315 1.913 3.284.683.688 1.078.963 2.015 1.409 1.071.51 1.505.6 2.965.6 1.16 0 1.288-.013 1.881-.18a8.395 8.395 0 001.04-.363c1.052-.49 2.225-1.473 2.901-2.435.587-.83 1.039-1.933 1.192-2.863.122-.74.051-2.322-.121-2.96-.746-2.69-2.812-4.635-5.522-5.202-.606-.128-1.996-.16-2.595-.058zM43.188 1.312c-1.741.25-3.119 1.033-3.967 2.264-.573.829-.905 1.715-1.122 3.01-.09.535-.102.956-.083 2.327.026 1.569.038 1.716.198 2.315.555 2.072 1.779 3.322 3.75 3.82 1.778.452 4.47.465 6.05.025.798-.217 1.142-.396 1.244-.644.076-.191.606-2.2.606-2.315 0-.019-.096.026-.204.096-.663.433-1.939.969-2.602 1.09-1.218.223-2.57.185-3.163-.09-.433-.197-.912-.643-1.135-1.058-.3-.554-.93-2.588-.93-3.016 0-.102.242-.108 4.265-.108h4.26l.038-.561c.057-.861-.051-2.519-.21-3.144-.721-2.812-2.309-3.96-5.612-4.042-.542-.013-1.167 0-1.383.031zm2.27 1.85c1.032.19 1.779.969 2.11 2.18.102.383.255 1.371.255 1.69 0 .064-.644.083-3.01.083H41.81l.038-.625c.122-1.824.823-2.971 2.01-3.296.363-.103 1.153-.122 1.6-.032zM56.431 1.312c-1.205.173-2.397.702-3.162 1.422-1.352 1.263-1.9 2.755-1.983 5.401-.09 3.016.465 4.757 1.913 5.937 1.109.905 2.697 1.3 5.21 1.3 1.714 0 2.786-.172 3.73-.599.363-.166.414-.21.471-.433.262-.995.561-2.251.536-2.251a.705.705 0 00-.198.12c-.325.23-1.364.715-1.913.893-.74.25-1.524.345-2.563.32-.81-.026-.886-.039-1.288-.23-.804-.376-1.173-.9-1.613-2.251-.198-.612-.472-1.69-.479-1.868 0-.026 1.92-.045 4.266-.045h4.266l.038-.147c.02-.076.038-.586.038-1.128 0-2.449-.567-4.132-1.747-5.216-.63-.574-1.364-.893-2.595-1.129-.637-.121-2.34-.178-2.927-.096zm2.647 1.939c.797.255 1.415.93 1.715 1.881.166.523.35 1.824.268 1.9-.026.026-1.378.058-3.016.07l-2.965.026.038-.53c.166-2.027.835-3.111 2.123-3.436.338-.083 1.454-.032 1.837.089zM6.332 1.376c-1.225.153-2.36.612-3.036 1.212-.873.784-1.466 1.977-1.747 3.532-.16.874-.153 3.354 0 4.215.32 1.71.957 2.984 1.881 3.756 1.416 1.18 4.732 1.505 8.162.803.727-.153.83-.204.874-.465.05-.274.204-1.983.185-2.015-.013-.013-.294.096-.631.242a9.151 9.151 0 01-3.476.714c-.535.007-.816-.019-1.052-.102-1.282-.44-1.817-1.524-2.015-4.087-.16-2.117.109-4.017.702-4.897.248-.376.758-.759 1.186-.9.325-.108.567-.127 1.626-.127 1.186 0 1.281.007 2.046.204.44.109.957.262 1.148.332.191.076.364.134.383.134.07 0-.3-1.951-.383-2.002-.076-.051-1.613-.351-2.302-.453-.81-.121-2.914-.172-3.551-.096zM18.874 1.35c-.771.097-1.524.256-2.104.447-.759.255-1.62.689-1.792.906-.153.197-.733 2.69-.618 2.69.032 0 .223-.152.42-.344.46-.433 1.27-1.014 1.76-1.262.83-.421 2.557-.683 3.712-.561 1.224.127 1.995.803 2.002 1.747 0 .484-.166.841-.561 1.192-.555.497-1.135.689-2.691.893-1.811.236-2.678.465-3.603.937-.893.46-1.702 1.511-1.881 2.43-.083.452-.083 1.51.006 1.932.115.548.491 1.25.887 1.645.937.95 2.818 1.434 4.7 1.218 1.185-.14 1.957-.428 2.652-.995l.363-.293V15.277h3.954v-5.025c0-2.824-.026-5.254-.064-5.56-.09-.797-.357-1.307-1.033-1.951-.453-.434-.619-.542-1.135-.765a7 7 0 00-1.881-.536c-.466-.07-2.704-.134-3.093-.09zm3.252 8.711c0 1.754-.032 1.881-.484 2.277-.294.261-1.014.605-1.57.752-.477.121-1.861.14-2.256.032a1.575 1.575 0 01-.88-.638c-.377-.529-.274-1.486.216-2.015.434-.465 1.174-.746 2.628-.994.414-.07.924-.185 1.135-.25.414-.127.988-.465 1.045-.611.02-.051.064-.096.102-.096.039 0 .064.523.064 1.543zM27.674 8.295v6.982H31.627v-4.164c0-2.282.026-4.393.064-4.686.14-1.218 1.084-2.302 2.518-2.889.472-.198.574-.21 1.397-.236.53-.013 1.04.006 1.269.051.204.038.382.064.389.051.012-.013-.058-.472-.14-1.02l-.166-1.008-.217-.038c-.427-.083-2.06.02-2.595.16-.734.19-1.614.644-2.066 1.058-.204.191-.39.35-.415.35-.019 0-.038-.356-.038-.796v-.797H27.674v6.982zM64.88 1.383c-.019.05-.025 3.188-.019 6.976l.02 6.886 1.963.02 1.958.012V6.42l.178-.504c.415-1.16 1.371-2.034 2.749-2.5.331-.108.56-.133 1.243-.14.46 0 .97.026 1.142.064.165.032.312.045.325.02.025-.045-.249-1.805-.306-1.958-.039-.096-.153-.102-1.206-.07-1.205.032-1.383.064-2.295.408-.485.178-1.256.663-1.537.963-.102.108-.21.185-.242.166-.026-.02-.051-.364-.051-.766v-.727h-.497c-.275 0-1.155-.019-1.945-.044-1.212-.032-1.448-.026-1.48.05zM67.546 16.833c-.848.21-1.652.829-1.952 1.505-.178.408-.216 1.058-.076 1.48.223.694.918 1.357 1.747 1.663.28.109.491.134.963.134.931-.012 1.613-.3 2.194-.912.459-.49.58-.816.58-1.504 0-.696-.134-1.002-.657-1.57-.67-.726-1.779-1.038-2.8-.796zM10.687 17.196c-.02.217-.039 1.512-.039 2.876 0 2.334-.006 2.48-.108 2.449-.064-.02-.427-.115-.816-.21-.663-.166-.784-.173-2.136-.173-1.288 0-1.486.013-1.945.14-1.792.498-3.054 1.741-3.622 3.552-.312.995-.389 1.658-.389 3.252.006 2.627.319 4.01 1.212 5.37.637.962 1.498 1.587 2.576 1.867.74.192 1.88.281 2.576.198.72-.083 1.135-.223 1.983-.663l.657-.344.032.312c.025.172.057.338.076.37.026.038 1.008.064 2.62.064h2.577V16.808h-5.21l-.044.388zm-.753 8.315l.714.313-.012 3.411-.02 3.405-.401.249c-.682.42-1.078.516-1.926.478-.905-.038-1.23-.146-1.69-.567-.408-.377-.688-.893-.841-1.582-.16-.714-.166-3.424 0-4.017.395-1.46 1.23-2.066 2.786-2.021.638.025.702.038 1.39.331zM34.063 26.512l.019 9.712 2.665.019 2.66.013v-.906l.19.16c.938.79 2.303 1.154 3.788 1 1.352-.133 2.27-.516 3.06-1.268.913-.88 1.41-1.881 1.773-3.577.128-.613.14-.849.14-2.679.007-1.715-.012-2.091-.108-2.55-.178-.83-.357-1.39-.599-1.9-.523-1.11-1.83-1.932-3.666-2.315-1.155-.236-2.819-.083-4.158.383-.21.076-.389.134-.402.134-.006 0-.019-1.333-.019-2.966v-2.965H34.05l.013 9.705zm8.34-1.288c.874.14 1.473.619 1.715 1.358.255.797.294 1.123.294 2.532-.007 2.742-.408 3.692-1.76 4.145-.35.12-.517.133-1.173.114-.823-.025-1.04-.095-1.767-.554l-.306-.198v-6.804l.561-.242c.931-.408 1.518-.491 2.436-.35zM55.794 22.144c-1.734.122-3.316.498-4.413 1.046-.414.21-.325 0-.886 2.117-.185.689-.319 1.275-.3 1.295.026.019.21-.096.421-.25.765-.56 2.085-1.102 3.074-1.268.261-.038 1.065-.077 1.785-.077l1.307-.006.428.21c.669.326.969.785.847 1.27-.063.28-.663.81-1.186 1.058-.484.23-.93.344-2.078.523-2.124.331-3.73 1.007-4.496 1.874-.573.657-.816 1.397-.816 2.494 0 .79.102 1.25.421 1.855.772 1.467 2.889 2.391 4.98 2.162.727-.077 1.492-.255 1.817-.421.345-.172.982-.644 1.16-.855l.167-.203v1.3l2.614-.025c2.245-.02 2.627-.032 2.678-.115.077-.121.083-8.328.007-9.705-.058-.982-.064-1.02-.3-1.498-.191-.39-.37-.625-.816-1.078-1.129-1.129-2.175-1.511-4.636-1.684-.542-.038-1.116-.063-1.275-.05-.153.012-.383.025-.504.031zm2.13 9.954c-.058.153-.249.427-.434.612-.568.58-1.282.816-2.493.83-.83.005-.995-.04-1.301-.37-.121-.128-.166-.256-.185-.536-.076-1.097.491-1.594 2.194-1.894.912-.166 1.932-.58 2.193-.893.153-.185.172 1.862.026 2.251zM17.956 22.553c-.051.248-.038 6.261.02 8.793l.037 1.88.262.543c.759 1.568 1.773 2.27 3.781 2.62.81.14 1.537.134 2.8-.044.937-.128 2.371-.638 2.945-1.046l.192-.134V36.256l1.963-.013 1.958-.02.02-6.937.012-6.931h-3.87l-.045.198c-.02.108-.038 2.212-.038 4.674v4.47l-.268.542c-.204.395-.345.593-.549.745-.81.613-2.41.619-3.207 0a1.978 1.978 0 01-.453-.535l-.191-.332-.032-4.884-.038-4.878H18l-.045.198zM65.55 29.305v6.95l2.665-.012 2.66-.02.018-6.937.013-6.931H65.55v6.95zM29.459 43.722v1.665l-.14-.039c-.708-.197-.925-.242-1.467-.274-1.709-.102-2.787.606-3.156 2.066-.153.593-.147 2.583 0 3.271.216.97.765 1.754 1.46 2.073.956.433 2.136.459 2.933.057.166-.083.319-.153.338-.153.02 0 .032.083.032.191v.192h2.104V42.058H29.46v1.664zm-.345 2.583l.345.153v4.713l-.185.127c-.376.267-.727.389-1.16.389-.549 0-.798-.09-1.123-.402-.497-.478-.657-1.065-.663-2.436-.013-1.294.166-1.977.625-2.404.414-.382 1.454-.453 2.162-.14zM39.98 47.414v5.356h2.105v-4.737c0-2.602-.02-5.012-.045-5.356l-.038-.619H39.98v5.356zM43.583 42.148c-.689.305-.893 1.39-.363 1.97.401.446 1.294.49 1.721.09.587-.55.491-1.64-.178-2.016-.28-.16-.874-.178-1.18-.044zM99.192 42.198c-.02.083-.038 2.493-.038 5.357v5.215h2.091l.045-.465c.019-.249.032-2.653.019-5.337l-.019-4.878-1.027-.02c-1.026-.012-1.033-.012-1.07.128zM103.362 43.55v1.492l-.733.045-.733.044v.931l.727.045.727.045.025 2.557c.019 2.531.019 2.57.166 2.863.223.446.701.854 1.199 1.007.484.147 1.594.268 1.944.217l.249-.045V51.692l-.236-.037c-.504-.083-.574-.102-.765-.224-.376-.23-.383-.255-.434-2.92l-.044-2.436h1.479v-.956h-1.466v-3.061h-2.105v1.492zM86.592 45.049c-1.07.153-1.798.56-2.117 1.186-.185.35-.223 1.052-.089 1.51.077.262.172.415.383.613.414.383.714.51 1.913.81 1.721.427 1.95.587 1.95 1.352 0 .478-.14.867-.369 1.013-.676.447-2.117.351-3.411-.216-.198-.09-.383-.147-.396-.128-.019.02.026.294.102.619.153.682.185.708.887.867 1.096.249 2.895.236 3.66-.032 1.173-.402 1.696-1.122 1.702-2.334 0-.727-.09-1.04-.395-1.39-.325-.363-.83-.625-1.78-.899-1.676-.49-1.848-.548-2.02-.695-.3-.255-.198-.835.178-1.027.606-.318 2.276-.236 3.328.16.205.076.383.127.396.115a5.09 5.09 0 00-.153-.593c-.192-.657-.204-.67-.97-.836-.535-.114-2.257-.172-2.799-.095zM109.611 45.055c-1.639.153-2.512.963-2.404 2.238.07.804.402 1.237 1.174 1.524.191.07.841.262 1.441.421 1.211.319 1.415.408 1.606.727.185.319.173.905-.031 1.262-.249.447-.562.555-1.531.549-.88-.007-1.301-.09-2.015-.408-.236-.109-.44-.179-.459-.16-.038.039.07.683.179 1.065.063.23.07.236.656.37.9.21 1.62.268 2.564.191.459-.032.944-.095 1.084-.134.37-.102.95-.408 1.199-.63.593-.517.835-1.952.471-2.813-.235-.574-.899-.937-2.48-1.37-1.294-.358-1.543-.466-1.677-.728-.185-.363.064-.803.542-.943.695-.205 1.996-.122 2.889.184.312.109.58.185.593.166.044-.044-.294-1.084-.383-1.173-.242-.255-2.213-.453-3.418-.338zM14.385 45.157c-1.16.28-1.932 1.078-2.283 2.379-.197.714-.197 2.372.007 3.099.306 1.135.918 1.728 2.11 2.053.587.16 2.59.16 3.189 0 .612-.166.707-.262.873-.848.224-.83.23-.823-.344-.53-.657.332-1.129.44-1.881.44-1.052 0-1.326-.216-1.715-1.351-.134-.396-.249-.797-.249-.9v-.172H18.766l-.038-.911c-.02-.53-.077-1.059-.14-1.282-.32-1.154-1.008-1.78-2.175-1.983-.638-.115-1.543-.115-2.028.006zm1.773.989c.35.089.701.376.873.707.135.268.313.976.313 1.276v.178h-3.272l.04-.504c.088-1.307.88-1.95 2.046-1.657zM34.93 45.157c-1.218.294-2.021 1.135-2.327 2.449-.166.688-.16 2.487 0 3.029.484 1.581 1.53 2.2 3.71 2.2 1.365 0 2.2-.211 2.354-.587.12-.293.312-1.135.274-1.173-.02-.02-.14.031-.28.12a5.03 5.03 0 01-.69.332c-.414.172-.51.185-1.313.192-.816 0-.873-.007-1.09-.16a1.538 1.538 0 01-.396-.414c-.159-.243-.49-1.167-.567-1.614l-.038-.204h2.085c1.148 0 2.193-.019 2.327-.038l.236-.044v-.836c0-.548-.032-.969-.096-1.218-.23-.867-.841-1.62-1.536-1.874-.644-.243-1.983-.326-2.653-.16zm2.079 1.135c.446.262.733.83.829 1.645l.038.37h-1.62c-1.007 0-1.638-.025-1.664-.064-.064-.102.09-1.013.217-1.3.147-.326.408-.593.74-.753.376-.178 1.065-.127 1.46.102zM55.188 45.17c-1.218.37-1.907 1.097-2.245 2.372-.146.536-.159 2.461-.025 2.997.274 1.116.918 1.785 2.047 2.136.459.14 2.225.204 2.844.102.637-.108 1.039-.255 1.135-.408.095-.16.376-1.256.331-1.3-.012-.02-.14.044-.274.133-.134.096-.472.249-.752.338-.44.147-.619.172-1.308.172-.911.007-1.09-.05-1.396-.472-.178-.242-.53-1.198-.612-1.677l-.045-.236h4.661l.045-.23c.051-.28-.013-1.3-.108-1.765-.179-.823-.657-1.524-1.276-1.856-.478-.261-.886-.35-1.81-.389-.69-.025-.893-.013-1.212.083zm2.11 1.103c.479.249.804.893.861 1.722l.026.28-1.645.02-1.639.012v-.236c.006-.644.338-1.485.689-1.728.452-.319 1.173-.344 1.708-.07zM63.917 45.144c-.484.109-1.07.396-1.3.625-.096.096-.192.153-.217.134-.02-.025-.038-.21-.038-.414v-.37h-2.168v7.651H62.349l.025-2.505.026-2.5.178-.338c.447-.88 1.492-1.384 2.52-1.218.19.032.363.045.369.032.038-.032-.147-1.052-.191-1.103-.083-.083-.982-.077-1.358.006zM75.338 45.1c-.517.07-1.18.357-1.53.663l-.224.197v-.841h-2.231l.012 3.806.02 3.814 1.102.019 1.097.012v-4.979l.166-.32a2.191 2.191 0 011.04-1.039c.44-.197 1.09-.293 1.523-.223.166.026.313.032.326.02.012-.014-.007-.269-.051-.562-.077-.523-.09-.535-.275-.574-.204-.038-.65-.038-.975.007zM79.642 45.125c-.53.09-1.224.447-1.594.823-.357.35-.702 1-.861 1.626-.115.453-.134 2.289-.026 2.876.096.522.415 1.141.772 1.492.72.708 2.091 1.052 3.596.892.778-.083 1.34-.216 1.556-.376.166-.121.434-.867.44-1.23l.006-.179-.401.223c-.561.306-1.27.478-1.983.478-.702 0-1.04-.14-1.352-.548-.217-.287-.555-1.256-.561-1.62l-.007-.223 2.315-.019 2.308-.013V48.6c0-1.925-.656-3.028-2.015-3.386-.459-.12-1.734-.172-2.193-.089zm1.817 1.103c.383.179.555.358.727.74.147.332.293 1.103.236 1.243-.032.083-.28.096-1.664.096h-1.633l.039-.338c.114-.97.478-1.607 1.02-1.798.395-.14.905-.121 1.275.057zM1.715 45.992c.86 2.443 2.487 6.798 2.557 6.868.07.07.006.217 1.282-2.92.554-1.365 1.033-2.506 1.065-2.538.031-.032.497.988 1.128 2.48.587 1.397 1.135 2.666 1.218 2.825.128.249.147.274.191.16.185-.466 2.493-7.659 2.468-7.697-.013-.032-.306-.051-.644-.051h-.619l-.535 1.569-.542 1.568-.16-.312a45.946 45.946 0 01-.675-1.55l-.523-1.243-1.154-.02c-.638-.006-1.161.007-1.161.026 0 .026.045.198.108.383l.102.338-.242.593c-.134.325-.37.892-.53 1.25-.337.784-.229.924-.936-1.161l-.498-1.441H1.41l.306.873zM43.054 48.925l.019 3.814 1.071.019 1.065.012V45.12h-2.168l.013 3.806zM45.592 45.17c0 .025.548 1.294 1.218 2.818.669 1.524 1.434 3.271 1.696 3.87.267.607.51 1.104.542 1.104.032 0 .204-.306.376-.676.395-.842 3.118-7.065 3.118-7.123 0-.025-.293-.044-.657-.044h-.65l-.504 1.16c-.28.644-.682 1.537-.893 1.99l-.382.816-.294-.625c-.159-.35-.56-1.243-.892-1.99l-.593-1.351H46.63c-.568 0-1.04.019-1.04.05zM91.566 48.205v3.086l.198.37c.255.491.452.695.886.906.331.166.395.172 1.307.172 1.052 0 1.473-.083 2.194-.415a4.85 4.85 0 01.427-.19c.013 0 .025.146.025.318v.325l.785-.019.778-.02.019-3.812.012-3.807h-1.574l-.039 1.16a88.638 88.638 0 00-.044 2.838v1.677l-.268.3c-.364.389-.727.548-1.263.542-.516-.007-.835-.134-1.065-.44l-.178-.23-.02-2.927-.018-2.92h-2.162v3.086zM114.649 51.655v1.115h2.487V50.54h-2.487v1.116zM1.403 59.976v.893h116.179v-1.786H1.402v.893zM6.478 68.208c-2.875.42-4.859 2.442-5.432 5.54-.16.843-.16 2.858 0 3.693.497 2.678 2.027 4.584 4.246 5.286.855.268 1.09.3 2.328.3 1.358 0 1.798-.07 2.773-.434 1.142-.434 2.27-1.269 2.423-1.81a1.127 1.127 0 00-.216-1.079c-.204-.235-.23-.248-.6-.248s-.408.013-1.045.453c-1.295.892-1.958 1.122-3.24 1.122-2.149-.007-3.526-.995-4.138-2.978-.44-1.422-.427-3.628.032-4.993.255-.765.523-1.211 1.046-1.74.841-.861 1.81-1.187 3.309-1.123 1.18.045 1.964.338 3.035 1.135.466.345.689.44 1.027.44.268 0 .325-.025.542-.255.44-.459.402-1.129-.096-1.62-.81-.81-2.314-1.498-3.698-1.69-.568-.082-1.747-.076-2.296 0zM13.722 68.272c-.408.204-.612.51-.612.912.006.287.325 1.032 2.907 6.797 2.156 4.814 2.953 6.523 3.1 6.676.127.128.337.242.554.306.32.096.383.096.689.007a1.31 1.31 0 00.561-.32c.166-.172.848-1.632 3.112-6.65 3.175-7.052 3.105-6.874 2.793-7.346-.172-.261-.606-.516-.88-.516-.466 0-.855.268-1.103.765-.083.16-1.174 2.627-2.43 5.484-1.256 2.856-2.302 5.216-2.327 5.241-.02.032-1.11-2.372-2.417-5.324-1.307-2.959-2.436-5.49-2.519-5.63-.274-.492-.892-.664-1.428-.402zM33.33 68.208c-.294.045-.536.217-.734.51-.121.179-.146.274-.121.536.026.331 4.463 12.874 4.687 13.256.178.3.605.517 1.04.51.42-.006.694-.14.95-.471.12-.153.739-1.811 1.982-5.306.995-2.792 1.83-5.062 1.85-5.037.025.026.847 2.328 1.836 5.114.982 2.787 1.843 5.14 1.906 5.229.485.65 1.518.65 2.009-.013.064-.09 1.148-3.06 2.41-6.612 2.436-6.868 2.423-6.83 2.168-7.25-.357-.587-1.358-.664-1.772-.128-.07.083-.957 2.538-1.97 5.445-1.014 2.915-1.863 5.28-1.888 5.255-.02-.026-.855-2.366-1.843-5.203-.995-2.838-1.862-5.248-1.938-5.357-.453-.682-1.582-.586-1.926.166-.07.147-.944 2.563-1.938 5.363-1.454 4.1-1.818 5.063-1.862 4.941-.032-.083-.855-2.455-1.83-5.273-.982-2.818-1.824-5.19-1.881-5.273-.205-.313-.69-.485-1.136-.402zM110.721 68.227c-2.277.37-3.998 1.696-4.891 3.762-.95 2.2-.88 5.522.153 7.575.631 1.257 1.537 2.162 2.767 2.78 1.04.524 1.996.715 3.501.715 2.193-.007 4.349-.523 4.897-1.18.217-.261.242-.618.242-3.392 0-3.042 0-3.022-.44-3.316-.216-.147-.235-.147-2.41-.147-2.442 0-2.512.013-2.761.415-.178.287-.172.759.013 1.027.287.42.37.44 2.015.459l1.479.025-.013 1.824-.019 1.83-.331.108c-.708.224-1.556.332-2.634.332-.905 0-1.122-.02-1.562-.14-.854-.25-1.288-.491-1.817-1.027-.963-.97-1.403-2.321-1.403-4.31.006-1.888.459-3.284 1.371-4.209.803-.816 1.798-1.18 3.214-1.18 1.262 0 2.104.287 3.309 1.129.523.364.657.427.944.453.382.032.586-.077.79-.402.166-.268.173-.784.007-1.103-.357-.695-1.76-1.543-3.131-1.894-.561-.14-.842-.172-1.722-.198-.682-.012-1.23.007-1.568.064zM69.51 68.342a1.016 1.016 0 00-.434.433l-.147.275v6.542c0 6.243.007 6.555.122 6.804.357.784 1.536.835 2.002.089l.14-.223.02-6.345c.012-3.488 0-6.491-.02-6.676-.076-.612-.446-.982-1.033-1.027-.3-.019-.427.007-.65.128zM86.497 68.33c-.14.07-.326.229-.415.363l-.16.236v6.663c0 6.612 0 6.67.135 6.893.395.682 1.53.689 1.945.02l.153-.243.019-6.44c.012-4.496 0-6.536-.051-6.766-.153-.714-.944-1.065-1.626-.727zM91.598 68.291c-.243.109-.383.261-.51.568-.083.204-.096 1.026-.096 6.72 0 4.062.025 6.575.064 6.715.032.127.166.325.287.446.204.198.267.223.656.242.364.02.46 0 .644-.127a1.38 1.38 0 00.351-.37c.134-.217.134-.325.166-5.178l.032-4.96 3.89 5.203c4.24 5.681 4.042 5.445 4.705 5.445.434 0 .721-.178.925-.574l.14-.28V69.056l-.14-.28c-.223-.427-.421-.542-.944-.542-.497 0-.701.108-.924.484-.122.21-.128.364-.16 5.184l-.032 4.968-3.883-5.204c-3.418-4.59-3.909-5.222-4.145-5.337-.306-.146-.746-.165-1.026-.038zM56.138 68.323c-.28.07-.58.3-.714.536-.102.19-.108.656-.108 6.771 0 6.294.006 6.58.12 6.81.065.128.205.3.313.377.21.146.676.216 1.027.153.331-.064.65-.421.733-.81.045-.198.07-1.27.07-2.736v-2.423h1.231c.676 0 1.403.032 1.613.07.498.09.938.338 1.237.689.134.166.868 1.282 1.626 2.493.765 1.212 1.492 2.302 1.614 2.43.81.867 2.225.032 1.772-1.046-.083-.204-1.97-3.207-2.525-4.03-.172-.242-.42-.561-.567-.695l-.262-.255.472-.172c1.173-.427 1.97-1.23 2.378-2.398.16-.459.173-.574.179-1.486 0-.86-.02-1.052-.147-1.466-.28-.9-.74-1.518-1.466-1.996-.555-.363-.989-.542-1.703-.701-.523-.115-.848-.128-3.634-.147-1.684-.013-3.15.006-3.259.032zm6.338 2.072c.753.192 1.212.549 1.492 1.154.128.275.147.421.147 1.084 0 .689-.019.797-.166 1.116-.274.574-.644.874-1.396 1.123-.306.095-.657.114-2.659.14l-2.315.025v-4.814l2.251.038c1.735.026 2.334.058 2.646.134zM73.074 68.342c-.816.23-.956 1.397-.217 1.817.243.14.293.147 2.404.147h2.149v5.93c0 6.523-.02 6.21.395 6.523.555.427 1.378.294 1.728-.274l.14-.223.02-5.981.013-5.975h2.11c2.251 0 2.366-.013 2.653-.325.261-.28.3-.861.095-1.25a1.161 1.161 0 00-.312-.287l-.242-.147-5.357-.012c-3.43-.007-5.439.012-5.579.057z" fill="#fff"/></svg>