<svg width="166" height="34" fill="none" xmlns="http://www.w3.org/2000/svg"><path d="M29.157 17.364c-.434.714-.883 1.419-1.317 2.133-.416.686-.822 1.38-1.233 2.07-.04.069-.076.143-.129.203-.342.385-.592.787-.661 1.335-.087.694-.492 1.286-.888 1.853-.498.712-1.098 1.341-1.675 1.99a38.191 38.191 0 00-1.513 1.81c-.174.223-.264.511-.397.768-.025.048-.067.087-.17.217.01-.164.004-.221.017-.274.18-.756.604-1.376 1.088-1.963.602-.732 1.206-1.462 1.804-2.196.12-.148.222-.311.284-.508l.002-.006.011-.031c-.053.046-.113.087-.16.14-.854.952-1.88 1.702-2.9 2.46-.45.335-.875.705-1.3 1.074-.15.131-.267.304-.468.423.022-.076.03-.16.069-.225.265-.452.647-.804 1.038-1.138.658-.564 1.353-1.085 2.003-1.658.333-.293.601-.66.904-1l-.208-.193c.203-.431.411-.863.774-1.242-1.333.544-2.426 1.334-3.31 2.435a9.87 9.87 0 01-1.396 1.403c-.285.236-.676.369-1.04.482-.793.246-1.601.246-2.426.125a9.845 9.845 0 01-1.68-.392c-.789-.261-1.481-.69-2.123-1.208-.662-.534-1.312-1.086-1.99-1.598-.804-.605-1.714-1.004-2.688-1.258-.361-.095-.378-.098-.367-.442.038-1.146.212-2.267.704-3.316.257-.546.538-1.081.782-1.65-.176.18-.357.352-.525.538-.506.56-.999 1.133-1.513 1.687-.148.159-.349.268-.513.391-.318-.125-.475-.34-.614-.58-.333-.58-.48-1.226-.637-1.863-.115-.464-.127-.951-.222-1.421-.106-.527-.061-1.057-.083-1.585a4.92 4.92 0 01.206-1.567c.193-.671.319-.977 1.266-.677a6.604 6.604 0 011.733.833c.332.226.687.407 1.082.515-.015-.01-.03-.022-.044-.033a6.557 6.557 0 01-.429-.338 4.778 4.778 0 01-.908-1.023 5.17 5.17 0 01-.494-.933c-.22-.572-.585-.981-1.147-1.23-.23-.1-.48-.188-.681-.473.169-.003.295-.037.397 0 .432.152.824.021 1.21-.143.539-.23 1.002-.577 1.451-.944 1.094-.894 2.146-1.84 3.32-2.634 1.14-.77 2.37-1.35 3.713-1.678a8.847 8.847 0 012.965-.22c1.76.172 3.35.816 4.778 1.876a13.703 13.703 0 012.022 1.86 15.56 15.56 0 011.74 2.364c.407.675.797 1.36 1.169 2.054.47.881.821 1.811 1.064 2.783.073.291.21.567.313.852.118.33.126.66-.06.966zM17.034 0c-4.667-.013-8.732 1.656-12.05 4.968C1.667 8.281-.004 12.345 0 17.011c.005 4.63 1.667 8.667 4.952 11.96 3.309 3.315 7.362 4.932 11.949 5.012 2.568-.036 4.959-.519 7.216-1.566a16.816 16.816 0 004.875-3.408 17.109 17.109 0 003.88-5.98 16.212 16.212 0 001.106-6.02c-.047-4.63-1.649-8.67-4.923-11.973C25.755 1.706 21.7.013 17.034 0zm43.925 22.477c-.666.846-1.469 1.567-2.451 2.075-.922.475-1.883.816-2.89 1.029-.375.08-.765.078-1.145.136-1.169.177-2.345.057-3.517.093-.08.003-.159-.012-.31-.025V7.806c.175-.012.3-.03.425-.03.741.002 1.483-.012 2.224.017.461.018.921.093 1.38.157.41.058.82.126 1.227.209 1.375.28 2.614.844 3.708 1.738 1.555 1.272 2.479 2.921 2.958 4.842.12.48.211.969.21 1.47 0 .206.079.413.071.618-.078 2.067-.594 4.005-1.89 5.65zm5.752-11.37c-.546-1.221-1.186-2.386-2.06-3.418-.586-.693-1.212-1.34-1.938-1.874-1.297-.955-2.766-1.554-4.313-1.978-1.334-.365-2.7-.523-4.068-.66a23.567 23.567 0 00-2.214-.1c-2.08-.012-4.16-.004-6.24-.002-.106 0-.211.024-.31.035v27.404h.294c2.527-.049 5.057.096 7.584-.08.544-.037 1.088-.031 1.634-.087a26.278 26.278 0 002.185-.309c1.54-.285 3.014-.752 4.371-1.56a11.762 11.762 0 003.3-2.928 13.8 13.8 0 002.234-4.242c.372-1.15.612-2.326.687-3.526.08-1.285.001-2.566-.272-3.832-.21-.974-.468-1.935-.874-2.843zm73.107-1.119c-.01-.012-.024-.021-.036-.031-1.467-.064-4.429-.037-4.842.048v.525c0 2.548.009 5.095-.004 7.643-.005.947.06 1.896-.064 2.844-.058.442-.034.893-.102 1.341-.141.931-.404 1.815-.877 2.63a3.324 3.324 0 01-1.341 1.284c-.965.513-1.985.56-3.034.346-1.446-.296-2.33-1.213-2.822-2.561a8.098 8.098 0 01-.469-2.734c-.024-3.612-.013-7.223-.014-10.835v-.523h-4.908v.543c0 3.418-.006 6.836.004 10.254.003.867-.026 1.733.074 2.602.077.67.168 1.334.318 1.988a7.181 7.181 0 001.493 3.042c.89 1.064 2.031 1.777 3.339 2.208.636.21 1.297.353 1.955.479.423.08.862.078 1.293.106.095.006.192-.01.288-.021.159-.018.317-.04.475-.06.302-.038.608-.051.903-.117.678-.15 1.327-.38 1.903-.784.651-.457 1.19-1.029 1.694-1.638.054-.066.135-.11.266-.214.057.756-.002 1.444.039 2.141h4.48c.01-.078.023-.14.023-.201a68447.1 68447.1 0 00-.012-20.266c0-.013-.012-.028-.022-.04zm-37.797 7.656a5.994 5.994 0 011.978-2.745c1.06-.83 2.298-1.19 3.635-1.207.334-.005.67.047 1.003.085a4.467 4.467 0 012.649 1.252c.421.404.805.838 1.094 1.342.14.245.309.324.583.322 1.596-.01 3.193-.004 4.789-.007.108 0 .215-.02.372-.037-.118-.302-.21-.573-.329-.832-.696-1.505-1.608-2.846-2.893-3.924a11.644 11.644 0 00-1.985-1.357c-1.63-.875-3.39-1.246-5.229-1.27-.383-.004-.767.043-1.149.087-.396.045-.792.103-1.183.177-1.035.197-1.995.593-2.931 1.071-1.3.665-2.363 1.62-3.3 2.71a10.16 10.16 0 00-1.719 2.885c-.481 1.207-.696 2.462-.759 3.748-.019.397.036.8.081 1.197.054.476.107.955.207 1.423.277 1.284.78 2.48 1.518 3.566.578.85 1.218 1.643 2.017 2.315 1.11.936 2.338 1.64 3.697 2.128 1.158.415 2.37.526 3.586.615.064.005.129 0 .193-.007.254-.024.509-.052.763-.077.399-.04.808-.037 1.193-.13.715-.171 1.43-.345 2.118-.627a10.608 10.608 0 003.164-1.995c1.104-1.012 1.946-2.221 2.587-3.572.129-.271.23-.557.347-.845-.085-.03-.129-.06-.172-.06-1.71-.003-3.419-.002-5.128-.008-.188 0-.302.087-.39.233-.294.488-.697.883-1.102 1.274-.977.942-2.182 1.328-3.501 1.375-.456.016-.925-.08-1.376-.18-1.556-.344-2.825-1.158-3.712-2.484-.929-1.391-1.316-2.93-1.121-4.617a8.173 8.173 0 01.405-1.824zm-9.783 1.854c-.763-.552-1.614-.929-2.498-1.233-.88-.303-1.77-.58-2.65-.882a9.16 9.16 0 01-1.16-.47c-.868-.44-1.053-1.255-.685-2.176.17-.427.506-.66.888-.84 1.046-.495 2.284-.072 2.692.923.091.221.187.44.288.68 1.772.068 4.382.04 4.78-.053-.064-.376-.112-.757-.195-1.13-.236-1.057-.735-1.986-1.449-2.793-.68-.77-1.513-1.333-2.466-1.726a7.264 7.264 0 00-2.233-.526c-.92-.07-1.823.069-2.702.35a7.83 7.83 0 00-2.524 1.374c-.697.558-1.21 1.25-1.599 2.026-.61 1.22-.682 2.524-.452 3.854a5.02 5.02 0 001.254 2.56c.737.813 1.64 1.397 2.656 1.79.733.285 1.482.525 2.227.777.687.231 1.362.487 1.999.837.43.237.831.509.995 1.002.127.38.147.773.076 1.175-.085.483-.32.878-.7 1.166-.598.451-1.266.633-2.03.508-.546-.09-1.007-.282-1.4-.676-.366-.365-.57-.811-.747-1.28-.083-.22-.157-.444-.23-.652-1.846-.071-4.58-.04-4.997.066.076.483.138.974.233 1.459.259 1.314.887 2.444 1.82 3.388a6.643 6.643 0 001.635 1.181 8.21 8.21 0 002.784.882c.591.077 1.197.125 1.813.071.825-.072 1.62-.215 2.382-.524.934-.38 1.781-.912 2.464-1.655.61-.663 1.11-1.407 1.438-2.263.344-.896.468-1.831.513-2.774.02-.424-.094-.856-.167-1.28-.23-1.341-.97-2.352-2.053-3.136zm65.423 3.009c-.299-1.37-1.118-2.37-2.237-3.14-.717-.495-1.52-.834-2.345-1.113-.943-.318-1.887-.631-2.829-.951-.456-.155-.909-.32-1.303-.61-.417-.307-.573-.768-.536-1.229.06-.747.43-1.318 1.181-1.612 1.045-.409 2.215.006 2.607.964.09.22.172.443.263.679h4.774c-.024-.287-.018-.561-.073-.822-.269-1.285-.824-2.424-1.748-3.372-.663-.68-1.456-1.163-2.322-1.527a6.975 6.975 0 00-2.094-.502c-.739-.066-1.473.024-2.197.186-.87.195-1.687.53-2.43 1.015a6.499 6.499 0 00-2.057 2.132c-.566.95-.795 1.993-.827 3.076-.013.473.095.955.192 1.423.172.834.567 1.57 1.114 2.216.578.685 1.299 1.192 2.092 1.604.732.379 1.513.624 2.291.88.885.29 1.771.577 2.594 1.027.719.393 1.177.935 1.09 1.81-.006.064 0 .129-.002.193-.023.586-.297 1.043-.756 1.383-.577.428-1.215.57-1.943.477-1.005-.127-1.634-.68-2.018-1.567-.145-.337-.262-.686-.396-1.039h-4.949c-.039.575.087 1.075.195 1.573a6.738 6.738 0 001.814 3.343 6.252 6.252 0 001.727 1.214c.648.318 1.329.543 2.035.722.646.163 1.308.106 1.95.244.089.02.191-.015.286-.026.127-.016.253-.05.379-.048.636.004 1.25-.146 1.834-.352 1.196-.423 2.247-1.078 3.08-2.07.558-.663.966-1.398 1.283-2.194.344-.865.425-1.772.394-2.695-.015-.433-.02-.862-.113-1.292zM71.599 9.957v20.555c1.637-.003 3.255.012 4.87-.01.08-1.24.043-20.146-.041-20.545h-4.83zm91.671 15.472c-1.477.03-2.656 1.195-2.667 2.67-.011 1.492 1.336 2.683 2.701 2.618 1.412.088 2.704-1.273 2.695-2.63-.009-1.408-1.244-2.688-2.729-2.658zM76.457 7.487c.064-.661.046-4.017-.02-4.394h-4.815c-.079.628-.058 4.054.03 4.41 1.6-.012 3.205.014 4.805-.016z" fill="#fff"/><path d="M26.152 15.162c-.261-.008-.514.2-.533.44-.018.237.215.49.468.507.279.02.553-.208.56-.466.007-.235-.238-.472-.495-.48z" fill="#fff"/></svg>