<svg width="278" height="32" fill="none" xmlns="http://www.w3.org/2000/svg">
  <path d="M43.993 22.285c0 3.777-2.25 5.873-5.536 5.873H36.05V16.243h2.394c3.285 0 5.536 2.122 5.536 5.9l.013.142zm-5.523-9.6h-6.753v19.03h6.753c6.08 0 9.986-3.88 9.986-9.405V22c0-5.576-3.88-9.379-9.986-9.379M53.282 24.329V12.686h4.334v11.643c0 2.69 1.41 4.023 3.648 4.023 2.238 0 3.648-1.294 3.648-3.946v-11.72h4.308v11.552C69.22 29.49 66.05 32 61.2 32c-4.852 0-7.918-2.587-7.918-7.697M82.324 23.785h-3.79v4.45h3.88c1.941 0 3.17-.75 3.17-2.225 0-1.358-1.113-2.199-3.26-2.199v-.026zm2.367-5.472c0-1.384-1.086-2.121-2.936-2.121h-3.221v4.269h2.975c1.915 0 3.144-.712 3.144-2.148h.038zm-10.349-5.601h7.762a8.072 8.072 0 015.46 1.656 4.206 4.206 0 011.41 3.234v.09a4.437 4.437 0 01-2.847 4.153c2.251.789 3.739 2.044 3.739 4.54v.143c0 3.428-3.014 5.174-7.555 5.174h-7.995l.026-18.99zM103.139 24.109l-2.225-6.21-2.302 6.21h4.527zm-4.269-11.54h4.127l7.49 19.146h-4.476l-1.552-4.127h-7.206l-1.513 4.127h-4.373L98.87 12.57zM117.861 12.686h-4.334v19.042h4.334V12.686zM129.62 22.388c2.251 0 3.506-1.293 3.506-3.04 0-1.992-1.294-3.079-3.558-3.079h-2.367v6.145l2.419-.026zm-6.714-9.702h6.973c4.683 0 7.645 2.47 7.645 6.468 0 4.373-3.441 6.572-7.761 6.662h-2.458v5.835h-4.399V12.686zM149.904 22c2.212 0 3.415-1.138 3.415-2.858 0-1.902-1.293-2.86-3.505-2.86h-3.105v5.719h3.195zm-7.593-9.314h7.865a8.124 8.124 0 015.666 1.824 5.678 5.678 0 011.772 4.399v.116a5.783 5.783 0 01-3.881 5.628l4.463 7.063h-4.967l-3.881-6.248h-2.717v6.248h-4.32v-19.03zM166.863 12.686h-4.334v19.042h4.334V12.686zM171.921 12.686h3.984l8.008 11.087V12.686h4.243v19.03h-3.713l-8.279-11.501v11.5h-4.243V12.686zM198.519 16.321h-5.265v-3.635h14.825v3.635h-5.265v15.394h-4.295V16.321zM212.179 27.537h-4.631v4.192h4.631v-4.192zM215.4 22.337v-.246a9.675 9.675 0 0111.214-9.534 9.673 9.673 0 014.956 2.38l-2.587 3.053a6.037 6.037 0 00-4.269-1.915c-2.82 0-4.877 2.368-4.877 6.067v.091c0 3.777 2.148 6.093 4.929 6.093a6.153 6.153 0 004.308-1.992l2.587 2.807a9.577 9.577 0 01-7.089 2.846c-5.498 0-9.198-3.88-9.198-9.65M249.837 22.31v-.194c0-3.751-2.082-6.118-4.98-6.118-2.898 0-4.994 2.34-4.994 6.092v.195c0 3.751 2.122 6.118 5.02 6.118 2.897 0 4.954-2.341 4.954-6.093zm-14.385.078V22a9.454 9.454 0 019.457-9.457A9.454 9.454 0 01254.365 22v.35a9.455 9.455 0 01-9.456 9.456 9.456 9.456 0 01-9.457-9.457M259.112 12.686h4.541l4.67 7.723 4.592-7.723h4.58v19.03h-4.243V19.567l-4.929 7.852h-.091l-4.902-7.8v12.095h-4.218V12.686zM25.378.008a6.028 6.028 0 00-6.339 6.34 6.352 6.352 0 01-6.339 6.338H6.361A5.975 5.975 0 00.01 18.313a6.767 6.767 0 000 .725v6.339a6.339 6.339 0 006.339 6.338h6.338a6.352 6.352 0 006.34-6.338v-6.34a6.339 6.339 0 016.338-6.338 6.338 6.338 0 000-12.678" fill="#fff"/>
</svg>
