<svg width="318" height="21" fill="none" xmlns="http://www.w3.org/2000/svg"><path d="M17.585 13.502l-.159 6.434H0V18.61c1.202 0 1.976-.173 2.323-.52.346-.345.519-.942.519-1.788V4.011c0-.558-.058-.991-.173-1.299-.106-.317-.366-.563-.78-.736C1.487 1.794.857 1.702 0 1.702V.375h16.229l.26 5.078H15.16c-.298-1.125-.644-1.928-1.038-2.41-.385-.49-.822-.788-1.313-.894-.48-.115-1.207-.173-2.178-.173H6.968v6.91h1.99c.683 0 1.193-.057 1.53-.173a1.17 1.17 0 00.706-.692c.135-.337.226-.866.274-1.587h1.385v6.506h-1.327c-.038-.721-.134-1.25-.288-1.587a1.215 1.215 0 00-.736-.692c-.327-.116-.832-.173-1.515-.173h-2.02v4.601c0 .77.02 1.332.058 1.688.039.356.14.654.303.895.173.23.447.399.823.504.384.106.928.16 1.63.16h1.572c.664 0 1.293-.083 1.89-.246.606-.173 1.197-.606 1.774-1.299.577-.701.981-1.798 1.212-3.289h1.356zM46.595 19.936h-9.81V18.61c.847 0 1.467-.082 1.861-.245.395-.173.65-.418.765-.736.125-.327.188-.77.188-1.327V4.039l-7.386 15.897h-.88L23.846 4.04v11.642c0 .615.019 1.086.057 1.413.049.327.16.606.332.837.183.231.467.404.851.52.385.105.919.158 1.602.158v1.327h-7.242V18.61c.692 0 1.226-.058 1.601-.173.385-.115.664-.288.837-.52a1.68 1.68 0 00.317-.822c.039-.327.058-.798.058-1.413V4.6c0-.826-.043-1.423-.13-1.788-.087-.365-.327-.64-.721-.822-.385-.193-1.039-.289-1.962-.289V.375H26.6l6.492 13.806L39.598.375h6.997v1.327c-1.202 0-1.981.178-2.337.534-.346.346-.52.938-.52 1.774v12.291c0 .529.058.957.174 1.284.115.327.38.582.793.764.423.174 1.053.26 1.89.26v1.327zM57.818 19.936h-9.925V18.61c.827 0 1.453-.077 1.876-.23.423-.164.697-.405.822-.722.135-.317.202-.77.202-1.356V4.011c0-.847-.178-1.443-.534-1.79-.346-.346-1.135-.519-2.366-.519V.375h9.925v1.327c-.827 0-1.452.082-1.875.245-.423.164-.702.404-.837.722-.125.308-.187.755-.187 1.341v12.291c0 .558.062.995.187 1.313.125.317.39.562.794.735.413.174 1.053.26 1.918.26v1.327zM80.279 19.936h-5.236c-.193-.211-.433-.519-.722-.923a37.436 37.436 0 01-.923-1.414c-.337-.548-.616-1-.837-1.356l-1.327-2.192c-.596-.981-1.048-1.65-1.356-2.005-.298-.366-.644-.597-1.039-.693-.384-.106-1.043-.159-1.976-.159h-.736v5.107c0 .539.058.971.174 1.298.115.327.384.577.807.75.433.174 1.058.26 1.876.26v1.327h-9.81V18.61c1.193 0 1.957-.173 2.294-.52.346-.345.52-.942.52-1.788V3.953c0-.837-.17-1.428-.506-1.775-.327-.356-1.096-.533-2.308-.533V.289l4.53-.145c.346-.019.74-.033 1.183-.043.452-.01.87-.014 1.255-.014.298 0 .793.01 1.486.028.971.03 1.88.087 2.726.174.846.086 1.515.197 2.005.331a6.716 6.716 0 012.049.91c.654.422 1.183.98 1.587 1.673.413.692.62 1.495.62 2.409a4.44 4.44 0 01-.433 1.904c-.279.615-.736 1.163-1.37 1.644-.626.481-1.453.861-2.482 1.14a6.447 6.447 0 011.79 1.543c.49.606 1.26 1.727 2.307 3.362.606.932 1.106 1.64 1.5 2.12.395.472.755.794 1.082.967.337.163.76.27 1.27.317v1.327zM72.172 5.583c0-1.558-.476-2.592-1.428-3.102-.943-.51-2.179-.764-3.708-.764-.211 0-.38.004-.505.014h-.404v7.862h.91c1.451 0 2.668-.236 3.649-.707.99-.471 1.486-1.572 1.486-3.303zM100.345 19.936h-9.218V18.61c.78 0 1.347-.053 1.702-.159.356-.115.534-.38.534-.793 0-.288-.058-.582-.173-.88l-.923-2.308h-6.348l-.476 1.27c-.269.711-.403 1.226-.403 1.543 0 .577.22.942.663 1.096.452.154.976.231 1.572.231v1.327H80.54V18.61c.538 0 .995-.1 1.37-.303.375-.202.731-.582 1.068-1.14.346-.567.716-1.365 1.11-2.394L89.727 0h1.371l5.958 15.233c.433 1.078.75 1.809.952 2.193.202.375.481.669.837.88.356.202.856.303 1.5.303v1.327zm-8.598-6.88L89.05 6.231l-2.568 6.823h5.265zM119.387 5.929h-1.37c-.125-1.212-.395-2.106-.808-2.683-.404-.577-.842-.933-1.313-1.068-.471-.134-1.015-.202-1.63-.202h-2.481v14.325c0 .567.057 1.01.173 1.327.115.308.385.548.808.721.423.174 1.043.26 1.861.26v1.327h-9.81V18.61c1.202 0 1.976-.173 2.323-.52.346-.345.519-.942.519-1.788V1.976h-2.077c-.818 0-1.496.068-2.034.202-.539.125-1.015.481-1.429 1.068-.403.577-.634 1.471-.692 2.683h-1.37V.375h19.33V5.93zM138.472 13.502l-.158 6.434h-17.427V18.61c1.202 0 1.977-.173 2.323-.52.346-.345.519-.942.519-1.788V4.011c0-.558-.058-.991-.173-1.299-.106-.317-.365-.563-.779-.736-.404-.182-1.034-.274-1.89-.274V.375h16.229l.26 5.078h-1.327c-.298-1.125-.645-1.928-1.039-2.41-.385-.49-.822-.788-1.313-.894-.481-.115-1.207-.173-2.178-.173h-3.664v6.91h1.991c.682 0 1.192-.057 1.529-.173.336-.125.572-.356.707-.692.134-.337.226-.866.274-1.587h1.385v6.506h-1.328c-.038-.721-.134-1.25-.288-1.587a1.214 1.214 0 00-.736-.692c-.327-.116-.832-.173-1.514-.173h-2.02v4.601c0 .77.019 1.332.058 1.688.038.356.139.654.303.895.173.23.447.399.822.504.385.106.928.16 1.63.16h1.572c.664 0 1.294-.083 1.89-.246.606-.173 1.197-.606 1.774-1.299.577-.701.981-1.798 1.212-3.289h1.356zM155.22 14.325c0 .606-.129 1.25-.389 1.933a6.83 6.83 0 01-1.183 1.947c-.519.616-1.178 1.12-1.976 1.515-.798.385-1.722.577-2.77.577-1.039 0-2.072-.226-3.102-.678a6.807 6.807 0 01-2.596-2.02c-.308.712-.505 1.37-.592 1.977h-1.327v-6.694h1.327c.241.962.573 1.866.996 2.712a6.513 6.513 0 001.789 2.193c.779.606 1.731.909 2.856.909.981 0 1.765-.27 2.351-.808.597-.539.895-1.217.895-2.034 0-.462-.092-.866-.274-1.212a2.875 2.875 0 00-.794-.923c-.346-.28-.822-.572-1.428-.88a34.663 34.663 0 00-2.048-.995c-1.183-.558-2.155-1.12-2.914-1.688-.76-.568-1.337-1.116-1.732-1.645-.384-.538-.653-1.048-.807-1.529a5.021 5.021 0 01-.217-1.457c0-.875.236-1.736.707-2.582.471-.856 1.159-1.553 2.063-2.092.914-.548 1.967-.822 3.159-.822.914 0 1.784.207 2.611.62a6.606 6.606 0 012.15 1.674c.173-.404.331-.972.476-1.703h1.356v5.453h-1.356c-.962-2.971-2.635-4.457-5.02-4.457-.866 0-1.563.23-2.092.692-.519.452-.779 1.039-.779 1.76 0 .567.163 1.063.49 1.486a4.3 4.3 0 001.284 1.067c.539.299 1.404.726 2.597 1.284 1.442.683 2.568 1.275 3.375 1.775.818.5 1.506 1.13 2.063 1.89.568.76.851 1.678.851 2.755zM185.284 10.329c0 1.413-.241 2.693-.722 3.837-.481 1.135-1.101 2.082-1.861 2.842-.759.76-1.572 1.332-2.438 1.717-1.827.807-4.063 1.211-6.707 1.211h-8.93V18.61c.827 0 1.452-.077 1.875-.23.424-.164.698-.405.823-.722.134-.317.202-.77.202-1.356V3.953c0-.847-.174-1.443-.52-1.79-.346-.345-1.139-.518-2.38-.518V.289l4.198-.087c.144 0 .731-.01 1.76-.029 1.029-.02 1.625-.029 1.789-.029 1.606 0 2.967.087 4.082.26 1.125.173 2.154.452 3.087.837a8.406 8.406 0 012.366 1.457 8.915 8.915 0 011.818 2.12c.5.789.884 1.65 1.154 2.582.269.933.404 1.91.404 2.929zm-4.674-.087c0-2.029-.39-3.726-1.169-5.092-.769-1.375-1.817-2.327-3.145-2.856a6.472 6.472 0 00-1.846-.433c-.644-.067-1.572-.101-2.784-.101v13.748c0 .788.038 1.365.115 1.73.077.357.303.63.678.823.375.183.957.274 1.746.274 2.337 0 3.986-.817 4.948-2.452.971-1.635 1.457-3.515 1.457-5.64zM208.552 19.936h-5.236a10.5 10.5 0 01-.722-.923 39.145 39.145 0 01-.923-1.414c-.336-.548-.615-1-.836-1.356l-1.328-2.192c-.596-.981-1.048-1.65-1.356-2.005-.298-.366-.644-.597-1.038-.693-.385-.106-1.044-.159-1.977-.159h-.735v5.107c0 .539.057.971.173 1.298.115.327.384.577.808.75.432.174 1.057.26 1.875.26v1.327h-9.81V18.61c1.193 0 1.958-.173 2.294-.52.346-.345.519-.942.519-1.788V3.953c0-.837-.168-1.428-.504-1.775-.327-.356-1.097-.533-2.309-.533V.289l4.53-.145c.346-.019.741-.033 1.183-.043.452-.01.87-.014 1.255-.014.298 0 .793.01 1.486.028.971.03 1.88.087 2.726.174.847.086 1.515.197 2.006.331a6.714 6.714 0 012.048.91c.654.422 1.183.98 1.587 1.673.413.692.62 1.495.62 2.409 0 .654-.144 1.288-.433 1.904-.279.615-.735 1.163-1.37 1.644-.625.481-1.452.861-2.481 1.14a6.437 6.437 0 011.788 1.543c.491.606 1.26 1.727 2.309 3.362.605.932 1.106 1.64 1.5 2.12.394.472.755.794 1.082.967.336.163.76.27 1.269.317v1.327zm-8.107-14.353c0-1.558-.476-2.592-1.428-3.102-.943-.51-2.178-.764-3.708-.764-.211 0-.379.004-.504.014h-.404v7.862h.908c1.453 0 2.669-.236 3.65-.707.991-.471 1.486-1.572 1.486-3.303zM226.844 13.502l-.159 6.434h-17.426V18.61c1.202 0 1.976-.173 2.323-.52.346-.345.519-.942.519-1.788V4.011c0-.558-.058-.991-.173-1.299-.106-.317-.366-.563-.779-.736-.404-.182-1.034-.274-1.89-.274V.375h16.229l.26 5.078h-1.327c-.299-1.125-.645-1.928-1.039-2.41-.385-.49-.822-.788-1.313-.894-.481-.115-1.207-.173-2.178-.173h-3.664v6.91h1.99c.683 0 1.193-.057 1.53-.173a1.17 1.17 0 00.706-.692c.135-.337.226-.866.275-1.587h1.384v6.506h-1.327c-.038-.721-.134-1.25-.288-1.587a1.214 1.214 0 00-.736-.692c-.327-.116-.832-.173-1.515-.173h-2.019v4.601c0 .77.019 1.332.057 1.688.039.356.14.654.303.895.173.23.448.399.823.504.384.106.928.16 1.63.16h1.572c.664 0 1.294-.083 1.89-.246.606-.173 1.197-.606 1.774-1.299.577-.701.981-1.798 1.212-3.289h1.356zM243.592 14.325c0 .606-.13 1.25-.389 1.933a6.83 6.83 0 01-1.183 1.947c-.519.616-1.178 1.12-1.976 1.515-.799.385-1.722.577-2.77.577-1.039 0-2.073-.226-3.102-.678a6.8 6.8 0 01-2.596-2.02c-.308.712-.505 1.37-.592 1.977h-1.327v-6.694h1.327c.241.962.572 1.866.996 2.712a6.522 6.522 0 001.788 2.193c.779.606 1.731.909 2.857.909.981 0 1.764-.27 2.351-.808.596-.539.894-1.217.894-2.034 0-.462-.091-.866-.274-1.212a2.86 2.86 0 00-.793-.923c-.346-.28-.822-.572-1.428-.88a34.41 34.41 0 00-2.049-.995c-1.183-.558-2.154-1.12-2.914-1.688-.759-.568-1.336-1.116-1.731-1.645-.384-.538-.654-1.048-.808-1.529a5.054 5.054 0 01-.216-1.457c0-.875.236-1.736.707-2.582.471-.856 1.159-1.553 2.063-2.092.913-.548 1.966-.822 3.159-.822.914 0 1.784.207 2.611.62a6.592 6.592 0 012.149 1.674c.174-.404.332-.972.477-1.703h1.356v5.453h-1.356c-.962-2.971-2.636-4.457-5.021-4.457-.865 0-1.562.23-2.091.692-.52.452-.779 1.039-.779 1.76 0 .567.163 1.063.49 1.486a4.3 4.3 0 001.284 1.067c.539.299 1.404.726 2.597 1.284 1.442.683 2.567 1.275 3.375 1.775.818.5 1.505 1.13 2.063 1.89.568.76.851 1.678.851 2.755zM260.528 14.325c0 .606-.13 1.25-.389 1.933a6.83 6.83 0 01-1.183 1.947c-.52.616-1.178 1.12-1.977 1.515-.798.385-1.721.577-2.769.577-1.039 0-2.073-.226-3.102-.678a6.81 6.81 0 01-2.597-2.02c-.307.712-.504 1.37-.591 1.977h-1.327v-6.694h1.327c.24.962.572 1.866.995 2.712a6.537 6.537 0 001.789 2.193c.779.606 1.731.909 2.856.909.981 0 1.765-.27 2.352-.808.596-.539.894-1.217.894-2.034 0-.462-.091-.866-.274-1.212a2.872 2.872 0 00-.793-.923c-.347-.28-.823-.572-1.428-.88-.597-.318-1.28-.65-2.049-.995-1.183-.558-2.154-1.12-2.914-1.688-.76-.568-1.337-1.116-1.731-1.645-.385-.538-.654-1.048-.808-1.529a5.054 5.054 0 01-.216-1.457c0-.875.235-1.736.707-2.582.471-.856 1.159-1.553 2.063-2.092.913-.548 1.966-.822 3.159-.822.913 0 1.784.207 2.611.62a6.602 6.602 0 012.149 1.674c.173-.404.332-.972.476-1.703h1.356v5.453h-1.356c-.961-2.971-2.635-4.457-5.02-4.457-.865 0-1.563.23-2.092.692-.519.452-.779 1.039-.779 1.76 0 .567.164 1.063.491 1.486a4.3 4.3 0 001.284 1.067c.538.299 1.404.726 2.596 1.284 1.443.683 2.568 1.275 3.376 1.775.818.5 1.505 1.13 2.063 1.89.567.76.851 1.678.851 2.755zM272.299 19.936h-9.924V18.61c.827 0 1.452-.077 1.875-.23.423-.164.697-.405.822-.722.135-.317.202-.77.202-1.356V4.011c0-.847-.178-1.443-.534-1.79-.346-.346-1.134-.519-2.365-.519V.375h9.924v1.327c-.827 0-1.452.082-1.875.245-.423.164-.702.404-.837.722-.125.308-.187.755-.187 1.341v12.291c0 .558.062.995.187 1.313.125.317.39.562.794.735.413.174 1.053.26 1.918.26v1.327zM294.876 1.702c-.933 0-1.602.096-2.006.289-.403.182-.654.457-.75.822-.096.365-.144.962-.144 1.789v15.507h-1.327L277.853 4.905V15.68c0 .817.048 1.413.145 1.789.105.365.365.649.779.85.413.193 1.081.29 2.005.29v1.326h-7.271V18.61c.866 0 1.491-.096 1.876-.288.394-.202.634-.486.721-.852.096-.375.144-.97.144-1.788V5.698c0-.808-.024-1.414-.072-1.817a2.719 2.719 0 00-.303-1.054c-.164-.307-.433-.553-.808-.735-.365-.193-.875-.322-1.529-.39V.375h5.698l11.137 13.156v-8.93c0-.73-.053-1.288-.159-1.673-.096-.394-.346-.697-.75-.908-.394-.212-1.024-.318-1.89-.318V.375h7.3v1.327zM318 12.219c-.558.057-.981.149-1.269.274a.997.997 0 00-.577.62c-.106.289-.159.74-.159 1.356v4.587c-1.395 0-2.905.183-4.53.549-1.173.26-2.053.437-2.64.533-.586.106-1.279.159-2.077.159-2.116 0-3.929-.495-5.439-1.486-1.509-.99-2.644-2.265-3.404-3.823-.75-1.558-1.125-3.159-1.125-4.803 0-1.885.447-3.602 1.341-5.15a9.784 9.784 0 013.636-3.665c1.529-.894 3.202-1.341 5.02-1.341 2.212 0 4.227.764 6.044 2.294.221-.414.399-.981.534-1.703h1.399l.144 6.405h-1.327a7.257 7.257 0 00-1.139-2.668 6.233 6.233 0 00-2.092-1.92 5.44 5.44 0 00-2.741-.706c-.731 0-1.447.13-2.149.39-.702.25-1.361.692-1.977 1.327-.606.625-1.096 1.48-1.471 2.568-.366 1.086-.548 2.428-.548 4.024 0 1.366.144 2.679.433 3.939a6.68 6.68 0 001.759 3.245c.885.904 2.135 1.356 3.751 1.356 1.27 0 2.231-.197 2.885-.591.654-.404 1.077-.895 1.27-1.472.202-.577.303-1.221.303-1.933 0-.673-.053-1.163-.159-1.471-.096-.308-.332-.534-.707-.678-.365-.144-.933-.216-1.702-.216V10.89H318v1.328z" fill="#fff"/></svg>