<svg width="290" height="39" fill="none" xmlns="http://www.w3.org/2000/svg">
  <path d="M36.076 3.854H.416A.423.423 0 000 4.27V34.7c0 .224.192.416.416.416h25.25a.423.423 0 00.416-.416v-2.67a.423.423 0 00-.416-.416H5.42a.423.423 0 01-.416-.416V7.756c0-.224.192-.416.416-.416h25.666c.224 0 .416.192.416.416v16.503a.423.423 0 01-.416.415H10.826a.423.423 0 00-.416.416v2.639c0 .224.192.416.416.416h25.25a.423.423 0 00.416-.416V4.269a.403.403 0 00-.416-.415z" fill="#fff"/>
  <path d="M24.835 15.623L14.089 10.33a.413.413 0 00-.592.368v10.586c0 .304.32.512.592.368l10.762-5.293c.288-.144.288-.576-.016-.736zM64.172 22.5c.176 0 .304.127.256.303-.608 4.286-4.206 7.772-10.17 7.772-7.132 0-10.954-4.766-10.954-11.498 0-7.004 4.078-11.641 10.778-11.641 6.876 0 10.778 4.637 10.858 12.233a.294.294 0 01-.304.304H48.469c.208 4.717 2.143 6.956 5.885 6.956 2.702 0 4.461-1.327 5.1-4.126 0-.176.177-.304.337-.304h4.381zM54.13 11.033c-3.087 0-4.942 1.886-5.501 5.453h10.73c-.208-2.879-1.84-5.453-5.23-5.453zM66.827 30.047a.294.294 0 01-.304-.303l.08-10.09V8.234c0-.175.128-.303.304-.303h4.414c.176 0 .304.128.304.303l-.128 2.927c1.423-2.063 3.95-3.742 7.26-3.742 4.59 0 7.547 3.086 7.547 8.667v4.558l.08 9.099a.294.294 0 01-.303.303h-4.638a.294.294 0 01-.304-.303l.048-9.1v-4.429c0-3.134-1.63-4.765-3.997-4.765-2.623 0-5.022 2.19-5.453 6.78v2.399l.08 9.099a.294.294 0 01-.304.303h-4.686v.016zM98.538 38.555c-5.453.08-9.659-2.24-9.995-7.084 0-.176.128-.304.304-.304h4.51c.175 0 .303.128.335.303.304 2.271 2.143 3.47 5.022 3.47 3.182 0 5.405-1.806 5.405-5.964v-2.527c-1.456 2.191-3.694 3.47-6.605 3.47-6.396 0-9.706-4.765-9.706-11.034 0-6.22 3.518-11.29 9.482-11.29 2.927 0 5.15 1.12 6.605 3.183l-.08-2.527c0-.176.128-.303.304-.303h4.589c.176 0 .304.127.304.303l-.08 9.963v10.858c-.016 5.917-3.582 9.483-10.394 9.483zm.08-12.202c3.39 0 5.373-2.398 5.405-7.292.048-5.02-1.887-7.82-5.405-7.851-3.694-.08-5.581 2.75-5.581 7.468 0 5.02 1.935 7.723 5.58 7.675zM110.819 30.047a.294.294 0 01-.303-.303l.128-14.808-.128-14.632c0-.176.128-.304.303-.304h4.51c.176 0 .304.128.304.304l-.08 14.632.08 14.808a.294.294 0 01-.304.303h-4.51zM137.909 22.5c.175 0 .303.127.255.303-.607 4.286-4.205 7.772-10.17 7.772-7.132 0-10.954-4.766-10.954-11.498 0-7.004 4.078-11.641 10.778-11.641 6.876 0 10.778 4.637 10.858 12.233a.294.294 0 01-.304.304h-16.167c.208 4.717 2.143 6.956 5.885 6.956 2.702 0 4.461-1.327 5.101-4.126 0-.176.176-.304.336-.304h4.382zm-10.043-11.466c-3.086 0-4.941 1.886-5.501 5.453h10.73c-.208-2.879-1.839-5.453-5.229-5.453zM156.106 30.048a.294.294 0 01-.304-.304l.08-2.75c-1.503 2.19-3.822 3.47-6.78 3.47-6.141 0-9.355-4.974-9.355-11.418 0-6.397 3.518-11.546 9.451-11.546 2.926 0 5.197 1.151 6.7 3.31l-.144-2.574c0-.176.128-.304.304-.304h4.59c.175 0 .303.128.303.304l-.08 10.682.08 10.826a.294.294 0 01-.303.304h-4.542zm-5.629-3.215c3.47 0 5.453-2.574 5.533-7.691.048-5.102-1.935-7.948-5.405-7.98-3.774-.048-5.629 2.83-5.629 7.548 0 5.165 1.887 8.123 5.501 8.123zM172.321 30.56c-6.269 0-10.091-2.655-10.218-7.725 0-.175.127-.303.303-.303h4.43c.176 0 .304.128.304.303.128 2.959 2.015 4.286 5.501 4.286 2.926 0 4.685-1.151 4.685-3.214 0-4.893-14.68-.56-14.68-9.659 0-4.461 3.614-6.828 9.195-6.828 5.501 0 9.355 2.319 9.659 6.956a.294.294 0 01-.304.304h-4.206c-.176 0-.304-.128-.335-.304-.304-2.319-1.935-3.598-4.846-3.598-2.574 0-4.206.944-4.206 3.086 0 4.766 14.68.256 14.68 9.611-.048 4.51-4.253 7.084-9.962 7.084zM204.16 22.5c.175 0 .303.127.255.303-.607 4.286-4.205 7.772-10.17 7.772-7.132 0-10.954-4.766-10.954-11.498 0-7.004 4.078-11.641 10.778-11.641 6.876 0 10.778 4.637 10.858 12.233a.294.294 0 01-.304.304H188.44c.208 4.717 2.143 6.956 5.885 6.956 2.702 0 4.461-1.327 5.101-4.126 0-.176.176-.304.336-.304h4.398zm-10.043-11.466c-3.086 0-4.941 1.886-5.501 5.453h10.73c-.208-2.879-1.839-5.453-5.229-5.453zM206.318 30.048a.294.294 0 01-.303-.304v-4.798c0-.176.128-.303.303-.303h4.894c.176 0 .304.127.304.303v4.798a.294.294 0 01-.304.304h-4.894zM223.429 30.56c-6.877 0-10.826-4.51-10.826-11.498 0-6.989 3.949-11.642 10.906-11.642 5.58 0 9.146 3.214 9.578 7.98.048.175-.08.303-.256.303h-4.157c-.176 0-.304-.128-.336-.303-.512-2.83-2.319-4.286-4.813-4.286-3.822 0-5.629 2.75-5.629 7.9 0 5.325 1.839 7.851 5.629 7.9 2.83.047 4.685-1.76 4.973-4.974.048-.176.176-.304.336-.304h4.285c.176 0 .304.128.256.304-.368 4.973-4.19 8.62-9.946 8.62zM245.721 30.56c-7.005 0-10.954-4.51-10.954-11.498 0-6.989 3.949-11.642 10.954-11.642 6.956 0 10.858 4.51 10.858 11.498 0 7.052-3.902 11.641-10.858 11.641zm0-3.647c3.741 0 5.532-2.574 5.532-7.852 0-5.245-1.838-7.98-5.58-7.98-3.822.049-5.629 2.783-5.629 8.029 0 5.18 1.887 7.803 5.677 7.803zM263.423 21.812l.08 7.948a.294.294 0 01-.304.303h-4.717a.294.294 0 01-.304-.303l.08-7.948V8.235c0-.175.128-.303.304-.303h4.429c.176 0 .304.128.304.303l-.128 2.927c1.455-2.239 3.518-3.742 6.572-3.742 3.135 0 5.373 1.375 6.397 4.382 1.759-3.183 3.95-4.382 6.828-4.382 4.382 0 6.956 2.702 6.956 8.667v5.709l.08 7.948a.294.294 0 01-.304.303h-4.637a.294.294 0 01-.304-.303l.048-7.948v-5.58c0-3.343-1.327-4.766-3.518-4.766-1.967 0-3.902 2.063-4.558 5.788v4.558l.08 7.948a.293.293 0 01-.303.303h-4.654a.294.294 0 01-.304-.303l.08-7.948v-5.58c0-3.343-1.327-4.766-3.518-4.766s-4.253 2.398-4.685 6.78v3.582z" fill="#fff"/>
</svg>
