<svg width="221" height="20" fill="none" xmlns="http://www.w3.org/2000/svg">
  <path d="M32.82 1.161c-2.433 0-4.52.857-6.263 2.558-1.742 1.7-2.613 3.746-2.613 6.124 0 2.71.954 4.894 2.862 6.553 1.742 1.507 3.691 2.267 5.875 2.267 2.461 0 4.576-.843 6.318-2.544 1.742-1.686 2.6-3.746 2.6-6.18 0-2.405-.858-4.478-2.6-6.193-1.714-1.728-3.774-2.585-6.18-2.585zm4.382 13.286c-1.216 1.23-2.71 1.838-4.479 1.838-1.631 0-3.07-.594-4.327-1.797-1.258-1.203-1.88-2.737-1.88-4.603 0-1.784.608-3.277 1.81-4.48 1.217-1.216 2.697-1.838 4.452-1.838 1.77 0 3.249.608 4.438 1.838 1.203 1.217 1.811 2.724 1.811 4.521 0 1.77-.608 3.277-1.825 4.52zM51.317 1.189h-2.544v17.488h7.507v-2.474h-4.963V1.189zM71.087 1.714c-.982-.345-2.323-.525-4.023-.525h-3.54v17.502h3.498c1.714 0 3.041-.166 3.968-.484.995-.332 1.949-.899 2.861-1.728 1.811-1.659 2.724-3.843 2.724-6.525 0-2.682-.871-4.839-2.613-6.498-.857-.815-1.811-1.396-2.876-1.742zm1.05 12.871c-.608.58-1.3.995-2.06 1.258-.76.249-1.714.373-2.848.373h-1.147V3.677h1.147c2.17 0 3.816.54 4.936 1.59 1.244 1.19 1.866 2.751 1.866 4.673-.014 1.908-.65 3.456-1.894 4.645zM83.584 18.677h9.47v-2.474h-6.885v-5.848h6.678V7.866h-6.678V3.664h6.885V1.189h-9.47v17.488zM112.616 13.368L100.298 0v18.705h2.544V6.442l12.317 13.327V1.19h-2.543v12.18zM139.559 8.336l-1.686-.691c-1.231-.512-1.839-1.175-1.839-2.005 0-.608.235-1.106.705-1.493.47-.4 1.051-.608 1.756-.608.58 0 1.05.124 1.41.346.345.207.719.65 1.106 1.327l2.073-1.23c-1.092-1.908-2.612-2.862-4.562-2.862-1.437 0-2.654.428-3.622 1.3-.967.856-1.451 1.92-1.451 3.207 0 1.894 1.161 3.331 3.47 4.313l1.631.677c.429.18.788.373 1.092.58.304.208.553.416.747.65.193.236.331.485.428.761.097.276.138.58.138.912 0 .83-.262 1.507-.788 2.046-.525.54-1.188.802-1.976.802-1.01 0-1.77-.373-2.295-1.106-.291-.387-.498-1.078-.609-2.073l-2.585.566c.235 1.59.816 2.82 1.756 3.692.954.87 2.17 1.313 3.636 1.313 1.548 0 2.834-.512 3.884-1.548 1.037-1.023 1.549-2.31 1.549-3.885 0-1.175-.318-2.157-.954-2.959-.636-.788-1.645-1.465-3.014-2.032zM171.937 18.746h9.359v-2.502h-6.802v-5.876h6.594V7.88h-6.594V3.65h6.802V1.16h-9.359v17.585zM200.885 13.34L188.567.015v18.663h2.544V6.442l12.318 13.3V1.201h-2.544v12.139zM210.687 1.189v2.488h3.884v15h2.558v-15H221V1.19h-10.313zM8.765 12h4.99a4.624 4.624 0 01-.553 1.659c-.857 1.534-2.585 2.488-4.492 2.488-2.917 0-6.028-2.17-6.042-6.193 0-2.516 1.313-4.687 3.415-5.668a5.792 5.792 0 012.53-.581h.124c1.853 0 2.945.719 3.595 1.258l.387.318 1.272-2.212-.305-.235a8.106 8.106 0 00-3.262-1.52 8.764 8.764 0 00-3.29-.014l-.056.013c-.041 0-.083.014-.124.014-.056.014-.11.028-.152.042l-.097.013C3.622 2.074 1.258 4.3.373 7.327A9.166 9.166 0 000 9.967c0 .07 0 .139.014.208l.027.525h.014c.374 4.576 4.023 7.99 8.655 7.99 3.497 0 5.433-1.935 6.276-3.082 1.01-1.383 1.617-3.387 1.617-5.35v-.816h-6.359L8.764 12zM159.439 3.76c.843 0 1.755.208 2.571.595.304.152.705.414 1.161.76l.401.318 1.272-2.322-.29-.236c-1.479-1.147-3.111-1.714-4.991-1.714-5.018 0-8.806 3.843-8.806 8.945 0 5.046 3.746 8.847 8.709 8.847.94 0 2.779-.18 4.673-1.41l.263-.165-.692-2.71-.525.4a4.96 4.96 0 01-.954.595c-.871.456-1.852.705-2.765.705-2.502 0-6.013-1.935-6.013-6.235 0-3.566 2.626-6.373 5.986-6.373z" fill="#fff"/>
</svg>