<svg width="177" height="38" fill="none" xmlns="http://www.w3.org/2000/svg">
  <path d="M6.705 25.661v11.91H0V0h6.705v13.393L14.9 0h7.146L12.87 15.325l10.76 22.247h-7.88L8.71 22.318 6.705 25.66zM45.746 37.572h-6.707V.03h6.707v37.542zM69.257 0l8.895 25.25V0h6.705v37.572h-7.2l-9.224-24.06v24.06h-6.705V0h7.53zM119.994.03v5.693l-12.346 26.215h12.346v5.634h-19.581v-5.668l12.38-26.211-12.38.03V.03h19.581zM154.176.03v5.693L141.829 31.94h12.347v5.633h-19.582v-5.668l12.381-26.211-12.381.03V.03h19.582zM176.437 37.572h-6.707V.03h6.707v37.542z" fill="#fff"/>
</svg>