<svg width="312" height="40" fill="none" xmlns="http://www.w3.org/2000/svg">
  <path fill-rule="evenodd" clip-rule="evenodd" d="M306.395 37.257a2.319 2.319 0 002.324-2.313V5.334a2.316 2.316 0 00-2.324-2.31H5.737a2.316 2.316 0 00-2.326 2.31v29.61a2.318 2.318 0 002.326 2.313h300.658zM8.044 9.014v22.253h12.062v-4.19h-9.203V9.014h-2.86zm15.987 5.263c0-2.023.21-3.405.63-4.147.414-.744 1.219-1.116 2.41-1.116h9.036c1.192 0 1.998.37 2.414 1.116.418.742.628 2.125.628 4.147v11.725c0 2.036-.21 3.42-.628 4.157-.416.737-1.223 1.108-2.414 1.108H27.07c-1.191 0-1.996-.37-2.41-1.108-.42-.737-.63-2.12-.63-4.157V14.277zm2.857 12.8h9.415V12.992h-9.415v14.085zm18.65-16.947c-.421.742-.628 2.124-.628 4.147v11.725c0 2.036.207 3.42.627 4.157.42.737 1.222 1.108 2.416 1.108h9.032c1.194 0 2-.37 2.416-1.108.418-.737.626-2.12.626-4.157V14.277c0-2.022-.21-3.405-.626-4.147-.416-.745-1.222-1.116-2.416-1.116h-9.032c-1.193 0-1.995.372-2.416 1.116zm11.647 16.947h-9.418V12.992h9.418v14.085zm8.859 4.19V9.014h2.88V18.3l6.806-9.285h4.133l-8.13 10.484 9.13 11.769h-4.588l-7.35-9.79v9.79h-2.881zm23.48-22.253L82.58 31.267h2.845L86.85 26.4h7.783l1.474 4.866h3.206L92.277 9.014h-2.752zm3.925 13.369h-5.377l2.73-9.054 2.647 9.053zm15.525-9.391v18.275h-2.855V12.992h-5.634V9.014h14.145v3.978h-5.656zm9.128-3.978v22.253h2.311V17.518c0-.35-.009-.717-.019-1.093-.011-.38-.029-.8-.051-1.265.075.352.174.712.295 1.085.119.372.265.767.436 1.188l4.621 11.16h.57l4.608-11.116c.096-.24.198-.543.311-.915.119-.373.253-.847.41-1.423-.03.507-.055.963-.074 1.37-.022.406-.033.743-.033 1.01v13.748h2.649V9.014h-2.286l-5.656 13.45-5.781-13.45h-2.311zm22.04 22.253V9.014h12.562v3.79h-9.707v4.967h5.668v3.788h-5.668v5.518h9.825v4.19h-12.68zm17.952-22.253v22.253h2.808V22.59h7.685c.979 0 1.684-.34 2.123-1.02.438-.68.656-1.773.656-3.273v-4.97c0-1.512-.218-2.613-.656-3.292-.439-.682-1.144-1.022-2.123-1.022h-10.493zm2.808 3.853h6.42c.495 0 .835.128 1.015.387.188.26.277.714.277 1.359v2.378c0 .662-.089 1.121-.277 1.38-.18.259-.52.39-1.015.39h-6.42v-5.894zm14.863 18.4V9.013h10.5c.975 0 1.68.34 2.12 1.022.437.679.654 1.78.654 3.293v5.222c0 1.501-.217 2.598-.654 3.283-.44.688-1.145 1.034-2.12 1.034h-1.604l5.667 8.398h-4.1l-4.945-8.398h-2.704v8.398h-2.814zm9.232-18.4h-6.418v6.19h6.418c.494 0 .836-.13 1.019-.39.18-.262.272-.72.272-1.378v-2.676c0-.644-.092-1.097-.272-1.358-.183-.26-.525-.388-1.019-.388zm9.836-3.853h2.856v22.253h-2.856V9.014zm9.107 22.253V9.014h1.948l8.639 13.115c.294.436.552.846.779 1.233.223.385.43.78.614 1.19l-.016-.468-.017-.447v-.01c-.028-.772-.049-1.349-.059-1.73-.017-.519-.023-.92-.023-1.2V9.014h2.568v22.253h-1.952l-9.011-13.748c-.217-.35-.404-.666-.566-.946-.167-.282-.318-.57-.458-.864.042.687.071 1.336.09 1.946.019.61.026 1.14.026 1.59v12.022h-2.562zm23.547 0h2.856V12.992h5.654V9.014h-14.143v3.978h5.633v18.275zm13.656-6.675h.43c.207 0 .355.11.439.328.087.22.127.634.127 1.251v3.495c0 .675-.048 1.11-.136 1.306-.095.196-.381.296-.861.296h-2.125c-.208 0-.355-.113-.441-.336-.088-.225-.129-.648-.129-1.265V26.17c0-.66.048-1.088.142-1.284.093-.195.379-.295.857-.295h1.697zm8.822-11.6h7.699v4.21l2.86-.82v-2.105c0-2.022-.211-3.405-.636-4.147-.421-.745-1.225-1.116-2.407-1.116h-7.33c-1.189 0-1.995.372-2.416 1.116-.416.742-.623 2.124-.623 4.147v11.725c0 2.036.207 3.422.623 4.157.42.737 1.227 1.108 2.416 1.108h7.33c1.183 0 1.986-.37 2.407-1.108.425-.735.636-2.12.636-4.157v-2.63l-2.86-1.076v4.781h-7.699V12.992zm16.19 1.285c0-2.023.209-3.405.628-4.147.416-.744 1.222-1.116 2.414-1.116h9.033c1.192 0 1.999.37 2.415 1.116.42.742.629 2.125.629 4.147v11.725c0 2.036-.209 3.42-.629 4.157-.417.737-1.223 1.108-2.415 1.108h-9.033c-1.192 0-1.998-.37-2.414-1.108-.419-.737-.628-2.12-.628-4.157V14.277zm2.855 12.8h9.416V12.992h-9.416v14.085zm18.253-18.063v22.253h2.314V17.518c0-.292-.007-.596-.013-.906l-.004-.187c-.011-.38-.031-.8-.054-1.265.077.352.177.712.296 1.085.121.372.266.767.435 1.188l4.622 11.16h.568l4.614-11.116c.092-.24.198-.543.315-.915.113-.373.249-.847.405-1.423-.035.507-.058.963-.076 1.37-.018.406-.03.743-.03 1.01v13.748h2.65V9.014h-2.289l-5.656 13.45-5.782-13.45h-2.315z" fill="#fff"/>
  <path d="M306.294 39.99H5.706C2.559 39.99 0 37.534 0 34.514V5.474C0 2.454 2.559 0 5.706 0h300.588C309.438 0 312 2.454 312 5.474v29.04c.001 3.02-2.562 5.476-5.706 5.476zM5.706 1.267c-2.446 0-4.438 1.887-4.438 4.207v29.04c0 2.32 1.992 4.205 4.438 4.205h300.588c2.445 0 4.435-1.884 4.435-4.205V5.474c0-2.32-1.99-4.207-4.435-4.207H5.706z" fill="#fff"/>
</svg>