<svg width="162" height="36" viewBox="0 0 162 36" fill="none" xmlns="http://www.w3.org/2000/svg">
<path d="M6.95532 0.239928L18.3192 28.6019L29.6831 0.239928H35.6276V35H31.0439V21.4636L31.4736 6.85294L20.062 35H16.5525L5.1648 6.92456L5.6184 21.4636V35H1.03465V0.239928H6.95532ZM63.3449 25.928H48.782L45.5113 35H40.7843L54.0581 0.239928H58.0689L71.3665 35H66.6634L63.3449 25.928ZM50.1667 22.156H61.9841L56.0635 5.89799L50.1667 22.156ZM84.4015 17.6916L93.4735 0.239928H98.678L86.6934 22.0366V35H82.1097V22.0366L70.1251 0.239928H75.3773L84.4015 17.6916ZM111.999 18.8375L107.75 23.2542V35H103.166V0.239928H107.75V17.429L123.196 0.239928H128.735L115.055 15.5907L129.809 35H124.318L111.999 18.8375ZM153.014 25.928H138.452L135.181 35H130.454L143.728 0.239928H147.738L161.036 35H156.333L153.014 25.928ZM139.836 22.156H151.654L145.733 5.89799L139.836 22.156Z" fill="white"/>
<path d="M6.95532 0.239928L6.99323 0.224738L6.98296 0.199087H6.95532V0.239928ZM18.3192 28.6019L18.2813 28.617L18.3192 28.7117L18.3571 28.617L18.3192 28.6019ZM29.6831 0.239928V0.199087H29.6554L29.6451 0.224738L29.6831 0.239928ZM35.6276 0.239928H35.6684V0.199087H35.6276V0.239928ZM35.6276 35V35.0408H35.6684V35H35.6276ZM31.0439 35H31.003V35.0408H31.0439V35ZM31.0439 21.4636L31.003 21.4624V21.4636H31.0439ZM31.4736 6.85294L31.5144 6.85414L31.5211 6.62707L31.4357 6.83759L31.4736 6.85294ZM20.062 35V35.0408H20.0895L20.0998 35.0153L20.062 35ZM16.5525 35L16.5147 35.0154L16.525 35.0408H16.5525V35ZM5.1648 6.92456L5.20264 6.90921L5.11686 6.69771L5.12398 6.92583L5.1648 6.92456ZM5.6184 21.4636H5.65926L5.65922 21.4624L5.6184 21.4636ZM5.6184 35V35.0408H5.65924V35H5.6184ZM1.03465 35H0.99381V35.0408H1.03465V35ZM1.03465 0.239928V0.199087H0.99381V0.239928H1.03465ZM6.91741 0.255118L18.2813 28.617L18.3571 28.5867L6.99323 0.224738L6.91741 0.255118ZM18.3571 28.617L29.721 0.255118L29.6451 0.224738L18.2813 28.5867L18.3571 28.617ZM29.6831 0.28077H35.6276V0.199087H29.6831V0.28077ZM35.5868 0.239928V35H35.6684V0.239928H35.5868ZM35.6276 34.9592H31.0439V35.0408H35.6276V34.9592ZM31.0847 35V21.4636H31.003V35H31.0847ZM31.0847 21.4648L31.5144 6.85414L31.4328 6.85174L31.003 21.4624L31.0847 21.4648ZM31.4357 6.83759L20.0241 34.9847L20.0998 35.0153L31.5114 6.86828L31.4357 6.83759ZM20.062 34.9592H16.5525V35.0408H20.062V34.9592ZM16.5904 34.9846L5.20264 6.90921L5.12695 6.93991L16.5147 35.0154L16.5904 34.9846ZM5.12398 6.92583L5.57757 21.4649L5.65922 21.4624L5.20562 6.92328L5.12398 6.92583ZM5.57756 21.4636V35H5.65924V21.4636H5.57756ZM5.6184 34.9592H1.03465V35.0408H5.6184V34.9592ZM1.07549 35V0.239928H0.99381V35H1.07549ZM1.03465 0.28077H6.95532V0.199087H1.03465V0.28077ZM63.3449 25.928L63.3833 25.914L63.3735 25.8872H63.3449V25.928ZM48.782 25.928V25.8872H48.7533L48.7436 25.9142L48.782 25.928ZM45.5113 35V35.0408H45.54L45.5497 35.0139L45.5113 35ZM40.7843 35L40.7462 34.9854L40.725 35.0408H40.7843V35ZM54.0581 0.239928V0.199087H54.03L54.0199 0.225358L54.0581 0.239928ZM58.0689 0.239928L58.107 0.225335L58.097 0.199087H58.0689V0.239928ZM71.3665 35V35.0408H71.4258L71.4046 34.9854L71.3665 35ZM66.6634 35L66.625 35.014L66.6348 35.0408H66.6634V35ZM50.1667 22.156L50.1283 22.142L50.1084 22.1968H50.1667V22.156ZM61.9841 22.156V22.1968H62.0425L62.0225 22.142L61.9841 22.156ZM56.0635 5.89799L56.1019 5.88401L56.0634 5.77842L56.0251 5.88406L56.0635 5.89799ZM63.3449 25.8872H48.782V25.9688H63.3449V25.8872ZM48.7436 25.9142L45.4729 34.9861L45.5497 35.0139L48.8204 25.9419L48.7436 25.9142ZM45.5113 34.9592H40.7843V35.0408H45.5113V34.9592ZM40.8225 35.0146L54.0962 0.254498L54.0199 0.225358L40.7462 34.9854L40.8225 35.0146ZM54.0581 0.28077H58.0689V0.199087H54.0581V0.28077ZM58.0307 0.254521L71.3284 35.0146L71.4046 34.9854L58.107 0.225335L58.0307 0.254521ZM71.3665 34.9592H66.6634V35.0408H71.3665V34.9592ZM66.7017 34.986L63.3833 25.914L63.3066 25.942L66.625 35.014L66.7017 34.986ZM50.1667 22.1968H61.9841V22.1151H50.1667V22.1968ZM62.0225 22.142L56.1019 5.88401L56.0251 5.91196L61.9458 22.1699L62.0225 22.142ZM56.0251 5.88406L50.1283 22.142L50.2051 22.1699L56.1019 5.91191L56.0251 5.88406ZM84.4015 17.6916L84.3652 17.7103L84.4014 17.7803L84.4378 17.7104L84.4015 17.6916ZM93.4735 0.239928V0.199087H93.4487L93.4373 0.22109L93.4735 0.239928ZM98.678 0.239928L98.7138 0.259606L98.7471 0.199087H98.678V0.239928ZM86.6934 22.0366L86.6576 22.0169L86.6526 22.0261V22.0366H86.6934ZM86.6934 35V35.0408H86.7342V35H86.6934ZM82.1097 35H82.0688V35.0408H82.1097V35ZM82.1097 22.0366H82.1505V22.0261L82.1454 22.0169L82.1097 22.0366ZM70.1251 0.239928V0.199087H70.056L70.0893 0.259606L70.1251 0.239928ZM75.3773 0.239928L75.4136 0.221169L75.4021 0.199087H75.3773V0.239928ZM84.4378 17.7104L93.5098 0.258766L93.4373 0.22109L84.3653 17.6727L84.4378 17.7104ZM93.4735 0.28077H98.678V0.199087H93.4735V0.28077ZM98.6422 0.22025L86.6576 22.0169L86.7292 22.0563L98.7138 0.259606L98.6422 0.22025ZM86.6526 22.0366V35H86.7342V22.0366H86.6526ZM86.6934 34.9592H82.1097V35.0408H86.6934V34.9592ZM82.1505 35V22.0366H82.0688V35H82.1505ZM82.1454 22.0169L70.1609 0.22025L70.0893 0.259606L82.0739 22.0563L82.1454 22.0169ZM70.1251 0.28077H75.3773V0.199087H70.1251V0.28077ZM75.341 0.258688L84.3652 17.7103L84.4378 17.6728L75.4136 0.221169L75.341 0.258688ZM111.999 18.8375L112.032 18.8128L112.003 18.7749L111.97 18.8092L111.999 18.8375ZM107.75 23.2542L107.721 23.2258L107.709 23.2377V23.2542H107.75ZM107.75 35V35.0408H107.791V35H107.75ZM103.166 35H103.125V35.0408H103.166V35ZM103.166 0.239928V0.199087H103.125V0.239928H103.166ZM107.75 0.239928H107.791V0.199087H107.75V0.239928ZM107.75 17.429H107.709V17.5355L107.78 17.4563L107.75 17.429ZM123.196 0.239928V0.199087H123.178L123.166 0.21263L123.196 0.239928ZM128.735 0.239928L128.765 0.2671L128.826 0.199087H128.735V0.239928ZM115.055 15.5907L115.025 15.5635L115.002 15.5886L115.023 15.6154L115.055 15.5907ZM129.809 35V35.0408H129.892L129.842 34.9753L129.809 35ZM124.318 35L124.286 35.0248L124.298 35.0408H124.318V35ZM111.97 18.8092L107.721 23.2258L107.779 23.2825L112.029 18.8658L111.97 18.8092ZM107.709 23.2542V35H107.791V23.2542H107.709ZM107.75 34.9592H103.166V35.0408H107.75V34.9592ZM103.207 35V0.239928H103.125V35H103.207ZM103.166 0.28077H107.75V0.199087H103.166V0.28077ZM107.709 0.239928V17.429H107.791V0.239928H107.709ZM107.78 17.4563L123.227 0.267226L123.166 0.21263L107.72 17.4017L107.78 17.4563ZM123.196 0.28077H128.735V0.199087H123.196V0.28077ZM128.704 0.212756L115.025 15.5635L115.086 15.6179L128.765 0.2671L128.704 0.212756ZM115.023 15.6154L129.777 35.0247L129.842 34.9753L115.088 15.566L115.023 15.6154ZM129.809 34.9592H124.318V35.0408H129.809V34.9592ZM124.351 34.9752L112.032 18.8128L111.967 18.8623L124.286 35.0248L124.351 34.9752ZM153.014 25.928L153.053 25.914L153.043 25.8872H153.014V25.928ZM138.452 25.928V25.8872H138.423L138.413 25.9142L138.452 25.928ZM135.181 35V35.0408H135.21L135.219 35.0139L135.181 35ZM130.454 35L130.416 34.9854L130.395 35.0408H130.454V35ZM143.728 0.239928V0.199087H143.699L143.689 0.225358L143.728 0.239928ZM147.738 0.239928L147.777 0.225335L147.766 0.199087H147.738V0.239928ZM161.036 35V35.0408H161.095L161.074 34.9854L161.036 35ZM156.333 35L156.295 35.014L156.304 35.0408H156.333V35ZM139.836 22.156L139.798 22.142L139.778 22.1968H139.836V22.156ZM151.654 22.156V22.1968H151.712L151.692 22.142L151.654 22.156ZM145.733 5.89799L145.771 5.88401L145.733 5.77842L145.695 5.88406L145.733 5.89799ZM153.014 25.8872H138.452V25.9688H153.014V25.8872ZM138.413 25.9142L135.142 34.9861L135.219 35.0139L138.49 25.9419L138.413 25.9142ZM135.181 34.9592H130.454V35.0408H135.181V34.9592ZM130.492 35.0146L143.766 0.254498L143.689 0.225358L130.416 34.9854L130.492 35.0146ZM143.728 0.28077H147.738V0.199087H143.728V0.28077ZM147.7 0.254521L160.998 35.0146L161.074 34.9854L147.777 0.225335L147.7 0.254521ZM161.036 34.9592H156.333V35.0408H161.036V34.9592ZM156.371 34.986L153.053 25.914L152.976 25.942L156.295 35.014L156.371 34.986ZM139.836 22.1968H151.654V22.1151H139.836V22.1968ZM151.692 22.142L145.771 5.88401L145.695 5.91196L151.615 22.1699L151.692 22.142ZM145.695 5.88406L139.798 22.142L139.875 22.1699L145.771 5.91191L145.695 5.88406Z" fill="#7D7E81"/>
</svg>
