<svg width="192" height="66" fill="none" xmlns="http://www.w3.org/2000/svg"><path d="M14.315 46.952h-.052c-.889-3.993-3.85-13.932-6.39-21.77H0v28.187h4.863V42.88c0-4.834-.11-10.791-.342-14.083h.167c1.241 5.348 4.775 17.03 6.964 24.572h4.56c2.884-8.836 6.3-19.15 7.584-24.5h.18c-.123 3.11-.192 8.478-.192 13.434v11.066h5.115V25.182h-7.603c-2.68 7.668-6.3 18.405-6.98 21.77zM40.627 25.182H35.34v28.187h5.287V25.182zM61.595 53.06c-.111.146-.229.263-.343.397 2.442-.557 4.108-1.74 5.145-3.224.033.619.082 1.18.147 1.682l4.201-4.03v-5.197c-2.668 3.197-5.718 6.654-9.15 10.372zM69.753 37.786H58.786v4.381h6.782v.324c1.3-1.423 2.575-2.837 3.787-4.235.138-.16.261-.31.398-.47z" fill="#fff"/><path d="M69.282 51.26c-.278.322-.341.42-.18.304l1.542-1.335v-.334c-.654.62-1.117 1.083-1.362 1.365z" fill="#000"/><path d="M69.816 53.369h.929v-.86c-.164.152-.33.305-.493.46-.163.157-.29.264-.436.4zM58.298 50.182c.203-.208.417-.433.623-.644h-.11c-5.856 0-7.993-4.995-7.993-10.173 0-5.414 1.974-10.386 8.021-10.386 4.286 0 6.04 2.262 6.749 4.583h5.287c-.725-4.887-4.944-8.792-11.956-8.792-8.756 0-13.577 6.37-13.577 14.832 0 7.078 3.494 12.713 9.92 13.946.353-.416.709-.824 1.06-1.216.797-.872 1.455-1.589 1.976-2.15zM97.124 25.182H95.13v1.389c.067-.049.135-.101.202-.149a70.899 70.899 0 011.79-1.24zM81.069 39.875c-.178.14-.347.29-.507.449-.141.14-.291.27-.449.39a6.047 6.047 0 00-.839.748c-.244.261-.464.49-.663.69-.34.38-.7.74-1.078 1.078-.278.203-.429.352-.45.449-.02.097-.13.251-.33.45-.157.203-.249.32-.268.36-.053.09-.113.175-.178.257v.138a.53.53 0 00.202-.04c.129-.042.25-.103.362-.18.255-.178.486-.39.687-.629.18-.218.331-.39.449-.506.167-.197.371-.36.6-.482.218-.11.42-.252.6-.419.234-.194.445-.415.629-.657.235-.293.486-.573.75-.84a1.99 1.99 0 01.58-.489v-.859c-.035.035-.062.057-.097.092zM95.13 30.156v4.293c0 3.47-.006 7.01.118 9.904a49.527 49.527 0 012.634-4.357 160.555 160.555 0 012.094-3.04v-10.44c-1.487 1.008-3.102 2.222-4.845 3.64zM87.121 34.542a3.852 3.852 0 00-.478.329 9.06 9.06 0 01-.298.24 2.246 2.246 0 00-.243.209c-.112.109-.231.21-.356.304-.203.16-.361.29-.483.39-.121.1-.239.21-.356.33-.118.119-.264.247-.42.39l-.16.132c.075.135.15.272.227.405l.08-.09c.219-.24.449-.481.692-.72.258-.246.539-.467.84-.659.299-.193.58-.414.838-.66.217-.213.447-.413.688-.598.17-.133.32-.292.442-.47l-.088-.152c-.234.168-.534.37-.925.62zM98.718 44.074c-.459 1.04-.57 1.839-.33 2.397.242.561.73.681 1.466.36.038-.014.08-.04.119-.058V41.75a18.812 18.812 0 00-1.255 2.324zM79.04 25.182h-2.737v4.387c.507-.718.958-1.403 1.349-2.04.495-.795.95-1.575 1.387-2.347z" fill="#fff"/><path d="M94.612 50.363c-.756-.36-1.049-1.059-.868-2.097.135-.79.434-1.692.898-2.704-1.198-2.28-3.392-6.115-5.693-10.085a203.8 203.8 0 00-2.155 1.972c-.467.432-.94.877-1.408 1.317 2.874 5.142 6.37 11.258 8.285 14.607h6.302V49.95c-.623.315-1.273.573-1.943.77-1.121.32-2.257.201-3.418-.357zM76.307 47.302v6.067h4.87V43.87 42.71c-.893.842-1.784 1.679-2.682 2.533-.738.694-1.46 1.372-2.188 2.06zM76.307 35.657v6.971c.854-.795 1.699-1.588 2.577-2.394.75-.691 1.512-1.368 2.268-2.05-.03-3.074-.102-5.842-.224-7.544h.07c.454.96 1.474 2.862 2.766 5.205a354.49 354.49 0 013.445-3.012l.133-.113c-1.583-2.721-3.11-5.336-4.291-7.385-1.592 2.92-3.71 6.188-6.352 9.804-.129.17-.266.348-.392.518zM117.77 49.407a.323.323 0 00-.036.176.757.757 0 00.152.18c.116.12.165.13.146.03-.019-.101.049-.188.21-.27.033-.035.065-.073.093-.113-.085 0-.164.015-.251.015-.108 0-.207-.014-.314-.018zM115.05 48.788c-2.821-1.244-4.412-4.22-4.788-7.888a474.04 474.04 0 00-4.613 4.316c1.308 3.756 3.942 6.646 7.82 7.89.046-.185.087-.367.143-.556.39-1.286.87-2.543 1.438-3.762zM116.685 52.34c.04 0 .069-.03.088-.09a.335.335 0 01.093-.15c.008 0 .016 0 .024-.003a.052.052 0 00.02-.013.043.043 0 00.012-.02.047.047 0 00.002-.023.173.173 0 01.059-.12.25.25 0 00.064-.18.177.177 0 00.058-.12c0-.04.039-.08.117-.12.083-.08.122-.141.122-.18v-.06h.058a.81.81 0 00.181-.24c.052-.105.113-.207.18-.304.078-.12.108-.21.088-.268a.708.708 0 01-.029-.21c0-.08-.101-.121-.298-.121h-.304a.767.767 0 00-.175.36 7.44 7.44 0 00-.123.54v.06a.33.33 0 00-.121.24.354.354 0 01-.118.238.56.56 0 00-.058.241.24.24 0 01-.063.179.788.788 0 01-.03.18.188.188 0 00-.009.094.176.176 0 00.039.087l.123.003zM121.509 29.868a1.07 1.07 0 01.21-.304.334.334 0 01.239-.12.599.599 0 00.304-.12c.039-.04.069-.06.088-.06.019 0 .049-.02.088-.062.04-.041.073-.068.092-.087.02-.02.068-.07.151-.15a.335.335 0 00.118-.21.306.306 0 01.04-.118.302.302 0 01.081-.092.714.714 0 01.181-.304c.078-.078.156-.16.239-.24a.357.357 0 01.151-.09c.072-.025.142-.055.21-.09a.414.414 0 00.297-.12.342.342 0 00.24-.119.359.359 0 00.239-.239c.082-.122.068-.161-.031-.122a2.675 2.675 0 01-.448.122h-.239l-.058.059a.767.767 0 01-.304.18.698.698 0 00-.151.09.834.834 0 01-.147.09 1.48 1.48 0 01-.361.24 4.374 4.374 0 00-.659.539 4.124 4.124 0 00-.36.27 3.915 3.915 0 01-.361.268c-.204.13-.382.297-.524.494.23.083.455.18.674.288l.001.007zM124.936 33.498c.227-.304.469-.619.68-.905.839-1.138 1.458-2.107 1.858-2.905.214-.435.304-.792.304-1.083-.23-.245-.465-.483-.715-.71-.807.02-2.344.86-4.611 2.52 1.077.76 1.9 1.816 2.484 3.083z" fill="#fff"/><path d="M115.998 53.659c.036 0 .068.01.102.015 0-.008-.015-.006-.015-.017a.07.07 0 00-.02-.013.065.065 0 00-.024-.004.058.058 0 00-.023.005.06.06 0 00-.02.014z" fill="#000"/><path d="M106.868 32.118c-.452.649-.942 1.295-1.409 1.941a17.626 17.626 0 00-.77 5.222c.001 1.224.119 2.445.353 3.647.444-.405.9-.827 1.377-1.284 1.208-1.155 2.476-2.372 3.785-3.632.312-5.1 2.762-8.885 7.92-8.885.603 0 1.204.06 1.794.18.114-.087.233-.19.347-.277 1.516-1.158 2.962-2.077 4.34-2.758.033-.016.063-.026.101-.042-1.824-.936-3.951-1.455-6.355-1.455-3.468 0-6.334 1.026-8.54 2.765-.073.127-.136.25-.213.38a74.087 74.087 0 01-2.73 4.198zM126.021 38.389c.012.276.023.554.023.838 0 5.05-1.912 9.625-6.977 10.145-.195.38-.405.756-.586 1.14a22.325 22.325 0 00-1.27 3.233c.222.009.436.031.664.031 9.061 0 13.647-6.805 13.647-14.62 0-2.753-.541-5.22-1.536-7.307-.432.866-.97 1.823-1.616 2.871a135.05 135.05 0 01-2.349 3.669zM157.42 32.853c0-4.37-3.233-7.671-9.258-7.671h-11.915v28.187h5.184v-11.67h4.611c4.718 0 5.618 1.555 5.618 4.958v.476c0 2.873.048 5.013.55 6.236h5.043c-.417-1.272-.397-3.533-.397-5.445v-1.328c0-4.994-2.071-6.537-3.776-7.093 2.265-.799 4.34-2.909 4.34-6.65zm-10.529 4.578h-5.46v-7.983h5.699c3.271 0 4.926 1.426 4.926 3.96 0 2.634-1.496 4.023-5.165 4.023zM188.981 18.184c0-.966-.709-1.696-2.047-1.696H184.3v6.232h1.146v-2.58h1.019c1.044 0 1.242.344 1.242 1.095v.102c0 .635.011 1.108.122 1.379h1.114c-.091-.282-.087-.781-.087-1.204v-.294c0-1.104-.458-1.445-.835-1.567.501-.174.96-.64.96-1.467zm-2.331 1.013h-1.207v-1.77h1.26c.724 0 1.089.315 1.089.875.003.587-.328.894-1.139.894h-.003zM176.175 25.182h-6.609l-9.727 28.187h5.21l2.484-7.178h10.624l2.593 7.178h5.573l-10.148-28.187zm-7.468 16.628c1.795-5.511 3.287-10.05 3.979-12.697h.042c.656 2.401 2.001 6.248 4.237 12.697h-8.258zM83.903 37.893a3.419 3.419 0 00-.39.54c-.058.119-.229.319-.506.6-.139.099-.27.209-.39.328l-.269.271-.54.54a2.559 2.559 0 01-.66.419.851.851 0 00-.078.05c0 .683 0 1.372.006 2.059 1.41-1.33 2.813-2.643 4.21-3.942-.286-.509-.563-1.006-.832-1.493-.19.214-.376.426-.55.628zM81.508 39.366c.157-.14.337-.31.538-.507.36-.32.702-.63 1.019-.93.317-.299.58-.548.78-.748.14-.111.26-.213.38-.316-.193-.348-.38-.686-.563-1.013-.878.773-1.748 1.553-2.612 2.338 0 .526.01 1.062.014 1.602.159-.163.313-.31.445-.426z" fill="#fff"/><path d="M131.31 55.967c-.323.101-.697.229-1.136.387-.483.16-1.042.38-1.678.66-3.361 1.399-5.909 2.137-7.642 2.217-1.741.081-2.907-.27-3.507-1.048-.6-.779-.751-1.859-.448-3.236.084-.392.193-.794.315-1.202a16.25 16.25 0 01-1.109-.071c.007.021.014.044.042.044a.238.238 0 01.066.184v.304c.278 0 .375.038.297.12a.404.404 0 01-.151.177.457.457 0 00-.146.18c-.083.16-.142.203-.18.12v.303l-.123.182h-.058a.858.858 0 00-.029-.181.806.806 0 01-.034-.24.17.17 0 01.02-.065.172.172 0 01.043-.053v-.12a.117.117 0 00-.029-.09.114.114 0 01-.034-.09c.043-.042.063-.142.063-.304 0-.042.01-.082.029-.12a.264.264 0 00.028-.123.37.37 0 01.059-.21c.011-.018.023-.021.034-.03a13.928 13.928 0 01-2.634-.553c-.286 1.122-.405 2.168-.339 3.128.083 1.12.448 2.068 1.114 2.848.666.78 1.707 1.288 3.141 1.527 2.196.36 4.173.381 5.931.061 1.759-.32 3.248-.78 4.467-1.378 1.216-.6 2.175-1.216 2.873-1.858.698-.642 1.092-1.115 1.17-1.439.041-.122-.096-.135-.415-.031zM94.541 45.562c.304.575.548 1.062.71 1.419h.07a52.131 52.131 0 01-.173-2.629c-.04.077-.085.156-.125.23-.178.336-.336.663-.482.98zM88.04 33.852c.237-.18.277-.168.121.03-.038.066-.081.13-.129.19l.81 1.405c1.944-1.756 3.802-3.367 5.573-4.832.208-.171.406-.323.608-.49v-3.584c-2.49 1.792-5.082 3.842-7.777 6.149l.7 1.2c.027-.022.067-.048.093-.068zM102.542 44.998c-1.065.855-1.949 1.44-2.67 1.77v3.182c.383-.18.755-.383 1.114-.608a18.764 18.764 0 003.058-2.697c.517-.493 1.007-.956 1.508-1.43a16.022 16.022 0 01-.608-2.29 51.577 51.577 0 01-2.402 2.073zM127.532 28.01a.771.771 0 01.245.594 12.61 12.61 0 012.209 3.243c.375-.736.696-1.498.96-2.281.439-1.359.454-2.387.035-3.087-.42-.7-1.352-1.088-2.791-1.168-1.051-.039-2.25.271-3.589.911.888.45 1.715 1.012 2.461 1.671.195.001.361.026.47.117zM70.644 42.688a156.855 156.855 0 005.561-7.03v-6.089a65.373 65.373 0 01-2.158 2.905 147.126 147.126 0 01-4.395 5.312h.992v4.902zM123.518 42.091a209.325 209.325 0 002.503-3.702c-.083-1.809-.435-3.48-1.085-4.89-.678.9-1.405 1.852-2.229 2.901a65.762 65.762 0 00-3.088 4.255 72.12 72.12 0 00-2.336 3.687 48.781 48.781 0 00-2.184 4.102c-.055.115-.095.228-.147.344.892.385 1.85.595 2.821.62.016-.04.027-.074.052-.125a.763.763 0 01.18-.359.354.354 0 00.123-.24c.039-.12.068-.218.087-.303.019-.085.132-.161.331-.241h.24a.254.254 0 01.18.06v.061a.555.555 0 00-.063.24.102.102 0 01-.016.053.103.103 0 01-.043.037.338.338 0 00-.117.149c-.16.202-.253.351-.273.448a.563.563 0 01-.116.218c.249-.006.497-.014.732-.038a50.024 50.024 0 011.964-3.504c.934-1.515 1.762-2.773 2.484-3.773zM76.174 44.788l.031-.042v-2.118a476.532 476.532 0 00-5.304 5.008l-.257.248v2.007l.257-.248c.405-.36.659-.6.78-.719.122-.12.215-.22.298-.304.083-.084.19-.203.332-.359.14-.156.448-.46.927-.9.911-.918 1.58-1.528 1.98-1.828.4-.3.497-.288.297.032a1.36 1.36 0 00-.21.329.725.725 0 01-.122.21c-.09.117-.19.227-.297.329l-.688.69a13.477 13.477 0 00-1.14 1.017 5.213 5.213 0 01-.63.54 5.212 5.212 0 00-.63.54l-1.154 1v2.286a820.274 820.274 0 005.561-5.208v-2.414c-.056 0-.076-.028-.031-.096zM82.954 25.335a45.698 45.698 0 001.671-3.349c1.638-3.694 2.417-6.83 2.336-9.407-.08-2.578-.719-4.825-1.917-6.742-.96-1.52-2.17-2.698-3.628-3.536A18.286 18.286 0 0076.958.443a22.685 22.685 0 00-3.749-.42 48.86 48.86 0 00-3.774.03c-1.219.058-2.35.16-3.39.304a73.214 73.214 0 00-2.575.39c-7.35 1.436-13.822 3.262-19.416 5.477-5.595 2.216-10.509 4.603-14.742 7.162-.522.361-1.151.819-1.888 1.38a26.417 26.417 0 00-2.248 1.917 17.088 17.088 0 00-2.039 2.306 6.891 6.891 0 00-1.2 2.548c-.039.16-.018.28.063.36.083.08.22.09.42.029.332-.12.652-.27.956-.45.4-.202.99-.521 1.77-.958l2.668-1.5a254.56 254.56 0 013.146-1.735l3.204-1.739a74.85 74.85 0 013.058-1.677 93.806 93.806 0 013.413-1.678c5.433-2.558 10.547-4.536 15.343-5.933 4.796-1.396 9.04-2.334 12.734-2.811 3.697-.48 6.753-.56 9.168-.241 2.42.32 3.965.9 4.648 1.738.795.994 1.287 2.252 1.466 3.771.178 1.52.048 3.259-.39 5.216-.439 1.958-1.17 4.085-2.19 6.383a56.27 56.27 0 01-2.478 4.874h3.927c.03.043.063.1.091.149zM37.222 11.769a2.301 2.301 0 00-.122.42c0 .04-.181.18-.537.42a2.387 2.387 0 01-.658.268c-.244.06-.502.131-.78.21-.274.079-.555.13-.84.15a4.14 4.14 0 00-.838.15c-.083.04-.112.04-.093 0a.964.964 0 01.151-.179c.078-.161.381-.36.898-.6.162-.07.314-.161.453-.27a.614.614 0 00.117-.15.81.81 0 01.151-.18c.162-.13.343-.232.537-.304.523-.237.942-.356 1.258-.356.284 0 .38.14.303.421zm14.801-6.413a1.089 1.089 0 01-.658.539l-.839.242a.75.75 0 01-.42.12 2.882 2.882 0 00-.54.057 2.183 2.183 0 00-.601.061.976.976 0 00-.419.12c-.156.08-.304.16-.449.239-.145.078-.268.16-.39.242a1.55 1.55 0 00-.42.304l-.297.297c-.203.24-.35.431-.449.57-.098.139-.312.29-.63.449l-.419.206a1.238 1.238 0 00-.303.21c-.24.08-.459.16-.66.241a.673.673 0 01-.419.088c-.119-.02-.24-.03-.36-.03-.14 0-.28.009-.42.03a1.678 1.678 0 00-.42.15 2.284 2.284 0 00-.448.305c-.14.12-.268.239-.39.358-.316.28-.536.442-.658.48-.162.082-.405.11-.752.09-.346-.02-.584.01-.745.09l-.478.479a1.63 1.63 0 01-.836.359.18.18 0 00-.122-.061c-.161 0-.258-.02-.298-.06-.322-.079-.42-.218-.304-.42a4.87 4.87 0 01.151-.359c.096-.115.206-.217.326-.304.203-.158.314-.32.333-.48.02-.161.21-.278.57-.359.078 0 .278-.08.6-.239.117-.08.337-.241.659-.48.116-.08.239-.158.355-.24.137-.087.279-.166.425-.237.295-.186.616-.327.952-.42a6.688 6.688 0 001.172-.388c.419-.182.848-.372 1.286-.571.203-.078.4-.169.6-.268.2-.1.4-.19.6-.271.306-.152.626-.272.956-.358.323-.081.541-.142.659-.18.077-.04.159-.07.243-.09.083-.022.163-.053.24-.092a2.368 2.368 0 011.018-.357c.153-.028.303-.068.45-.12a3.34 3.34 0 00.268-.122c.202-.12.517-.159.96-.12.218.04.439.05.659.032.178-.02.357-.03.536-.031.248 0 .288.1.127.299zm5.097-1.377a.352.352 0 01-.123.239c-.083.161-.258.26-.54.304-.16.071-.333.112-.507.12-.133-.001-.265.02-.39.06a.893.893 0 00-.658.24c-.182.148-.384.27-.6.36-.203.08-.459.058-.781-.06a.165.165 0 01-.117-.062.426.426 0 00-.15-.088.289.289 0 01-.152-.15c-.239-.24-.259-.399-.06-.482.203-.12.338-.209.421-.267.083-.06.337-.13.78-.21a2.634 2.634 0 001.077-.304c.161-.04.304-.069.45-.09.17-.022.34-.032.512-.03.07.001.142-.009.21-.029a.659.659 0 01.21-.031.444.444 0 01.175-.06.439.439 0 00.18-.06c.123-.081.161 0 .123.24a1.651 1.651 0 00-.06.36zm7.607-1.621a.12.12 0 00-.087.031.261.261 0 01-.151.03c-.123.038-.25.08-.39.12-.172.05-.341.11-.507.18-.203.038-.38.08-.54.119a3.964 3.964 0 00-.538.182.598.598 0 01-.268.06.595.595 0 00-.269.06.517.517 0 01-.21.059.49.49 0 00-.21.06c-.322.08-.6.162-.838.24-.136.069-.276.13-.42.18l-.36.18c-.278.12-.517.22-.717.304a.782.782 0 01-.6 0l-.122-.121a1.317 1.317 0 01-.241-.302 1.622 1.622 0 01-.18-.361.275.275 0 01.058-.304 4.53 4.53 0 01.453-.33c.101-.058.327-.11.688-.148a1.57 1.57 0 00.449-.061c.113-.03.224-.07.331-.12a.931.931 0 01.659 0h.058c.072-.184.175-.356.304-.506.118-.139.24-.168.357-.09a.453.453 0 00.18.06c.047.004.09.025.122.06h.24c.117 0 .219.08.297.24a.679.679 0 01.063.298h.327c.132.001.264-.019.39-.058h.839c.12 0 .241-.01.36-.03.1-.018.199-.028.299-.031l.174-.001zm5.876-.03c-.317.061-.697.129-1.136.21-.121 0-.242.01-.361.03-.12.02-.24.031-.36.03-.12.001-.24.01-.357.03a2.927 2.927 0 01-1.02-.03 1.244 1.244 0 01-.482-.06v-.06a.185.185 0 01.064-.12.568.568 0 01.418-.179c.124-.029.246-.07.362-.121.114-.051.233-.09.356-.118 0-.397.1-.598.304-.598a.841.841 0 01.39.21.853.853 0 00.448.21c.4.08.518.178.357.298.283.041.551.07.81.09.194.01.385.04.571.09.071 0-.043.03-.368.09l.004-.002zM99.871 26.515c.365-.248.732-.498 1.082-.722 1.936-1.239 3.505-1.858 4.706-1.858.117 0 .304.01.571.029a.887.887 0 01.658.39c.18.24.229.629.147 1.168-.078.54-.381 1.33-.898 2.368-.4.758-1.058 1.786-1.975 3.084a339.096 339.096 0 01-3.058 4.256c-.414.567-.823 1.148-1.233 1.73v4.79c.233-.375.481-.757.755-1.155a117.361 117.361 0 012.966-4.107c.608-.81 1.179-1.621 1.766-2.432.82-2.647 2.291-4.893 4.347-6.515.673-1.184 1.132-2.259 1.348-3.216.239-1.056.137-1.925-.304-2.607-.441-.682-1.4-1.078-2.877-1.198-1.478-.12-3.302.371-5.483 1.468a50.78 50.78 0 00-5.37 3.196h2.85l.002 1.331zM122.451 30.42a6.668 6.668 0 00-.943-.551.5.5 0 01-.208.237.383.383 0 01-.269.12.213.213 0 00-.21.12.604.604 0 00-.121.18.645.645 0 01-.239.239h-.181c-.078 0-.116-.039-.116-.12v-.148c0-.02.038-.07.116-.152a.478.478 0 00.059-.209c0-.058.039-.11.122-.148.144-.106.266-.239.36-.39 0-.007.011-.012.014-.017a7.45 7.45 0 00-1.014-.274 67.942 67.942 0 00-4.356 3.677 236.534 236.534 0 00-4.735 4.433l-.619.594c-.022.375-.037.755-.037 1.142.002.583.034 1.166.095 1.747 4.236-3.903 7.732-6.947 10.451-9.087a56.91 56.91 0 011.831-1.394zm-2.533.525a.35.35 0 01-.059.239c0 .042-.101.161-.298.362-.248.236-.52.447-.811.629-.341.219-.672.448-.989.69-.083.08-.083.049 0-.091.082-.14.258-.332.541-.57.117-.12.195-.203.239-.24a.474.474 0 00.088-.118.607.607 0 01.121-.152c.059-.058.172-.168.328-.33.195-.21.418-.39.663-.538.198-.04.261 0 .179.119h-.002zM66.443 51.915l-2.223 2.128c-1.941 1.865-3.54 3.345-4.794 4.44-1.255 1.094-1.985 1.584-2.19 1.468-.277-.162-.37-.429-.268-.81.136-.466.338-.91.6-1.318a13.51 13.51 0 011.107-1.558c.439-.54.858-1.03 1.258-1.468.278-.32.551-.608.81-.868.14-.14.272-.313.406-.47-1.971.435-4.01.467-5.994.094-.446.524-.89 1.065-1.333 1.634a43.69 43.69 0 00-2.22 3.087c-.677 1.04-1.16 1.977-1.438 2.816a5.867 5.867 0 00-.268 1.859c.015.549.216 1.077.57 1.497.222.26.484.482.775.659.37.216.777.358 1.2.418.961.161 2.326-.309 4.106-1.406 1.78-1.097 3.815-2.607 6.112-4.526a191.95 191.95 0 007.055-6.221h-2.99a9.585 9.585 0 01-.28-1.455zM65.465 42.491c-.562.615-1.114 1.228-1.694 1.848a349.037 349.037 0 01-4.951 5.199c5.458-.053 6.632-3.793 6.645-7.047z" fill="#fff"/><path d="M61.15 53.457c.115-.134.232-.251.344-.397 3.445-3.725 6.495-7.182 9.15-10.372v-4.902h-.992c-.137.16-.26.31-.4.47a238.194 238.194 0 01-3.786 4.235c-.014 3.254-1.188 6.991-6.646 7.047-.203.21-.419.436-.623.644-.522.56-1.182 1.28-1.98 2.158-.353.389-.71.796-1.06 1.216a14.97 14.97 0 005.993-.095v-.004z" fill="#000"/><path d="M61.252 53.457c.114-.134.232-.251.343-.397 3.445-3.725 6.495-7.182 9.15-10.372v-4.902h-.992c-.136.16-.26.31-.399.47a238.194 238.194 0 01-3.787 4.235c-.013 3.254-1.188 6.991-6.646 7.047-.202.21-.418.436-.623.644-.522.56-1.182 1.28-1.98 2.158-.353.389-.709.796-1.06 1.216a14.97 14.97 0 005.994-.095v-.004z" fill="#fff"/><path d="M69.1 51.56c-.162.12-.102.022.18-.304.245-.282.71-.745 1.362-1.37V47.88l-4.201 4.03c.056.492.15.978.282 1.455h2.99c.146-.136.287-.263.435-.4.148-.136.33-.303.494-.46v-2.28L69.1 51.56z" fill="#000"/><path d="M69.201 51.56c-.161.12-.101.022.18-.304.246-.282.71-.745 1.362-1.37V47.88l-4.2 4.03c.056.492.15.978.281 1.455h2.99l.436-.4c.148-.136.329-.303.493-.46v-2.28l-1.542 1.335z" fill="#fff"/><path d="M80.489 41.136c-.265.266-.515.546-.75.838a3.925 3.925 0 01-.63.658c-.18.167-.381.308-.6.42-.228.12-.432.284-.6.48-.117.12-.268.29-.449.507-.2.24-.431.45-.686.63a1.438 1.438 0 01-.362.18.531.531 0 01-.203.04v2.413c.729-.688 1.451-1.366 2.188-2.065.897-.854 1.789-1.691 2.682-2.533 0-.687 0-1.376-.006-2.06a1.993 1.993 0 00-.584.492z" fill="#000"/><path d="M80.489 41.136c-.265.266-.515.546-.75.838a3.925 3.925 0 01-.63.658c-.18.167-.381.308-.6.42-.228.12-.432.284-.6.48-.117.12-.268.29-.449.507-.2.24-.431.45-.686.63a1.438 1.438 0 01-.362.18.531.531 0 01-.203.04v2.413c.729-.688 1.451-1.366 2.188-2.065.897-.854 1.789-1.691 2.682-2.533 0-.687 0-1.376-.006-2.06a1.993 1.993 0 00-.584.492z" fill="#fff"/><path d="M83.662 35.845c.184.331.37.67.564 1.013.051-.043.112-.091.16-.133.156-.142.298-.27.42-.39.12-.12.238-.229.356-.33.117-.1.283-.228.482-.39a3.56 3.56 0 00.357-.303c.076-.076.157-.146.243-.21.078-.059.175-.139.298-.24.15-.12.31-.23.478-.328.39-.25.691-.452.924-.622l-.698-1.2-.134.112a420.59 420.59 0 00-3.45 3.02z" fill="#000"/><path d="M83.764 35.845c.183.331.37.67.563 1.013.052-.043.112-.091.16-.133.156-.142.298-.27.42-.39.121-.12.239-.229.356-.33.118-.1.283-.228.483-.39a3.56 3.56 0 00.356-.303c.076-.076.157-.146.243-.21.078-.059.176-.139.298-.24.151-.12.31-.23.478-.328.39-.25.691-.452.924-.622l-.698-1.2-.133.112a420.59 420.59 0 00-3.45 3.02z" fill="#fff"/><path d="M88.848 35.477l-.81-1.405a2.08 2.08 0 01-.442.47c-.241.185-.471.385-.688.597a5.68 5.68 0 01-.84.661c-.3.192-.58.413-.838.659-.243.239-.473.48-.692.72-.029.03-.053.06-.08.09.27.487.547.984.832 1.493.468-.436.94-.88 1.408-1.317.725-.674 1.443-1.329 2.15-1.968z" fill="#000"/><path d="M88.949 35.477l-.81-1.405c-.123.178-.271.337-.442.47-.241.185-.471.385-.688.597-.259.247-.54.468-.84.661-.3.192-.58.413-.838.659-.243.239-.473.48-.692.72l-.08.09c.27.487.547.984.832 1.493.468-.436.94-.88 1.408-1.317.725-.674 1.443-1.329 2.15-1.968z" fill="#fff"/><path d="M76.597 35.14c2.653-3.622 4.773-6.89 6.361-9.805-.028-.05-.06-.101-.089-.153h-3.931a72.009 72.009 0 01-1.384 2.348 43.77 43.77 0 01-1.349 2.039v6.088c.127-.17.264-.348.392-.517z" fill="#000"/><path d="M76.597 35.14c2.653-3.622 4.773-6.89 6.361-9.805-.028-.05-.06-.101-.089-.153h-3.931a72.009 72.009 0 01-1.384 2.348 43.77 43.77 0 01-1.349 2.039v6.088c.127-.17.264-.348.392-.517z" fill="#fff"/><path d="M99.753 46.827c-.737.32-1.224.202-1.467-.361-.243-.563-.128-1.358.331-2.397.364-.802.783-1.577 1.254-2.32v-4.79c-.702.994-1.4 2.001-2.093 3.04a49.527 49.527 0 00-2.634 4.356c.041.956.101 1.84.172 2.629h-.07c-.16-.353-.405-.84-.709-1.419-.461 1.014-.76 1.915-.899 2.704-.18 1.038.113 1.736.869 2.097 1.16.558 2.296.678 3.418.358.67-.197 1.32-.455 1.942-.77v-3.186c-.034.018-.077.041-.114.059z" fill="#000"/><path d="M99.753 46.827c-.737.32-1.224.202-1.467-.361-.243-.563-.128-1.358.331-2.397.364-.802.783-1.577 1.254-2.32v-4.79c-.702.994-1.4 2.001-2.093 3.04a49.527 49.527 0 00-2.634 4.356c.041.956.101 1.84.172 2.629h-.07c-.16-.353-.405-.84-.709-1.419-.461 1.014-.76 1.915-.899 2.704-.18 1.038.113 1.736.869 2.097 1.16.558 2.296.678 3.418.358.67-.197 1.32-.455 1.942-.77v-3.186c-.034.018-.077.041-.114.059z" fill="#fff"/><path d="M99.871 26.515v-1.333h-2.849c-.586.393-1.181.804-1.79 1.24l-.203.149v3.585c1.742-1.418 3.356-2.63 4.842-3.64z" fill="#000"/><path d="M99.871 26.515v-1.333h-2.849c-.586.393-1.181.804-1.79 1.24l-.203.149v3.585c1.742-1.418 3.356-2.63 4.842-3.64z" fill="#fff"/><path d="M76.65 44.13c.204-.203.313-.349.332-.451.02-.103.171-.248.45-.45.379-.339.738-.7 1.077-1.08.203-.203.42-.43.664-.691.256-.275.537-.525.839-.748.157-.12.307-.25.448-.39.16-.16.33-.31.507-.449.036-.035.062-.057.102-.09 0-.54-.009-1.076-.014-1.602-.756.683-1.52 1.36-2.267 2.05-.879.811-1.723 1.6-2.578 2.395v2.118c.066-.082.125-.168.178-.258.015-.034.108-.154.263-.354z" fill="#000"/><path d="M76.65 44.13c.204-.203.313-.349.332-.451.02-.103.171-.248.45-.45.379-.339.738-.7 1.077-1.08.203-.203.42-.43.664-.691.256-.275.537-.525.839-.748.157-.12.307-.25.448-.39.16-.16.33-.31.507-.449.036-.035.062-.057.102-.09 0-.54-.009-1.076-.014-1.602-.756.683-1.52 1.36-2.267 2.05-.879.811-1.723 1.6-2.578 2.395v2.118c.066-.082.125-.168.178-.258.015-.034.108-.154.263-.354z" fill="#fff"/><path d="M110.066 39.153c0-.387.014-.767.037-1.142-1.309 1.26-2.578 2.477-3.786 3.632-.477.457-.933.879-1.377 1.284.147.777.35 1.542.608 2.289a444.024 444.024 0 014.613-4.316 17.272 17.272 0 01-.095-1.747z" fill="#000"/><path d="M110.066 39.153c0-.387.014-.767.037-1.142-1.309 1.26-2.578 2.477-3.786 3.632-.477.457-.933.879-1.377 1.284.147.777.35 1.542.608 2.289a444.024 444.024 0 014.613-4.316 17.272 17.272 0 01-.095-1.747z" fill="#fff"/><path d="M116.087 53.657c0 .01.012.009.015.017.359.038.733.057 1.109.07.339-1.108.763-2.19 1.27-3.232.184-.384.391-.76.586-1.14a9.473 9.473 0 01-.732.038.942.942 0 01-.093.114c-.161.08-.229.171-.21.268.019.098-.029.09-.146-.029a.757.757 0 01-.152-.18.315.315 0 01.037-.176 7.598 7.598 0 01-2.822-.619 28.256 28.256 0 00-1.438 3.762c-.057.189-.101.371-.144.556.858.268 1.741.454 2.634.553a.065.065 0 01.043-.019c.016 0 .031.006.043.017zm.477-1.677a.244.244 0 00.064-.178c0-.084.02-.167.057-.242a.35.35 0 00.084-.107.353.353 0 00.034-.132.323.323 0 01.036-.132.318.318 0 01.086-.107v-.06c.039-.203.078-.379.122-.54a.777.777 0 01.175-.36h.304c.203 0 .298.041.298.121a.677.677 0 00.03.21c.019.059-.011.149-.089.268a2.52 2.52 0 00-.18.304.824.824 0 01-.18.24h-.059v.06c0 .039-.039.102-.122.18-.078.04-.117.08-.117.12a.177.177 0 01-.058.12.244.244 0 01-.064.18.176.176 0 00-.058.12.062.062 0 01-.002.023.055.055 0 01-.013.02.045.045 0 01-.02.013.048.048 0 01-.023.002.327.327 0 00-.093.151c-.02.06-.049.09-.089.09h-.121a.185.185 0 01-.03-.18.793.793 0 00.028-.187v.003z" fill="#000"/><path d="M116.087 53.657c0 .01.012.009.015.017.359.038.733.057 1.109.07.339-1.108.763-2.19 1.27-3.232.184-.384.391-.76.586-1.14a9.473 9.473 0 01-.732.038.942.942 0 01-.093.114c-.161.08-.229.171-.21.268.019.098-.029.09-.146-.029a.757.757 0 01-.152-.18.315.315 0 01.037-.176 7.598 7.598 0 01-2.822-.619 28.256 28.256 0 00-1.438 3.762c-.057.189-.101.371-.144.556.858.268 1.741.454 2.634.553a.065.065 0 01.043-.019c.016 0 .031.006.043.017zm.477-1.677a.244.244 0 00.064-.178c0-.084.02-.167.057-.242a.35.35 0 00.084-.107.353.353 0 00.034-.132.323.323 0 01.036-.132.318.318 0 01.086-.107v-.06c.039-.203.078-.379.122-.54a.777.777 0 01.175-.36h.304c.203 0 .298.041.298.121a.677.677 0 00.03.21c.019.059-.011.149-.089.268a2.52 2.52 0 00-.18.304.824.824 0 01-.18.24h-.059v.06c0 .039-.039.102-.122.18-.078.04-.117.08-.117.12a.177.177 0 01-.058.12.244.244 0 01-.064.18.176.176 0 00-.058.12.062.062 0 01-.002.023.055.055 0 01-.013.02.045.045 0 01-.02.013.048.048 0 01-.023.002.327.327 0 00-.093.151c-.02.06-.049.09-.089.09h-.121a.185.185 0 01-.03-.18.793.793 0 00.028-.187v.003z" fill="#fff"/><path d="M120.165 29.029c-.115.086-.233.19-.348.278.344.067.682.159 1.013.274.142-.197.32-.364.524-.494.125-.082.246-.172.361-.268a4.14 4.14 0 01.361-.27c.201-.201.422-.381.658-.54a1.46 1.46 0 00.361-.238.834.834 0 00.147-.09.698.698 0 01.151-.09.767.767 0 00.304-.181l.058-.059h.24a2.7 2.7 0 00.447-.121c.102-.04.113 0 .031.121a.359.359 0 01-.239.24.348.348 0 01-.239.119.422.422 0 01-.298.12 1.737 1.737 0 01-.21.09.357.357 0 00-.151.09c-.083.08-.161.16-.239.239a.702.702 0 00-.18.304.306.306 0 00-.122.21.335.335 0 01-.118.21c-.083.08-.131.128-.151.15a.958.958 0 01-.092.087c-.043.039-.069.062-.088.062-.019 0-.049.02-.088.06a.599.599 0 01-.304.12.34.34 0 00-.239.12 1.07 1.07 0 00-.21.304c.329.157.644.341.942.55 2.266-1.659 3.803-2.499 4.611-2.52a11.712 11.712 0 00-2.461-1.67c-.033.016-.063.026-.101.042-1.37.676-2.814 1.593-4.331 2.751z" fill="#000"/><path d="M120.165 29.029c-.115.086-.233.19-.348.278.344.067.682.159 1.013.274.142-.197.32-.364.524-.494.125-.082.246-.172.361-.268a4.14 4.14 0 01.361-.27c.201-.201.422-.381.658-.54a1.46 1.46 0 00.361-.238.834.834 0 00.147-.09.698.698 0 01.151-.09.767.767 0 00.304-.181l.058-.059h.24a2.7 2.7 0 00.447-.121c.102-.04.113 0 .031.121a.359.359 0 01-.239.24.348.348 0 01-.239.119.422.422 0 01-.298.12 1.737 1.737 0 01-.21.09.357.357 0 00-.151.09c-.083.08-.161.16-.239.239a.702.702 0 00-.18.304.306.306 0 00-.122.21.335.335 0 01-.118.21c-.083.08-.131.128-.151.15a.958.958 0 01-.092.087c-.043.039-.069.062-.088.062-.019 0-.049.02-.088.06a.599.599 0 01-.304.12.34.34 0 00-.239.12 1.07 1.07 0 00-.21.304c.329.157.644.341.942.55 2.266-1.659 3.803-2.499 4.611-2.52a11.712 11.712 0 00-2.461-1.67c-.033.016-.063.026-.101.042-1.37.676-2.814 1.593-4.331 2.751z" fill="#fff"/><path d="M105.358 34.054c.467-.646.956-1.292 1.408-1.94a69.869 69.869 0 002.727-4.194c.077-.131.139-.254.212-.381-2.057 1.622-3.523 3.87-4.347 6.515z" fill="#000"/><path d="M105.459 34.054c.467-.646.957-1.292 1.409-1.94a69.344 69.344 0 002.726-4.194c.077-.131.14-.254.213-.381-2.057 1.622-3.523 3.87-4.348 6.515z" fill="#fff"/><path d="M127.777 28.604c.006.292-.089.649-.304 1.084-.4.799-1.019 1.767-1.858 2.905-.211.286-.453.603-.68.905.65 1.412 1.002 3.082 1.085 4.89.877-1.328 1.667-2.556 2.35-3.668a37.049 37.049 0 001.615-2.871 12.594 12.594 0 00-2.208-3.245z" fill="#000"/><path d="M127.777 28.604c.006.292-.089.649-.304 1.084-.4.799-1.019 1.767-1.858 2.905-.211.286-.453.603-.68.905.65 1.412 1.002 3.082 1.085 4.89.877-1.328 1.667-2.556 2.35-3.668a37.049 37.049 0 001.615-2.871 12.594 12.594 0 00-2.208-3.245z" fill="#fff"/><path d="M186.428 24.874a5.269 5.269 0 10-.001-10.537 5.269 5.269 0 00.001 10.537z" stroke="#fff" stroke-width=".608" stroke-miterlimit="10"/></svg>