<svg width="102" height="54" fill="none" xmlns="http://www.w3.org/2000/svg"><path fill-rule="evenodd" clip-rule="evenodd" d="M65.582 30.413c3.322 0 5.844 2.637 5.844 7.925 0 6.173-2.986 9.398-7.569 9.398-1.341 0-2.539-.356-3.353-1.023v3.18c0 1.969 1.102 2.48 2.938 2.48v.667c-1.102-.031-3.273-.14-5.493-.14-1.597 0-3.306.109-4.12.14v-.666c1.437 0 1.964-.482 1.964-2.172V34.337c0-1.908-.511-2.792-2.092-2.792v-.666a23.1 23.1 0 002.028.092c1.82 0 3.417-.124 4.775-.45V33.5c.91-2.016 2.762-3.086 5.078-3.086zm15.626 0c3.816 0 6.148 2.078 6.148 7.057h-9.15c-.048.465-.064.992-.064 1.504 0 4.42 2.187 6.141 4.264 6.141 1.308 0 2.97-.434 4.295-2.543l.59.217c-.781 2.388-2.921 4.947-6.546 4.947-4.408 0-7.538-2.698-7.538-8.498 0-5.894 3.354-8.825 8-8.825zm-34.875 0c2.108 0 3.737.372 4.79 1.427.959.961 1.166 2.233 1.166 4.45v8.64c0 1.023.176 1.41.703 1.41.463 0 .83-.263 1.198-.542l.335.543c-.99.775-2.076 1.163-3.737 1.163-2.395 0-3.13-1.21-3.146-2.575-1.117 1.783-2.986 2.575-4.822 2.575-2.443 0-4.136-1.303-4.136-3.614 0-2.296 1.565-3.583 4.599-4.668 2.411-.884 4.296-1.489 4.296-2.854v-2.481c0-1.66-.735-2.838-2.667-2.838-.783 0-1.74.217-2.331.775 1.165.388 1.932 1.21 1.932 2.497 0 1.318-1.054 2.28-2.667 2.28-1.421 0-2.316-1.054-2.316-2.45 0-1.163.767-2.048 1.837-2.653 1.165-.635 2.762-1.085 4.966-1.085zm-11.254 0c2.124 0 2.986 1.504 2.986 2.931 0 1.567-1.006 2.667-2.539 2.667-1.533 0-2.443-.806-2.443-2.046 0-1.164.623-1.923 1.437-2.45a1.252 1.252 0 00-.43-.078c-.145 0-.304.03-.464.077-1.74.28-2.97 2.389-2.97 4.095v8.405c0 2.047 1.006 2.606 3.066 2.606v.667c-1.006-.031-3.13-.125-5.19-.125-1.788 0-3.785.094-4.679.125v-.667c1.517 0 2.092-.512 2.092-2.28V34.321c0-1.907-.51-2.807-2.092-2.807v-.667c.686.062 1.373.109 2.028.109 1.82 0 3.401-.14 4.775-.45v2.962c.782-1.706 2.363-3.055 4.423-3.055zm-24.97-5.614c8.607 0 12.71 3.908 12.71 10.995 0 6.917-4.79 11.492-13.014 11.492-1.022 0-3.305-.093-4.775-.093-1.932 0-3.928.032-5.03.093v-.635c2.076-.093 2.443-.419 2.443-2.73V28.165c0-2.312-.383-2.637-2.443-2.73v-.636a79.95 79.95 0 003.945.108l1.021-.015c1.565-.031 3.833-.093 5.142-.093zm88.905 5.614c2.124 0 2.986 1.504 2.986 2.931 0 1.567-1.006 2.667-2.539 2.667-1.533 0-2.443-.806-2.443-2.046 0-1.164.623-1.923 1.437-2.45a1.253 1.253 0 00-.43-.078 1.7 1.7 0 00-.464.077c-1.74.28-2.97 2.389-2.97 4.095v8.405c0 2.047 1.005 2.606 3.065 2.606v.667c-1.006-.031-3.13-.125-5.19-.125-1.787 0-3.784.094-4.678.125v-.667c1.517 0 2.092-.512 2.092-2.28V34.321c0-1.907-.511-2.807-2.092-2.807v-.667c.687.062 1.373.109 2.028.109 1.82 0 3.401-.14 4.775-.45v2.962c.782-1.706 2.363-3.055 4.423-3.055zm-35.348 1.365c-1.438 0-2.763 1.008-3.162 2.807v11.43c.479.542 1.197.853 2.076.853 2.906 0 3.912-3.025 3.912-7.91 0-5.397-1.118-7.18-2.826-7.18zm-53.59-6.405c-1.996 0-2.427.543-2.427 2.73v15.88c0 2.218.431 2.73 2.46 2.73 5.509 0 7.281-3.877 7.281-10.794 0-7.12-2.044-10.546-7.314-10.546zM47.58 37.67c-.304.48-.927.9-2.029 1.567-1.15.822-2.22 1.86-2.22 3.768 0 1.753.88 2.466 2.045 2.466.798 0 1.517-.341 2.204-1.287V37.67zm33.437-6.575c-1.47 0-2.635 1.659-2.906 5.768h5.126c.064-3.1-.623-5.768-2.22-5.768zM44.49 19.886a2.39 2.39 0 012.386 2.392 2.389 2.389 0 01-2.386 2.392 2.389 2.389 0 01-2.386-2.392 2.389 2.389 0 012.386-2.392zM28.105 0v.636c-2.092.093-2.459.419-2.459 2.73v15.756c0 2.311.384 2.637 2.46 2.73v.636c-1.214-.062-3.242-.093-5.143-.093-2.092 0-4.056.03-5.174.093v-.636c2.236-.093 2.651-.419 2.651-2.73V2.59l-7.872 19.944h-.527L3.21 2.047v15.23c0 3.49.288 4.295 3.177 4.575v.636c-.846-.062-2.363-.093-3.545-.093-1.021 0-2.155.03-2.842.093v-.636c2.092-.28 2.46-1.117 2.46-4.188V3.366C2.46 1.055 2.075.73 0 .635V0c.687.062 1.82.093 2.842.093C4.743.093 6.595.062 8.016 0l6.596 15.447L20.648.093h2.315c1.9 0 3.929-.031 5.142-.093zm12.771 5.614c2.124 0 2.987 1.504 2.987 2.931 0 1.567-1.006 2.668-2.54 2.668-1.533 0-2.443-.807-2.443-2.047 0-1.164.623-1.923 1.438-2.45a1.245 1.245 0 00-.432-.078c-.143 0-.303.03-.463.077-1.74.28-2.97 2.389-2.97 4.095v8.405c0 2.047 1.006 2.606 3.066 2.606v.667c-1.006-.032-3.13-.125-5.19-.125-1.788 0-3.784.093-4.678.125v-.667c1.516 0 2.091-.512 2.091-2.28V9.522c0-1.907-.51-2.807-2.091-2.807v-.667c.686.062 1.373.109 2.027.109 1.82 0 3.402-.14 4.775-.45V8.67c.783-1.706 2.363-3.055 4.423-3.055z" fill="#fff"/></svg>