<svg width="107" height="50" fill="none" xmlns="http://www.w3.org/2000/svg">
  <path d="M3.376.585L8.291 14.37 13.318.585h3.327v17.578h-2.961V6.545L9.627 18.163H7.119L3 6.52v11.643H.025V.585h3.351zM31.245 8.384l4.41-7.8h3.415l-6.377 10.61v6.968h-2.998v-6.968L23.357.584h3.377l4.51 7.8zM10.456 31.063V43.74c0 .95-.14 1.762-.422 2.438-.281.676-.661 1.229-1.14 1.657a4.534 4.534 0 01-1.663.945 6.498 6.498 0 01-1.991.302 6.091 6.091 0 01-1.928-.308 4.881 4.881 0 01-1.65-.92 4.543 4.543 0 01-1.154-1.519c-.29-.604-.434-1.306-.434-2.104v-1.701h2.999v1.675c0 .404.065.755.195 1.053.13.298.303.546.517.743.214.198.451.343.712.435.26.092.525.139.794.139.21 0 .44-.036.693-.108.252-.071.49-.197.711-.377.223-.18.41-.425.561-.732.151-.306.227-.69.227-1.153v-13.14h2.973zM38.9 39.82c0 1.362-.181 2.61-.542 3.743-.362 1.134-.888 2.11-1.582 2.93a7.09 7.09 0 01-2.564 1.909c-1.016.453-2.176.68-3.477.68-1.294 0-2.445-.227-3.453-.68a7.06 7.06 0 01-2.545-1.91c-.689-.818-1.212-1.797-1.569-2.935-.357-1.138-.535-2.392-.535-3.762 0-1.36.178-2.603.535-3.73.357-1.125.88-2.09 1.569-2.898a7.03 7.03 0 012.545-1.877c1.008-.445 2.16-.668 3.453-.668 1.301 0 2.46.223 3.477.668a7.029 7.029 0 012.564 1.884c.694.81 1.22 1.78 1.582 2.91.361 1.13.542 2.376.542 3.737zm-2.998-.025c0-1.067-.133-2.014-.397-2.841-.265-.828-.63-1.527-1.097-2.098a4.708 4.708 0 00-1.645-1.304 4.678 4.678 0 00-2.028-.447c-.73 0-1.407.15-2.028.447a4.688 4.688 0 00-1.626 1.304c-.462.572-.823 1.27-1.084 2.098-.26.827-.39 1.774-.39 2.841 0 1.058.13 2.008.39 2.848.26.84.621 1.552 1.084 2.136a4.732 4.732 0 001.626 1.336c.62.306 1.297.46 2.028.46.722 0 1.399-.154 2.028-.46a4.755 4.755 0 001.645-1.336c.466-.584.831-1.296 1.097-2.136.264-.84.396-1.79.396-2.848zM66.461 39.82c0 1.362-.18 2.61-.542 3.743-.361 1.134-.888 2.11-1.581 2.93a7.09 7.09 0 01-2.564 1.909c-1.017.453-2.176.68-3.478.68-1.294 0-2.445-.227-3.452-.68a7.06 7.06 0 01-2.546-1.91c-.688-.818-1.211-1.797-1.568-2.935-.357-1.138-.536-2.392-.536-3.762 0-1.36.179-2.603.536-3.73.357-1.125.88-2.09 1.568-2.898a7.03 7.03 0 012.546-1.877c1.007-.445 2.159-.668 3.452-.668 1.302 0 2.461.223 3.478.668a7.029 7.029 0 012.564 1.884c.693.81 1.22 1.78 1.581 2.91.362 1.13.542 2.376.542 3.737zm-2.998-.025c0-1.067-.133-2.014-.397-2.841-.265-.828-.63-1.527-1.097-2.098a4.708 4.708 0 00-1.645-1.304 4.68 4.68 0 00-2.028-.447c-.73 0-1.407.15-2.028.447a4.688 4.688 0 00-1.626 1.304c-.462.572-.823 1.27-1.084 2.098-.26.827-.39 1.774-.39 2.841 0 1.058.13 2.008.39 2.848.26.84.622 1.552 1.084 2.136a4.732 4.732 0 001.626 1.336c.621.306 1.297.46 2.028.46.722 0 1.399-.154 2.028-.46a4.755 4.755 0 001.645-1.336c.466-.584.831-1.296 1.097-2.136.264-.84.396-1.79.396-2.848zM91.641 31.063v2.508h-5.545v15.07h-2.998V33.57h-5.544v-2.507H91.64zM107 31.063v17.578h-2.999V31.063H107z" fill="#fff"/>
</svg>