<svg width="39" height="116" fill="none" xmlns="http://www.w3.org/2000/svg">
  <path d="M38.473 44.623a16.637 16.637 0 00-1.129-4.257c-.666-1.642-1.692-3.18-2.974-4.668-1.334-1.436-3.078-2.718-5.232-3.744-2.154-1.026-4.667-1.693-7.386-1.95-2.975-.307-5.693-.102-8.104.565-2.41.667-4.616 1.847-6.667 3.488-2.052 1.641-3.54 3.539-4.565 5.796C1.39 42.058.723 44.52.466 47.239c-.256 2.41-.05 4.872.514 7.385.564 2.514 1.59 4.77 2.974 6.617 1.385 1.898 3.18 3.385 5.386 4.462 2.205 1.128 4.616 1.795 7.232 2.052 5.796.615 10.77-.821 14.925-4.257 4.155-3.437 6.566-8.053 7.13-13.798.102-1.795.051-3.487-.154-5.077zm-5.437 6.257c-.308 3.18-1.077 5.95-2.308 8.258-1.23 2.36-2.872 4.052-5.026 5.18-2.103 1.129-4.514 1.59-7.232 1.282-1.95-.205-3.693-.718-5.232-1.538-1.539-.82-2.872-2-4.052-3.54-1.18-1.538-2.052-3.333-2.616-5.487-.359-1.283-.615-2.77-.77-4.463a27.423 27.423 0 010-5.026c.309-2.924 1.078-5.437 2.309-7.642 1.231-2.206 2.924-3.796 5.078-4.822 2.103-1.026 4.513-1.384 7.18-1.077 1.847.205 3.54.667 5.078 1.385 1.539.77 2.77 1.59 3.642 2.565.923.974 1.692 2.051 2.257 3.23a14.694 14.694 0 011.333 4.002c.564 2.41.667 4.975.36 7.693z" fill="#fff"/>
  <path d="M.261 61.446v-1.693c2.719.103 5.283.206 7.643.206 2.36 0 4.719-.052 7.078-.206v1.693c-1.95.051-3.18.103-3.59.257-.41.153-.719.358-.872.615-.206.359-.36 1.18-.41 2.564 0 .36-.052 2.821-.103 7.489v9.745c0 3.744.205 6.258.666 7.437.462 1.18 1.18 2.206 2.206 2.975.77.615 1.795 1.077 3.129 1.436 1.333.36 2.77.564 4.36.564 1.897 0 3.538-.256 5.026-.718 1.436-.461 2.564-1.077 3.282-1.744a7.074 7.074 0 001.642-2.308c.359-.872.615-2.051.769-3.539.154-1.487.256-3.385.256-5.693v-8.104c0-2.36-.05-4.719-.102-6.975-.051-1.642-.154-2.667-.36-2.975-.204-.308-.512-.513-.922-.667-.41-.154-1.642-.256-3.59-.256v-1.693c2.769.103 4.77.205 6.052.205 1.128 0 3.23-.051 6.257-.205v1.693c-2 .05-3.18.102-3.59.256-.41.154-.718.36-.872.615-.205.36-.308 1.18-.36 2.565 0 .36-.05 2.821-.102 7.488v8.822c0 4.309-.308 7.335-.872 9.079-.564 1.692-1.641 3.231-3.18 4.565-1.18.974-2.667 1.744-4.462 2.308-1.795.564-3.847.82-6.052.82-2.565 0-4.822-.307-6.72-.974-1.897-.616-3.333-1.488-4.308-2.513-.974-1.026-1.692-2.103-2.051-3.18-.462-1.437-.718-3.847-.718-7.232V72.525c0-2.41 0-4.719-.052-6.976-.051-1.641-.154-2.667-.359-2.975-.205-.307-.513-.512-.923-.666-.564-.308-1.795-.41-3.796-.462z" fill="#fff"/>
  <path d="M38.473 89.86c-.051-1.743-.051-3.025-.103-3.897v-.872c0-1.077.052-2.872.206-5.386h-.103c0-.564.051-1.128.051-1.692h-1.692c0 1.18-.103 2.103-.206 2.77-.307.512-.666.974-.923 1.384a84.32 84.32 0 01-5.026.257c-3.642.102-6.206.205-7.643.205H16.06c-1.436 0-3.95-.052-7.642-.205a81.954 81.954 0 01-5.027-.257 16.21 16.21 0 01-.923-1.385c-.103-.666-.154-1.59-.205-2.77H.569c0 .565.052 1.13.052 1.693H.518c.103 2.514.205 4.309.205 5.386v.872c0 .872-.051 2.154-.102 3.898-.052 1.795-.103 3.231-.103 4.257v2.616c0 4.257.564 7.642 1.693 10.207 1.128 2.564 2.974 4.257 5.59 6.052 2.924 2 6.77 2.564 10.207 2.616 3.334.051 6.924.205 10.053-1.026 3.847-1.488 7.18-3.847 8.822-7.642 1.128-2.565 1.692-6.001 1.692-10.207v-1.59-1.026c-.05-1.026-.05-2.462-.102-4.257zM22.47 87.502l7.335.052 1.282.051c.923 0 1.744.051 2.462.051.667 0 1.334.052 2.052.103.359 1.898.513 3.898.513 6 0 2.155-.206 4.104-.565 5.745-.41 1.693-.923 3.078-1.641 4.257-.718 1.18-1.744 2.309-3.129 3.437-1.384 1.128-3.18 1.949-5.334 2.564a24.8 24.8 0 01-5.898.872c-2-.051-4.001-.359-5.899-.872-2.154-.615-3.95-1.436-5.334-2.564-1.385-1.128-2.462-2.257-3.129-3.437-.718-1.179-1.282-2.615-1.64-4.257-.411-1.692-.565-3.59-.565-5.744 0-2.103.154-4.103.513-6.001.718-.051 1.385-.051 2.051-.103.718 0 1.54-.051 2.462-.051l1.283-.051 7.334-.052h5.847z" fill="#fff"/>
  <path d="M18.623 23.953c-.718.102-1.692.307-1.692.769 0 .513.051.974.051 1.487.052.821.052 1.642.052 2.462.05 1.334.05 2.668.102 4.052l.154 5.694.154 7.078.154 8.052.154 8.668c.05 3.026.102 6.053.102 9.13.051 3.18.051 6.309.103 9.489 0 1.949 0 3.846.051 5.796 0 2.308 0 4.564.051 6.873 0 .666.052 1.333.052 1.948.05.873.102 1.744.102 2.616.103 2.052.257 4.104.41 6.155.052.411.052.821.103 1.231h.36c.102-1.128.153-2.308.256-3.436.205-2.565.41-5.13.461-7.694.052-1.282.052-2.616.052-3.898 0-1.641.05-3.334.05-4.975.052-3.283.103-6.514.103-9.797.052-3.18.103-6.308.103-9.488l.154-9.079.154-8.514c.05-2.565.102-5.129.154-7.694.05-2.154.102-4.257.153-6.41.052-1.54.103-3.13.154-4.668.052-.975.052-1.95.103-2.975 0-.564.051-1.18.051-1.744v-.359c0-.616-1.59-.77-2-.82.051 0-.154 0-.41.05z" fill="#fff"/>
  <path d="M26.933 13.746c.359-.462.41-.872.102-1.282l-1.487-2.411c-.154-.308-.36-.205-.564.205-2.719 5.899-4.412 12.207-5.078 18.978 1.385-5.899 3.744-11.08 7.027-15.49zM19.034 27.543c.154-7.694 1.436-14.259 3.847-19.747-1.796-2.103-3.078-4.667-3.847-7.745-.77 3.078-2.103 5.642-3.898 7.745 2.41 5.488 3.693 12.002 3.847 19.644.05.052.05.103.05.103zM18.213 29.287c-.667-6.77-2.36-13.08-5.078-18.978-.205-.461-.41-.512-.564-.205l-1.487 2.36c-.257.41-.257.82.102 1.333 3.232 4.36 5.591 9.54 7.027 15.49z" fill="#fff"/>
</svg>