<svg width="231" height="68" fill="none" xmlns="http://www.w3.org/2000/svg"><path d="M92.253 13.947c0-7.503 0-8.849-.096-10.388-.096-1.635-.48-2.405-2.067-2.741-.385-.097-1.204-.144-1.636-.144-.193 0-.385-.097-.385-.29 0-.288.24-.384.77-.384 2.165 0 5.05.144 5.435.144C95.33.144 98.12 0 100.333 0c6.012 0 8.175 2.02 8.945 2.741 1.058 1.01 2.405 3.174 2.405 5.723 0 6.83-5.002 11.446-11.83 11.446-.24 0-.77 0-1.01-.048-.24 0-.53-.096-.53-.336 0-.385.289-.434 1.3-.434 4.663 0 8.319-3.414 8.319-7.838 0-1.587-.144-4.81-2.693-7.407-2.548-2.597-5.483-2.404-6.588-2.404-.818 0-1.636.096-2.068.288-.289.096-.385.433-.385.914v19.767c0 4.616 0 8.415.24 10.435.144 1.395.433 2.453 1.876 2.645.673.097 1.731.193 2.164.193.288 0 .385.144.385.288 0 .24-.241.385-.77.385-2.644 0-5.675-.144-5.915-.144-.144 0-3.174.144-4.617.144-.53 0-.77-.096-.77-.384 0-.145.097-.29.386-.29.433 0 1.01-.095 1.443-.192.961-.192 1.202-1.25 1.394-2.645.24-2.02.24-5.819.24-10.435v-8.465z" fill="#fff"/><path d="M134.547 40.865c-.289 0-.962 0-1.875-.144-1.202-.192-3.271-.722-5.868-3.463-2.789-2.982-6.06-7.262-10.003-12.311 4.328-3.992 5.819-7.552 5.819-11.11 0-3.319-2.116-5.675-3.318-6.54-2.549-1.828-5.772-2.116-8.801-2.116-.569 0-1.455.02-2.361.047v1.598a20.627 20.627 0 012.12-.106c5.147 0 8.32 3.606 8.32 9.618 0 3.654-1.25 6.252-2.933 7.406-1.107.77-2.453.914-3.607.914-1.419 0-2.873-.153-3.9-.384l3.308 1.298 1.458.577c.288 0 .432.096.624.288.963 1.251 3.223 4.473 5.242 7.119 2.742 3.607 4.425 5.963 6.495 7.07 1.249.672 2.451.913 5.144.913h3.415c.866 0 1.154-.097 1.154-.385 0-.144-.192-.289-.433-.289zM1.523 59.066c0-2.732 0-3.221-.035-3.782-.035-.595-.175-.875-.753-.998a3.281 3.281 0 00-.595-.052c-.07 0-.14-.035-.14-.105 0-.105.088-.14.28-.14.788 0 1.838.053 1.978.053.386 0 1.4-.053 2.206-.053 2.189 0 2.976.735 3.256.998.386.367.876 1.155.876 2.083 0 2.486-1.821 4.167-4.307 4.167-.087 0-.28 0-.368-.018-.087 0-.192-.035-.192-.122 0-.14.105-.157.473-.157 1.698 0 3.028-1.244 3.028-2.854 0-.578-.053-1.75-.98-2.696-.928-.946-1.996-.876-2.399-.876-.297 0-.595.035-.753.105-.105.035-.14.157-.14.333v7.195c0 1.68 0 3.064.088 3.799.053.507.158.893.682.963.246.035.63.07.788.07.105 0 .14.052.14.105 0 .087-.088.14-.28.14-.963 0-2.066-.053-2.154-.053-.052 0-1.155.052-1.68.052-.193 0-.28-.035-.28-.14 0-.052.035-.104.14-.104.158 0 .368-.035.526-.07.35-.07.437-.455.507-.963.087-.735.087-2.118.087-3.799v-3.081zM16 59.066c0-2.731 0-3.221-.035-3.782-.035-.595-.175-.875-.753-.997a3.272 3.272 0 00-.595-.053c-.07 0-.14-.035-.14-.105 0-.105.088-.14.28-.14.403 0 .876 0 1.26.018l.718.035c.123 0 3.607 0 4.01-.018.332-.017.612-.052.752-.087.087-.018.158-.088.245-.088.053 0 .07.07.07.158 0 .122-.088.332-.14.823-.017.174-.053.945-.088 1.154-.017.088-.052.193-.122.193-.105 0-.14-.087-.14-.227 0-.123-.017-.42-.105-.63-.122-.281-.297-.49-1.242-.596-.298-.035-2.206-.053-2.399-.053-.07 0-.105.053-.105.176v4.832c0 .122.018.175.105.175.228 0 2.38 0 2.784-.035.42-.035.665-.07.823-.246.122-.14.192-.228.262-.228.053 0 .088.035.088.14 0 .105-.088.403-.14.98-.035.35-.07.999-.07 1.12 0 .14 0 .334-.123.334-.087 0-.122-.07-.122-.158 0-.175 0-.35-.07-.578-.07-.245-.228-.543-.91-.612-.473-.053-2.206-.088-2.504-.088-.088 0-.123.053-.123.122v1.541c0 .596-.017 2.627 0 2.994.053 1.208.315 1.436 2.031 1.436.455 0 1.225 0 1.68-.193.456-.193.666-.543.788-1.26.035-.194.07-.264.157-.264.105 0 .105.14.105.263 0 .14-.14 1.33-.227 1.698-.123.455-.263.455-.946.455-1.313 0-2.276-.035-2.958-.052a31.148 31.148 0 00-1.366-.052c-.035 0-.332 0-.7.017-.35 0-.753.035-1.015.035-.193 0-.28-.035-.28-.14 0-.052.035-.105.14-.105.157 0 .367-.035.525-.07.35-.07.438-.455.508-.963.087-.735.087-2.118.087-3.799v-3.08zM32.7 54.426c.21-.578.28-.683.386-.683.105 0 .175.088.385.63.262.666 3.01 7.896 4.079 10.557.63 1.558 1.138 1.838 1.505 1.944.263.087.526.105.7.105.105 0 .176.017.176.105 0 .104-.158.139-.35.139-.263 0-1.54 0-2.748-.035-.334-.017-.526-.017-.526-.122 0-.07.053-.105.123-.122.105-.035.21-.193.105-.473l-1.629-4.307c-.035-.07-.07-.105-.157-.105h-3.764c-.088 0-.14.053-.175.14l-1.05 3.1c-.159.437-.246.857-.246 1.172 0 .35.368.508.665.508h.176c.122 0 .175.035.175.105 0 .104-.105.139-.263.139-.42 0-1.172-.052-1.365-.052-.192 0-1.155.052-1.978.052-.228 0-.333-.035-.333-.14 0-.07.07-.104.158-.104.122 0 .367-.018.507-.035.805-.105 1.156-.77 1.471-1.646L32.7 54.426zm1.82 7.003c.088 0 .088-.052.07-.122l-1.663-4.727c-.087-.263-.175-.263-.262 0l-1.54 4.726c-.035.088 0 .123.052.123h3.344zM45.934 59.066c0-2.732 0-3.221-.035-3.782-.035-.595-.175-.875-.753-.998a3.281 3.281 0 00-.595-.052c-.07 0-.14-.035-.14-.105 0-.105.088-.14.28-.14.788 0 1.891.053 1.978.053.193 0 1.523-.053 2.066-.053 1.103 0 2.276.105 3.204.77.437.315 1.208 1.173 1.208 2.38 0 1.296-.543 2.592-2.119 4.045 1.436 1.838 2.627 3.396 3.642 4.481.945.999 1.698 1.191 2.136 1.261.332.053.578.053.683.053.087 0 .157.052.157.105 0 .104-.105.14-.42.14h-1.243c-.98 0-1.418-.088-1.873-.333-.753-.403-1.366-1.26-2.363-2.574-.736-.963-1.559-2.135-1.909-2.591-.07-.07-.122-.105-.227-.105l-2.154-.035c-.087 0-.123.053-.123.14v.42c0 1.68 0 3.064.088 3.799.053.507.157.893.683.963.245.035.63.07.788.07.105 0 .14.052.14.105 0 .087-.088.14-.28.14-.963 0-2.066-.053-2.154-.053-.018 0-1.12.052-1.645.052-.193 0-.28-.034-.28-.139 0-.053.035-.105.14-.105.157 0 .367-.035.525-.07.35-.07.438-.455.508-.963.087-.735.087-2.118.087-3.799v-3.08zm1.4 1.522a.23.23 0 00.123.21c.263.158 1.068.28 1.838.28.42 0 .91-.052 1.313-.332.613-.42 1.068-1.366 1.068-2.696 0-2.188-1.155-3.501-3.028-3.501-.525 0-.998.052-1.173.105a.21.21 0 00-.14.21v5.724zM64.105 62.182c0 2.573.07 3.694.385 4.009.28.28.736.402 2.1.402.929 0 1.699-.017 2.12-.525.227-.28.402-.717.454-1.05.018-.14.053-.228.157-.228.088 0 .106.07.106.263s-.123 1.243-.263 1.75c-.123.403-.175.473-1.103.473-1.26 0-2.17-.035-2.906-.053a37.225 37.225 0 00-1.786-.052c-.07 0-.368.017-.718.017-.35.018-.735.035-.998.035-.192 0-.28-.035-.28-.14 0-.052.036-.104.14-.104.158 0 .369-.035.526-.07.35-.07.437-.455.507-.963.087-.735.087-2.118.087-3.799v-3.081c0-2.731 0-3.22-.035-3.782-.035-.595-.175-.874-.752-.997a3.273 3.273 0 00-.595-.053c-.07 0-.14-.035-.14-.105 0-.105.087-.14.28-.14.788 0 1.89.053 1.978.053.088 0 1.365-.053 1.89-.053.193 0 .28.035.28.14 0 .07-.07.105-.14.105-.122 0-.367.018-.577.053-.508.087-.648.385-.683.998-.035.56-.035 1.05-.035 3.781v3.116zM88.21 54.426c.21-.578.28-.683.385-.683.105 0 .175.088.385.63.263.666 3.011 7.896 4.079 10.557.63 1.558 1.138 1.838 1.505 1.944.263.087.525.105.7.105.105 0 .176.017.176.105 0 .104-.158.139-.35.139-.263 0-1.541 0-2.749-.035-.332-.017-.525-.017-.525-.122 0-.07.052-.105.122-.122.105-.035.21-.193.105-.473l-1.628-4.307c-.035-.07-.07-.105-.158-.105h-3.763c-.088 0-.14.053-.176.14l-1.05 3.1c-.158.437-.245.857-.245 1.172 0 .35.368.508.665.508h.175c.123 0 .175.035.175.105 0 .104-.105.139-.262.139-.42 0-1.173-.052-1.365-.052-.193 0-1.156.052-1.979.052-.227 0-.332-.035-.332-.14 0-.07.07-.104.157-.104.122 0 .368-.018.508-.035.805-.105 1.155-.77 1.47-1.646l3.974-10.872zm1.82 7.003c.088 0 .088-.052.07-.122l-1.663-4.727c-.088-.263-.175-.263-.263 0l-1.54 4.727c-.035.087 0 .122.053.122h3.343zM101.916 64.843c.035 1.435.21 1.89.683 2.03.333.088.718.106.875.106.088 0 .14.035.14.105 0 .104-.105.14-.315.14-.998 0-1.698-.053-1.856-.053-.157 0-.892.052-1.68.052-.175 0-.28-.017-.28-.14 0-.07.053-.104.14-.104.14 0 .455-.018.718-.105.438-.123.525-.63.525-2.224l.018-10.03c0-.683.052-.876.192-.876s.438.385.613.56c.263.298 2.871 3.116 5.567 6.005 1.733 1.855 3.642 3.992 4.202 4.569l-.193-8.894c-.018-1.137-.14-1.523-.683-1.663a4.711 4.711 0 00-.858-.087c-.123 0-.14-.052-.14-.122 0-.105.14-.123.35-.123.788 0 1.629.053 1.821.053.192 0 .77-.053 1.488-.053.193 0 .315.018.315.123 0 .07-.07.122-.193.122-.087 0-.21 0-.42.052-.578.123-.648.508-.648 1.559l-.035 10.258c0 1.156-.035 1.244-.157 1.244-.14 0-.35-.193-1.278-1.12-.192-.176-2.714-2.75-4.569-4.745a362.873 362.873 0 01-4.569-5.024l.227 8.385zM121.522 59.066c0-2.732 0-3.221-.035-3.782-.035-.595-.175-.875-.753-.998a3.27 3.27 0 00-.595-.052c-.07 0-.14-.035-.14-.105 0-.105.088-.14.281-.14.787 0 1.89.053 1.978.053.21 0 1.313-.053 2.363-.053 1.733 0 4.937-.157 7.02 1.996.875.91 1.698 2.363 1.698 4.447 0 2.205-.91 3.903-1.89 4.936-.753.788-2.329 2.014-5.305 2.014-.753 0-1.68-.053-2.433-.105-.771-.053-1.366-.105-1.453-.105-.035 0-.333 0-.7.017-.351 0-.753.035-1.016.035-.192 0-.28-.035-.28-.14 0-.052.035-.105.14-.105.157 0 .367-.034.525-.07.35-.07.438-.455.508-.963.087-.735.087-2.118.087-3.798v-3.082zm1.471 1.89c0 1.855.017 3.466.035 3.799.017.437.052 1.138.192 1.33.227.333.91.7 2.976.7 1.629 0 3.134-.595 4.167-1.628.91-.892 1.4-2.573 1.4-4.183 0-2.224-.963-3.66-1.681-4.412-1.645-1.733-3.641-1.978-5.724-1.978-.35 0-.998.052-1.138.122-.157.07-.211.157-.211.35-.017.595-.017 2.381-.017 3.729v2.171h.001zM150.266 59.066c0-2.732 0-3.221-.035-3.782-.035-.595-.175-.875-.753-.998a3.277 3.277 0 00-.595-.052c-.07 0-.14-.035-.14-.105 0-.105.087-.14.28-.14.788 0 1.891.053 1.979.053.193 0 1.523-.053 2.066-.053 1.102 0 2.276.105 3.203.77.437.315 1.208 1.173 1.208 2.38 0 1.296-.543 2.592-2.118 4.045 1.435 1.838 2.626 3.396 3.642 4.481.945.999 1.698 1.191 2.135 1.261.333.053.578.053.683.053.087 0 .157.052.157.105 0 .104-.105.14-.42.14h-1.243c-.98 0-1.418-.088-1.873-.333-.752-.403-1.365-1.26-2.363-2.574-.735-.963-1.559-2.135-1.909-2.591-.07-.07-.122-.105-.227-.105l-2.154-.035c-.087 0-.122.053-.122.14v.42c0 1.68 0 3.064.087 3.799.053.507.158.893.683.963.245.035.631.07.788.07.105 0 .14.052.14.105 0 .087-.088.14-.281.14-.962 0-2.065-.053-2.152-.053-.018 0-1.121.052-1.646.052-.193 0-.281-.034-.281-.139 0-.053.035-.105.14-.105.158 0 .368-.035.525-.07.35-.07.438-.455.508-.963.088-.735.088-2.118.088-3.799v-3.08zm1.401 1.522a.23.23 0 00.122.21c.263.158 1.068.28 1.838.28.42 0 .91-.052 1.313-.332.613-.42 1.068-1.366 1.068-2.696 0-2.188-1.155-3.501-3.029-3.501-.525 0-.998.052-1.173.105a.21.21 0 00-.139.21v5.724zM165.95 59.066c0-2.732 0-3.221-.035-3.782-.035-.595-.175-.875-.753-.998a3.277 3.277 0 00-.595-.052c-.07 0-.14-.035-.14-.105 0-.105.087-.14.281-.14.787 0 1.855.053 2.013.053.157 0 1.208-.053 1.733-.053.193 0 .28.035.28.14 0 .07-.07.105-.14.105-.122 0-.228.017-.437.052-.473.07-.613.385-.648.998-.035.56-.035 1.05-.035 3.782v2.45c0 2.52.56 3.607 1.313 4.325.858.805 1.646.963 2.644.963 1.067 0 2.118-.508 2.748-1.261.805-.998 1.016-2.486 1.016-4.29v-2.187c0-2.731-.001-3.221-.035-3.782-.035-.595-.175-.875-.753-.997a3.277 3.277 0 00-.595-.053c-.07 0-.14-.035-.14-.105 0-.105.087-.14.28-.14.787 0 1.75.053 1.855.053.123 0 .946-.053 1.471-.053.193 0 .28.035.28.14 0 .07-.07.105-.14.105-.122 0-.228.018-.438.053-.472.104-.613.385-.647.997-.035.561-.035 1.05-.035 3.782v1.873c0 1.89-.21 3.991-1.611 5.234-1.261 1.12-2.574 1.296-3.607 1.296-.595 0-2.363-.07-3.606-1.243-.858-.823-1.524-2.049-1.524-4.605v-2.556zM184.996 59.066c0-2.732 0-3.221-.035-3.782-.035-.595-.175-.875-.753-.998a3.27 3.27 0 00-.595-.052c-.07 0-.14-.035-.14-.105 0-.105.088-.14.281-.14.787 0 1.89.053 1.978.053.42 0 1.103-.053 1.908-.053 2.871 0 3.501 1.75 3.501 2.626 0 1.436-.822 2.293-1.645 3.151 1.296.403 3.029 1.646 3.029 3.694 0 1.873-1.471 3.816-4.465 3.816-.192 0-.752-.034-1.26-.052a25.49 25.49 0 00-1.068-.053c-.035 0-.333 0-.7.018-.351 0-.753.035-1.016.035-.192 0-.28-.035-.28-.14 0-.052.035-.105.14-.105.158 0 .367-.035.525-.07.35-.07.438-.455.508-.963.087-.735.087-2.118.087-3.798v-3.083zm1.401.384c0 .123.035.158.122.193.105.018.42.07 1.068.07.98 0 1.226-.035 1.593-.455.368-.42.63-1.05.63-1.768 0-1.453-.647-3.011-2.363-3.011-.192 0-.56.017-.84.087-.158.035-.21.088-.21.193v4.691zm0 1.856c0 1.348 0 3.519.017 3.781.053.858.053 1.103.596 1.366.472.227 1.225.262 1.54.262.946 0 2.468-.507 2.468-2.485 0-1.05-.35-2.574-1.698-3.501-.595-.403-1.033-.456-1.453-.508-.228-.035-1.103-.035-1.365-.035-.07 0-.105.035-.105.123v.997zM201.732 62.147c0 1.68 0 3.063.087 3.798.053.508.158.894.683.964.245.034.63.07.787.07.105 0 .14.052.14.104 0 .088-.087.14-.28.14-.963 0-2.066-.052-2.153-.052-.088 0-1.19.052-1.716.052-.192 0-.28-.035-.28-.14 0-.052.035-.105.14-.105.158 0 .367-.034.525-.07.35-.07.438-.455.508-.963.087-.735.087-2.118.087-3.798v-3.081c0-2.732 0-3.221-.035-3.782-.035-.595-.21-.893-.595-.98a2.316 2.316 0 00-.543-.07c-.07 0-.14-.035-.14-.105 0-.105.087-.14.281-.14.577 0 1.68.053 1.768.053.087 0 1.19-.053 1.715-.053.193 0 .28.035.28.14 0 .07-.07.105-.14.105-.122 0-.227.017-.437.052-.472.088-.613.385-.648.998-.035.56-.035 1.05-.035 3.782v3.08h.001zM211.464 59.066c0-2.731 0-3.221-.035-3.782-.035-.595-.175-.875-.752-.997a3.277 3.277 0 00-.595-.053c-.07 0-.14-.035-.14-.105 0-.105.087-.14.28-.14.402 0 .875 0 1.261.018l.717.035c.123 0 3.607 0 4.009-.018.333-.017.613-.052.753-.087.088-.018.158-.088.245-.088.053 0 .07.07.07.158 0 .122-.087.332-.14.823-.017.174-.052.945-.087 1.154-.018.088-.053.193-.123.193-.105 0-.14-.087-.14-.227 0-.123-.017-.42-.104-.63-.123-.281-.298-.49-1.243-.596-.298-.035-2.206-.053-2.399-.053-.07 0-.105.053-.105.176v4.832c0 .122.018.175.105.175.228 0 2.381 0 2.784-.035.42-.035.665-.07.822-.246.123-.14.193-.228.263-.228.052 0 .087.035.087.14 0 .105-.087.403-.14.98-.035.35-.07.999-.07 1.12 0 .14 0 .334-.122.334-.087 0-.122-.07-.122-.158 0-.175 0-.35-.07-.578-.07-.245-.228-.543-.91-.612-.473-.053-2.206-.088-2.504-.088-.087 0-.122.053-.122.122v1.541c0 .596-.018 2.627 0 2.994.052 1.208.315 1.436 2.03 1.436.456 0 1.226 0 1.681-.193.455-.193.665-.543.788-1.26.035-.194.07-.264.158-.264.105 0 .105.14.105.263 0 .14-.14 1.33-.228 1.698-.123.455-.263.455-.946.455-1.313 0-2.276-.035-2.959-.052a31.06 31.06 0 00-1.365-.052c-.035 0-.333 0-.7.017-.35 0-.753.035-1.016.035-.192 0-.28-.035-.28-.14 0-.052.035-.105.14-.105.158 0 .368-.035.526-.07.349-.07.437-.455.507-.963.087-.735.087-2.118.087-3.799v-3.08h-.001zM224.523 66.996c-.246-.122-.263-.193-.263-.665 0-.876.07-1.576.087-1.856.018-.193.053-.28.14-.28.105 0 .123.052.123.193 0 .157 0 .402.052.648.263 1.295 1.418 1.785 2.591 1.785 1.681 0 2.504-1.208 2.504-2.328 0-1.209-.508-1.908-2.014-3.151l-.787-.648c-1.856-1.523-2.276-2.609-2.276-3.799 0-1.873 1.4-3.151 3.624-3.151.683 0 1.19.07 1.628.175.332.07.472.088.613.088.14 0 .175.035.175.122 0 .088-.07.665-.07 1.855 0 .28-.035.403-.123.403-.104 0-.122-.087-.139-.228-.018-.21-.123-.683-.228-.875-.105-.192-.578-.928-2.188-.928-1.208 0-2.153.752-2.153 2.03 0 .998.455 1.629 2.135 2.942l.491.385c2.065 1.628 2.555 2.714 2.555 4.114 0 .718-.28 2.048-1.488 2.906-.753.525-1.698.735-2.643.735-.824 0-1.629-.122-2.346-.472z" fill="#fff"/></svg>