<svg width="232" height="71" fill="none" xmlns="http://www.w3.org/2000/svg"><path d="M69.08 28.851c1.377-.347 3.475-.53 5.511-.53 1.909 0 4.07.306 5.604 1.375 1.44.97 2.285 2.47 2.285 4.506 0 2.63-1.221 4.669-2.85 5.917-1.721 1.35-4.195 1.972-6.763 1.972-.752 0-1.377-.091-1.846-.124l-1.44 7.608h-4.416L69.08 28.85zm2.63 9.421c.47.096.972.16 1.754.16 2.693 0 4.477-1.722 4.477-3.855 0-2.003-1.473-2.66-3.196-2.66-.846 0-1.47.066-1.846.128l-1.189 6.227zm24.826 2.34h-7.48l-.974 5.103h8.426l-.723 3.846H82.822l4.007-21.104h12.496l-.751 3.854h-7.956l-.876 4.508h7.547l-.753 3.793zm6.454-11.774c1.409-.347 3.539-.53 5.638-.53 2.004 0 4.069.277 5.542 1.218 1.376.816 2.349 2.158 2.349 4.101 0 3.129-2.067 5.103-4.792 5.98v.095c1.252.562 1.816 1.938 2.003 3.85.283 2.38.44 5.134.815 6.01h-4.634c-.188-.562-.406-2.378-.596-4.975-.218-2.571-1.094-3.356-2.88-3.356h-1.378l-1.566 8.33h-4.445l3.944-20.723zm2.756 9.017h1.848c2.443 0 4.227-1.471 4.227-3.539 0-1.727-1.41-2.476-3.224-2.476-.847 0-1.377.063-1.753.158l-1.098 5.857zm29.153 11.707l1.282-8.7c.346-2.291.815-5.198 1.41-8.24h-.094c-1.159 2.73-2.474 5.637-3.632 7.954l-4.321 8.642h-3.506l-.751-8.544c-.191-2.32-.345-5.23-.472-8.052h-.063c-.594 2.786-1.22 5.948-1.753 8.239l-2.097 8.7h-4.133l5.292-21.104h6.043l.658 8.019c.125 1.972.343 4.386.373 6.732h.127c.814-2.346 1.941-4.82 2.848-6.732l3.915-8.019h6.106l-2.849 21.105h-4.383zm13.901-5.478l-2.473 5.477h-4.822l10.269-21.104h5.793l2.475 21.105h-4.759l-.409-5.478H148.8zm5.89-3.444l-.439-4.54c-.065-1.16-.189-2.848-.285-4.132h-.061c-.532 1.284-1.128 2.91-1.692 4.132l-2.096 4.54h4.573zm12.742-8.234h-5.572l.783-3.949h15.686l-.752 3.949h-5.637l-3.255 17.156h-4.509l3.256-17.156zm23.14 8.206h-7.484l-.97 5.103h8.421l-.717 3.846h-12.964l4.009-21.104h12.492l-.75 3.854h-7.954l-.878 4.508h7.547l-.752 3.793zm18.286 8.355c-1.128.503-3.005.913-5.542.913-5.607 0-9.331-3.416-9.331-8.96 0-4.723 2.128-8.42 5.323-10.549 2.189-1.504 4.757-2.223 7.735-2.223 2.284 0 4.006.532 4.632.873l-1.251 3.664c-.596-.279-2.004-.687-3.82-.687-1.816 0-3.537.562-4.822 1.63-1.754 1.47-2.914 3.85-2.914 6.792 0 3.347 1.913 5.606 5.606 5.606 1.503 0 2.975-.251 4.009-.688l.375 3.629zm10.961-20.51l-1.566 8.24h7.64l1.567-8.24H232l-4.008 21.105h-4.51l1.661-8.859h-7.673l-1.659 8.858h-4.509l4.009-21.104h4.508z" fill="#fff"/><path fill-rule="evenodd" clip-rule="evenodd" d="M18.348 0c2.26 6.811 2.83 11.857 2.392 15.867C8.815 18.931 0 29.756 0 42.635c0 15.263 12.375 27.63 27.635 27.63 15.259.001 27.631-12.367 27.631-27.63C55.266 27.376 42.894 15 27.635 15c-.876 0-1.742.04-2.596.12-.768-4.084-2.772-8.962-6.69-15.12zm6.69 15.12c-1.469.137-2.904.39-4.298.747-.635 5.82-3.393 9.459-6.188 13.148-1.816 2.396-3.647 4.813-4.923 7.861-5.077 12.14 2.312 26.584 13.87 27.004-9.038-9.351-7.852-19.374-4.833-26.584.773-1.847 1.685-3.563 2.584-5.255 2.628-4.943 5.148-9.685 3.789-16.92zm2.814 49.078C26.695 62.986 23 57.156 23 57.156S46.387 58.24 38.867 38.46c-.735.414-2.522 1.68-2.522 1.68L33.402 29l11.349 3.256-1.787 1.787c4.81 7.251 7.986 27.319-15.112 30.155z" fill="#fff"/></svg>