<svg width="85" height="84" fill="none" xmlns="http://www.w3.org/2000/svg">
  <path d="M17.081 47.954c.894-.081 2.724-.501 3.367.206l-.376-.811a2.727 2.727 0 00-1.289-.6c-1.046-.191-2.105-.252-3.163-.082a.018.018 0 01-.009-.035c1.113-.355 2.314-1.008 3.521-.814-.352-.54-.765-1.026-1.451-1.18-1.398-.319-3.04 1.227-3.746 2.26 1.056.66 1.915 1.17 3.146 1.056zM23.942 52.993c.555-.182 1.117-.3 1.638-.29-.967-.502-1.956-.924-3.193-.982-1.373-.062-2.554.56-3.688 1.272-.707.444-1.395.924-2.099 1.296-.108.057-.183-.093-.088-.16.506-.363.976-.753 1.44-1.136 1.15-.95 2.257-1.848 3.767-2.154-1.014-.072-2.044.09-3.144.613-.029.015-.066-.027-.033-.049 1.164-.87 2.548-1.337 3.906-1.277-1.064-.57-2.173-.965-3.27-.77-2.138.385-3.324 1.872-3.964 3.637-.44 1.21-.624 2.55-.674 3.76.652-.448 1.607-.614 2.477-.774.286-.053.563-.104.817-.166.315-.075.608-.167.892-.267.94-.332 1.753-.788 2.652-1.329.661-.397 1.602-.908 2.564-1.224zM21.744 45.993c.919.286 1.668.75 2.257 1.362l-.042-.138c.082-1.77-1.747-3.401-3.504-2.268.336.54.28 1.216.55 1.782.265.558.712.912 1.147 1.3.761.68 1.646.913 2.519 1.505l-.177-.575c-.358-.512-.812-.944-1.382-1.215-.016-.01-.008-.037.01-.03.411.161.78.35 1.105.572a5.833 5.833 0 00-2.515-2.2c-.057-.027-.028-.115.032-.095zM29.375 44.65c-.15-.12-.32-.227-.474-.349-1.361-1.079-2.96.088-3.642 1.38-.968 1.837.078 3.932 1.524 5.17 4.191 3.584 10.324-.736 15.13-.351l.747.15a.823.823 0 00-.038-.202 7.432 7.432 0 00-2.022-.228c-2.007.024-3.998.547-5.976.846-1.599.238-3.237.343-4.813-.088-1.706-.468-2.697-1.902-3.425-3.407-.009-.018.018-.03.028-.013 2.232 4.056 6.834 3.088 10.59 2.362 1.088-.21 2.348-.432 3.605-.483-2.622-.342-6.95.33-7.954.356-1.68.04-3.159-.356-4.227-1.677-.518-.644-.92-1.399-.592-2.237.296-.75 1.008-.85 1.54-1.229z" fill="#fff"/>
  <path d="M30.772 47.093c.641 1.002 1.638 1.29 2.666 1.565l1.283-.088c.092-.047.195.019.231-.188-.789-.551-1.779-.877-2.552-1.565-.504-.449-1.68-.907-1.808-1.578-.63.767-1.204 1.745-.543 2.687.395.569 1.583 1.006 2.376.89-.74-.343-1.382-.835-1.777-1.646-.036-.072.079-.15.124-.077zM27.72 52.727c-.502-.136-1.012-.207-1.51.069-.094.052-.174.125-.255.197-.778.703-.906 2.269-.788 3.177.991-.168 1.783-.322 2.464-1.053.495-.53 1.373-1.765 2.141-1.685l-.662-.287a2.202 2.202 0 00-1.1.331c-.734.447-1.405.979-1.951 1.65-.012.016-.034 0-.024-.016.41-.694.744-1.55 1.35-2.117.104-.097.213-.188.335-.266zM32.308 59.452c.642-.924.95-1.813 1.28-2.867.291-.936.846-2.421 1.719-3.17-.853.217-1.675.494-2.453 1.124-1.398 1.137-1.525 3.087-2.109 4.657-.035.092-.16.042-.14-.049.383-1.71.325-3.384 1.373-4.782-.65.502-1.185 1.153-1.567 2.059-.01.025-.054.02-.046-.011.234-1.15.818-2.176 1.67-2.868-.949.227-1.83.585-2.385 1.292-1.826 2.328-.347 5.093 1.176 6.951.203-.824.996-1.636 1.482-2.336zM42.152 52.993c1.655-.683 3.5-.815 5.5-.491.215.034.43.074.644.121a10.334 10.334 0 00-1.88-.88c-2.711-.928-5.771-.336-8.152 1.25-1.305.868-2.408 2.03-3.133 3.413-1.634 3.125-1.137 6.867 1.34 9.355 1.599 1.604 5.48 2.751 6.754-.008.299-.646.238-1.677-.381-2.096-1.548 1.856-3.059-.454-2.579-2.18.487-1.757 2.374-2.82 3.956-3.434 1.742-.676 3.424-.338 5.21-.003l.15.032c1.596.335 3.203 1.194 4.762.371-1.43-1.2-3.03-2.186-4.762-2.836a13.175 13.175 0 00-2.192-.623c-2.124-.402-4.26.076-6.052 1.259-1.986 1.31-4.255 3.717-3.749 6.283.005.026-.036.047-.046.018-.995-2.26.286-4.419 1.795-6.091 1.692-1.874 4.04-2.84 6.533-2.943 1.237-.05 2.49.13 3.71.49.343.101.683.214 1.02.343a17.02 17.02 0 00-.67-.57c-.116-.047-.233-.086-.35-.129-.788-.29-1.598-.513-2.413-.65-1.268-.215-2.547-.233-3.771 0-1.647.312-3.194 1.07-4.484 2.392-.013.014-.032-.008-.02-.021.977-1.105 2.07-1.88 3.26-2.372zM49.17 65.945c.973 1.682-.157 3.63-1.728 4.445-.327.17-.683.267-1.056.312.486.056.992.028 1.415-.077a4.363 4.363 0 001.78-.902c.927-.787 1.46-1.955 1.201-3.271-.143-.737-.593-1.453-1.201-1.947-.575-.468-1.29-.74-2.028-.638-.544.075-1.203.422-1.47.922-.183.347-.447 1.122-.087 1.408.2-.2.193-.347.49-.336.267.007.508.253.61.466.244.5-.018 1.292-.393 1.66-.759.743-1.766.589-2.697.612.075-.133.213-.25.32-.372-.35-.12-.563-.222-.946-.053-.15.07-.319.138-.429.225.455.242.917.464 1.47.588 1.161.252 2.52.101 3.404-.745.02-.017.056.007.037.031-.725 1.01-1.84 1.33-3.04 1.277-.087-.006-.181-.014-.28-.02.225.068.452.132.686.179 2.155.432 4.967-1.237 3.9-3.74-.01-.03.027-.054.042-.024z" fill="#fff"/>
  <path d="M45.52 63.103c-.433-.16-.925-.227-1.27.12-.612.615-.268 1.592-.026 2.253.47-.412 1.09-.542 1.508-1.025.271-.311.503-.653.829-.894-.732.103-1.386.317-1.947.881-.019.018-.052-.006-.038-.031a3.134 3.134 0 011.084-1.105l.025-.013c-.196.026-.39.074-.553.135-.017.007-.026-.017-.013-.026.145-.088.275-.191.4-.295zM51.41 60.338c-.586.297-1.204.54-1.83.75-.036.012-.073.027-.11.04-.026.007-.044-.032-.018-.046.044-.026.085-.054.129-.08.327-.197.64-.405.944-.626-.304.087-.621.144-.944.185-1.238.16-2.588.035-3.872-.041-.053-.004-.072-.09-.012-.098 1.198-.17 2.411-.252 3.586-.553.106-.027.2-.063.298-.095.266-.086.516-.183.74-.296-.246.028-.493.034-.74.044-.5.02-.998.02-1.463-.023-.033-.002-.034-.049-.001-.05.503-.002.986-.07 1.464-.16.252-.047.503-.1.753-.157-.259-.057-.51-.124-.753-.185-.145-.036-.29-.074-.42-.096-.877-.148-1.548-.318-2.42-.154-1.964.372-2.624 1.478-3.056 3.381.468-.667 1.627.19 2.169.378 1.092.383 2.012.44 3.028-.096.237-.125.47-.26.699-.4.548-.337 1.064-.722 1.496-1.198.112-.121.22-.271.334-.424zM33.442 65.863c-.183-1.006-1.498-1.47-2.478-1.196.13.025.258.056.371.092.781.239 1.317.86 1.379 1.67.003.057-.084.068-.098.014-.211-.813-.86-1.196-1.665-1.239a2.415 2.415 0 00-.886.147c.413.296 1.035.26 1.452.646.368.34.718 1.215.082 1.483.25.253 1.006.165 1.274-.02.523-.36.677-1.004.57-1.597zM51.772 67.654c.948-.95 2.156-1.573 2.984-2.634a4.661 4.661 0 00.918-2.036c.072-.415.064-1.483.645-1.54-.406-.512-1.713-.395-2.289-.308-.598.09-1.002.42-1.451.805-.002-.105-.028-.242.008-.349-.536-.072-1.032.952-1.22 1.343-.196.414-.342.877-.263 1.345.08.485.238.997.347 1.48.011.053.028.104.042.158.02-.097.042-.191.065-.285a5.94 5.94 0 01.735-1.759c.033-.053.111-.008.085.048a6.346 6.346 0 00-.46 1.562c.513-1.013 1.27-1.911 2.208-2.704.019-.017.054.006.035.03-.84 1.217-1.548 2.363-2.038 3.632.36-.485.789-.927 1.189-1.288.024-.02.056.014.035.035a6.966 6.966 0 00-1.586 2.43l.011.035zM15.417 12.473c.004-.015.026-.017.026 0a4.458 4.458 0 01-.127 1.003 4.745 4.745 0 00.974-2.538c.004-.05.08-.053.081-.001a4.257 4.257 0 01-.405 2.105l.092-.071c1.375-.434 2.107-2.289.748-3.311-.318.407-.85.554-1.206.92-.351.358-.496.799-.67 1.24-.305.772-.234 1.513-.442 2.345l.39-.296c.29-.418.492-.885.539-1.396zM17.235 27.218a.675.675 0 00.151-.056 5.781 5.781 0 00-.093-1.584c-.286-1.54-.953-3-1.445-4.481-.395-1.198-.694-2.443-.572-3.712.133-1.373 1.103-2.325 2.163-3.085.012-.01.026.01.014.02-2.821 2.254-1.465 5.663-.408 8.453.306.809.644 1.748.85 2.707-.085-2.06-1.177-5.298-1.33-6.066-.254-1.286-.147-2.475.727-3.472.426-.484.953-.893 1.64-.752.616.127.788.662 1.15 1.02.072-.133.131-.278.205-.411.648-1.19-.461-2.263-1.545-2.616-1.54-.5-3.012.582-3.77 1.858-2.198 3.698 1.937 7.838 2.28 11.582l-.017.595z" fill="#fff"/>
  <path d="M19.43 17.478c-.762-.265-1.67-.429-2.204.34-.323.461-.323 1.49-.012 2.064.055-.662.25-1.29.758-1.819.044-.048.137.018.093.073-.585.77-.525 1.612-.446 2.474l.428.954c.062.057.04.155.208.125.2-.758.17-1.605.478-2.388.201-.51.22-1.538.697-1.823zM11.06 17.992c.543.23 1.733.552 1.887 1.161l.033-.586a1.792 1.792 0 00-.561-.747c-.547-.434-1.142-.797-1.808-1.026-.015-.005-.01-.026.007-.023.754.139 1.652.132 2.291.618-.037-.421-.126-.831-.476-1.133-.711-.617-2.14-.23-2.869.15.407.71.747 1.271 1.496 1.586zM9.064 22.778c.886.231 1.65.217 2.547.172.797-.04 2.086-.033 2.903.423-.405-.59-.848-1.14-1.547-1.557-1.26-.748-2.784-.297-4.146-.302-.08-.001-.077-.111-.002-.12 1.413-.189 2.674-.702 4.035-.296a4.017 4.017 0 00-2.011-.617c-.022 0-.03-.036-.005-.039.944-.144 1.89.014 2.658.469-.44-.66-.96-1.231-1.656-1.457-2.289-.74-3.984 1.165-4.975 2.85.686-.077 1.528.3 2.2.474zM7.102 32.898c.548.044 1.28-.275 1.42-.837-1.76-.627-.487-2.341.894-2.454 1.405-.115 2.68.97 3.55 1.955.955 1.084 1.16 2.396 1.392 3.781.214 1.278-.026 2.733 1.02 3.674.688-1.915.992-3.96.654-5.972-.276-1.649-1.193-3.072-2.53-4.057-1.482-1.092-3.835-2.097-5.562-1.044-.018.01-.044-.014-.026-.028 1.375-1.326 3.284-.973 4.902-.323 1.811.727 3.14 2.173 3.88 3.955.47 1.134.675 2.384.658 3.657.084-.212.162-.425.235-.64.081-3.12-1.124-6.229-4.112-7.566-.014-.006-.004-.025.01-.02 2.541.99 3.902 2.949 4.417 5.594.033.166.06.333.083.5.096-.52.148-1.053.138-1.6-.078-3.428-3.013-6.503-6.399-6.946-2.705-.353-5.289 1.007-6.433 3.47-.738 1.59-.534 4.713 1.81 4.901z" fill="#fff"/>
  <path d="M4.964 37.4a2.487 2.487 0 01-.534-.719c.093.388.257.766.455 1.06.895 1.327 2.588 1.975 4.023 1.103 1.015-.615 1.65-2.09 1.066-3.19-.21-.394-.66-.8-1.116-.863-.317-.043-.982-.026-1.1.33.208.095.32.049.394.278.07.206-.05.459-.184.597-.313.327-.992.349-1.377.166-.78-.37-.946-1.183-1.225-1.887.123.02.25.093.374.14-.007-.301.011-.492-.225-.736-.096-.096-.195-.206-.292-.265-.057.415-.097.83-.036 1.287.134.957.63 1.953 1.524 2.389.019.01.01.045-.013.037-.975-.27-1.532-1.031-1.828-1.961-.02-.07-.04-.143-.064-.22.011.19.026.382.056.573.276 1.767 2.338 3.445 3.95 1.928.02-.017.048.005.03.025-1.01 1.214-2.815.9-3.878-.071zM9.649 33.664c.107.087.223.156.337.224 0-.376-.085-.77-.447-.937-.642-.293-1.29.243-1.727.614.447.243.72.679 1.205.863.314.12.64.2.915.381-.284-.529-.63-.968-1.219-1.238-.02-.01-.01-.042.014-.038.425.08.804.243 1.148.517l.016.016a2.098 2.098 0 00-.258-.384c-.01-.012.006-.026.016-.018zM13.504 34.844c.22.585.535 1.098.865 1.603-.047-.34-.063-.693-.114-.974-.134-.71-.193-1.27-.563-1.89-.835-1.395-1.865-1.588-3.438-1.383.64.169.312 1.294.32 1.76.015.942.23 1.66.924 2.285.55.495 1.149.949 1.836 1.227.124.051.268.092.417.136a11.356 11.356 0 01-1.147-1.26c-.013-.018.011-.042.03-.027.272.227.551.43.84.621-.735-1.002-1.082-2.372-1.463-3.635-.012-.042.05-.08.072-.037.466.867.869 1.77 1.429 2.582.187.271.385.491.59.683a8.917 8.917 0 01-.635-1.676c-.008-.026.027-.04.037-.015zM4.519 27.717a2.706 2.706 0 01-.31.03c-.662.029-1.242-.302-1.508-.907-.018-.043.045-.075.07-.038.383.567.985.685 1.613.5.248-.075.45-.205.64-.352-.397-.116-.864.08-1.288-.102-.375-.162-.88-.738-.465-1.116-.26-.126-.816.146-.971.36-.304.419-.248.953-.005 1.379.413.722 1.547.721 2.224.246zM3.009 31.007c.642-.227.977-.944 1.17-1.56l.019-.047c-.478.321-1.032.553-1.534.711-.022.008-.032-.025-.015-.038.57-.334 1.042-.72 1.53-1.155.05-.047.094-.094.136-.144-.464.238-1.143.1-1.618.255a2.23 2.23 0 00-1.11.777c-.224.282-.388.683-.649.912.391.483 1.538.477 2.07.289zM14.347 44.029c.495-.091 1.687-.54 1.99.087.406-.665-.263-2.081-.598-2.69-.346-.633-.884-.949-1.5-1.294.118-.045.26-.13.395-.134-.14-.63-1.49-.764-2.006-.812-.544-.05-1.123-.023-1.615.258-.51.29-1.019.678-1.514.999-.055.034-.105.074-.16.111.117-.017.231-.031.346-.044a7.093 7.093 0 012.273.099c.072.015.055.12-.02.115a7.58 7.58 0 00-1.938.128c1.346.157 2.664.635 3.937 1.358.028.014.017.064-.018.053-1.71-.44-3.284-.761-4.907-.787.691.205 1.364.501 1.932.8.031.02.008.07-.025.055a8.314 8.314 0 00-3.374-.776l-.035.027c1.454.67 2.65 1.766 4.178 2.256a5.564 5.564 0 002.659.19zM69.226 72.681c-.006.016-.03.014-.026-.003.06-.365.15-.701.277-1.007a4.897 4.897 0 00-1.37 2.45c-.011.05-.089.042-.083-.01.075-.805.326-1.501.725-2.092l-.105.059c-1.468.241-2.49 2.028-1.253 3.273.385-.37.95-.441 1.368-.762.412-.315.625-.743.868-1.169.425-.743.462-1.511.797-2.33l-.442.245c-.357.384-.633.831-.756 1.346zM68.205 56.12a.706.706 0 00-.16.067c-.028.532.027 1.09.165 1.7.37 1.645 1.146 3.189 1.736 4.761.474 1.271.846 2.6.767 3.969-.087 1.481-1.092 2.546-2.202 3.406-.012.01-.028-.01-.015-.02 2.942-2.54 1.345-6.152.094-9.11-.362-.856-.764-1.853-1.024-2.876.175 2.213 1.482 5.65 1.678 6.47.325 1.374.258 2.656-.641 3.764-.438.538-.988 1-1.733.876-.668-.113-.874-.68-1.278-1.05-.073.145-.13.303-.204.45-.649 1.306.588 2.415 1.768 2.75 1.677.475 3.215-.749 3.98-2.152 2.213-4.066-2.403-8.35-2.925-12.364l-.006-.64z" fill="#fff"/>
  <path d="M68.175 64.042l-.296-1.038c-.055-.067-.018-.164-.194-.157-.316.744-.411 1.613-.841 2.369-.28.49-.452 1.538-.98 1.759.738.384 1.642.685 2.301-.022.398-.424.55-1.476.316-2.107-.152.668-.444 1.28-1.041 1.746-.054.043-.138-.038-.086-.088.712-.701.775-1.57.821-2.462zM74.492 67.578c-.521-.314-1.69-.82-1.757-1.464l-.12.594c.076.298.21.579.463.845.495.525 1.049.984 1.695 1.315.015.007.006.028-.01.023-.75-.253-1.668-.379-2.25-.97-.024.437.006.869.32 1.228.635.736 2.152.55 2.953.27-.311-.785-.575-1.409-1.294-1.84zM74.66 62.538c-.821-.077-2.137-.274-2.904-.86.326.662.697 1.29 1.35 1.818 1.177.95 2.8.715 4.192.921.082.012.063.125-.015.123-1.471-.016-2.837.323-4.167-.294a4.149 4.149 0 001.964.928c.022.004.026.041-.001.04-.986.008-1.93-.293-2.647-.87.352.738.8 1.399 1.477 1.732 2.23 1.094 4.244-.602 5.504-2.177-.712-.023-1.517-.533-2.176-.81-.872-.366-1.655-.465-2.578-.551zM80.51 53.026c-.583-.133-1.42.096-1.656.678 1.794.947.16 2.59-1.341 2.498-1.527-.094-2.73-1.459-3.51-2.65-.858-1.313-.874-2.754-.91-4.278-.032-1.406.453-2.933-.525-4.105-1.037 1.95-1.68 4.1-1.629 6.313.04 1.815.805 3.486 2.089 4.751 1.422 1.403 3.794 2.848 5.813 1.984.021-.008.045.022.024.035-1.684 1.211-3.68.535-5.316-.413-1.834-1.063-3.036-2.822-3.556-4.852-.328-1.29-.356-2.666-.14-4.03-.123.214-.24.431-.352.65-.57 3.34.242 6.867 3.245 8.767.014.008 0 .028-.013.02-2.577-1.459-3.736-3.774-3.878-6.695a9.089 9.089 0 01-.012-.55 8.684 8.684 0 00-.397 1.698C68 56.54 70.675 60.3 74.243 61.3c2.852.798 5.839-.262 7.45-2.73 1.039-1.593 1.304-4.98-1.184-5.545zM79.766 46.697c-1.128.479-1.995 1.893-1.56 3.103.157.433.556.914 1.014 1.046.316.09.999.172 1.171-.174-.198-.129-.318-.098-.361-.343-.041-.22.12-.462.276-.583.369-.287 1.065-.21 1.431.034.743.494.793 1.347.974 2.108-.122-.039-.242-.131-.361-.198-.038.309-.084.5.121.786.084.112.169.238.26.313.12-.416.22-.833.226-1.31.004-.997-.356-2.087-1.205-2.665-.017-.013-.004-.048.02-.036.955.42 1.412 1.28 1.577 2.274.011.073.02.152.033.233.017-.196.03-.394.027-.594-.02-1.845-1.88-3.864-3.751-2.551-.022.014-.048-.013-.026-.03 1.211-1.092 3.008-.505 3.951.644.197.239.339.515.44.813-.038-.41-.15-.82-.309-1.15-.72-1.487-2.353-2.399-3.948-1.72z" fill="#fff"/>
  <path d="M78.072 51.452l-.015-.018c.055.157.13.307.207.43.009.014-.01.026-.02.017a2.863 2.863 0 00-.31-.279c-.056.384-.027.8.319 1.023.612.395 1.354-.058 1.855-.372-.421-.314-.636-.8-1.105-1.06-.303-.168-.624-.3-.879-.524.213.582.502 1.082 1.063 1.445.019.012.004.044-.02.036a2.63 2.63 0 01-1.095-.698zM74.48 50.106c-.138-.63-.385-1.2-.647-1.765-.002.355-.038.717-.027 1.012.032.746.01 1.327.296 2.015.648 1.548 1.67 1.897 3.309 1.92-.63-.267-.128-1.369-.068-1.847.124-.964.011-1.73-.606-2.47-.49-.587-1.034-1.139-1.695-1.525-.12-.07-.26-.133-.406-.2.366.456.692.95.986 1.456.01.02-.018.042-.034.023-.245-.271-.5-.52-.767-.758.602 1.132.755 2.584.958 3.93.006.044-.062.075-.079.027-.348-.955-.627-1.937-1.079-2.85a4.328 4.328 0 00-.502-.783c.2.597.332 1.224.402 1.806.004.027-.035.036-.041.01zM73.663 46.003l-.009.032c1.157-.232 2.345-.099 3.468-.47a4.104 4.104 0 001.666-1.041c.255-.27.77-1.054 1.223-.813-.046-.572-1.06-1.125-1.523-1.342-.481-.226-.939-.181-1.456-.119.051-.078.099-.191.178-.252-.357-.314-1.22.193-1.548.388-.346.206-.679.473-.85.855-.177.393-.312.845-.468 1.252-.018.044-.03.09-.046.135a6.78 6.78 0 01.186-.176 5.225 5.225 0 011.397-.928c.05-.022.085.048.038.077-.41.258-.767.566-1.099.918.87-.49 1.863-.778 2.935-.9.023-.004.037.03.011.039-1.208.48-2.286.972-3.264 1.661a8.014 8.014 0 011.499-.362c.027-.002.035.038.008.043a6.13 6.13 0 00-2.346 1.003zM33.795 15.235c.89-.718 1.446-1.497 2.067-2.43.553-.831 1.518-2.121 2.583-2.602-.893-.032-1.775.003-2.714.395-1.688.71-2.369 2.576-3.387 3.94-.06.08-.169-.004-.122-.086.861-1.56 1.284-3.209 2.704-4.273-.777.303-1.484.785-2.116 1.56-.016.022-.059.004-.042-.024.557-1.055 1.42-1.888 2.448-2.32-.99-.05-1.951.048-2.696.578-2.445 1.75-1.793 4.87-.837 7.118.433-.747 1.438-1.312 2.112-1.856zM42.644 24.5c.476-.544.711-1.567.227-2.153-2.04 1.368-2.854-1.317-1.893-2.864.977-1.574 3.121-2.073 4.84-2.22 1.892-.162 3.437.648 5.083 1.485 1.517.773 2.866 2.166 4.677 1.797-1.484-2.225-3.407-4.145-5.795-5.36-1.958-1-4.178-1.143-6.264-.502-2.312.712-5.213 2.41-5.452 5.06-.003.026-.049.034-.05.004-.325-2.49 1.54-4.23 3.491-5.43 2.186-1.344 4.751-1.617 7.213-1.005 1.564.39 3.046 1.15 4.376 2.164a16.96 16.96 0 00-.49-.748c-3.233-2.525-7.46-3.684-11.209-1.574-.017.011-.029-.016-.014-.026 3.035-1.909 6.167-1.815 9.364-.29.2.095.399.196.593.303-.475-.509-.997-.98-1.583-1.397-3.681-2.598-9.224-1.903-12.34 1.326-2.487 2.582-3.07 6.375-1.364 9.51 1.1 2.02 4.56 4.248 6.59 1.92zM45.434 30.228a3.102 3.102 0 01-1.12.002c.46.195.96.31 1.403.33 1.999.089 3.91-1.13 4.1-3.22.137-1.477-.872-3.213-2.411-3.444-.552-.081-1.295.069-1.698.48-.278.286-.756.967-.486 1.35.25-.139.287-.284.572-.19.26.084.424.393.464.63.094.558-.388 1.256-.858 1.506-.953.509-1.892.071-2.807-.172.112-.108.28-.182.42-.272-.308-.217-.486-.377-.908-.321-.167.025-.351.043-.483.096.374.366.762.715 1.267.993 1.06.578 2.429.82 3.532.246.024-.011.053.023.028.041-.997.778-2.176.772-3.33.377l-.268-.099c.2.13.403.258.618.37 1.978 1.037 5.198.213 4.873-2.534-.002-.032.041-.044.047-.01.469 1.917-1.189 3.495-2.955 3.841z" fill="#fff"/>
  <path d="M45.64 22.571c-.377-.28-.837-.486-1.274-.247-.772.426-.715 1.477-.668 2.192.577-.269 1.217-.218 1.764-.57.353-.226.677-.493 1.064-.635-.743-.108-1.442-.087-2.151.303-.023.013-.05-.02-.028-.041a3.182 3.182 0 011.373-.768c.009-.003.019-.003.028-.005a2.635 2.635 0 00-.578-.027c-.019.002-.021-.024-.006-.03.167-.043.323-.107.476-.172zM52.176 21.556c-.696.13-1.41.193-2.118.216-.028 0-.034-.043-.005-.05.43-.105.841-.235 1.249-.382-1.553-.008-3.188-.679-4.74-1.235-.05-.019-.044-.109.017-.1 1.217.177 2.424.444 3.656.486.412.013.78-.022 1.124-.085a11.142 11.142 0 01-2.155-.609c-.032-.011-.02-.057.013-.048.752.215 1.5.279 2.254.323-.377-.206-.743-.452-1.063-.61-.815-.393-1.42-.751-2.319-.84-2.021-.199-2.98.692-3.945 2.425.646-.518 1.532.649 2.007.988.956.685 1.837 1.004 2.982.771.906-.185 1.807-.448 2.597-.932.144-.086.292-.201.446-.318zM33.474 25.524c1.032.123 1.875-1.017 1.901-2.05a3.29 3.29 0 01-.2.333c-.464.687-1.228 1.023-2.034.84-.055-.013-.04-.1.016-.099.853.038 1.419-.479 1.7-1.248.11-.305.13-.604.123-.904-.411.313-.561.928-1.06 1.218-.441.255-1.396.335-1.467-.364-.32.168-.46.93-.36 1.244.194.617.773.958 1.381 1.03zM35.727 29.302c.777-.032 1.623-1.189 1.83-1.864.25-.815-.221-1.683-.697-2.335l-.032-.055c-.033.72-.212 1.447-.426 2.07-.01.027-.05.013-.05-.013.088-.82.053-1.582-.022-2.397a2.497 2.497 0 00-.043-.243c-.107.643-.75 1.223-.948 1.814-.193.577-.202 1.098-.044 1.693.115.436.397.899.432 1.33zM58.25 26.078l.032-.02c-1.164-.71-2.067-1.756-3.312-2.322a4.746 4.746 0 00-2.23-.424c-.428.028-1.482.29-1.677-.271-.409.522.017 1.787.24 2.335.23.57.654.89 1.142 1.243-.105.027-.233.085-.348.075.056.547 1.186.793 1.617.885.456.096.948.132 1.392-.058.46-.195.929-.473 1.38-.695.05-.024.096-.052.146-.079-.1.004-.198.004-.296.004a6.04 6.04 0 01-1.914-.31c-.06-.02-.034-.107.028-.095a6.447 6.447 0 001.653.084c-1.123-.266-2.191-.801-3.197-1.54-.022-.014-.007-.054.021-.042 1.402.541 2.703.97 4.074 1.152a9.262 9.262 0 01-1.556-.869c-.025-.018 0-.059.027-.043.898.55 1.794.85 2.777.99zM59.62 31.872c.2-1.653-.311-3.256-.311-4.918l-.044.021a8.642 8.642 0 00-.733 3.517c0 .038-.058.038-.06 0a11.088 11.088 0 01.082-2.169c-.68 1.541-1.06 3.165-1.388 4.967-.006.038-.058.027-.06-.005-.127-1.515-.006-2.964.43-4.301a7.912 7.912 0 00-.962 1.771c-.026.073-.134.044-.116-.032a7.4 7.4 0 01.894-2.185c.062-.102.124-.204.191-.306-.058.035-.117.064-.174.102-.518.327-1.103.639-1.599.993-.478.341-.754.875-.943 1.41-.179.507-.64 1.838-.106 2.244.06-.127.202-.223.299-.315.053.73.12 1.375.566 1.976.428.58 1.472 1.826 2.276 1.732-.46-.558.48-1.487.78-1.914a5.766 5.766 0 00.978-2.588zM65.26 44.436c.37-.417 1.19.188 1.55.366.646.314 1.37.46 2.085.434 1.282-.045 2.44-.626 3.705-.824l-.022-.031a6.66 6.66 0 00-2.763-.138c-.029.005-.035-.04-.007-.045a8.562 8.562 0 011.66-.196c-1.253-.334-2.534-.43-3.944-.463-.03 0-.027-.041-.003-.047 1.136-.277 2.254-.358 3.323-.185a6.115 6.115 0 00-1.463-.521c-.058-.012-.049-.097.01-.093a5.715 5.715 0 011.77.42c.085.034.17.07.256.109-.034-.041-.063-.082-.099-.12-.31-.356-.617-.764-.946-1.099-.317-.322-.756-.469-1.185-.55-.407-.074-1.475-.267-1.72.188.103.031.194.128.275.19-.55.128-1.032.255-1.436.667-.39.395-1.213 1.338-1.046 1.938zM29.194 76.645a8.075 8.075 0 00-1.243-2.308 8.395 8.395 0 00-.893-1.018c-1.727-1.64-4.002-2.418-5.908-3.835l-.013.07c.869 1.493 1.936 2.745 3.41 3.837.014.01.016.024.014.037-.004.028-.035.052-.065.031-.04-.026-.082-.057-.123-.084a15.71 15.71 0 01-2.295-1.858c.293.517.608 1.016.942 1.505 1.021 1.492 2.226 2.88 3.573 4.32.037.04-.019.09-.058.064-1.846-1.144-3.405-2.52-4.567-4.16.303.926.687 1.792 1.213 2.615.06.093-.065.19-.137.107a10.579 10.579 0 01-1.745-2.888c-.037-.091-.072-.185-.108-.278-.026-.068-.054-.134-.08-.203l-.022.207c-.003.026-.008.053-.009.08-.066.873-.207 1.81-.223 2.68-.016.839.361 1.612.813 2.284.43.638 1.564 2.302 2.484 2.034-.093-.177-.083-.422-.105-.61.884.56 1.678 1.034 2.75 1.033 1.028.005 3.348-.132 3.925-1.134-1.033.052-1.296-1.82-1.53-2.528zM43.386 5.388c.493-.083.98-.207 1.441-.482 1.171-.701 1.84-1.79 1.513-3.173-.02-.092.118-.143.157-.057.55 1.263.24 2.618-.74 3.593a5.62 5.62 0 01-.486.43c1.686-.366 3.288-2.1 2.765-3.752C47.732.976 46.993.134 45.92.007c-.546-.066-1.748.401-1.923.978 1.167-.1 1.333 1.485 1.052 2.286-.317.909-1.277 1.346-1.662 2.117zM17.5 37.043c.65.535.63 1.306.779 2.1.19 1.017.623 1.613 1.363 2.38.73.756 1.56 1.58 1.996 2.553.024-2.081-.38-4.08-1.947-5.757-.074-.078.04-.189.12-.117 1.228 1.094 2.087 2.68 2.434 4.357.006-.167.02-.329.037-.495-.129-.97-.384-1.92-.855-2.768-.017-.032.027-.056.05-.03.422.565.73 1.151.944 1.762.099-.77.133-1.538-.258-2.309-.577-1.14-3.522-3.006-4.663-1.676zM50.99 4.219c.57.977 1.234 1.433 2.278 1.954 1.03.511 2.186 1.058 2.993 1.9-.737-2.155-1.887-4.068-4.117-5.222-.104-.054-.028-.209.08-.165 1.668.678 3.134 1.998 4.107 3.6a8.396 8.396 0 01-.144-.524c-.487-.952-1.099-1.837-1.895-2.54-.03-.026.007-.068.04-.048a7.084 7.084 0 011.62 1.47c-.18-.83-.427-1.635-1.113-2.286-1.012-.965-4.732-1.808-5.421-.02.866.314 1.128 1.116 1.573 1.88zM63.434 35.61c2.91-.486 6.091.096 8.826 1.498a13.527 13.527 0 01-.65-.609c-1.5-.91-3.113-1.62-4.83-1.917-.063-.012-.048-.101.015-.102a11.62 11.62 0 013.524.661c-.965-1.005-2-1.916-3.516-2.236-2.243-.477-8.16 1.542-7.585 4.631 1.478-.306 2.533.587 3.81 1.274 1.634.876 2.954.941 4.858.771 1.879-.172 3.962-.402 5.81.081-2.88-2.374-6.128-4.057-10.232-3.752-.192.014-.22-.268-.03-.3zM27.467 71.26c.6.018 1.164-.135 1.654-.519-1.02-1.247-.695-2.686-.676-4.234.023-1.978-.567-3.26-1.667-4.978-1.09-1.692-2.336-3.55-2.791-5.538-.826 3.897-.815 7.802 1.498 11.535.11.175-.145.34-.267.176-1.898-2.514-2.916-5.811-2.94-9.092-.074.311-.16.61-.254.917-.121 1.867.002 3.745.569 5.516.02.066-.072.095-.104.036a12.394 12.394 0 01-1.113-3.66 14.7 14.7 0 00-.362 1.231c-.247 1.019-.336 2.067-.019 3.2.534 1.92 3.838 5.33 6.472 5.41zM63.918 70.823c-1.016 1.242-2.484 1.209-3.998 1.496-1.936.368-3.07 1.197-4.529 2.61-1.436 1.398-3.003 2.98-4.852 3.818 3.966.035 7.774-.747 10.96-3.742.149-.14.36.075.224.227-2.078 2.348-5.094 3.993-8.29 4.664.317.01.626.035.944.067 1.846-.25 3.654-.742 5.27-1.644.06-.033.107.051.056.093-1.073.81-2.189 1.4-3.353 1.81 1.47.185 2.933.247 4.4-.503 2.17-1.105 5.709-6.728 3.168-8.896zM26.464 9.534c1.819-.36 2.88-1.148 4.242-2.49 1.342-1.325 2.804-2.826 4.54-3.628-3.733-.004-7.312.76-10.288 3.601-.139.134-.34-.067-.212-.21 1.938-2.226 4.765-3.796 7.768-4.451-.3-.008-.59-.029-.89-.057-1.736.25-3.433.726-4.947 1.587-.057.031-.101-.048-.054-.088a11.616 11.616 0 013.142-1.728c-1.384-.163-2.762-.21-4.136.506-2.035 1.056-5.324 6.374-2.917 8.395.947-1.176 2.33-1.155 3.752-1.437zM31.299 73.253c-.124.696.118 1.461.72 2.024l.006.006c.082.075.168.143.256.204a5.644 5.644 0 01-.146-.181c-.013-.016-.028-.033-.04-.05-.411-.557-.51-1.187-.394-1.817.036-.194.09-.388.164-.58.008-.02.034-.013.032.008-.03.217-.033.435-.023.651.021.5.142.992.39 1.432.106.185.233.333.372.463.181.17.383.308.6.431l.184.03a3.2 3.2 0 01-.314-.365c-.363-.485-.61-1.095-.584-1.713.004-.088.01-.176.024-.265.178-1.03 1.273-1.302 1.86-.477.683-.462.062-1.725-.451-2.051-.784-.495-2.04-.346-2.743.188-.542.41-.739 1-.746 1.628-.003.255.022.517.073.776.052.264.13.484.228.674a2.096 2.096 0 01.114-1.231 2.115 2.115 0 011.53-1.261c.018-.003.03.02.014.03-.662.32-1.022.86-1.126 1.446zM40.23 71.594c.219-.672.086-1.463-.432-2.104l-.006-.007a2.334 2.334 0 00-.225-.237c.043.066.081.132.12.199.01.018.023.036.032.054.33.61.34 1.247.138 1.855a3.243 3.243 0 01-.243.552c-.01.018-.035.008-.03-.013.06-.21.093-.426.113-.642a3.177 3.177 0 00-.189-1.472 1.935 1.935 0 00-.303-.51 3.139 3.139 0 00-.533-.51l-.18-.054c.097.124.182.262.26.405.293.53.453 1.168.342 1.777a2.067 2.067 0 01-.06.258c-.32.996-1.441 1.114-1.909.215-.74.363-.3 1.7.163 2.094.707.599 1.971.625 2.742.194.593-.332.87-.888.965-1.51.038-.252.05-.514.034-.778a2.541 2.541 0 00-.132-.7c.03.434-.076.85-.283 1.205a2.114 2.114 0 01-1.69 1.036c-.019 0-.027-.024-.01-.032.7-.225 1.131-.709 1.316-1.275zM34.292 78.224c-.013.002-.018-.017-.006-.02.287-.067.561-.105.824-.105a3.912 3.912 0 00-2.217-.255c-.041.006-.059-.05-.017-.063a3.494 3.494 0 011.756-.11l-.075-.06c-.628-1.002-2.252-1.202-2.787.086.39.17.616.562.98.77.356.207.737.231 1.123.278.676.084 1.25-.125 1.954-.13l-.315-.25c-.392-.142-.805-.209-1.22-.14z" fill="#fff"/>
  <path d="M42.001 76.201c.407-.444.805-.91 1.203-1.365.776-.885 1.561-1.723 2.456-2.241l.468-.2a.554.554 0 00-.098-.1c-.398.145-.79.356-1.196.645-.785.558-1.467 1.252-2.15 1.938-.268.27-.537.538-.81.796-.21.196-.427.387-.649.57-.61.507-1.273.946-2.028 1.21-1.114.39-2.203-.019-3.174-.569-.011-.007-.002-.023.01-.019 1.673.836 3.124.328 4.405-.606.54-.393 1.05-.86 1.534-1.337.265-.262.523-.526.772-.78.519-.53 1.126-1.13 1.797-1.636-1.07.552-2.393 1.66-3.3 2.435-.425.364-.76.655-.932.78-.301.22-.61.4-.926.538-.636.275-1.305.362-2.032.147a2.344 2.344 0 01-.697-.315 1.142 1.142 0 01-.478-.688.95.95 0 01.065-.614c.092-.22.233-.42.314-.645-.129-.009-.263-.003-.394-.012a1.203 1.203 0 00-1.056.46c-.263.323-.4.77-.427 1.215-.01.158-.01.316.009.466.166 1.376 1.535 2.13 2.8 2.26 1.88.193 3.25-.954 4.514-2.333zM39.158 79.51c-.234.523-.4 1.072-.445 1.646-.001.015-.019.015-.02 0-.045-.628-.235-1.34.02-1.948-.327.118-.634.272-.802.61-.345.693.257 1.75.708 2.25.482-.469.857-.854.953-1.514.071-.477.083-1.49.536-1.74l-.473.096c-.195.148-.36.333-.477.6zM43.787 81.16c0-.752-.167-1.359-.387-2.062-.195-.625-.454-1.65-.259-2.392-.385.442-.733.907-.92 1.547-.336 1.155.335 2.275.61 3.358.016.063-.072.084-.094.026-.44-1.086-1.108-1.981-1.064-3.147a3.299 3.299 0 00-.078 1.725c.005.018-.022.032-.03.013-.308-.72-.377-1.505-.173-2.21-.434.487-.781 1.016-.817 1.617-.12 1.969 1.744 2.928 3.285 3.37-.2-.532-.074-1.278-.073-1.846z" fill="#fff"/>
  <path d="M51.294 79.532c.112 1.252-.957 1.296-1.713.763a1.802 1.802 0 01-.535-.576c-.795-1.412-.213-3.05.752-4.211 1.116-1.342 2.783-2.017 4.298-2.79 1.646-.84 3.18-1.983 4.548-3.22 2.288-2.07 4.06-4.483 5.315-7.244a20.903 20.903 0 001.881-8.748c0-3.136-.58-5.77-1.74-7.902a17.855 17.855 0 00-4.563-5.457c-1.881-1.505-4.03-2.743-6.444-3.716a110.08 110.08 0 00-7.431-2.68c-2.54-.815-5.018-1.6-7.432-2.352-2.415-.753-4.563-1.647-6.444-2.682-1.881-1.034-3.403-2.272-4.563-3.715-1.16-1.443-1.74-3.26-1.74-5.457 0-1.442.344-2.853 1.035-4.233.69-1.379 1.693-2.634 3.01-3.763 1.317-1.129 2.931-2.037 4.845-2.728 1.912-.69 4.123-1.035 6.632-1.035 3.072 0 5.612.534 7.62 1.6 2.007 1.067 3.669 2.461 4.986 4.186 1.317 1.725 2.399 3.654 3.245 5.785a145.389 145.389 0 012.399 6.491h1.223V7.975h-1.505c-.315.753-.611 1.27-.894 1.552-.282.282-.862.424-1.74.424-.752 0-1.585-.189-2.493-.565-.91-.376-1.96-.767-3.151-1.176a46.577 46.577 0 00-4.14-1.176c-1.568-.376-3.386-.564-5.456-.564-3.261 0-6.288.55-9.078 1.646-2.791 1.098-5.19 2.54-7.197 4.327-2.007 1.788-3.574 3.843-4.703 6.162-1.129 2.321-1.693 4.736-1.693 7.244 0 3.386.548 6.208 1.646 8.466 1.096 2.258 2.554 4.156 4.374 5.692 1.819 1.537 3.888 2.79 6.209 3.762 2.32.974 4.703 1.82 7.15 2.54 2.445.722 4.828 1.428 7.15 2.117 2.319.69 4.388 1.537 6.208 2.54 1.818 1.004 3.276 2.258 4.374 3.763 1.097 1.505 1.646 3.419 1.646 5.738 0 1.256-.25 2.714-.752 4.375-.694 2.298-2.176 4.257-3.887 5.903-.896.863-1.873 1.634-2.85 2.402-.807.636-1.661 1.26-2.13 2.204-.216.436-.38.901-.48 1.39-.321 1.555-.26 3.761 1.19 4.737.015.008.006.036-.012.028-1.537-.6-1.95-2.223-2.025-3.725a5.774 5.774 0 01.323-2.19c.2-.575.485-1.118.846-1.619.164-.228.338-.451.531-.66a7.487 7.487 0 011.641-1.315c.317-.192.643-.371.987-.524-.196.011-.392.026-.586.046-.136.059-.268.121-.4.185-1.237.6-2.328 1.459-3.064 2.543-.31.459-.555.96-.723 1.496a5.548 5.548 0 00-.258 1.736c0 .013-.02.011-.02 0a6.265 6.265 0 01.124-1.706c.11-.506.283-.98.519-1.424.48-.901 1.208-1.68 2.146-2.356.118-.084.239-.167.362-.246a6.802 6.802 0 00-1.304.472c-1.062.518-1.91 1.376-2.496 2.396a6.76 6.76 0 00-.6 1.373c-.377 1.219-.415 2.542-.038 3.756.702 2.248 2.701 3.78 5.045 3.787.099 0 .201-.005.306-.016 1.504-.15 3.536-1.39 2.882-3.172-.163-.446-.677-.905-1.168-.81zM66.71 18.43c.36.888 1.4 1.608 2.359 1.56 1-.048 2.063-.902 2.067-1.967.001-.32-.106-.592-.276-.8-.667.83-2.114.194-2.277-.806-.176-1.088.629-1.84 1.587-2.183 2.109-.754 3.762 1.333 3.96 3.268.002.024-.03.03-.038.008-.369-1.07-1.452-2.569-2.698-2.642-.583-.034-1.285.231-1.668.683a.916.916 0 00-.18.327 1.61 1.61 0 01.994-.38c-.015 0 .39.04.329.019a3.3 3.3 0 01.428.143c-.19-.074.16.137.221.173-.013.003.282.308.336.371.385.442.713 1.11.974 1.769.265.665.457 1.385.586 2.129.153.882.218 1.798.207 2.694-.445-.6-1.346-.978-1.99-1.078.179.382-.006.858-.03 1.251-.011.191.007.363.044.53-.747-.48-1.68-.618-2.703-.159-1.487.666-2.436 2.218-1.449 3.727.277.423.754.82 1.293.743.396-.058.876-.424.755-.86-.277.32-.624.181-.76-.214-.13-.376.04-.745.331-1.032.9-.887 2.242-.19 2.822.72.678 1.064.781 2.27.758 3.488-.182 1.522-.254 3.051-.039 4.617.043.307.1.616.171.924a13.824 13.824 0 01-.062-1.756c.125-4.607 2.495-9.042 1.761-13.69-.001-.012.017-.016.02-.003.922 4.373-1.086 8.495-1.283 12.812-.158 3.447.789 7.768 4.832 8.343 1.742.248 3.925-.644 5.08-1.937 1.123-1.253 1.419-3.353.74-4.867-.678-1.507-2.36-2.34-3.947-1.966-1.364.32-2.894 1.633-1.746 3.049.166.205.419.266.656.223.079-.242.188-.466.313-.644.415-.589 1.091-.868 1.806-.822 1.35.088 2.343 1.215 2.173 2.587-.003.025-.038.023-.039-.001-.025-.901-.646-1.81-1.51-2 .742.563.919 1.551.704 2.52-.31 1.402-2.385 2.186-3.665 2.205-1.405.02-2.5-.84-3.112-2.046a8.438 8.438 0 01-.636-1.683 12.27 12.27 0 01-.04-1.704c.062-1.577.412-3.123 1.272-4.48.618-.973 1.874-2.194 3.132-2.17.813.017 2.204 1.023 1.197 1.8.1.505.804.245 1.095.09.49-.263.806-.794.91-1.329.225-1.167-.53-2.335-1.521-2.862a3.93 3.93 0 00-2.55-.413l.035-.035c1.07-1.16.881-2.538.338-3.86-.27.366-.708.39-1.091.554-.55.233-.948.395-1.34.87a3.744 3.744 0 00-.173.23c.168-1.414.192-2.839-.1-4.295-.389-1.938-1.315-3.734-2.852-4.991-1.634-1.335-3.985-.887-5.569.22-1.67 1.167-1.625 3.336-.941 5.029zm5.337 7.268c-.392-.62-.952-1.29-1.762-1.27-.635.018-1.433.256-1.732.866-.005.01-.02.002-.017-.009.183-.744 1.04-1.13 1.763-1.108.975.032 1.483.62 1.852 1.468.029.07-.064.116-.104.053zm1.41 1.44c-.015.084-.13.1-.152.012-.174-.682-.16-1.417-.289-2.11-.14-.763-.263-1.53-.535-2.259-.013-.034.031-.058.052-.027.773 1.25 1.178 2.915.923 4.384zM76.86 39.82c1.858 1 4.55.34 5.825-1.35.004-.007.014 0 .01.007-1.185 1.717-3.748 2.786-5.737 1.826-2.496-1.205-3.115-4.208-3.043-6.731.002-.087.143-.1.154-.011.245 2.231.565 5.061 2.79 6.26zM81.44 27.5c.004.011-.01.02-.017.01-.996-1.524-3.06-1.182-4.308-.177-.038.031-.09-.023-.052-.056 1.256-1.117 3.633-1.808 4.377.224zm-3.41-5.06c.008-.01.022-.001.016.01-.72 1.333-1.538 2.636-2.073 4.059-.498 1.317-.913 2.695-1.552 3.954-.036.07-.144.014-.122-.057.465-1.47.813-3.01 1.468-4.41a16.676 16.676 0 012.263-3.557zM17.017 64.712c-.382-.215-.805-.342-1.217-.321-1 .049-2.063.903-2.068 1.967 0 .322.107.592.277.801.667-.83 2.114-.194 2.276.805.177 1.09-.628 1.841-1.586 2.184-1.58.565-2.905-.466-3.553-1.832a4.435 4.435 0 01-.407-1.436.02.02 0 01.038-.008c.086.249.214.521.37.793.514.897 1.371 1.793 2.328 1.85.583.033 1.285-.232 1.668-.684a.922.922 0 00.18-.327 1.609 1.609 0 01-.994.38c.015 0-.39-.04-.329-.019a3.276 3.276 0 01-.428-.143c.19.074-.16-.138-.221-.173.013-.003-.282-.308-.336-.371-.385-.442-.713-1.111-.974-1.77a10.739 10.739 0 01-.586-2.128 14.812 14.812 0 01-.207-2.694c.445.6 1.346.978 1.99 1.078-.179-.382.007-.858.03-1.251a1.89 1.89 0 00-.044-.53c.747.48 1.68.618 2.704.159a3.61 3.61 0 001.089-.75c.774-.784 1.07-1.89.36-2.977a2.042 2.042 0 00-.36-.414c-.26-.227-.583-.378-.934-.329-.396.058-.876.425-.755.86.277-.32.625-.181.76.214.13.377-.04.745-.33 1.032-.9.888-2.243.19-2.823-.72-.678-1.064-.78-2.27-.758-3.488.06-.49.1-.983.13-1.476.062-1.037.055-2.08-.09-3.14-.043-.308-.1-.617-.172-.925.06.585.078 1.174.062 1.756a17.7 17.7 0 01-.231 2.308c-.186 1.166-.457 2.325-.73 3.483-.615 2.611-1.223 5.22-.8 7.899.002.012-.017.016-.02.004-.673-3.194.215-6.254.82-9.354.132-.675.249-1.351.335-2.032.06-.473.107-.949.128-1.427.158-3.448-.788-7.768-4.832-8.344-1.742-.247-3.924.645-5.08 1.938C.575 46.413.279 48.513.958 50.027c.677 1.507 2.36 2.34 3.947 1.966 1.363-.32 2.894-1.634 1.746-3.049-.166-.205-.42-.266-.657-.224a2.465 2.465 0 01-.312.645c-.415.589-1.092.868-1.806.822-1.35-.088-2.344-1.215-2.174-2.587.003-.025.038-.023.039.001.025.901.646 1.81 1.51 2-.742-.563-.918-1.551-.704-2.52.311-1.402 2.385-2.187 3.665-2.205 1.405-.021 2.5.84 3.113 2.045.278.547.485 1.11.636 1.684.06.582.06 1.178.04 1.703-.063 1.578-.413 3.124-1.273 4.48-.618.973-1.873 2.194-3.132 2.17-.813-.016-2.204-1.022-1.197-1.8-.1-.504-.804-.244-1.095-.09-.49.263-.806.794-.91 1.33-.224 1.166.53 2.334 1.522 2.861a3.93 3.93 0 002.549.414.878.878 0 00-.035.035c-1.07 1.16-.88 2.537-.337 3.86.27-.367.707-.391 1.09-.554.55-.233.949-.396 1.34-.87.063-.075.12-.152.174-.23-.169 1.414-.192 2.838.1 4.295.344 1.715 1.111 3.319 2.35 4.537.16.157.325.31.501.454 1.567 1.28 3.792.918 5.369-.09.067-.042.135-.085.2-.13 1.67-1.168 1.625-3.337.941-5.03-.205-.505-.635-.952-1.141-1.238zm-4.195-6.029c.392.62.952 1.29 1.762 1.27.635-.017 1.433-.255 1.732-.865.005-.01.02-.002.017.009-.183.744-1.04 1.13-1.763 1.107-.976-.03-1.483-.618-1.852-1.467-.029-.07.064-.116.104-.054zm-1.41-1.44c.015-.084.13-.1.153-.011.173.682.16 1.416.288 2.11.14.763.263 1.53.535 2.259.013.034-.031.058-.052.026-.773-1.249-1.178-2.914-.923-4.384zM8.009 44.561c-1.858-1-4.55-.34-5.826 1.351-.004.007-.013 0-.01-.007 1.186-1.717 3.75-2.786 5.738-1.826 2.496 1.204 3.115 4.208 3.043 6.731-.002.086-.143.1-.154.011-.245-2.231-.565-5.061-2.79-6.26zM3.43 56.881c-.004-.01.01-.02.017-.009.996 1.524 3.06 1.181 4.308.176.038-.03.09.024.052.057-1.256 1.116-3.633 1.807-4.377-.224zm3.41 5.061c-.008.01-.022.001-.016-.01.72-1.334 1.538-2.636 2.073-4.059.498-1.318.913-2.695 1.552-3.955.036-.07.144-.014.122.057-.465 1.471-.813 3.012-1.468 4.411a16.674 16.674 0 01-2.263 3.556z" fill="#fff"/>
  <path d="M62.351 6.133c1.178.317 2.344.737 3.305 1.51 1.04.836 1.294 2.127 1.345 3.387.001.015-.022.016-.023.001-.324-3.478-3.8-4.193-6.618-4.82-.816-.182-1.756-.408-2.64-.751 1.71 1.026 4.909 1.862 5.611 2.147 1.175.478 2.08 1.196 2.421 2.432.165.601.216 1.245-.263 1.726-.43.43-.954.285-1.435.387.068.13.154.254.223.385.618 1.156 2.075.829 2.936.14 1.222-.98 1.128-2.745.5-4.036-1.822-3.741-7.366-2.597-10.576-4.308l-.472-.33a.634.634 0 00-.035.152c.375.297.812.548 1.33.766 1.397.587 2.933.824 4.391 1.212zM63.703 28.48c-.419-1.136-1.405-1.593-2.565-1.54-.459.024-.86.162-1.25.335.635.367 1.522.227 2.175.72.576.436 1.203 1.64.328 2.117.396.326 1.468.093 1.825-.21.7-.593.828-1.538.59-2.372-.406-1.417-2.359-1.895-3.725-1.362.19.017.378.043.545.078 1.154.231 2.012 1.046 2.215 2.2.013.08-.11.108-.139.034zM61.57 24.245c-.104.06-.2.121-.295.189.9-.212 2.01.31 2.893.245.861-.064 1.547-.339 2.238-.871.506-.39.957-1.012 1.502-1.295-.468-.998-2.445-1.47-3.442-1.371-1.202.12-2.08 1.213-2.67 2.192l-.054.073c.958-.352 2.008-.517 2.94-.578.041-.003.045.058.01.072-1.12.334-2.098.8-3.122 1.344zM30.232 18.209c-.542-.07-1.407-.628-1.01-1.27-.383-.066-1.001.49-1.122.823-.238.653.032 1.323.502 1.783.8.78 2.263.36 2.962-.502-.131.06-.264.113-.387.153-.847.28-1.717.067-2.284-.616-.038-.048.032-.113.078-.074.702.59 1.523.52 2.266.05.293-.188.505-.43.696-.69-.555-.003-1.086.423-1.7.343zM31.69 20.483c-.512.477-1.438.55-1.995.925-.543.365-.89.803-1.146 1.413-.186.446-.25 1.025-.501 1.416.682.48 2.16.05 2.78-.39.745-.53.912-1.579.934-2.445l.008-.068c-.499.59-1.128 1.093-1.718 1.483-.026.018-.051-.02-.034-.043.612-.64 1.08-1.313 1.55-2.056.045-.078.086-.155.122-.235zM40.77 4.925a3.335 3.335 0 01-.219-.314c-.43-.694-.422-1.515.066-2.165.035-.043.107.005.083.055-.378.75-.143 1.466.434 2.03.23.22.49.358.761.474-.114-.496-.605-.879-.664-1.444-.052-.498.262-1.386.917-1.169-.021-.355-.647-.788-.97-.825-.632-.074-1.172.308-1.482.824-.526.877.156 2.093 1.073 2.534zM38.709 5.6l.062-.008c-.632-.32-1.213-.774-1.685-1.217-.021-.02.008-.05.032-.04.7.41 1.398.686 2.16.947.079.024.156.044.235.06-.534-.356-.795-1.166-1.246-1.582-.44-.407-.904-.625-1.502-.723-.437-.072-.966-.006-1.367-.148-.284.71.412 1.936.935 2.394.63.553 1.6.48 2.376.316zM3.368 37.932c-.104.081-.21.158-.312.22-.691.435-1.512.435-2.165-.049-.044-.034.004-.107.054-.083.752.372 1.467.131 2.026-.45.219-.231.355-.492.468-.765-.494.118-.873.612-1.438.676-.498.055-1.388-.252-1.176-.909-.355.025-.783.654-.818.977-.07.633.317 1.17.836 1.476.88.519 2.092-.173 2.525-1.093zM3.795 39.185c-.352.536-1.16.804-1.572 1.258-.404.443-.618.909-.711 1.507-.069.438.001.966-.138 1.368.712.28 1.932-.427 2.387-.953.548-.634.468-1.603.298-2.378l-.008-.063c-.315.635-.764 1.22-1.204 1.695-.02.022-.05-.007-.04-.031.405-.704.675-1.404.93-2.167.024-.08.043-.157.058-.236z" fill="#fff"/>
</svg>