<svg width="156" height="26" fill="none" xmlns="http://www.w3.org/2000/svg"><path fill-rule="evenodd" clip-rule="evenodd" d="M0 22.489l1.23-2.591c1.727 1.56 4.683 2.69 7.673 2.69 4.02 0 5.748-1.56 5.748-3.587C14.65 13.319.565 16.909.565 8.27c0-3.587 2.79-6.645 8.903-6.645 2.724 0 5.548.733 7.475 2.06l-1.096 2.66C13.82 5.049 11.527 4.45 9.468 4.45c-3.953 0-5.648 1.662-5.648 3.688 0 5.679 14.086 2.125 14.086 10.662 0 3.553-2.856 6.611-9.003 6.611-3.555 0-7.043-1.195-8.903-2.923zm51.526-7.476v10.133h-3.19v-9.768c0-3.452-1.66-5.147-4.551-5.147-3.189 0-5.282 2.027-5.282 5.847v9.068h-3.19v-9.768c0-3.452-1.66-5.147-4.55-5.147-3.19 0-5.283 2.027-5.283 5.847v9.068h-3.189V7.541h3.056v2.625c1.262-1.797 3.422-2.792 6.08-2.792 2.69 0 4.95 1.064 6.113 3.255 1.328-1.994 3.787-3.255 6.777-3.255 4.286 0 7.209 2.456 7.209 7.64zM56.84 2.092C56.84.93 57.77 0 58.999 0c1.23 0 2.16.897 2.16 2.027 0 1.196-.898 2.125-2.16 2.125-1.23 0-2.16-.897-2.16-2.06zm.564 23.054h3.19V7.541h-3.19v17.605z" fill="#fff"/><path d="M66.673 25.146h3.189V.5h-3.19v24.646z" fill="#fff"/><path fill-rule="evenodd" clip-rule="evenodd" d="M89.277 20.01c-1.554 1.852-4.068 2.876-6.127 2.876-2.06 0-4.574-1.024-6.127-2.876l-1.87 1.765c1.783 2.383 5.073 3.903 7.997 3.903 2.924 0 6.213-1.52 7.997-3.903l-1.87-1.765zM83.15 7.374c-5.083 0-8.704 3.652-8.704 9.068 0 .266.033.663.066.962h17.275a9.8 9.8 0 00.067-.962c0-5.416-3.621-9.068-8.704-9.068zm-5.648 7.741c.333-2.96 2.558-5.052 5.648-5.052s5.315 2.092 5.648 5.052H77.502m35.48-.102v10.133h-3.189v-9.768c0-3.452-1.728-5.147-4.751-5.147-3.388 0-5.582 2.027-5.582 5.847v9.068h-3.188V7.541h3.055V10.2c1.297-1.794 3.556-2.825 6.346-2.825 4.285 0 7.309 2.456 7.309 7.64zm21.859 2.392h-14.286c.399 3.09 2.89 5.15 6.379 5.15 2.06 0 3.788-.7 5.083-2.125l1.76 2.06c-1.594 1.858-4.019 2.853-6.942 2.853-5.681 0-9.469-3.75-9.469-9 0-5.215 3.755-8.969 8.837-8.969 5.083 0 8.704 3.652 8.704 9.068 0 .267-.032.664-.066.963zm-14.286-2.29h11.296c-.332-2.959-2.558-5.051-5.648-5.051-3.056 0-5.315 2.06-5.648 5.052m17.142 1.228c0-5.249 3.888-8.97 9.169-8.97 5.283 0 9.137 3.721 9.137 8.97 0 5.249-3.854 9-9.137 9-5.281 0-9.169-3.751-9.169-9zm15.083 0c0-3.754-2.525-6.178-5.914-6.178-3.388 0-5.946 2.424-5.946 6.178 0 3.75 2.558 6.21 5.946 6.21 3.389 0 5.914-2.46 5.914-6.21z" fill="#fff"/></svg>