<svg width="165" height="33" viewBox="0 0 165 33" fill="none" xmlns="http://www.w3.org/2000/svg">
<path fill-rule="evenodd" clip-rule="evenodd" d="M38.7269 21.9933C39.9433 22.9796 41.7843 24.0973 44.1842 24.0973C45.6965 24.0973 47.0772 23.6371 48.1621 22.8809C49.2798 22.0919 50.1017 20.8098 50.1017 19.3304C50.1017 18.64 49.8716 17.9168 49.51 17.2922C48.984 16.4374 48.1621 15.8457 47.3402 15.484C46.4526 15.0567 45.4992 14.7937 44.4801 14.5964H44.4472L44.4143 14.5635C43.3623 14.3663 42.5733 14.1033 42.1788 13.8403C41.9487 13.7088 41.883 13.6102 41.8501 13.5444C41.7843 13.4458 41.7843 13.4129 41.7843 13.3143C41.7843 13.1499 41.883 12.8869 42.2775 12.6239C42.672 12.328 43.3623 12.065 44.1185 12.065C45.1047 12.065 45.9595 12.5582 46.9457 13.2157C47.7018 13.7417 48.721 13.5115 49.2141 12.7883C49.6743 12.0322 49.4442 11.013 48.721 10.5199C47.7347 9.82954 46.2225 8.84328 44.1185 8.84328C42.7048 8.84328 41.4227 9.23778 40.3378 9.99391C39.3187 10.75 38.5297 11.9664 38.5297 13.38C38.5297 14.0704 38.7269 14.7608 39.0557 15.3197C39.6146 16.1415 40.3378 16.7004 41.1597 17.0949C41.9487 17.4565 42.8692 17.7195 43.8226 17.8839H43.8555C44.9732 18.114 45.8937 18.4428 46.3211 18.7387C46.5512 18.9031 46.6827 19.0017 46.7156 19.1003C46.7813 19.1989 46.8142 19.2647 46.8142 19.3962C46.8142 19.6263 46.6827 19.9551 46.2553 20.3167C45.7622 20.6126 45.0061 20.9084 44.1513 20.9084C42.9678 20.9413 41.5871 20.2181 40.7652 19.5606C40.0748 18.9688 39.0228 19.0674 38.4639 19.7907C37.9708 20.3824 38.0694 21.4344 38.7269 21.9933ZM161.614 4.30653V22.4207C161.614 23.3412 162.37 24.0973 163.291 24.0973C164.244 24.0973 165 23.3412 165 22.4207V4.30653C165 3.38602 164.244 2.6299 163.291 2.6299C162.403 2.59702 161.614 3.38602 161.614 4.30653ZM159.839 10.4213C159.839 9.50078 159.115 8.77753 158.228 8.77753C157.439 8.77753 156.814 9.36929 156.617 10.1254C155.433 9.30353 154.053 8.77753 152.54 8.77753C150.436 8.77753 148.628 9.66516 147.313 11.0788C145.998 12.4595 145.209 14.3663 145.209 16.4703C145.209 18.5743 145.965 20.4482 147.313 21.8618C148.628 23.2426 150.436 24.0973 152.54 24.0973C154.086 24.0973 155.466 23.6042 156.617 22.7823C156.814 23.5056 157.406 24.0973 158.228 24.0973C159.115 24.0973 159.839 23.3741 159.839 22.4536V16.4703V10.4213ZM155.401 19.6263C154.677 20.3824 153.625 20.8098 152.54 20.8098C151.423 20.8098 150.404 20.3824 149.68 19.6263C148.957 18.8373 148.53 17.7195 148.53 16.4703C148.53 15.1882 148.957 14.0704 149.68 13.3143C150.371 12.4924 151.423 12.065 152.54 12.065C153.625 12.065 154.644 12.4924 155.401 13.3143C156.124 14.0704 156.584 15.1882 156.584 16.4703C156.584 17.7195 156.124 18.8373 155.401 19.6263ZM137.056 12.0322C138.733 12.0322 140.146 13.4458 140.146 15.1882V22.4536C140.146 23.3412 140.903 24.0973 141.79 24.0973C142.678 24.0973 143.434 23.3741 143.434 22.4536V15.1882C143.434 11.6377 140.574 8.74466 137.056 8.74466C135.117 8.74466 133.374 9.53366 132.224 10.8487C131.073 9.53366 129.331 8.74466 127.391 8.74466C126.24 8.74466 125.09 9.07341 124.103 9.66516C123.873 9.07341 123.282 8.74466 122.624 8.74466C121.736 8.74466 121.013 9.43503 121.013 10.3884V15.1553C121.013 15.1553 121.013 15.1553 121.013 15.1882V22.4536C121.013 23.2754 121.605 23.9001 122.328 24.0973C122.427 24.0644 122.525 24.0973 122.624 24.0973C123.282 24.0973 123.873 23.6699 124.169 23.1111C124.169 23.0453 124.169 22.9796 124.169 22.9467C124.235 22.8809 124.235 22.8152 124.268 22.7494C124.268 22.7494 124.268 22.6837 124.268 22.6508C124.268 22.5851 124.301 22.4864 124.301 22.4207V15.1882C124.301 13.4458 125.714 12.0322 127.391 12.0322C129.1 12.0322 130.514 13.4129 130.547 15.0895C130.547 15.1224 130.547 15.1553 130.547 15.1882V22.4536C130.547 23.3412 131.336 24.0973 132.191 24.0973C133.078 24.0973 133.802 23.3741 133.802 22.4536V15.1882C133.802 15.1553 133.802 15.1224 133.802 15.0895C133.933 13.4129 135.314 12.0322 137.056 12.0322ZM115.852 4.30653V22.4207C115.852 23.3412 116.608 24.0973 117.528 24.0973C118.482 24.0973 119.238 23.3412 119.238 22.4207V4.30653C119.238 3.38602 118.482 2.6299 117.528 2.6299C116.608 2.59702 115.852 3.38602 115.852 4.30653ZM114.077 10.4213C114.077 9.50078 113.353 8.77753 112.433 8.77753C111.644 8.77753 111.019 9.36929 110.822 10.1254C109.671 9.30353 108.258 8.77753 106.745 8.77753C104.641 8.77753 102.833 9.66516 101.518 11.0788C100.203 12.4595 99.4143 14.3663 99.4143 16.4703C99.4143 18.5743 100.17 20.4482 101.518 21.8618C102.833 23.2426 104.641 24.0973 106.745 24.0973C108.291 24.0973 109.671 23.6042 110.822 22.7823C111.019 23.5056 111.611 24.0973 112.433 24.0973C113.32 24.0973 114.077 23.3741 114.077 22.4536V16.4703V10.4213ZM109.606 19.6263C108.882 20.3824 107.83 20.8098 106.745 20.8098C105.628 20.8098 104.609 20.3824 103.885 19.6263C103.162 18.8373 102.735 17.7195 102.735 16.4703C102.735 15.1882 103.162 14.0704 103.885 13.3143C104.576 12.4924 105.628 12.065 106.745 12.065C107.83 12.065 108.849 12.4924 109.606 13.3143C110.329 14.0704 110.789 15.1882 110.789 16.4703C110.789 17.7195 110.329 18.8373 109.606 19.6263ZM95.9953 29.8504C96.9158 29.8504 97.639 29.0943 97.639 28.2067V16.4703C97.639 16.4703 97.639 16.4703 97.639 16.4374V10.4213C97.639 9.50078 96.9158 8.77753 95.9953 8.77753C95.1734 8.77753 94.483 9.36928 94.3515 10.0597C93.168 9.30353 91.7544 8.77753 90.1764 8.77753C86.0341 8.77753 82.7138 12.2623 82.7138 16.4374C82.7138 20.6783 86.0341 24.0973 90.1764 24.0973C91.7215 24.0973 93.1352 23.6042 94.2858 22.8152V28.2067C94.3187 29.0614 95.0419 29.8504 95.9953 29.8504ZM93.0694 13.38C93.8584 14.1033 94.3187 15.2539 94.3187 16.4045C94.3187 17.6538 93.8584 18.7715 93.0694 19.4948C92.379 20.3496 91.327 20.7769 90.2093 20.7769C89.1244 20.7769 88.1382 20.3496 87.3163 19.4948C86.593 18.7715 86.067 17.6538 86.067 16.4045C86.067 15.2539 86.593 14.1033 87.3163 13.38C88.1053 12.5582 89.1244 12.065 90.2093 12.065C91.2942 12.065 92.3462 12.5582 93.0694 13.38ZM80.9714 17.7195V10.3884C80.9714 9.53366 80.1824 8.74466 79.3276 8.74466C78.4071 8.74466 77.7168 9.50078 77.7168 10.3884V17.7195C77.6839 19.4619 76.2703 20.8427 74.495 20.8427C72.7526 20.8427 71.3719 19.4619 71.3719 17.7195V10.3884C71.3719 9.53366 70.6815 8.74466 69.761 8.74466C68.8734 8.74466 68.1172 9.50078 68.1172 10.3884V17.7195C68.1172 21.2043 71.0103 24.0973 74.495 24.0973C78.0126 24.0973 80.9714 21.2043 80.9714 17.7195ZM59.0437 24.1959C61.082 24.1959 62.923 23.3083 64.1722 21.8618C65.553 20.5139 66.3091 18.6072 66.3091 16.4703C66.3091 14.3663 65.553 12.5582 64.1722 11.1117C62.923 9.66516 61.082 8.77753 59.0437 8.77753C56.9397 8.77753 55.1316 9.66516 53.7508 11.1117C52.4358 12.591 51.6468 14.3992 51.6468 16.4703C51.6468 18.6072 52.4358 20.5139 53.7508 21.8618C55.1316 23.3083 56.9069 24.1959 59.0437 24.1959ZM56.085 13.2485C56.8411 12.5582 57.8602 12.065 59.0437 12.065C60.1286 12.065 61.1149 12.5582 61.871 13.2485C62.6271 14.0704 63.0545 15.1882 63.0545 16.4374C63.0545 17.7524 62.6271 18.8373 61.871 19.6921C61.1149 20.4153 60.1286 20.8427 59.0437 20.8427C57.8931 20.8427 56.874 20.4482 56.085 19.6921C55.3946 18.8373 54.9672 17.7524 54.9672 16.4374C54.9672 15.1882 55.3946 14.1033 56.085 13.2485Z" fill="white"/>
<path fill-rule="evenodd" clip-rule="evenodd" d="M16.4375 0C25.4782 0 32.8751 7.39689 32.8751 16.4375C32.8751 25.4782 25.4782 32.8751 16.4375 32.8751C7.39689 32.8751 0 25.4782 0 16.4375C0 7.39689 7.39689 0 16.4375 0ZM15.8458 23.8015C14.5637 23.67 12.6898 23.144 11.9336 22.0263C11.8679 21.9277 11.8021 21.829 11.7693 21.7304C11.4076 21.1715 10.7501 20.8428 10.0926 20.8428C8.97489 20.8428 8.05439 21.7633 8.05439 22.881C8.05439 23.1769 8.12014 23.4728 8.25164 23.7687C8.38314 24.0317 8.61327 24.3275 8.81052 24.5905C10.3885 26.6288 13.0843 27.6808 15.6157 27.878C16.0102 27.9109 16.3718 27.9438 16.7663 27.8452C17.6539 27.615 18.2785 26.7932 18.2785 25.8727C18.2785 24.8535 17.4895 23.9659 16.5033 23.8673C16.2732 23.8344 16.043 23.8344 15.8458 23.8015ZM25.3138 21.1387C25.3138 12.4925 12.7884 16.1417 11.6378 12.0323C11.5391 11.6378 11.6378 11.2761 11.835 10.9145C11.9994 10.6515 12.1638 10.4543 12.2624 10.1584C12.6898 8.87627 11.7035 7.49551 10.3228 7.49551C8.84339 7.49551 8.02151 9.13927 7.69276 10.3556C7.56126 10.8159 7.52839 11.2433 7.52839 11.7035C7.52839 20.3497 20.0538 16.7005 21.2044 20.8428C21.303 21.2373 21.2044 21.5989 21.0072 21.9605C20.8428 22.2235 20.6784 22.4208 20.5798 22.7167C20.1524 23.9988 21.1387 25.3795 22.5194 25.3795C23.9988 25.3795 24.8207 23.7358 25.1494 22.5194C25.248 22.0592 25.3138 21.5989 25.3138 21.1387ZM17.0293 9.04064C18.3114 9.17214 20.1853 9.69814 20.9414 10.8159C21.0072 10.9145 21.0729 11.0131 21.1058 11.1118C21.4674 11.6706 22.1249 11.9994 22.7824 11.9994C23.9002 11.9994 24.8207 11.0789 24.8207 9.96114C24.8207 9.66527 24.7549 9.36939 24.6234 9.07352C24.4919 8.81052 24.2618 8.51464 24.0645 8.25164C22.4865 6.21339 19.7908 5.16138 17.2594 4.96413C16.8649 4.93126 16.5033 4.89838 16.1088 4.99701C15.2212 5.22713 14.5965 6.04901 14.5965 6.96951C14.5965 7.98864 15.3855 8.87627 16.3718 8.97489C16.6019 9.04064 16.832 9.00777 17.0293 9.04064Z" fill="white"/>
</svg>
