<svg version="1.1" id="Layer_1" xmlns="http://www.w3.org/2000/svg" x="0px" y="0px" width="300px" viewBox="50 200 920 100" xmlns:xlink="http://www.w3.org/1999/xlink">
<g>
	<path style="fill:#ffffff;" d="M82.09,229.117h45.67v12.006h-15.323v36.615H97.413v-36.615H82.09V229.117z"></path>
	<path style="fill:#ffffff;" d="M132.927,229.117h15.024v17.014h16.417v-17.014h15.091v48.622h-15.091v-19.668h-16.417v19.668
		h-15.024V229.117z"></path>
	<path style="fill:#ffffff;" d="M187.711,229.117h40.264v10.381h-25.206v7.728h23.382v9.916h-23.382v9.585h25.936v11.011h-40.993
		V229.117z"></path>
	<path style="fill:#ffffff;" d="M276.421,260.127v-10.116h23.216v20.729c-4.444,3.029-8.375,5.091-11.791,6.186
		c-3.416,1.094-7.468,1.642-12.155,1.642c-5.771,0-10.475-0.984-14.112-2.952c-3.637-1.968-6.456-4.897-8.457-8.789
		c-2.001-3.891-3.001-8.358-3.001-13.399c0-5.307,1.094-9.922,3.283-13.847c2.189-3.924,5.394-6.904,9.618-8.938
		c3.294-1.569,7.728-2.355,13.299-2.355c5.373,0,9.391,0.487,12.056,1.459c2.664,0.973,4.875,2.482,6.633,4.527
		c1.758,2.045,3.079,4.638,3.963,7.778l-14.493,2.587c-0.597-1.835-1.609-3.239-3.035-4.212c-1.426-0.973-3.245-1.459-5.456-1.459
		c-3.295,0-5.92,1.144-7.877,3.433c-1.957,2.288-2.935,5.909-2.935,10.862c0,5.263,0.989,9.021,2.968,11.276
		c1.979,2.255,4.737,3.383,8.275,3.383c1.68,0,3.283-0.243,4.809-0.73c1.526-0.486,3.272-1.315,5.24-2.487v-4.577H276.421z"></path>
	<path style="fill:#ffffff;" d="M305.08,229.117h15.057v48.622H305.08V229.117z"></path>
	<path style="fill:#ffffff;" d="M323.424,229.117h15.706l10.943,34.99l10.803-34.99h15.249l-18.054,48.622h-16.285L323.424,229.117z
		"></path>
	<path style="fill:#ffffff;" d="M378.913,229.117h15.057v48.622h-15.057V229.117z"></path>
	<path style="fill:#ffffff;" d="M402.132,229.117h14.029l18.308,26.9v-26.9h14.162v48.622h-14.162l-18.208-26.697v26.697h-14.129
		V229.117z"></path>
	<path style="fill:#ffffff;" d="M478.982,260.127v-10.116h23.216v20.729c-4.444,3.029-8.375,5.091-11.791,6.186
		c-3.416,1.094-7.468,1.642-12.155,1.642c-5.771,0-10.475-0.984-14.112-2.952c-3.637-1.968-6.456-4.897-8.457-8.789
		c-2.001-3.891-3.001-8.358-3.001-13.399c0-5.307,1.094-9.922,3.283-13.847c2.189-3.924,5.394-6.904,9.618-8.938
		c3.294-1.569,7.728-2.355,13.299-2.355c5.373,0,9.391,0.487,12.056,1.459c2.664,0.973,4.875,2.482,6.633,4.527
		c1.758,2.045,3.079,4.638,3.963,7.778l-14.493,2.587c-0.597-1.835-1.609-3.239-3.035-4.212c-1.426-0.973-3.245-1.459-5.456-1.459
		c-3.295,0-5.92,1.144-7.877,3.433c-1.957,2.288-2.935,5.909-2.935,10.862c0,5.263,0.989,9.021,2.968,11.276
		c1.979,2.255,4.737,3.383,8.275,3.383c1.68,0,3.283-0.243,4.809-0.73c1.526-0.486,3.272-1.315,5.24-2.487v-4.577H478.982z"></path>
	<path style="fill:#ffffff;" d="M525.455,229.117h19.759l7.62,29.584l7.565-29.584h19.747v48.622h-12.305v-37.08l-9.481,37.08
		h-11.138l-9.463-37.08v37.08h-12.305V229.117z"></path>
	<path style="fill:#ffffff;" d="M583.765,253.461c0-7.938,2.211-14.117,6.633-18.54c4.422-4.422,10.581-6.633,18.474-6.633
		c8.093,0,14.328,2.173,18.706,6.517c4.378,4.345,6.567,10.431,6.567,18.258c0,5.683-0.957,10.343-2.869,13.979
		c-1.912,3.637-4.676,6.467-8.291,8.49c-3.615,2.023-8.121,3.035-13.515,3.035c-5.484,0-10.022-0.873-13.615-2.62
		c-3.593-1.746-6.506-4.511-8.739-8.292C584.882,263.875,583.765,259.144,583.765,253.461z M598.79,253.527
		c0,4.908,0.912,8.436,2.736,10.58c1.824,2.145,4.306,3.217,7.446,3.217c3.228,0,5.726-1.05,7.496-3.151
		c1.769-2.1,2.653-5.87,2.653-11.309c0-4.577-0.923-7.921-2.769-10.033c-1.847-2.111-4.351-3.167-7.512-3.167
		c-3.029,0-5.462,1.073-7.297,3.217C599.707,245.026,598.79,248.575,598.79,253.527z"></path>
	<path style="fill:#ffffff;" d="M630.467,229.117h15.706l10.943,34.99l10.803-34.99h15.249l-18.054,48.622H648.83L630.467,229.117z"></path>
	<path style="fill:#ffffff;" d="M686.685,229.117h40.264v10.381h-25.206v7.728h23.382v9.916h-23.382v9.585h25.936v11.011h-40.993
		V229.117z"></path>
	<path style="fill:#ffffff;" d="M732.208,229.117h19.759l7.62,29.584l7.565-29.584h19.747v48.622h-12.305v-37.08l-9.481,37.08
		h-11.138l-9.463-37.08v37.08h-12.304V229.117z"></path>
	<path style="fill:#ffffff;" d="M793.055,229.117h40.264v10.381h-25.207v7.728h23.382v9.916h-23.382v9.585h25.936v11.011h-40.993
		V229.117z"></path>
	<path style="fill:#ffffff;" d="M838.844,229.117h14.029l18.308,26.9v-26.9h14.162v48.622h-14.162l-18.208-26.697v26.697h-14.129
		V229.117z"></path>
	<path style="fill:#ffffff;" d="M890.212,229.117h45.669v12.006h-15.323v36.615h-15.024v-36.615h-15.323V229.117z"></path>
</g>
</svg>