<svg width="254" height="47" fill="none" xmlns="http://www.w3.org/2000/svg">
  <path d="M42.182 10.794l-3.655 4.003h-5.242l-1.936 11.39h-4.56l1.917-11.39H21.79l3.655-4.003h16.736zM65.553 10.794L55.049 21.102l-.836 5.085h-4.581l.859-5.108-7.246-10.285h5.858l2.818 4.28c.375.551 1.344 1.956 1.564 2.415.397-.437.992-1.104 2.269-2.438l4.074-4.256h5.726l-.001-.001zM83.413 26.185h-6.1l-2.598-4.072h-7.003l-.682 4.072h-4.56l1.322-7.868H76.61c1.52 0 2.84-.76 2.84-2.002 0-1.012-.836-1.518-2.246-1.518H64.386l3.656-4.003h9.47c3.082 0 6.738.99 6.738 4.671 0 2.784-1.916 5.13-4.757 5.706.418.39.881.943 1.695 2.025l2.224 2.991.001-.002zM102.801 22.229l-3.61 3.957H85.009l2.62-15.392h17.045l-3.634 4.003h-9.535l-.308 1.841h11.648l-3.17 3.497h-9.073l-.352 2.094H102.8zM118.917 16.937c3.193 0 4.889 1.197 4.889 3.497 0 3.337-2.004 5.753-7.246 5.753h-13.718l3.589-3.957h11.165c1.234 0 1.762-.415 1.762-1.313 0-.62-.463-.92-1.388-.92h-8.037c-3.348 0-4.845-1.472-4.845-3.705 0-3.129 2.048-5.498 7.201-5.498h12.794l-3.611 4.003h-10.218c-1.233 0-1.761.346-1.761 1.267 0 .62.462.873 1.409.873h8.016-.001zM240.975 25.371a.618.618 0 00-.311-.354.697.697 0 00-.572.012.98.98 0 00-.242.161.865.865 0 00-.181.232.875.875 0 00-.092.252c-.005.025-.01.05-.012.074a.64.64 0 00.179.528.616.616 0 00.454.184.716.716 0 00.31-.073.915.915 0 00.433-.449.774.774 0 00.035-.568l-.001.001zM248.099 20.805a2.368 2.368 0 00-.333-.074 11.392 11.392 0 00-.426-.064h-.001a13.44 13.44 0 00-.429-.045 4.235 4.235 0 00-.337-.019c-.63 0-1.18.102-1.638.3a3.23 3.23 0 00-1.14.8 3.216 3.216 0 00-.662 1.154 4.353 4.353 0 00-.213 1.354c0 .37.053.698.158.98.104.278.246.515.42.703.177.191.386.337.62.431.232.094.48.142.735.142.182 0 .363-.018.535-.053.181-.036.349-.097.514-.186a1.896 1.896 0 00.492-.384v.002l.001.198.015.339h1.129l-.035-.193a1.61 1.61 0 01-.022-.168 1.91 1.91 0 01-.01-.215c0-.11.003-.233.013-.372.007-.138.018-.278.033-.421.015-.144.032-.286.052-.428.019-.14.04-.27.058-.385l.608-3.352-.137-.044zm-1.127.804l-.44 2.42v.002a1.84 1.84 0 01-.19.561 1.823 1.823 0 01-.339.465c-.132.13-.283.236-.45.313-.273.129-.605.175-.877.014a.929.929 0 01-.297-.283 1.5 1.5 0 01-.2-.45 2.108 2.108 0 01-.073-.585c0-.439.065-.824.194-1.144.128-.32.298-.591.502-.804a2.02 2.02 0 01.691-.476 2.013 2.013 0 011.241-.11c.087.022.167.047.239.077h-.001zM250.027 23.94c.231-.005.468-.015.707-.031.286-.018.571-.051.85-.099.278-.048.541-.115.781-.198.25-.086.472-.201.66-.338.194-.143.349-.318.464-.521.115-.209.174-.455.174-.733 0-.457-.164-.813-.485-1.06-.31-.237-.746-.357-1.298-.357-.45 0-.866.103-1.239.306a3.032 3.032 0 00-.947.808 3.8 3.8 0 00-.606 1.156 4.335 4.335 0 00-.215 1.362c0 .303.043.594.129.867.088.278.222.522.395.72.176.205.399.365.664.477.26.11.566.167.908.167a4.05 4.05 0 001.27-.188 3.432 3.432 0 001.027-.537l.117-.09-.51-.828-.141.096a3.893 3.893 0 01-.362.214 3.274 3.274 0 01-.874.307c-.32.063-.69.073-.924-.048a.779.779 0 01-.299-.268 1.31 1.31 0 01-.184-.456 2.798 2.798 0 01-.062-.613v-.05l.001-.066h-.001zm1.762-2.383c.259 0 .454.05.58.146.116.09.17.218.17.4 0 .136-.03.248-.091.345a.847.847 0 01-.269.262 1.839 1.839 0 01-.436.196 4.142 4.142 0 01-.553.13 5.845 5.845 0 01-.608.066c-.14.009-.276.015-.409.02.039-.145.091-.291.154-.437.093-.211.212-.403.353-.57.14-.166.305-.302.493-.407.182-.102.384-.151.616-.151zM154.252 17.055c0 6.327-4.008 9.388-12.266 9.388-6.363 0-9.579-2.072-9.579-6.535 0-6.328 4.008-9.364 12.266-9.364 6.364 0 9.579 2.048 9.579 6.512v-.001zm-4.581.483c0-2.485-1.673-2.992-5.682-2.992-5.923 0-7.002.944-7.002 4.902 0 2.484 1.695 2.991 5.659 2.991 5.925 0 7.025-.966 7.025-4.9v-.001zM168.305 25.614l-7.598-8.467-1.519 9.043h-4.139l2.135-12.77c.33-2.048 1.629-2.876 2.996-2.876.55 0 1.101.138 1.695.829l7.597 8.466 1.542-9.041h4.139l-2.18 12.746c-.353 2.048-1.652 2.9-2.973 2.9-.616 0-1.079-.139-1.695-.829zM191.904 22.229l-3.633 3.957h-13.014l2.62-15.392h4.537l-1.938 11.435h11.428zM197.397 26.187h-4.558l2.62-15.393h4.537l-2.599 15.393zM213.428 25.614l-7.598-8.467-1.519 9.043h-4.139l2.136-12.77c.33-2.048 1.63-2.876 2.996-2.876.55 0 1.1.138 1.695.829l7.597 8.466 1.542-9.041h4.139l-2.18 12.746c-.353 2.048-1.652 2.9-2.973 2.9-.616 0-1.079-.139-1.695-.829h-.001zM238.128 22.229l-3.611 3.957h-14.182l2.62-15.392H240l-3.633 4.003h-9.535l-.309 1.841h11.649l-3.17 3.497h-9.074l-.351 2.094h12.551z" fill="#fff"/>
  <path d="M31.554 4.208c-6.194-4.362-12.84-5.574-17.411-2.49-7.01 4.728-6.488 17.761 1.167 29.11s19.544 16.716 26.554 11.987c4.571-3.084 5.937-9.7 4.213-17.077 1.18 6.283-.155 11.817-4.1 14.478-6.419 4.33-17.304-.585-24.313-10.976-7.009-10.391-7.487-22.325-1.069-26.654C20.54-.074 26.171.76 31.554 4.207v.001zM3.328 8.476C-1.805 13.624-.97 24.867 5.613 34.813c3.917 5.918 9.054 10.14 13.993 12.02-4.302-2.486-8.53-6.468-11.93-11.604C1.29 25.582-.214 14.831 3.327 8.477h.001z" fill="#fff"/>
</svg>