<svg width="165" height="24" viewBox="0 0 165 24" fill="none" xmlns="http://www.w3.org/2000/svg">
<path fill-rule="evenodd" clip-rule="evenodd" d="M151.792 23.1999C149.988 23.1999 148.597 22.9745 146.587 22.9745C143.649 22.9745 141.649 23.1999 141.358 23.1999C141.124 23.1999 140.971 23.0612 140.971 22.8358C140.971 22.699 141.124 22.5939 141.229 22.5407C142.061 22.2987 144.027 22.162 144.594 22.1265C144.749 19.758 144.749 15.0394 144.749 11.7914C144.749 8.52489 144.749 3.83925 144.594 1.47141C144.027 1.43722 142.061 1.28206 141.229 1.03952C141.124 1.00659 140.971 0.900827 140.971 0.764039C140.971 0.538591 141.124 0.399902 141.358 0.399902C142.293 0.399902 144.483 0.62535 146.587 0.62535C148.211 0.62535 151.009 0.399902 152.856 0.399902C159.683 0.399902 165 4.61818 165 11.3937C165 19.3964 158.704 23.1999 151.792 23.1999ZM160.698 11.9471C160.698 7.52304 158.464 1.10918 152.032 1.10918C150.821 1.10918 149.764 1.28206 148.597 1.47141C148.443 3.94437 148.443 8.76681 148.443 11.7914C148.443 14.7633 148.443 19.6048 148.597 22.0923C149.645 22.1962 150.512 22.49 151.62 22.49C157.717 22.49 160.698 17.9437 160.698 11.9471Z" fill="white"/>
<path fill-rule="evenodd" clip-rule="evenodd" d="M139.368 11.8593C139.368 18.078 134.078 23.6 126.659 23.6C117.99 23.6 113.337 18.6299 113.337 11.8593C113.337 4.53551 119.585 0 126.659 0C134.827 0 139.368 5.09063 139.368 11.8593ZM134.827 11.8593C134.827 7.58266 133.173 0.691524 126.659 0.691524C120.609 0.691524 117.887 5.60896 117.887 11.8593C117.887 16.2413 119.774 22.8894 126.659 22.8894C132.56 22.8894 134.827 16.9683 134.827 11.8593Z" fill="white"/>
<path fill-rule="evenodd" clip-rule="evenodd" d="M111.335 11.8593C111.335 18.078 106.034 23.6 98.6172 23.6C89.9571 23.6 85.3037 18.6299 85.3037 11.8593C85.3037 4.53551 91.5431 0 98.6172 0C106.794 0 111.335 5.09063 111.335 11.8593ZM106.794 11.8593C106.794 7.58266 105.132 0.691524 98.6172 0.691524C92.559 0.691524 89.8352 5.60896 89.8352 11.8593C89.8352 16.2413 91.7407 22.8894 98.6172 22.8894C104.527 22.8894 106.794 16.9683 106.794 11.8593Z" fill="white"/>
<path fill-rule="evenodd" clip-rule="evenodd" d="M70.1544 13.1021C69.7806 12.6182 69.5149 12.3391 69.5149 12.0791C69.5149 11.9043 69.6593 11.7835 70.0006 11.7835C70.3688 11.7835 71.2639 11.9043 72.2196 11.9043C75.7683 11.9043 78.6249 10.8985 78.6249 7.53394C78.6249 3.41984 74.9144 1.11197 71.5714 1.11197C70.335 1.11197 69.4043 1.4057 68.8329 1.47564C68.6792 3.95834 68.6792 8.79977 68.6792 11.8362C68.6792 14.7862 68.6792 19.6804 68.8329 22.2121C69.4812 22.2477 71.3158 22.385 72.1759 22.6279C72.2884 22.6813 72.4397 22.7868 72.4397 22.9242C72.4397 23.1505 72.2884 23.2897 72.0659 23.2897C71.7583 23.2897 69.6268 23.0634 66.8533 23.0634C63.9279 23.0634 61.9476 23.2897 61.642 23.2897C61.4288 23.2897 61.2744 23.1505 61.2744 22.9242C61.2744 22.7868 61.4288 22.6813 61.5382 22.6279C62.3571 22.3513 64.3117 22.2477 64.8668 22.2121C65.0206 19.8343 65.0205 15.0971 65.0205 11.8362C65.0205 8.55691 65.0206 3.8528 64.8668 1.47564C64.3117 1.4413 62.3571 1.28554 61.5382 1.04204C61.4288 1.00898 61.2744 0.902801 61.2744 0.765473C61.2744 0.539137 61.4288 0.399902 61.642 0.399902C62.3571 0.399902 65.5812 0.625603 66.9733 0.625603C68.5004 0.625603 71.1951 0.399902 73.3711 0.399902C77.611 0.399902 82.3629 1.58117 82.3629 5.9178C82.3629 10.6887 77.4572 12.0791 74.2743 12.5318L79.4019 19.4376C80.4514 20.8598 81.3465 22.1447 82.7036 22.1447C83.5737 22.1447 83.8981 21.8313 84.1619 21.8313C84.3407 21.8313 84.5026 21.9686 84.5026 22.1447C84.5026 22.6813 82.5498 23.9999 80.3826 23.9999C78.3199 23.9999 77.2266 22.6114 75.9902 20.9291L70.1544 13.1021Z" fill="white"/>
<path fill-rule="evenodd" clip-rule="evenodd" d="M60.0726 11.8593C60.0726 18.078 54.782 23.6 47.3548 23.6C38.6938 23.6 34.041 18.6299 34.041 11.8593C34.041 4.53551 40.2806 0 47.3548 0C55.5315 0 60.0726 5.09063 60.0726 11.8593ZM55.5315 11.8593C55.5315 7.58266 53.869 0.691524 47.3548 0.691524C41.3041 0.691524 38.5827 5.60896 38.5827 11.8593C38.5827 16.2413 40.4776 22.8894 47.3548 22.8894C53.2566 22.8894 55.5315 16.9683 55.5315 11.8593Z" fill="white"/>
<path fill-rule="evenodd" clip-rule="evenodd" d="M16.7717 12.7881L12.1019 1.4724H7.39873L14.2905 18.8098L16.7717 12.7881ZM18.8912 8.44615H18.9604C19.2258 7.00855 20.317 3.03107 20.5824 1.4724C20.317 1.43817 19.2949 1.28287 18.8912 1.0401C18.7805 1.00714 18.6258 0.901288 18.6258 0.764373C18.6258 0.538718 18.7805 0.399902 18.9937 0.399902C19.339 0.399902 22.2125 0.625557 26.1182 0.625557C30.9509 0.625557 34.4188 0.399902 34.8723 0.399902C35.0962 0.399902 35.2427 0.538718 35.2427 0.764373C35.2427 0.901288 35.0962 1.00714 34.9918 1.0401C34.3421 1.24928 32.7616 1.40267 32.3408 1.43817C29.6717 6.04001 24.4182 17.9598 22.5478 22.3905C22.2905 23.0294 22.0937 23.5999 21.6717 23.5999C21.3037 23.5999 21.0302 22.89 20.6264 21.9734L17.2358 13.9297C16.2132 16.3504 14.2132 21.0911 13.6132 22.7531C13.4333 23.2544 13.3899 23.5999 12.8918 23.5999C12.5572 23.5999 12.4365 23.2716 12.1792 22.7867L3.09811 1.4724C2.64465 1.43817 0.953458 1.28287 0.274213 1.0401C0.155346 1.00714 0 0.901288 0 0.764373C0 0.538718 0.155346 0.399902 0.378616 0.399902C1.02201 0.399902 4.03459 0.625557 9.00376 0.625557C13.8012 0.625557 17.0371 0.399902 17.305 0.399902C17.5346 0.399902 17.6811 0.538718 17.6811 0.764373C17.6811 0.901288 17.5346 1.00714 17.4239 1.0401C17.0371 1.14342 16.2132 1.21505 15.9396 1.24928L18.8912 8.44615ZM23.1138 18.8098C24.3515 16.005 25.7836 12.2525 27.1484 8.56595C28.461 5.02013 29.1824 2.52778 29.4484 1.4724H23.3044C22.3157 3.1515 20.317 7.66587 19.3805 9.70754L23.1138 18.8098Z" fill="white"/>
</svg>
