<svg width="483" height="406" viewBox="0 0 483 406" fill="none" xmlns="http://www.w3.org/2000/svg">
<path d="M471.943 404.413H11.7417C6.41105 404.413 2.09119 400.092 2.09119 394.762V11.4616C2.09119 6.1309 6.4124 1.81104 11.7417 1.81104H471.943C477.272 1.81104 481.594 6.13225 481.594 11.4616V394.762C481.594 400.093 477.272 404.413 471.943 404.413Z" fill="#FEFEF4"/>
<path d="M2.09058 50.2554H481.593" stroke="#7BB49B" stroke-width="2.61959" stroke-miterlimit="10"/>
<path d="M471.943 404.413H11.7417C6.41105 404.413 2.09119 400.092 2.09119 394.762V11.4616C2.09119 6.1309 6.4124 1.81104 11.7417 1.81104H471.943C477.272 1.81104 481.594 6.13225 481.594 11.4616V394.762C481.594 400.093 477.272 404.413 471.943 404.413Z" stroke="#7BB49B" stroke-width="2.61959" stroke-miterlimit="10"/>
<path d="M42.6242 33.2877C46.3576 33.2877 49.384 30.2612 49.384 26.5279C49.384 22.7945 46.3576 19.7681 42.6242 19.7681C38.8909 19.7681 35.8644 22.7945 35.8644 26.5279C35.8644 30.2612 38.8909 33.2877 42.6242 33.2877Z" stroke="#7BB49B" stroke-width="2.61959" stroke-miterlimit="10"/>
<path d="M68.8969 33.2877C72.6303 33.2877 75.6567 30.2612 75.6567 26.5279C75.6567 22.7945 72.6303 19.7681 68.8969 19.7681C65.1636 19.7681 62.1371 22.7945 62.1371 26.5279C62.1371 30.2612 65.1636 33.2877 68.8969 33.2877Z" stroke="#7BB49B" stroke-width="2.61959" stroke-miterlimit="10"/>
<path d="M95.165 33.2877C98.8983 33.2877 101.925 30.2612 101.925 26.5279C101.925 22.7945 98.8983 19.7681 95.165 19.7681C91.4316 19.7681 88.4052 22.7945 88.4052 26.5279C88.4052 30.2612 91.4316 33.2877 95.165 33.2877Z" stroke="#7BB49B" stroke-width="2.61959" stroke-miterlimit="10"/>
</svg>
