<svg width="1380" height="901" viewBox="0 0 1380 901" fill="none" xmlns="http://www.w3.org/2000/svg">
<path d="M0.000999451 81.203C14.504 77.889 27.835 79.896 38.791 90.635C48.127 99.786 49.3 111.498 42.853 123.414C38.21 131.997 31.65 137.052 21.37 136.498C14.262 136.116 7.125 136.281 0 136.202C0.001 117.87 0.000999451 99.537 0.000999451 81.203Z" fill="white"/>
<path d="M33 0.203125C33.631 2.02313 35.061 3.98713 34.765 5.64113C32.457 18.5041 25.827 29.3181 16.266 37.7341C12.141 41.3641 5.499 42.1341 0 44.2031C0 39.5396 0 34.876 0 30.2032C0 13.6346 13.4315 0.203125 30 0.203125C31 0.203125 32 0.203125 33 0.203125Z" fill="white"/>
<path d="M78.5826 121.119C78.9906 116.147 79.0086 111.097 79.9866 106.24C80.4176 104.099 82.4006 101.569 84.3676 100.566C91.0276 97.1691 97.9366 94.2321 104.876 91.4281C107.422 90.4001 110.511 89.3021 113.02 89.8261C130.768 93.5341 145.873 101.021 152.204 119.746C152.76 121.391 153.055 123.427 152.621 125.054C149.629 136.271 139.159 148.869 124.758 150.398C113.247 151.621 101.835 152.374 90.5406 149.346C88.7246 148.859 86.7676 147.384 85.7176 145.806C80.7736 138.376 76.2236 130.723 78.5826 121.119Z" fill="white"/>
<path d="M67.1442 7.24512C81.6662 7.55512 90.8472 16.7121 100.595 24.7211C109.765 32.2561 115.238 41.7051 116.111 53.7541C116.369 57.3121 115.63 59.8161 112.472 61.6491C103.425 66.9011 94.6432 72.5311 83.8852 74.0781C78.5682 74.8431 73.6752 74.7791 68.8472 72.4291C66.0082 71.0471 63.0872 69.8281 60.2862 68.3761C46.4682 61.2161 40.3882 46.7981 45.4772 32.0331C48.1422 24.3021 49.8442 15.6831 57.9592 11.1891C60.8582 9.58312 64.0732 8.54312 67.1442 7.24512Z" fill="white"/>
<path d="M152.334 81.2918C153.81 75.3428 154.647 69.1348 156.923 63.5098C159.837 56.3078 176.087 49.2468 183.732 51.5728C202.585 57.3078 215.547 68.3188 217.299 89.5068C217.856 96.2408 209.783 106.51 203.123 107.065C191.217 108.058 179.307 109.346 167.398 107.135C166.147 106.903 164.313 106.793 163.819 105.978C159.145 98.2778 152.099 91.5788 152.334 81.2918Z" fill="white"/>
<path d="M299.71 70.777C302.536 87.43 292.292 96.411 280.253 104.341C279.978 104.522 279.697 104.718 279.39 104.825C266.543 109.283 245.942 99.193 242.08 86.257C237.882 72.196 243.408 60.541 251.939 49.826C252.399 49.249 253.331 48.853 254.097 48.744C268.975 46.621 283.158 47.247 295.713 57.288C300.63 61.22 299.059 66.184 299.71 70.777Z" fill="white"/>
<path d="M197.185 0.203142C216.91 0.790142 235.5 0.203142 257 0.203125C254.12 8.41212 252.714 17.8891 249.192 24.6561C243.381 35.8191 226.004 39.6951 214.393 33.2911C203.77 27.4321 195.657 12.1121 197.185 0.203142Z" fill="white"/>
<path d="M119.34 0C140.432 0.601 160.121 0 179.621 2.32011e-05C181.504 10.505 175.851 21.852 165.692 23.962C157.103 25.745 148.265 26.463 139.499 27.203C134.158 27.654 129.834 25.733 127.703 20.099C125.257 13.628 122.405 7.311 119.34 0Z" fill="white"/>
<path d="M274 0.203125C280 0.703125 283.558 14.0161 289.023 18.0601C292.291 20.4781 297.358 22.4001 301.082 22.4211C309.68 22.4701 325.638 12.2391 325.996 0.203125H300.5H274Z" fill="white"/>
<path d="M207.639 790.713C206.981 790.967 206.403 791.157 205.892 791.326C204.918 791.647 204.148 791.9 203.502 792.374C187.925 803.818 169.557 807.991 151.793 812.028C145.909 813.365 140.024 814.695 134.139 816.025C110.214 821.433 85.4748 827.027 61.2478 832.964C53.9988 834.741 47.0758 837.302 39.7468 840.013C37.1508 840.973 34.4858 841.959 31.7858 842.915L33.9918 840.852C38.5978 836.543 42.9478 832.472 47.3718 828.4C47.8258 827.982 48.5788 827.642 49.3378 827.514C70.7468 823.898 91.4778 816.777 111.526 809.889C116.407 808.212 121.453 806.478 126.43 804.823C143.676 799.086 163.642 791.532 180.965 779.012C187.412 774.353 193.2 768.647 198.798 763.129L199.445 762.492C199.633 762.307 199.644 762.007 199.472 761.808C199.298 761.61 199 761.579 198.791 761.738C180.805 775.443 159.427 781.519 138.753 787.395C130.892 789.63 122.763 791.94 114.941 794.637C111.006 795.993 106.989 797.322 103.104 798.607C88.9278 803.295 74.2968 808.134 60.7278 815.298L65.3858 809.956C98.2168 789.101 129.886 768.061 156.474 740.081C167.143 728.854 176.246 718.273 179.584 702.458C179.632 702.231 179.517 702 179.307 701.902C179.097 701.803 178.847 701.862 178.702 702.044C178.296 702.558 177.964 702.968 177.685 703.313C177.16 703.96 176.813 704.389 176.504 704.855L176.289 705.173C175.86 705.801 175.416 706.451 175.242 707.201C172.025 721.044 161.842 730.135 152.55 737.57C134.913 751.681 116.445 765.416 98.5848 778.699L98.1688 779.008C100.595 775.833 103.054 772.658 105.45 769.564C125.572 743.587 146.379 716.724 153.183 682.336C153.231 682.095 153.096 681.855 152.866 681.77C152.634 681.685 152.377 681.781 152.257 681.995C131.27 719.44 107.328 756.374 79.1198 794.814C81.0868 789.294 83.0848 783.794 85.0278 778.447C90.4488 763.526 95.5698 749.432 100.13 734.82L101.25 731.239C107.43 711.503 113.82 691.096 114.526 669.824C114.533 669.618 114.412 669.428 114.222 669.348L112.582 668.649C112.341 668.547 112.062 668.648 111.941 668.88C111.468 669.798 110.955 670.702 110.443 671.607C109.337 673.558 108.193 675.576 107.463 677.719L103.012 690.766C94.8468 714.688 86.4028 739.423 78.5068 763.886C75.9568 771.785 73.8768 779.972 71.8648 787.89C70.6088 792.832 69.3108 797.942 67.9118 802.928C67.5028 804.388 66.5858 805.705 65.6158 807.099C65.1878 807.714 64.7488 808.349 64.3568 808.995L48.6108 822.978C48.8538 822.025 49.0858 821.119 49.3088 820.248C49.9888 817.593 50.5858 815.263 51.1458 812.925C59.9418 776.226 69.4888 732.531 73.5978 686.712C74.0638 681.519 73.4658 676.168 72.8868 670.994C72.6598 668.967 72.4258 666.87 72.2598 664.821C72.1348 663.278 71.2638 661.909 69.5938 660.633C69.4578 660.529 69.2778 660.503 69.1168 660.561C68.9558 660.621 68.8368 660.758 68.8008 660.926C68.5188 662.243 68.2298 663.56 67.9408 664.876C67.3308 667.658 66.6988 670.534 66.1458 673.379C64.2798 682.979 62.3778 692.574 60.4758 702.168C55.6948 726.288 50.7518 751.23 46.4768 775.865C44.5818 786.784 43.5928 798.037 42.6348 808.919C42.1138 814.843 41.5748 820.969 40.8968 826.968C40.6658 829.007 39.6228 831.278 38.2998 832.62C34.6418 836.33 30.7628 839.911 26.6548 843.702C25.3388 844.916 23.9928 846.159 22.6098 847.445C22.7978 846.096 22.9988 844.797 23.1958 843.531C23.7308 840.073 24.2378 836.808 24.2968 833.561C24.6608 813.62 24.9898 792.146 24.9458 770.237C24.8988 747.125 24.7608 716.651 24.1048 685.886C23.9568 678.943 23.1508 671.909 22.3718 665.107C22.0168 662.009 21.6498 658.805 21.3498 655.655C21.3248 655.394 21.1018 655.196 20.8398 655.203L19.5208 655.236C19.2738 655.242 19.0638 655.432 19.0358 655.68C18.6548 659.089 18.3098 662.504 17.9658 665.918C17.2268 673.237 16.4628 680.805 15.3368 688.185C9.88978 723.873 10.7138 759.49 12.1338 795.877C12.5468 806.442 13.1078 817.177 13.6498 827.559C14.0638 835.478 14.4918 843.666 14.8508 851.72C14.9138 853.146 14.3158 854.889 13.4878 855.689C10.3448 858.727 6.99777 861.669 3.76077 864.514C2.56077 865.569 1.36078 866.624 0.167778 867.686C0.0427777 867.797 -0.0182243 867.963 0.00477573 868.129L0.423774 871.1C0.449774 871.283 0.573772 871.436 0.747772 871.5C0.824772 871.528 0.905772 871.535 0.983772 871.525L0.949775 871.533C0.695775 871.59 0.527774 871.833 0.563774 872.091L1.67977 880.013C1.71277 880.249 1.90877 880.429 2.14677 880.442C27.9388 881.902 53.9578 881.03 79.4808 877.849C83.9468 877.292 88.5588 876.692 93.2778 876.027C114.609 873.021 138.192 868.689 161.123 861.058C165.782 859.507 170.415 857.485 174.89 855.046C183.452 850.381 191.371 845.521 199.1 840.188C199.303 840.047 199.374 839.779 199.265 839.557C199.156 839.335 198.903 839.224 198.665 839.3C198.205 839.445 197.735 839.57 197.264 839.695C196.227 839.971 195.154 840.256 194.181 840.758C171.598 852.409 147.401 855.164 120.389 857.348C112.503 857.986 104.474 858.545 96.7078 859.085C68.8548 861.026 40.0548 863.03 12.1498 869.036C9.58777 869.587 7.03178 870.164 4.47578 870.74L0.994774 871.523C1.08777 871.508 1.17778 871.469 1.25078 871.404C2.78378 870.032 4.31577 868.657 5.84577 867.282C10.1838 863.386 14.6688 859.356 19.1448 855.473C20.4118 854.374 21.9088 853.614 23.1388 853.461C27.2218 852.928 31.3938 852.495 35.4288 852.076C42.4728 851.346 49.7558 850.591 56.8228 849.274C93.5058 842.443 128.746 833.087 161.564 821.468C181.892 814.27 196.71 804.75 208.194 791.508C208.345 791.334 208.358 791.081 208.226 790.893C208.096 790.703 207.855 790.629 207.639 790.713Z" fill="#AECCA0"/>
<mask id="mask0" mask-type="alpha" maskUnits="userSpaceOnUse" x="0" y="0" width="1380" height="901">
<rect y="0.203125" width="1380" height="900" rx="30" fill="#E1F7D7"/>
</mask>
<g mask="url(#mask0)">
<path d="M1380.15 5.70312V0.703125C1380.15 0.506124 1380.04 0.327124 1379.86 0.246124C1379.68 0.166124 1379.47 0.198124 1379.32 0.330124L1367.42 10.9611L1349.99 -4.66888C1349.89 -4.75188 1326.62 -27.7969 1326.5 -27.7969L1320.65 -4.79688C1316 -12.7969 1320.21 -4.62887 1320.16 -4.39587C1320.11 -4.16287 1320.24 -3.92788 1320.46 -3.83688C1323.43 -2.59188 1326.39 -1.33888 1329.35 -0.0858765C1336.6 2.97512 1344.09 6.14013 1351.5 9.13612C1354.35 10.2871 1357.23 11.1901 1360.56 12.2371C1361.93 12.6671 1363.36 13.1171 1364.88 13.6111C1363.77 14.7661 1362.72 15.8761 1361.71 16.9441C1358.66 20.1781 1356.02 22.9711 1353.11 25.5031C1352.42 26.1071 1349.85 25.7081 1348.36 24.9581C1337 19.2381 1325.51 13.3281 1314.39 7.61313C1309.61 5.15813 1304.83 2.70313 1300.05 0.255127C1297.75 -0.926872 1295.38 -2.07388 1293.09 -3.18288C1292.01 -3.70288 1290.94 -4.22188 1289.87 -4.74588C1289.8 -4.77988 1289.73 -4.79688 1289.65 -4.79688H1247.65C1247.45 -4.79688 1247.27 -4.67488 1247.19 -4.48888C1247.11 -4.30188 1247.15 -4.08787 1247.3 -3.94487C1247.43 -3.81087 1247.55 -3.66088 1247.68 -3.51088C1248 -3.13388 1248.33 -2.74487 1248.79 -2.51387C1253.33 -0.24987 1257.87 2.04112 1262.4 4.33212C1273.85 10.1241 1285.7 16.1141 1297.57 21.5431C1309.14 26.8361 1321.04 29.7671 1332.94 30.2551C1336.25 30.3911 1339.62 30.9541 1342.87 31.4991C1344.31 31.7401 1345.75 31.9811 1347.19 32.1881L1348.08 33.6291C1347 34.5531 1345.9 35.4581 1344.8 36.3621C1341.97 38.6941 1339.04 41.1061 1336.5 43.8251C1334.4 46.0771 1332.76 46.6161 1329.71 46.0421C1307.81 41.9031 1282.32 37.4221 1256.89 36.6321C1249.75 36.4111 1242.49 36.2791 1235.47 36.1521C1223.49 35.9351 1211.1 35.7101 1198.84 35.0261C1183.48 34.1681 1167.6 33.2801 1153.77 24.3771C1153.57 24.2441 1153.29 24.2801 1153.13 24.4641C1152.97 24.6481 1152.96 24.9231 1153.11 25.1131L1153.25 25.2791C1156.2 28.8871 1159.24 32.6181 1162.9 35.5421C1172.56 43.2791 1184.72 48.2111 1201.18 51.0611C1217.87 53.9501 1234.39 55.8641 1250.29 56.7501C1268.25 57.7511 1286.27 57.4031 1303.2 56.9621C1308.9 56.8131 1314.58 55.8931 1320.59 54.9181C1322.99 54.5301 1325.45 54.1311 1327.98 53.7701C1326.84 55.0681 1325.74 56.3251 1324.67 57.5451C1321.43 61.2491 1318.37 64.7481 1315.18 67.9731C1313.88 69.2841 1311.6 70.2841 1309.63 70.4031C1304.3 70.7261 1298.87 70.9141 1293.61 71.0961C1288.56 71.2711 1283.33 71.4531 1278.19 71.7541C1244.72 73.7161 1210.24 78.2461 1175.71 85.2201C1151.82 90.0431 1134.01 95.8781 1117.94 104.138C1117.47 104.375 1117.16 104.792 1116.74 105.367C1116.51 105.675 1116.24 106.043 1115.88 106.47C1115.74 106.626 1115.72 106.848 1115.82 107.029C1115.91 107.209 1116.1 107.314 1116.32 107.289C1119.44 106.927 1122.47 106.534 1125.45 106.149C1131.8 105.325 1137.8 104.548 1143.86 104.179C1153.25 103.607 1162.82 103.183 1172.06 102.774C1187.36 102.097 1203.17 101.397 1218.67 100.004C1242.81 97.8331 1265.87 93.2021 1287.19 86.2401C1291.59 84.8011 1295.96 83.3191 1300.59 81.7481C1302.26 81.1801 1303.97 80.6011 1305.71 80.0121C1304.75 81.1991 1303.81 82.3601 1302.89 83.4971C1299.82 87.2901 1296.93 90.8731 1293.87 94.2491C1292.25 96.0361 1290.01 97.4111 1288.02 97.8361C1281.95 99.1401 1275.73 100.315 1269.72 101.45C1259.47 103.385 1248.88 105.386 1238.65 108.092C1209.3 115.856 1179.58 124.191 1150.84 132.253C1140.33 135.198 1129.83 138.144 1119.32 141.07C1117.91 141.463 1116.53 142.014 1115.2 142.547C1114.58 142.797 1113.95 143.046 1113.33 143.279C1113.07 143.372 1112.94 143.648 1113.02 143.902L1113.64 145.789C1113.7 145.984 1113.88 146.121 1114.09 146.133C1176.04 149.807 1232.03 129.108 1284.07 107.33C1282.95 108.758 1281.87 110.149 1280.8 111.511C1276.95 116.436 1273.32 121.088 1269.65 125.598C1268.81 126.627 1267.46 127.562 1265.84 128.231C1260.44 130.465 1254.92 132.676 1249.59 134.814C1239.73 138.764 1229.53 142.849 1219.67 147.254C1189.98 160.511 1161.12 173.914 1134.34 192.078C1132.13 193.575 1130.08 195.356 1128.1 197.078C1127.17 197.882 1126.25 198.687 1125.3 199.465C1125.12 199.621 1125.07 199.89 1125.19 200.102L1125.95 201.416C1126.05 201.587 1126.23 201.684 1126.44 201.663C1142.92 199.851 1158.19 193.591 1173.68 186.785C1188.31 180.354 1203.11 173.037 1218.91 164.416C1229.01 158.906 1238.98 152.788 1248.64 146.87C1252.31 144.619 1256.09 142.301 1259.85 140.032C1259.4 140.581 1258.83 141.111 1258.11 141.654C1250.99 147.072 1243.84 152.46 1236.69 157.847C1221.35 169.401 1205.49 181.349 1190.14 193.414C1172.87 206.984 1155.3 222.505 1143.71 244.005C1142.97 245.377 1142.09 246.715 1141.24 248.009C1140.83 248.63 1140.42 249.25 1140.02 249.877C1139.89 250.089 1139.93 250.368 1140.13 250.529L1141.39 251.58C1141.58 251.732 1141.84 251.734 1142.03 251.584C1147.86 246.87 1153.85 242.138 1159.64 237.562C1172.85 227.121 1186.51 216.325 1199.3 204.966C1212.14 193.558 1224.06 181.696 1236.68 169.138C1241.69 164.155 1246.85 159.014 1252.05 153.94C1251.96 154.425 1251.88 154.805 1251.75 155.161C1249.93 160.336 1248.02 165.583 1246.17 170.658C1242.2 181.58 1238.1 192.874 1234.55 204.141C1227.55 226.346 1219.97 252.253 1218.54 278.742C1218.28 283.48 1218.35 288.325 1218.41 293.454C1218.45 295.999 1218.48 298.658 1218.48 301.486C1218.48 301.697 1218.61 301.884 1218.81 301.957C1219.01 302.025 1219.23 301.968 1219.37 301.806C1220.44 300.507 1221.48 299.381 1222.48 298.292C1224.46 296.144 1226.17 294.289 1227.24 292.094C1228.12 290.314 1229 288.536 1229.89 286.756C1234.22 278.061 1238.7 269.068 1241.89 259.79C1252.99 227.481 1260.29 191.434 1264.85 146.346C1265.99 135.077 1271.9 127.639 1278.16 119.763C1278.5 119.332 1278.84 118.901 1279.18 118.468C1274.46 141.392 1273.58 164.893 1272.73 187.642C1272.45 195.117 1272.16 202.846 1271.74 210.434C1270.43 233.969 1272.72 297.61 1276.51 304.96C1276.59 305.128 1276.77 305.231 1276.95 305.231C1276.98 305.231 1277.01 305.229 1277.03 305.224C1277.25 305.188 1277.42 305.017 1277.45 304.801C1277.66 303.324 1277.79 301.912 1277.93 300.548C1278.19 297.83 1278.44 295.265 1279.23 292.956C1285.33 275.213 1286.89 256.493 1288.39 238.39C1288.58 236.046 1288.78 233.702 1288.98 231.361C1291.93 197.545 1291.43 160.407 1287.41 114.486C1287.38 114.158 1287.34 113.817 1287.31 113.468C1287.1 111.463 1286.87 109.189 1287.72 107.97C1291.43 102.678 1295.51 97.4991 1299.45 92.4901C1300.8 90.7631 1302.16 89.0361 1303.51 87.3021L1304.06 87.6171C1304.03 87.9631 1303.99 88.3091 1303.96 88.6561C1303.86 89.6141 1303.77 90.6061 1303.61 91.5631C1300.54 110.103 1299.89 128.75 1301.67 146.988C1303.21 162.828 1305.46 178.863 1307.63 194.369C1308.17 198.225 1308.71 202.08 1309.24 205.936C1311.65 223.473 1314.14 239.243 1320.21 254.655C1322.42 260.258 1326.04 265.042 1331.96 270.169C1332.12 270.316 1332.37 270.331 1332.56 270.206C1332.75 270.079 1332.83 269.844 1332.76 269.63C1332.3 268.306 1331.83 267.083 1331.37 265.901C1330.42 263.467 1329.6 261.365 1329.28 259.165C1327.72 248.479 1326.7 239.665 1326.07 231.426C1325.54 224.476 1325.16 217.392 1324.79 210.542C1324.22 200.046 1323.63 189.192 1322.51 178.568C1320.36 158.233 1317.82 137.596 1315.36 117.64C1314.06 107.052 1312.71 96.1031 1311.43 85.2731C1311.18 83.1921 1310.85 80.3411 1311.86 78.9891C1314.85 74.9851 1318.23 71.1581 1321.5 67.4571C1322.65 66.1501 1323.8 64.8461 1324.94 63.5321C1325.07 63.6271 1325.19 63.7071 1325.3 63.7781C1325.41 63.8511 1325.53 63.9311 1325.6 63.9831C1325.92 66.4281 1326.23 68.8761 1326.53 71.3231C1326.86 73.9501 1327.19 76.5781 1327.55 79.2031C1331.26 106.784 1342.55 134.076 1362.08 162.637C1365.3 167.361 1369.55 171.473 1373.66 175.45C1375.54 177.265 1377.48 179.142 1379.29 181.047C1379.43 181.196 1379.64 181.243 1379.83 181.167C1380.02 181.091 1380.15 180.907 1380.15 180.703V170.703C1380.15 170.598 1380.12 170.495 1380.05 170.41C1379.56 169.729 1379.02 169.062 1378.5 168.416C1377.4 167.059 1376.27 165.657 1375.58 164.122L1373.23 158.893C1366.36 143.6 1359.26 127.785 1352.66 112.071C1348.51 102.182 1344.51 92.0331 1340.64 82.2181C1337.97 75.4371 1335.2 68.4251 1332.41 61.5561C1331.25 58.6991 1331.11 56.6901 1333.68 54.2671C1336.05 52.0311 1338.18 49.5101 1340.66 46.5911C1341.65 45.4161 1342.71 44.1671 1343.87 42.8321C1350.02 70.3941 1361.6 95.3191 1379.25 119.001C1379.38 119.174 1379.61 119.245 1379.81 119.177C1380.01 119.109 1380.15 118.918 1380.15 118.702V87.7021C1380.15 87.6061 1380.12 87.5131 1380.07 87.4321L1374.6 78.8861C1366.46 66.1951 1358.05 53.0721 1349.86 40.1151C1349.4 39.3861 1349.33 37.7461 1349.73 37.2391C1351.65 34.8401 1353.76 32.5461 1356.19 29.8901C1356.99 29.0161 1357.83 28.0991 1358.72 27.1221C1359.68 28.8581 1360.6 30.5371 1361.49 32.1711C1363.66 36.1391 1365.71 39.8861 1367.87 43.5471C1370.43 47.8711 1373.13 52.2001 1375.75 56.3861C1376.91 58.2431 1378.07 60.1011 1379.23 61.9641C1379.34 62.1531 1379.57 62.2411 1379.79 62.1821C1380 62.1211 1380.15 61.9251 1380.15 61.7011V40.7011C1380.15 40.5541 1380.08 40.4141 1379.97 40.3201L1360.48 23.7951L1379.99 6.07112C1380.09 5.97812 1380.15 5.84412 1380.15 5.70312Z" fill="#AECCA0"/>
</g>
<path d="M1203.25 759.671C1202.84 764.643 1202.82 769.693 1201.84 774.55C1201.41 776.691 1199.43 779.221 1197.46 780.224C1190.8 783.621 1183.89 786.558 1176.95 789.362C1174.41 790.39 1171.32 791.488 1168.81 790.964C1151.06 787.256 1135.96 779.769 1129.63 761.044C1129.07 759.399 1128.77 757.363 1129.21 755.736C1132.2 744.519 1142.67 731.921 1157.07 730.391C1168.58 729.168 1179.99 728.415 1191.29 731.443C1193.1 731.93 1195.06 733.405 1196.11 734.983C1201.06 742.414 1205.6 750.067 1203.25 759.671Z" fill="white"/>
<path d="M1310.75 830.387C1309.27 836.336 1308.43 842.544 1306.16 848.169C1303.24 855.371 1286.99 862.432 1279.35 860.106C1260.5 854.371 1247.53 843.36 1245.78 822.172C1245.22 815.438 1253.3 805.169 1259.96 804.614C1271.86 803.621 1283.77 802.333 1295.68 804.544C1296.93 804.776 1298.77 804.886 1299.26 805.701C1303.94 813.402 1310.98 820.1 1310.75 830.387Z" fill="white"/>
<path d="M1149.62 840.902C1146.8 824.249 1157.04 815.268 1169.08 807.338C1169.35 807.157 1169.64 806.961 1169.94 806.854C1182.79 802.396 1203.39 812.485 1207.25 825.422C1211.45 839.483 1205.92 851.139 1197.39 861.853C1196.93 862.43 1196 862.826 1195.23 862.935C1180.36 865.058 1166.17 864.432 1153.62 854.391C1148.7 850.459 1150.27 845.495 1149.62 840.902Z" fill="white"/>
<path d="M1253 900.203C1232 900.203 1213.5 899.703 1192 900.203C1194.88 891.994 1197.25 880.281 1200.77 873.514C1206.58 862.351 1223.96 858.475 1235.57 864.879C1246.19 870.738 1254.53 888.294 1253 900.203Z" fill="white"/>
<path d="M1330.11 900.541C1309.02 899.941 1289.5 900.203 1270 900.203C1268.12 889.698 1273.6 878.689 1283.76 876.579C1292.35 874.796 1301.18 874.078 1309.95 873.338C1315.29 872.887 1319.61 874.808 1321.75 880.442C1324.19 886.913 1327.04 893.23 1330.11 900.541Z" fill="white"/>
<path d="M1222.3 737.31C1223.28 732.889 1223.92 728.35 1225.39 724.103C1226.04 722.231 1228.14 720.199 1230.03 719.539C1236.43 717.302 1243.01 715.509 1249.59 713.841C1252.01 713.229 1254.92 712.621 1257.11 713.401C1272.62 718.915 1285.28 727.501 1288.67 745.117C1288.97 746.664 1288.99 748.531 1288.4 749.941C1284.33 759.66 1273.37 769.703 1260.23 769.309C1249.73 768.995 1239.37 768.271 1229.59 764.161C1228.02 763.5 1226.44 761.933 1225.69 760.385C1222.15 753.097 1219 745.657 1222.3 737.31Z" fill="white"/>
<path d="M1313.88 673.761C1312.54 679.16 1311.78 684.794 1309.71 689.899C1307.07 696.435 1292.32 702.843 1285.38 700.733C1268.27 695.529 1256.51 685.535 1254.92 666.306C1254.41 660.194 1261.74 650.875 1267.78 650.371C1278.59 649.47 1289.4 648.301 1300.21 650.308C1301.34 650.519 1303.01 650.618 1303.46 651.358C1307.7 658.346 1314.09 664.425 1313.88 673.761Z" fill="white"/>
<path d="M1180.13 683.303C1177.56 668.189 1186.86 660.039 1197.78 652.842C1198.03 652.677 1198.29 652.5 1198.57 652.403C1210.23 648.357 1228.92 657.514 1232.43 669.254C1236.24 682.015 1231.22 692.593 1223.48 702.317C1223.06 702.841 1222.22 703.2 1221.52 703.299C1208.02 705.226 1195.15 704.657 1183.75 695.545C1179.29 691.978 1180.72 687.473 1180.13 683.303Z" fill="white"/>
</svg>
