<svg width="806" height="547" viewBox="0 0 806 547" fill="none" xmlns="http://www.w3.org/2000/svg">
<path d="M163.722 171.97H9.29968C6.00411 171.97 3.33203 169.298 3.33203 166.003C3.33203 162.707 6.00411 160.035 9.29968 160.035H163.722C167.017 160.035 169.689 162.707 169.689 166.003C169.689 169.298 167.017 171.97 163.722 171.97Z" fill="#F4B0A7"/>
<path d="M448.275 12.4204H347.669C344.295 12.4204 341.56 9.68485 341.56 6.31101C341.56 2.93717 344.295 0.20166 347.669 0.20166H448.275C451.648 0.20166 454.383 2.93717 454.383 6.31101C454.383 9.68485 451.648 12.4204 448.275 12.4204Z" fill="#FFD4CD"/>
<path d="M78.0657 250.723H60.3126C55.6472 250.723 51.8658 246.941 51.8658 242.276V225.612C51.8658 220.948 55.6472 217.165 60.3126 217.165H78.0657C82.7297 217.165 86.5111 220.946 86.5111 225.612V242.276C86.5111 246.94 82.7297 250.723 78.0657 250.723Z" fill="#EEBCB2"/>
<path d="M594.446 546.627H584.76C582.215 546.627 580.151 544.563 580.151 542.018V532.926C580.151 530.381 582.215 528.317 584.76 528.317H594.446C596.991 528.317 599.054 530.381 599.054 532.926V542.018C599.054 544.563 596.991 546.627 594.446 546.627Z" fill="#F4B0A7"/>
<path d="M768.159 158.37H758.473C755.928 158.37 753.865 156.307 753.865 153.762V144.67C753.865 142.124 755.928 140.061 758.473 140.061H768.159C770.704 140.061 772.768 142.124 772.768 144.67V153.762C772.766 156.308 770.704 158.37 768.159 158.37Z" fill="#EEBCB2"/>
<path d="M90.9238 439.292L42.0179 464.628L56.1071 471.451L38.6104 492.368L52.2636 503.546L69.1639 481.084L80.4932 493.23L90.9238 439.292Z" fill="#7BB49B"/>
<path d="M261.215 544.698H204.072C199.842 544.698 196.411 541.267 196.411 537.036C196.411 532.805 199.842 529.375 204.072 529.375H261.215C265.445 529.375 268.876 532.805 268.876 537.036C268.876 541.267 265.445 544.698 261.215 544.698Z" fill="#FFD4CD"/>
<path d="M627.943 490.413H167.742C162.411 490.413 158.091 486.092 158.091 480.762V97.4616C158.091 92.1309 162.412 87.811 167.742 87.811H627.943C633.272 87.811 637.594 92.1323 637.594 97.4616V480.762C637.594 486.093 633.272 490.413 627.943 490.413Z" fill="#FEFEF4"/>
<path d="M158.091 136.255H637.593" stroke="#7BB49B" stroke-width="2.61959" stroke-miterlimit="10"/>
<path d="M627.943 490.413H167.742C162.411 490.413 158.091 486.092 158.091 480.762V97.4616C158.091 92.1309 162.412 87.811 167.742 87.811H627.943C633.272 87.811 637.594 92.1323 637.594 97.4616V480.762C637.594 486.093 633.272 490.413 627.943 490.413Z" stroke="#7BB49B" stroke-width="2.61959" stroke-miterlimit="10"/>
<path d="M198.624 119.288C202.358 119.288 205.384 116.261 205.384 112.528C205.384 108.795 202.358 105.768 198.624 105.768C194.891 105.768 191.864 108.795 191.864 112.528C191.864 116.261 194.891 119.288 198.624 119.288Z" stroke="#7BB49B" stroke-width="2.61959" stroke-miterlimit="10"/>
<path d="M224.897 119.288C228.63 119.288 231.657 116.261 231.657 112.528C231.657 108.795 228.63 105.768 224.897 105.768C221.164 105.768 218.137 108.795 218.137 112.528C218.137 116.261 221.164 119.288 224.897 119.288Z" stroke="#7BB49B" stroke-width="2.61959" stroke-miterlimit="10"/>
<path d="M251.165 119.288C254.898 119.288 257.925 116.261 257.925 112.528C257.925 108.795 254.898 105.768 251.165 105.768C247.432 105.768 244.405 108.795 244.405 112.528C244.405 116.261 247.432 119.288 251.165 119.288Z" stroke="#7BB49B" stroke-width="2.61959" stroke-miterlimit="10"/>
<path d="M257.635 417.854H13.9731C6.2551 417.854 0 411.598 0 403.881V313.554C0 305.838 6.2551 299.581 13.9731 299.581H257.636C265.353 299.581 271.609 305.836 271.609 313.554V403.881C271.608 411.598 265.353 417.854 257.635 417.854Z" fill="#EEBCB2"/>
<path d="M32.9366 321.542C32.9366 324.383 30.6342 326.685 27.7935 326.685C24.9527 326.685 22.6504 324.383 22.6504 321.542C22.6504 318.701 24.9527 316.399 27.7935 316.399C30.6342 316.399 32.9366 318.701 32.9366 321.542Z" stroke="#FEFEF4" stroke-width="1.993" stroke-miterlimit="10"/>
<path d="M47.7794 326.685C50.6199 326.685 52.9225 324.382 52.9225 321.542C52.9225 318.702 50.6199 316.399 47.7794 316.399C44.939 316.399 42.6364 318.702 42.6364 321.542C42.6364 324.382 44.939 326.685 47.7794 326.685Z" stroke="#FEFEF4" stroke-width="1.993" stroke-miterlimit="10"/>
<path d="M67.7706 326.685C70.6111 326.685 72.9137 324.382 72.9137 321.542C72.9137 318.702 70.6111 316.399 67.7706 316.399C64.9302 316.399 62.6276 318.702 62.6276 321.542C62.6276 324.382 64.9302 326.685 67.7706 326.685Z" stroke="#FEFEF4" stroke-width="1.993" stroke-miterlimit="10"/>
<path d="M0 341.011H271.608" stroke="#FEFEF4" stroke-width="1.993" stroke-miterlimit="10"/>
<path d="M695.536 149.455H586.226C577.103 149.455 569.708 142.06 569.708 132.937V44.762C569.708 35.6391 577.103 28.2437 586.226 28.2437H695.536C704.659 28.2437 712.054 35.6391 712.054 44.762V132.937C712.054 142.06 704.659 149.455 695.536 149.455Z" fill="#EEBCB2"/>
<path d="M631.896 102.637C618.333 102.637 607.298 91.6018 607.298 78.0389C607.298 64.4761 618.333 53.4409 631.896 53.4409C645.459 53.4409 656.494 64.4761 656.494 78.0389C656.494 91.6018 645.46 102.637 631.896 102.637ZM631.896 59.0145C621.406 59.0145 612.871 67.549 612.871 78.0389C612.871 88.5289 621.406 97.0633 631.896 97.0633C642.386 97.0633 650.92 88.5289 650.92 78.0389C650.92 67.549 642.387 59.0145 631.896 59.0145Z" fill="#FEFEF4"/>
<path d="M649.258 91.5203L645.317 95.4614L652.579 102.723L656.52 98.7822L649.258 91.5203Z" fill="#FEFEF4"/>
<path d="M660.26 97.7394L674.631 112.111C676.155 113.634 676.155 116.105 674.631 117.63L671.434 120.827C669.91 122.351 667.439 122.351 665.914 120.827L651.543 106.456C650.019 104.932 650.019 102.461 651.543 100.936L654.74 97.7394C656.265 96.2145 658.736 96.2145 660.26 97.7394Z" fill="#FEFEF4"/>
<path d="M116.36 111.453H53.5369C43.0037 111.453 34.4652 102.915 34.4652 92.3815V39.1058C34.4652 28.5727 43.0037 20.0342 53.5369 20.0342H116.36C126.894 20.0342 135.432 28.5727 135.432 39.1058V92.3815C135.432 102.915 126.894 111.453 116.36 111.453Z" fill="#EEBCB2"/>
<path d="M84.947 85.4382C73.1534 85.4382 63.5582 75.843 63.5582 64.0494C63.5582 52.2558 73.1534 42.6606 84.947 42.6606C96.7406 42.6606 106.336 52.2558 106.336 64.0494C106.336 75.843 96.7406 85.4382 84.947 85.4382ZM84.947 49.0885C76.6973 49.0885 69.9861 55.7997 69.9861 64.0494C69.9861 72.2992 76.6973 79.0104 84.947 79.0104C93.1967 79.0104 99.908 72.2992 99.908 64.0494C99.908 55.7997 93.1967 49.0885 84.947 49.0885Z" fill="#FEFEF4"/>
<path d="M97.551 49.0884L73.0245 79.0103" stroke="#FEFEF4" stroke-width="6.1026" stroke-miterlimit="10"/>
<path d="M788.239 433.072H560.65C550.927 433.072 543.044 425.189 543.044 415.466V245.64C543.044 235.917 550.927 228.034 560.65 228.034H788.239C797.962 228.034 805.845 235.917 805.845 245.64V415.466C805.845 425.191 797.962 433.072 788.239 433.072Z" fill="#EEBCB2"/>
<path d="M579.025 365.467V356.482L611.88 313.05H623.299V356.107H632.566V365.467H623.299V379.695H612.535V365.467H579.025ZM613.284 325.78L590.07 356.107H613.284V325.78ZM640.032 346.185C640.032 356.731 641.904 364.999 645.648 370.99C649.392 376.918 655.632 379.882 664.369 379.882C673.105 379.882 679.345 376.887 683.089 370.896C686.833 364.906 688.705 356.669 688.705 346.185C688.705 335.764 686.833 327.59 683.089 321.662C679.345 315.671 673.105 312.676 664.369 312.676C655.632 312.676 649.392 315.64 645.648 321.568C641.904 327.496 640.032 335.702 640.032 346.185ZM678.034 346.185C678.034 353.798 677.098 359.633 675.226 363.689C673.354 367.745 669.735 369.773 664.369 369.773C658.94 369.773 655.289 367.745 653.417 363.689C651.545 359.633 650.609 353.798 650.609 346.185C650.609 338.635 651.545 332.863 653.417 328.869C655.289 324.875 658.94 322.878 664.369 322.878C669.735 322.878 673.354 324.906 675.226 328.962C677.098 332.956 678.034 338.697 678.034 346.185ZM696.759 365.467V356.482L729.614 313.05H741.033V356.107H750.3V365.467H741.033V379.695H730.269V365.467H696.759ZM731.018 325.78L707.804 356.107H731.018V325.78Z" fill="#FEFEF4"/>
<path d="M570.241 252.373C572.992 252.373 575.222 250.143 575.222 247.392C575.222 244.641 572.992 242.411 570.241 242.411C567.49 242.411 565.26 244.641 565.26 247.392C565.26 250.143 567.49 252.373 570.241 252.373Z" stroke="#FEFEF4" stroke-width="1.93038" stroke-miterlimit="10"/>
<path d="M589.602 252.373C592.353 252.373 594.583 250.143 594.583 247.392C594.583 244.641 592.353 242.411 589.602 242.411C586.851 242.411 584.62 244.641 584.62 247.392C584.62 250.143 586.851 252.373 589.602 252.373Z" stroke="#FEFEF4" stroke-width="1.93038" stroke-miterlimit="10"/>
<path d="M608.959 252.373C611.71 252.373 613.94 250.143 613.94 247.392C613.94 244.641 611.71 242.411 608.959 242.411C606.208 242.411 603.978 244.641 603.978 247.392C603.978 250.143 606.208 252.373 608.959 252.373Z" stroke="#FEFEF4" stroke-width="1.93038" stroke-miterlimit="10"/>
<path d="M543.044 268.168H805.846" stroke="#FEFEF4" stroke-width="1.93038" stroke-miterlimit="10"/>
</svg>
