<svg width="210" height="90" viewBox="0 0 210 90" fill="none" xmlns="http://www.w3.org/2000/svg">
<g clip-path="url(#clip0)">
<path d="M118.145 57.4683C118.053 57.5837 117.961 57.676 117.868 57.7914C117.592 57.8376 117.361 57.953 117.153 58.1376C114.73 59.0377 112.422 60.1225 109.998 61.161C109.906 59.6378 110.068 58.2069 109.768 56.799C109.814 54.9988 109.606 53.1986 109.352 51.4215C108.983 48.7674 108.706 46.0902 107.852 43.5283C107.783 42.8821 107.575 42.282 106.813 42.1666C106.121 42.0743 105.706 42.4898 105.567 43.136C104.598 45.2131 104.321 47.4288 104.39 49.7136C104.321 50.106 104.252 50.4983 104.182 50.8676C103.628 51.6523 103.075 52.437 102.498 53.2217C101.967 53.5679 101.459 54.0295 100.79 54.1218C99.7742 53.1063 99.6588 51.8139 99.7742 50.4983C100.074 46.921 100.836 43.436 101.944 40.0203C102.59 38.0354 103.767 36.3506 105.359 34.9659C105.959 34.8735 106.536 34.9659 107.021 35.3582C107.252 35.8429 107.598 36.2583 107.667 36.8122C107.69 36.9738 107.76 37.1353 107.921 37.1584C108.152 37.1815 108.244 36.9738 108.29 36.8122C108.567 35.866 108.521 34.9659 107.829 34.1812C106.675 32.4271 104.829 31.9194 103.005 32.8426C102.544 32.9118 102.198 33.1887 101.828 33.4426C99.7972 34.7812 98.3202 36.6045 97.3047 38.8201C96.3353 40.9665 95.8045 43.2514 95.3891 45.5593C95.3429 45.6286 95.2737 45.7209 95.2275 45.7901C94.9506 46.2056 94.5351 46.5748 94.4659 47.1287C94.3966 47.4057 93.9351 47.498 94.0966 47.8904C93.9812 48.2365 93.3812 48.3289 93.5196 48.8366C93.4504 48.952 93.3581 49.0674 93.2888 49.1597C92.6426 49.5752 92.4349 50.2675 92.1118 50.8907C91.8117 51.2369 91.5348 51.6061 91.3502 52.0216C91.004 52.3678 90.5885 52.6678 90.4501 53.1756C90.4039 53.1986 90.4039 53.2448 90.427 53.2909C90.0346 53.3371 89.85 53.6371 89.6423 53.9141C89.3192 54.0064 89.3422 53.7525 89.3192 53.5448C89.2961 53.591 89.273 53.6371 89.2268 53.6602C89.2499 53.6141 89.273 53.5679 89.3192 53.5448C89.4115 53.314 89.5038 53.0832 89.5961 52.8524C91.2348 48.4673 92.5272 44.013 92.8503 39.3279C92.9657 37.4815 92.8734 35.6582 91.9964 33.9734C91.1886 32.0348 89.55 31.5732 87.9806 32.8426C87.1959 33.0964 86.7573 33.7657 86.2727 34.3658C85.3033 35.5659 84.6571 36.9738 83.9878 38.3355C83.8493 38.4047 83.7109 38.4739 83.5724 38.5432C83.2031 37.6892 83.1108 36.6737 82.2568 36.0506C81.5183 35.1967 80.849 35.2428 80.1335 36.1891C79.5566 36.8815 79.1411 37.6662 78.818 38.497C78.3333 39.2817 77.9179 40.0895 77.664 40.9896C77.3409 41.382 77.1563 41.8205 77.0871 42.3282C76.8332 42.6052 76.7409 42.9283 76.7178 43.2745C76.5101 43.6207 76.3254 43.9899 76.3485 44.4284C76.3485 44.5438 76.3485 44.6592 76.3485 44.7746C75.8177 45.3055 75.7715 46.044 75.5869 46.7133C75.3099 47.198 75.1022 47.6826 74.9868 48.2135C74.6868 48.8597 74.3868 49.4828 74.0636 50.1291C73.8559 50.3368 73.7174 50.5907 73.6482 50.8676C73.1174 51.2369 73.0712 52.2062 72.1711 52.1601C72.425 49.2059 72.702 46.2517 72.9558 43.2745C73.2789 41.2204 73.6021 39.1663 73.9021 37.0892C74.0175 36.2352 74.1329 35.3813 73.9713 34.5274C73.879 34.0888 73.6944 33.6734 73.1866 33.558C72.702 33.4426 72.3096 33.6273 72.0096 33.9965C71.7788 34.2735 71.5941 34.5504 71.4095 34.8505C70.3478 36.5814 69.517 38.4278 68.8938 40.3665C67.8322 43.6437 67.486 47.0364 67.3706 50.4753C66.9782 51.2369 66.5167 51.9523 66.2859 52.7832C66.2628 52.8294 66.2397 52.8986 66.2397 52.9448C65.8243 53.1294 65.6396 53.5448 65.455 53.9141C65.2011 54.168 64.9473 54.4218 64.6934 54.6526C64.3472 54.7219 64.0933 55.1142 63.6317 55.0219C63.6317 54.7219 63.6317 54.4218 63.6317 54.1218C64.1626 51.9754 64.6934 49.829 65.2011 47.6596C65.732 45.2824 66.3782 42.9283 66.4936 40.4818C66.8859 38.1047 66.9321 35.7736 65.732 33.558C65.5935 33.0733 65.2934 32.7502 64.8088 32.5887C64.3472 32.2656 63.8856 32.3348 63.424 32.6118C62.0623 33.3272 61.7392 34.6889 61.3007 35.9814C60.816 36.9738 60.3775 37.9662 60.1929 39.074C59.939 39.3971 59.8698 39.8125 59.7775 40.2049C59.2005 41.3589 58.9004 42.6052 58.4619 43.8053C58.0696 43.2745 58.485 42.6744 58.3004 42.1205C58.3465 41.4512 58.4158 40.805 58.4619 40.1357C58.6004 37.8969 58.762 35.6352 57.5849 33.5811C56.9618 32.2886 56.2001 32.104 55.0692 32.9349C54.5846 33.2118 54.2615 33.6503 53.9845 34.1119C52.7844 36.1198 51.9074 38.2662 51.0534 40.4357C50.7534 40.5972 50.7765 40.3895 50.7534 40.1818C50.7072 39.6279 50.8226 39.0509 50.5457 38.5201C50.3841 36.9738 50.1533 35.4736 49.2301 34.1581C48.4916 33.0733 47.7531 33.0041 46.8991 33.9504C45.7682 35.0813 44.7758 36.3045 44.1065 37.7816C44.0834 37.8277 44.0603 37.8739 44.0603 37.9431C43.5526 38.2662 43.3218 38.797 43.0679 39.2817C42.7679 39.6741 42.4679 40.0433 42.1678 40.4357C41.8216 40.5511 41.7524 41.0588 41.2908 41.0819C41.2216 40.3203 41.2446 39.5818 40.8292 38.9355C40.6446 38.6586 40.4599 38.3816 40.0907 38.3124C39.7676 38.0123 39.3983 38.0816 39.029 38.1508C37.6443 38.4739 36.6749 39.7895 36.6057 41.405C36.5364 43.1591 37.2288 44.29 38.7059 44.8208C38.9829 45.0747 39.3291 44.9593 39.6522 45.0285L39.6983 44.9823C39.6752 44.9823 39.6522 45.0054 39.6522 45.0054C39.4675 46.321 38.8444 47.498 38.4982 48.7674C37.9904 49.7829 37.4827 50.7984 36.9749 51.8139C36.0979 53.0832 35.0363 54.191 33.9285 55.2296C33.4438 55.3912 33.0976 55.9451 32.4745 55.7605C32.2206 54.2603 32.2206 52.737 32.4975 51.2369C33.0514 48.1904 33.5592 45.1439 34.1823 42.0974C34.7132 39.5587 35.3825 37.0661 36.6518 34.7581C37.2057 34.3889 37.7597 34.3889 38.3136 34.7351C38.8675 35.3351 39.2598 36.0506 39.6983 36.743C39.883 37.0199 39.9984 37.4584 40.4369 37.2738C40.8292 37.0892 40.6907 36.6968 40.6446 36.3506C40.5061 35.3121 39.9522 34.5043 39.2829 33.7426C38.2674 32.6118 37.0673 32.2656 35.6363 32.7733C34.4362 33.1657 33.6053 33.9965 32.936 35.0582C29.1972 39.9049 27.697 45.3978 28.3894 51.4446C28.574 53.1294 29.0818 54.7911 30.0973 56.222C30.2127 56.5452 30.3742 56.8221 30.7204 56.9837C31.9205 58.1146 33.0514 58.0684 34.39 56.8221C35.7979 55.7605 36.8596 54.4218 37.8058 52.9448C37.9674 52.6678 38.1058 52.3909 38.0366 52.0447C38.6136 51.86 38.5905 51.3292 38.7521 50.8907C39.7214 48.8828 40.4369 46.7825 40.8292 44.59C41.1523 44.2438 41.6139 43.9899 41.8216 43.5053C42.3986 42.9744 42.8141 42.3282 43.1602 41.6127C43.4603 41.3589 43.6218 41.0358 43.7372 40.6665C44.0142 40.3895 44.1988 40.0664 44.2911 39.6971C44.7758 39.074 45.122 38.3585 45.422 37.62C45.7913 37.043 46.1837 36.466 46.5529 35.866C46.6683 35.866 46.7837 35.7044 46.9222 35.8429C45.999 40.0203 44.8912 44.1515 44.3373 48.3981C44.0603 50.5676 43.8757 52.7601 44.7758 54.8604C45.0758 55.5758 45.5605 56.1297 46.3914 56.1297C47.2684 56.1297 47.6146 55.5066 47.9146 54.7911C49.3686 51.4215 50.1302 47.8673 50.5457 44.2438C50.7995 43.5514 51.0534 42.859 51.3073 42.1666C51.4458 41.8897 51.5842 41.6127 51.7227 41.3358C52.5997 39.3971 53.2921 37.3661 54.3538 35.4967C54.6077 35.0582 54.7231 34.3889 55.4616 34.3658C55.4154 34.7812 55.4154 35.1967 55.3462 35.589C54.8385 38.4509 53.8922 41.2204 53.269 44.0592C52.7151 46.5979 52.0689 49.1136 52.2305 51.7446C52.2997 52.9217 52.4843 54.0757 53.269 55.045C53.6845 55.5758 54.2384 55.8528 54.9308 55.7605C55.6232 55.6451 56.0155 55.1604 56.2232 54.5142C56.3155 54.2141 56.3848 53.891 56.454 53.591C56.8233 51.86 57.1926 50.1291 57.5618 48.3981C58.0696 47.2441 58.4158 46.0209 58.7158 44.7977C59.362 43.4822 59.3851 41.9589 60.0775 40.6665C60.3083 40.3665 60.4468 40.0433 60.4237 39.651C60.816 38.6355 61.2084 37.6431 61.5777 36.6276C61.6238 36.4891 61.6931 36.3506 61.7392 36.2121C62.0623 35.9121 62.2008 35.5198 62.3162 35.1043C62.6393 34.6658 62.9855 34.2273 63.3086 33.8119C63.4009 33.8119 63.5163 33.835 63.6086 33.835C63.5856 33.8811 63.6086 33.9273 63.6548 33.9734C63.6548 34.1581 63.6317 34.3196 63.6317 34.5043C63.6087 34.5504 63.5856 34.6197 63.5856 34.6658C63.4702 34.9889 63.424 35.3351 63.4471 35.6813C62.9624 37.1123 62.4778 38.5432 61.9931 39.9741C60.6314 43.8745 59.8698 47.8904 60.1929 52.0447C60.2621 52.9448 60.3544 53.8679 60.7699 54.6988C60.9083 55.4604 61.2545 56.1297 61.9008 56.6144C62.6855 57.3529 63.4702 57.2145 64.2318 56.6375C65.0165 56.199 65.7089 55.6451 65.9858 54.7219C66.032 54.6526 66.0551 54.5834 66.1012 54.5142C66.1705 54.4449 66.2397 54.3757 66.2859 54.3295C66.609 54.168 66.7244 53.9141 66.6551 53.5679C66.7475 53.4063 66.9552 53.2679 66.8859 53.0371C67.1398 53.014 67.2552 52.8294 67.3244 52.6216C67.486 52.1601 67.6475 52.437 67.8091 52.6216C67.9476 53.1756 68.1091 53.7295 68.5015 54.168C69.5401 55.9682 71.3403 56.3605 72.9558 55.1142C73.6021 54.6065 74.179 54.0295 74.4791 53.2448C74.8022 52.9217 74.9637 52.5293 75.0561 52.1139C75.3792 51.6523 75.5407 51.1215 75.61 50.5676C75.91 49.9675 76.0946 49.3444 76.187 48.6751C76.4177 48.2596 76.5331 47.798 76.5562 47.3134C76.787 46.8287 76.9024 46.321 76.9486 45.7901C77.2486 45.0516 77.4102 44.29 77.5256 43.5283C78.1025 42.1897 78.6564 40.8511 79.2334 39.4894C79.2796 39.4894 79.3258 39.4664 79.3719 39.4664C79.9027 40.0433 79.1411 40.6665 79.4412 41.2435C78.7719 44.6592 78.0564 48.075 77.4332 51.4908C77.064 53.5448 76.6947 55.622 77.1101 57.7222C77.2948 58.6454 77.8487 59.2685 78.7949 59.4301C79.7412 59.5916 80.4567 59.1531 80.9413 58.3454C81.0798 58.1376 81.1952 57.9068 81.2875 57.676C82.7646 53.5448 83.6878 49.2982 83.8263 44.89C84.057 44.0592 83.9878 43.2283 84.0109 42.3974C84.1955 42.1897 84.1955 41.9128 84.1955 41.6589C84.9571 39.6279 85.7418 37.5969 86.8727 35.7506C87.1035 35.4967 87.3112 35.2428 87.542 35.012C87.9806 34.6197 88.3498 34.0427 89.0884 34.2273C89.1807 35.1736 89.0191 36.1198 88.7653 37.043C88.1421 39.1663 87.542 41.2896 86.9189 43.4129C86.065 46.2517 85.5803 49.1366 85.5111 52.0908C85.488 53.2217 85.5111 54.3757 86.2265 55.345C86.9651 56.6144 87.8652 56.8452 89.1115 56.1297C89.6423 55.8989 90.1731 55.6451 90.2654 54.9988C91.0501 54.6757 91.3502 53.9372 91.7656 53.2909C92.2041 52.8524 92.5041 52.3447 92.7118 51.7677C93.1504 51.26 93.4273 50.683 93.6581 50.0829C94.0043 49.5982 94.3966 49.1366 94.3966 48.5135C94.3736 48.5366 94.3505 48.5597 94.3505 48.5597C94.3736 48.5366 94.3736 48.5135 94.3966 48.5135C94.4659 48.375 94.512 48.2596 94.5813 48.1212C94.6736 47.9596 94.8813 47.8673 94.8121 47.6365C94.8813 47.6365 94.9275 47.6134 94.9736 47.5672C95.2506 47.8673 95.1121 48.2365 95.1121 48.5597C95.1583 49.252 95.0198 49.9444 95.3198 50.6137C95.6891 52.8986 96.4276 54.9988 98.5048 56.3144C101.02 57.8838 102.498 56.1528 104.067 54.3526C104.021 57.9992 104.113 61.4149 103.882 64.8307C102.382 66.1231 100.813 67.3002 99.4972 68.7773C98.5509 69.5158 97.697 70.3236 96.9815 71.2929C95.5506 72.6777 94.6044 74.3856 93.5658 76.0242C92.758 77.2936 91.9271 78.586 91.4886 80.04C91.2348 80.3862 91.1194 80.7555 91.0963 81.1709C90.7039 82.2326 90.4731 83.3173 90.7501 84.4713C90.7732 85.4637 91.0501 86.3638 91.6963 87.1485C91.8348 87.5639 92.1579 87.8178 92.458 88.0948C94.6274 90.0104 98.5971 89.9873 101.09 88.0717C103.652 86.5254 105.152 84.1482 106.167 81.4479C107.667 77.5013 108.429 73.347 109.006 69.1927C109.329 66.954 109.537 64.6691 109.791 62.4304C112.26 61.3918 114.753 60.3533 117.222 59.2916C117.845 59.0377 118.445 58.7608 118.838 58.1838C118.907 58.1838 118.999 58.2069 119.069 58.2069C119.069 57.953 119.069 57.6991 119.069 57.4453C118.907 57.2837 118.515 56.8683 118.145 57.4683ZM44.4065 38.6355C44.4296 38.6124 44.4527 38.6586 44.4758 38.7047C44.4527 38.6586 44.4296 38.6586 44.4065 38.6355ZM38.9367 41.3819C38.9829 40.5049 39.306 40.2049 40.1368 40.3434C40.2292 40.3203 40.2984 40.3665 40.3676 40.4126C40.2753 40.4357 40.183 40.4588 40.0445 40.4588C39.883 41.105 39.883 41.7743 40.0445 42.4205C40.0676 42.4898 40.1138 42.5359 40.1599 42.559C39.7445 42.4898 39.3291 42.3974 38.9136 42.3744C39.1444 42.0743 38.9136 41.7051 38.9367 41.3819ZM46.6222 35.589L46.6452 35.5659V35.589H46.6222ZM76.3023 48.1212V48.1442C76.2793 48.1442 76.2793 48.1442 76.2562 48.1442C76.2793 48.1442 76.3023 48.1212 76.3023 48.1212ZM76.3947 45.7901C76.3716 45.7901 76.3485 45.8132 76.3023 45.8132C76.3023 45.7901 76.3023 45.7901 76.3023 45.767C76.3485 45.7901 76.3716 45.7901 76.3947 45.7901ZM92.458 51.86C92.458 51.86 92.458 51.8831 92.4811 51.9062C92.4811 51.9062 92.481 51.9062 92.458 51.9293C92.481 51.8831 92.458 51.8831 92.458 51.86ZM86.5727 35.7506C86.5727 35.7736 86.5496 35.7736 86.5496 35.7967C86.5266 35.7967 86.5035 35.7736 86.4804 35.7736C86.5266 35.7736 86.5496 35.7506 86.5727 35.7506ZM92.2733 81.771C92.2964 81.771 92.2964 81.7479 92.2733 81.771C92.2964 81.771 92.2964 81.771 92.2733 81.771ZM103.444 69.6312C103.259 72.4007 102.959 75.1703 102.451 77.8937C101.828 81.2171 100.628 84.2174 97.5355 86.0638C97.1893 86.2946 96.8431 86.433 96.4507 86.5254C96.0122 86.5946 95.6199 86.6408 95.2737 86.6177C94.9275 86.5946 94.5813 86.5023 94.2582 86.3638C93.6581 86.0638 93.2196 85.4868 92.7118 84.5636C92.6426 84.2636 92.5734 83.9405 92.5041 83.6404C92.5734 82.7865 92.6426 81.9095 92.6888 81.0555C92.8965 80.6863 93.0119 80.2939 93.058 79.8785C94.5582 76.6474 96.4738 73.6701 98.7587 70.9698C99.0125 70.8083 99.2433 70.6698 99.2895 70.3467C99.3587 70.2313 99.451 70.1159 99.5203 70.0005C99.9588 70.0005 100.143 69.6081 100.397 69.3543C101.505 68.3618 102.544 67.254 103.836 66.2847C103.836 66.3539 103.836 66.4232 103.836 66.4924C103.721 67.0001 103.836 67.5079 103.652 68.0156C103.628 68.5696 103.49 69.1004 103.444 69.6312Z" fill="white"/>
<path d="M74.6644 29.7033C75.3799 29.2879 75.5414 28.6878 75.1952 27.9493C74.7337 27.1415 74.0644 26.8646 73.3489 27.2107C72.6565 27.5339 72.3796 28.3647 72.6796 29.0571C73.0489 29.8187 73.7182 30.0495 74.6644 29.7033Z" fill="white"/>
<path d="M28.6656 15.301C29.0118 15.301 29.1272 15.0241 29.1964 14.7241C29.4041 13.8701 29.4503 12.9931 29.1964 12.1392C29.2195 12.093 29.2195 12.0468 29.1733 12.0007C29.1964 11.5852 29.2195 11.1929 28.9887 10.8236C28.9656 10.2236 28.8733 9.64657 28.5963 9.11575C28.4117 7.89253 27.9963 6.73856 27.4885 5.60767C26.8423 4.17674 25.9884 2.90737 24.6036 2.07651C22.388 0.276313 19.9415 -0.531468 17.1259 0.368631C16.5489 0.41479 16.0411 0.599425 15.6026 0.945617C14.1948 1.47644 13.2023 2.56118 12.2099 3.62283C8.05563 7.98485 5.19377 13.0854 3.3705 18.8322C0.139372 28.8487 -1.13 38.9806 1.17795 49.3894C2.28576 54.3746 4.1552 58.9212 7.94023 62.4985C8.65569 63.1678 9.325 63.8833 10.2482 64.2757C13.5024 66.6298 18.1644 65.5681 20.2185 62.0139C21.4648 60.3752 22.4803 58.5981 23.265 56.6825C23.6804 56.1055 23.7497 55.4131 23.7958 54.7438C23.8189 54.3976 23.6573 54.1207 23.3111 54.0284C22.988 53.9361 22.7572 54.0976 22.5957 54.3515C22.4572 54.5823 22.2495 54.8131 22.2495 55.1131C21.3494 56.4517 20.4493 57.7672 19.5492 59.1059C18.6491 60.0521 17.7721 61.0214 16.6873 61.76C14.0563 62.6832 12.9716 62.4062 11.079 60.306C8.63261 57.5826 7.36324 54.3284 6.87857 50.728C5.6092 41.3577 6.16311 32.1029 8.05563 22.8711C9.46347 15.9934 11.7714 9.53118 16.4104 4.08442C17.1489 3.48436 17.9798 3.04585 18.8799 2.72274C20.4724 2.46886 21.9264 2.88429 23.3111 3.71515C24.5805 4.47677 25.3421 5.65383 26.0576 6.90012C26.45 7.98485 26.8192 9.04651 27.2116 10.1312C27.327 10.9159 27.5578 11.6545 27.8116 12.393C27.9501 13.1547 28.0655 13.9394 28.1809 14.7241C28.2502 14.9779 28.2963 15.301 28.6656 15.301ZM28.5733 9.71581C28.5502 9.69273 28.5502 9.69273 28.5271 9.66965C28.5502 9.66965 28.5502 9.66965 28.5733 9.66965C28.5733 9.66965 28.5733 9.69273 28.5733 9.71581Z" fill="white"/>
<path d="M156.85 6.1164C156.25 4.91627 155.258 4.22389 153.988 3.87769C153.481 3.5315 152.834 3.5315 152.281 3.32379C151.265 3.00068 150.25 2.9776 149.234 3.34687C149.165 3.39303 149.073 3.46226 149.003 3.50842C148.588 3.50842 148.196 3.62382 147.849 3.87769C147.272 4.01617 146.765 4.24697 146.326 4.63932C145.726 4.89319 145.218 5.28554 144.78 5.77021C144.11 6.16256 143.626 6.73955 143.141 7.31653C141.226 9.486 140.164 12.094 139.656 14.9097C138.918 18.9717 139.171 22.9644 140.856 26.7956C141.249 28.2034 142.033 29.4497 142.68 30.7422C144.664 34.5965 146.926 38.3122 148.772 42.2127C150.157 45.1207 150.85 48.1903 150.365 51.4214C149.765 55.391 148.496 58.9914 144.664 61.0686C142.333 62.0379 140.672 61.0224 139.241 59.2915C138.041 57.8375 137.21 56.1988 136.517 54.4679C136.517 54.0524 136.263 53.7755 136.056 53.4524C135.848 53.1523 135.571 52.9215 135.179 53.0369C134.763 53.1523 134.717 53.5216 134.74 53.8909C134.786 54.2832 134.717 54.7217 134.948 55.091C135.133 57.4682 136.24 59.4992 137.487 61.4609C140.302 65.9384 145.011 65.3152 147.988 63.2611C149.373 62.5457 150.388 61.3917 151.242 60.1454C156.389 52.7369 157.427 44.8899 153.435 36.6505C151.519 32.7039 149.049 29.0343 146.649 25.3647C146.58 25.3416 146.534 25.2954 146.488 25.2262C146.534 25.2724 146.603 25.3185 146.649 25.3647C146.165 24.303 145.564 23.2875 145.195 22.1797C143.21 16.4329 143.003 10.9862 147.942 6.43951C148.519 6.1164 149.073 5.79329 149.65 5.47018C149.926 5.47018 150.157 5.37786 150.388 5.23938C151.657 5.03167 152.927 5.10091 154.173 5.4471C154.912 5.81637 155.489 6.39336 156.066 6.99342C156.112 7.10882 156.158 7.2473 156.204 7.36269C156.343 7.68581 156.504 7.98584 156.643 8.30895C157.312 10.4784 157.289 12.7171 157.058 14.9328C156.827 15.2789 156.85 15.6944 156.873 16.0867C156.85 16.1329 156.85 16.2021 156.85 16.2483C156.643 16.6406 156.458 17.1253 156.943 17.3792C157.289 17.5638 157.589 17.2638 157.635 16.8484C158.466 14.702 158.512 12.4633 158.258 10.2245C158.074 8.77054 157.727 7.33961 156.85 6.1164Z" fill="white"/>
<path d="M209.956 52.2289C209.817 51.9289 209.54 51.9058 209.286 52.1597C208.294 53.0598 207.371 54.0291 206.517 55.0446C206.448 55.16 206.378 55.2985 206.309 55.4139C206.055 55.6678 205.663 55.737 205.501 56.0832C205.04 56.1525 204.694 56.4294 204.324 56.7064C203.955 56.7064 203.655 57.0756 203.263 56.891C203.286 56.2217 203.494 55.5986 203.701 54.9523C204.394 52.9675 205.109 50.9596 205.825 48.9747C206.563 46.8976 207.209 44.7743 207.325 42.5356C207.417 40.5738 207.44 38.6121 206.148 36.9273C205.432 35.8656 204.74 35.6348 203.447 36.0041C201.186 36.4195 199.824 37.9658 198.716 39.8122C198.624 40.343 198.208 40.7123 197.908 41.1277C196.893 42.5587 196.108 44.1511 194.931 45.4436C194.954 45.3974 194.954 45.3513 194.908 45.3282C195.139 43.6434 195.277 41.9355 195.116 40.2276C195.046 39.4198 194.723 38.7044 193.823 38.589C192.9 38.4736 192.462 39.0967 192.185 39.8584C192.046 40.2507 191.954 40.6431 191.838 41.0354C191.585 41.9586 191.354 42.8587 191.1 43.7819C190.407 44.7281 189.692 45.6744 189 46.6437C188.677 46.8976 188.33 47.1284 188.007 47.3823C187.961 47.4284 187.915 47.4746 187.869 47.4977C187.499 47.59 187.153 47.6823 186.784 47.7746C186.669 46.9207 186.876 46.0206 186.484 45.1897C185.93 43.9665 184.753 43.6895 183.668 44.5435C182.861 45.282 182.607 46.1821 182.907 47.2207C182.884 47.5438 183.022 47.8208 183.299 48.0054C183.368 48.0746 183.437 48.1439 183.507 48.19C183.853 48.767 184.476 48.8824 185.007 49.1825C184.615 50.4749 184.014 51.675 183.484 52.8983C182.999 53.5445 182.514 54.1676 182.03 54.8138C182.03 54.8831 182.007 54.9292 182.007 54.9985C181.937 55.0677 181.891 55.1139 181.822 55.1831C181.199 55.137 180.876 55.6447 180.437 55.9217C179.814 55.737 179.999 55.16 179.953 54.7446C179.791 53.106 180.276 51.4904 180.322 49.8518C180.83 47.7746 181.291 45.6975 181.845 43.6434C182.168 42.374 182.56 41.1046 183.368 40.0199C184.222 39.5583 184.73 39.9507 185.053 40.7354C185.192 41.0816 185.307 41.4508 185.445 41.797C185.515 42.0047 185.561 42.2586 185.838 42.2586C186.161 42.2586 186.253 41.9817 186.299 41.7509C186.461 40.8046 186.276 39.9507 185.676 39.1891C185.261 38.4044 184.638 37.9428 183.761 37.8274C183.438 37.6196 183.091 37.6658 182.745 37.712C181.245 37.9428 180.299 38.9121 179.514 40.1353C178.937 40.6661 178.614 41.3816 178.222 42.0047C177.044 43.3203 175.821 44.5666 174.413 45.6282C173.698 45.6744 173.952 45.0743 173.883 44.7512C173.536 42.9972 172.29 42.0509 170.79 42.3971C169.682 42.7664 168.99 43.7588 168.967 45.0512C168.944 46.3206 169.751 47.4746 170.952 47.9592C171.159 48.19 171.436 48.167 171.713 48.1439C172.244 48.2131 172.498 48.4439 172.267 49.0209C171.99 49.7133 171.759 50.4288 171.505 51.1442C170.836 52.5751 169.982 53.8907 169.059 55.137C168.551 55.6909 167.882 56.1063 167.559 56.7987C167.582 56.8218 167.605 56.8448 167.605 56.8679L167.582 56.891C167.559 56.8679 167.559 56.8218 167.559 56.7987C167.12 56.7294 166.705 57.3526 166.266 56.8448C165.92 55.8755 165.851 54.8831 165.897 53.8676C166.059 50.5441 166.059 47.1976 166.866 43.9434C167.443 42.5587 168.02 41.1508 168.828 39.8584C169.105 39.4198 169.359 39.0044 169.89 38.8198C170.375 38.9121 170.698 39.2352 170.998 39.5814L171.067 39.5352C171.044 39.5583 171.021 39.5583 170.998 39.5814C171.205 40.0661 171.436 40.5507 171.644 41.0354C171.759 41.3124 171.921 41.5662 172.267 41.4739C172.59 41.3816 172.682 41.0816 172.659 40.8046C172.567 39.8584 172.521 38.9121 171.805 38.1966H171.829C171.436 37.5043 170.905 37.0196 170.074 36.8811C169.221 36.4888 168.413 36.7196 167.674 37.1811C166.751 37.7812 165.989 38.5659 165.436 39.5352C161.858 44.0357 160.681 49.2055 161.304 54.8369C161.42 55.9217 161.812 56.9833 162.597 57.8373C162.851 58.345 163.22 58.7374 163.728 58.9912C165.112 60.076 166.636 60.099 167.997 59.0143C168.505 58.7604 168.874 58.3681 169.128 57.8603C169.751 57.2603 170.259 56.5679 170.651 55.7832C170.859 55.6447 170.975 55.437 171.021 55.2062C172.521 52.9213 173.398 50.4288 173.813 47.7285C173.906 47.6131 173.975 47.4977 174.067 47.3823C175.152 47.0822 175.729 46.1129 176.514 45.4436C176.721 45.4897 176.675 45.6975 176.721 45.8359C175.983 47.7285 175.498 49.6671 175.429 51.6981C175.337 53.7522 175.614 55.7139 176.837 57.4449C178.06 59.4528 179.929 59.6144 181.66 57.8834C182.191 57.5372 182.653 57.0987 182.999 56.5679C183.345 56.314 183.599 55.9909 183.761 55.5985C183.968 55.4601 184.107 55.2754 184.153 55.0216C185.099 53.683 185.63 52.1828 186.022 50.6134C186.438 50.1056 186.161 49.2748 186.876 48.9055C187.015 48.9517 187.13 48.9286 187.199 48.7901C188.215 48.5824 189.023 48.0285 189.669 47.2207C189.854 47.0592 190.015 46.8745 190.2 46.713C190.292 46.6206 190.384 46.4129 190.523 46.5514C190.615 46.6206 190.569 46.8284 190.592 46.9899C190.477 47.4515 190.361 47.9131 190.269 48.3747C189.692 51.2596 188.953 54.1215 189 57.0987C189.023 58.3219 189.507 59.0374 190.361 59.222C191.192 59.4067 191.931 58.9912 192.462 57.9296C193.8 55.2754 194.1 52.3674 194.4 49.4825C195.231 48.767 195.485 47.7285 195.923 46.8053C196.154 46.5283 196.339 46.2283 196.316 45.859C196.362 45.7205 196.431 45.5821 196.477 45.4436C197.193 44.4512 197.631 43.3434 198.208 42.2817C198.555 41.8893 198.855 41.4508 198.97 40.92C199.085 40.7585 199.201 40.62 199.178 40.3892C199.662 40.2969 199.732 39.8353 199.939 39.5122C200.793 38.289 201.763 37.2735 203.332 37.1119C204.324 37.3196 203.817 38.0812 203.886 38.6351C202.87 42.1663 201.463 45.5359 200.262 48.9978C199.547 51.0519 199.016 53.1983 199.132 55.3908C199.224 56.9372 199.57 58.4142 201.163 59.1989C202.293 59.7759 203.101 59.6836 204.117 58.8528C204.717 58.5066 205.178 57.9988 205.617 57.468C205.617 57.468 205.64 57.468 205.64 57.4449C205.963 57.2603 206.194 57.0295 206.378 56.7064C206.702 56.5217 206.955 56.2679 207.14 55.9447C207.532 55.6216 207.948 55.3216 208.086 54.7908C208.133 54.7677 208.133 54.7215 208.109 54.6754C208.502 54.4446 208.686 54.0522 208.871 53.683C209.286 53.6599 209.379 53.3137 209.587 53.0598C209.817 52.9213 210.117 52.6444 209.956 52.2289ZM184.938 47.4746C184.776 46.9438 184.476 46.4591 184.407 45.8821C184.407 45.859 184.43 45.8129 184.43 45.7898C185.215 46.0898 185.307 46.4129 184.938 47.4746C184.961 47.4746 184.938 47.4746 184.938 47.4746ZM185.745 41.7047C185.769 41.7047 185.769 41.7047 185.745 41.7047C185.769 41.7047 185.769 41.7278 185.745 41.7047C185.769 41.7278 185.769 41.7278 185.745 41.7047ZM172.359 46.436C172.036 46.0898 171.598 45.9513 171.159 45.8129C171.298 45.3051 171.113 44.7974 171.228 44.2896C171.575 44.5204 171.967 44.5666 172.382 44.4512L172.359 44.4742C172.221 45.1436 172.406 45.7898 172.359 46.436ZM169.151 39.166C169.244 39.0506 169.359 38.9583 169.498 38.889C169.382 38.9813 169.267 39.0737 169.151 39.166ZM170.467 55.4601C170.49 55.4601 170.513 55.437 170.536 55.437C170.536 55.4601 170.536 55.4601 170.536 55.4832C170.49 55.4601 170.467 55.4601 170.467 55.4601ZM185.93 49.7594C185.93 49.7364 185.93 49.7364 185.93 49.7594C185.93 49.7364 185.93 49.7594 185.93 49.7594Z" fill="white"/>
</g>
<defs>
<clipPath id="clip0">
<rect width="210" height="89.5021" fill="white"/>
</clipPath>
</defs>
</svg>
