<svg width="572" height="11" fill="none" xmlns="http://www.w3.org/2000/svg">
  <g clip-path="url(#clip0)" fill="#fff">
    <path d="M67.574 4.786c12.784-.358 27.76-1.429 36.161-1.215-1.826-.143 9.497-.571-2.922-.285-11.323.571-22.646 1.142-34.335 1.428l1.096.072z"/>
    <path d="M570.904 5.5c.365-.214.731-.428 1.096-.571-1.096 0-2.192-.072-3.287-.072-.366-.071-.366-.143-.731-.214 0 .071-.365.143-.365.214-.365-.071-.365-.214-.731-.285 0 .07-.365.142-.73.285-4.383-.143-9.132-.285-13.515-.357V4.43h-.73c-5.114-.143-10.593-.286-15.707-.429 1.461-.071 3.288-.071 6.575 0-13.515-.786-39.083-1.429-49.31-1.143h-.731c-9.862-.5 8.401-.214 14.245-.286-35.43-1.142-71.226-1.642-107.387-2-.73.5-4.017.286-9.862.572l-3.287-.214c1.096.071-1.096.214 0 .357-18.263-.143-36.891-.143-55.155-.143 2.923-.214 6.21-.429 9.132-.5-16.802.357-33.969 0-50.771.357 2.556-.286 22.281-.643 27.76-.714-7.306 0-20.82.285-21.551.071l-1.096.357c-13.149.143 1.827-.357-2.557-.5-24.837.286-12.418.857-19.724 1.357-4.383.072-8.401.072-12.419.143-1.095 0-2.556 0-4.017.072-2.923.071-6.21.071-9.132.143 1.826-.143.365-.286-.365-.429-10.228.857-12.784 0-31.778.5-.365-.214 8.766-.429 9.497-.643-10.593.357-26.299.714-28.491 1.143-13.514.214-27.394.357-41.274.714 1.096 0 6.574-.071 6.94-.428.365-.357 2.922-.429 4.383-.572-13.515.643-27.395 1.143-41.275 1.786-7.305.143-14.61.357-21.55.5 0-.071.365-.214 1.096-.428-21.55.285-5.845.57-26.3 1l9.498-.215c-.366 0-.731 0-.731.072-9.131.285-18.628.571-27.76.928.365-.143 2.557-.428 4.018-.714-1.096.143-2.922.357-4.383.571 0 0-.73 0-1.826.072-4.018.428-8.767.571-13.15.643 4.383-.286 8.036-.572 10.958-.857l-3.287.285c4.017-.285 8.035-.643 12.053-.928 0-.072.366-.072.366-.143.73-.072 1.826-.072 2.922-.143C55.155 5 43.83 5.143 32.874 5c-.731 0-1.462.072-2.192.143C19.359 5.929 10.227 7.429 0 8.572 11.688 9 22.646 9.786 29.951 11c52.233-.857 104.1-2.357 155.967-3.357 5.479.071 6.94-.071 8.401-.143 2.557-.071 5.114-.071 7.671-.143-2.192.143-4.018.429-5.844.572 5.844-.215 8.035-.429 10.592-.643 2.192-.072 4.749-.072 6.94-.143.365.071 0 .143.365.214 2.192-.071 4.018-.214 5.114-.285 5.479-.072 10.593-.215 16.072-.286.365 0 1.095 0 2.556-.072 2.192.072 4.749-.071 7.306-.143 3.287-.07 6.94-.142 10.592-.142 7.305-.143 14.611-.215 21.916-.286 1.461.071 2.557.071 2.922.143.365-.072.731-.143 1.461-.214 6.21-.072 12.054-.143 18.263-.215h14.245c3.653.357-9.496.215-15.341.5 16.802-.071 11.324-.214 24.108-.571 3.287 0 7.305-.143 11.323-.286 5.479-.071 10.958-.071 16.437-.143-.366 0-.731 0-1.096.072 11.323-.143 6.209.428 17.532.143a506.306 506.306 0 00-6.209-.215c6.575 0 13.149-.071 19.724-.071 1.826 0 2.557.071 1.096.214 5.844 0 10.227-.143 11.688-.286h10.228c-4.384.215-13.515.286-3.288.5l9.497-.285c1.461.143 16.437.214 15.706.5 5.114 0 6.21-.143 10.228-.215 4.017.215 6.94.357 12.053.143-22.281-.357-15.706-.357-34.7-.571 0 0 .366-.072 1.096-.072 16.072 0 32.508.143 48.58.286 1.461.143-3.653.286-4.748.357 11.688.215 12.418-.285 22.281 0-15.707.143 5.478.286 10.592.5-2.922-.357-8.036-.571-17.898-.785 32.143.285 63.921.5 96.064.857.365-.143.731-.357 1.096-.5.365 0 .73 0 1.461.071-.365-.071-.365-.143-.731-.214h-.365v-.072.072h.731c-.366-.143-.731-.214-.731-.286zM163.637 3.214c-.73 0-1.461 0-2.557-.071l16.802-.214c-4.748.071-9.496.214-14.245.285zm305.359 2.5c-5.479-.071-3.652-.143-6.209-.214 2.557 0 4.748.072 7.305.072l-1.096.142z"/>
    <path d="M296.228.357l.73-.143c-.73.072-1.096.072-.73.143zM553.008 4.357c.365 0 .73 0 1.095-.071-.73 0-1.095.071-1.095.071zM556.66 7.214l4.018.215c1.826-.072 9.861-.072 8.035-.215H556.66zM517.574 7c12.419.071 6.94-.286 19.359-.214l-11.688-.215-7.671.429zM504.427 6.286l2.557-.072c-2.557 0-2.922 0-2.557.072z"/>
    <path d="M514.289 6.643l-5.844-.143c0-.143-3.653-.214-4.384-.286l-5.844.215c1.461 0 4.383-.072 5.114 0l-4.748.285 15.706-.071zM490.912 6.357c.366.071.731.071 1.096.143 0-.072-.365-.072-1.096-.143zM336.041 5.643l-9.496.214h7.305l2.191-.214zM279.791 6.428c.368-.07.368-.07.368-.142-.368 0-.736.071-.368.143zM195.781 7.929c-1.096.071-2.192.071-4.018.143a63.6 63.6 0 004.018-.143zM281.251 6.714l1.461-.214-4.383.143 2.922.071zM187.744 8.214l-3.653.286 2.922-.143c2.192 0 2.922-.143.731-.143zM166.558 8.5l9.497-.143-6.21-.143-3.287.286zM114.327 3.572c-2.192.143 1.096.143 2.922.214 4.749-.071 9.862-.357 6.94-.429-3.653.5-5.114-.142-9.862.215-2.192.143 4.748-.357 0 0zM171.673 2.5c11.689-.214 8.401-.571 14.245-.857-9.862 0-17.897.643-10.592.643-4.018.071-9.497.214-3.653.214 11.323-.286-5.844 0 0 0zM268.102.929h-3.287l-3.653.428 6.94-.428zM337.868.286L346.634 0l-13.149.071 4.383.215zM362.705.357l-4.018-.143c-5.479-.071-3.652.143-7.67.143h11.688zM372.202.429l13.88-.072c-1.461 0-2.557 0-3.288-.071l-10.592.143z"/>
  </g>
  <defs>
    <clipPath id="clip0">
      <path fill="#fff" d="M0 0h572v11H0z"/>
    </clipPath>
  </defs>
</svg>