<svg width="216" height="6" fill="none" xmlns="http://www.w3.org/2000/svg">
  <g clip-path="url(#clip0)" fill="#4E8970">
    <path d="M25.517 2.75C30.344 2.615 36 2.21 39.172 2.29c-.69-.054 3.586-.216-1.103-.108-4.276.216-8.552.432-12.966.54l.414.027z"/>
    <path d="M215.586 3.02a3.04 3.04 0 01.414-.216c-.414 0-.828-.027-1.241-.027-.138-.027-.138-.054-.276-.081 0 .027-.138.054-.138.08-.138-.026-.138-.08-.276-.107 0 .027-.138.054-.276.108a322.189 322.189 0 00-5.103-.135v-.027h-.276c-1.931-.054-4-.108-5.931-.162.551-.027 1.241-.027 2.483 0-5.104-.297-14.759-.54-18.621-.432h-.276c-3.724-.188 3.172-.08 5.379-.107-13.379-.432-26.896-.62-40.551-.756-.276.19-1.518.108-3.725.216l-1.241-.08c.414.026-.414.08 0 .134-6.897-.054-13.931-.054-20.828-.054a73.838 73.838 0 013.449-.189c-6.345.135-12.828 0-19.173.135.966-.108 8.414-.243 10.483-.27-2.759 0-7.862.108-8.138.027l-.414.135c-4.965.054.69-.135-.965-.189-9.379.108-4.69.324-7.448.513-1.656.027-3.173.027-4.69.054-.414 0-.966 0-1.517.027-1.104.027-2.345.027-3.449.054.69-.054.138-.108-.138-.162-3.862.324-4.827 0-12 .189-.137-.081 3.31-.162 3.587-.243-4 .135-9.931.27-10.759.432-5.103.08-10.345.134-15.586.27.414 0 2.483-.028 2.62-.163.138-.134 1.104-.161 1.656-.215-5.104.242-10.345.431-15.587.674-2.758.054-5.517.135-8.137.189 0-.027.138-.081.413-.162-8.138.108-2.207.216-9.93.378l3.585-.081c-.137 0-.275 0-.275.027-3.449.108-7.035.215-10.483.35.138-.054.965-.162 1.517-.27-.414.055-1.103.135-1.655.216 0 0-.276 0-.69.027-1.517.162-3.31.216-4.965.243 1.655-.108 3.034-.216 4.138-.324l-1.242.108c1.518-.108 3.035-.242 4.552-.35 0-.027.138-.027.138-.054.276-.027.69-.027 1.103-.054a286.57 286.57 0 01-12.69.135c-.275 0-.55.027-.827.054C7.31 3.18 3.862 3.748 0 4.179c4.414.162 8.552.459 11.31.917 19.725-.323 39.31-.89 58.897-1.267 2.069.027 2.62-.027 3.172-.054.966-.027 1.931-.027 2.897-.054-.828.054-1.517.162-2.207.216 2.207-.081 3.034-.162 4-.243.828-.027 1.793-.027 2.62-.054.139.027 0 .054.139.08.827-.026 1.517-.08 1.93-.107 2.07-.027 4-.081 6.07-.108.138 0 .413 0 .965-.027.828.027 1.793-.027 2.759-.054 1.241-.027 2.62-.054 4-.054 2.758-.054 5.517-.08 8.276-.108.551.027.965.027 1.103.054.138-.027.276-.054.552-.08l6.896-.082h5.38c1.379.135-3.587.081-5.793.19 6.344-.028 4.275-.082 9.103-.217 1.241 0 2.759-.054 4.276-.108 2.069-.027 4.138-.027 6.207-.054-.138 0-.276 0-.414.027 4.276-.053 2.345.162 6.621.054-.69-.027-1.38-.054-2.345-.08 2.483 0 4.965-.027 7.448-.027.69 0 .966.026.414.08 2.207 0 3.862-.054 4.414-.107h3.862c-1.655.08-5.104.107-1.242.188l3.587-.108c.551.054 6.206.081 5.931.19 1.931 0 2.344-.055 3.862-.082 1.517.081 2.62.135 4.551.054-8.413-.135-5.931-.135-13.103-.215 0 0 .138-.027.414-.027 6.069 0 12.276.054 18.345.107.551.054-1.38.108-1.794.135 4.414.081 4.69-.108 8.414 0-5.931.054 2.069.108 4 .19-1.103-.136-3.034-.217-6.758-.298 12.138.108 24.138.19 36.275.324.138-.054.276-.135.414-.189.138 0 .276 0 .552.027-.138-.027-.138-.054-.276-.08h-.138V3.1v.027h.276c-.138-.054-.276-.08-.276-.108zM61.793 2.155c-.276 0-.552 0-.965-.027l6.344-.08c-1.793.026-3.586.08-5.379.107zm115.31.944c-2.069-.027-1.379-.054-2.344-.08.965 0 1.793.026 2.758.026l-.414.054z"/>
    <path d="M111.865 1.077l.276-.054c-.276.027-.414.027-.276.054zM208.828 2.588c.138 0 .276 0 .414-.027a2.41 2.41 0 00-.414.027zM210.207 3.667l1.517.08c.689-.027 3.724-.027 3.034-.08h-4.551zM195.449 3.586c4.69.027 2.621-.108 7.311-.081l-4.414-.081-2.897.162zM190.483 3.316l.965-.027c-.965 0-1.103 0-.965.027z"/>
    <path d="M194.209 3.45l-2.207-.053c0-.054-1.379-.081-1.655-.108l-2.207.081c.552 0 1.655-.027 1.931 0l-1.793.108 5.931-.027zM185.38 3.343c.138.027.276.027.414.054 0-.027-.138-.027-.414-.054zM126.897 3.073l-3.586.081h2.759l.827-.08zM105.658 3.37c.14-.027.14-.027.14-.054-.14 0-.279.027-.14.054zM73.93 3.937c-.414.026-.828.026-1.518.053.552 0 1.104-.027 1.517-.053zM106.207 3.478l.552-.081-1.655.054 1.103.027zM70.894 4.044l-1.379.108 1.104-.054c.827 0 1.103-.054.275-.054zM62.897 4.152l3.586-.054-2.345-.054-1.241.108zM43.172 2.29c-.828.055.413.055 1.103.082 1.793-.027 3.724-.135 2.62-.162-1.379.189-1.93-.054-3.723.08-.828.055 1.793-.134 0 0zM64.828 1.887c4.414-.081 3.172-.216 5.38-.324-3.725 0-6.76.243-4 .243-1.518.027-3.587.08-1.38.08 4.276-.107-2.207 0 0 0zM101.243 1.293h-1.242l-1.379.162 2.621-.162zM127.586 1.05l3.311-.108-4.966.027 1.655.081zM136.966 1.077l-1.517-.054c-2.069-.027-1.38.054-2.897.054h4.414zM140.552 1.104l5.241-.027c-.552 0-.965 0-1.241-.027l-4 .054z"/>
  </g>
  <defs>
    <clipPath id="clip0">
      <path fill="#4E8970" transform="translate(0 .942)" d="M0 0h216v4.154H0z"/>
    </clipPath>
  </defs>
</svg>