<svg width="194" height="7" fill="none" xmlns="http://www.w3.org/2000/svg">
  <path d="M22.977 2.995c4.315-.142 9.37-.597 12.205-.492-.616-.065 3.206-.24-.986-.13-3.821.239-7.643.477-11.588.589l.37.033z" fill="#292929"/>
  <path d="M192.827 3.944c.124-.094.247-.189.371-.251-.37-.002-.74-.035-1.109-.036-.123-.032-.123-.064-.247-.096 0 .032-.123.063-.123.095-.123-.032-.123-.096-.246-.128 0 .032-.124.063-.247.126a220.04 220.04 0 00-4.56-.175v-.032h-.247c-1.725-.07-3.574-.14-5.299-.21.493-.03 1.109-.027 2.219.008-4.56-.364-13.187-.68-16.638-.567h-.247c-3.327-.234 2.835-.085 4.808-.11-11.955-.549-24.033-.815-36.235-1.018-.247.22-1.356.12-3.329.24l-1.109-.1c.37.034-.37.094-.001.159-6.162-.086-12.449-.11-18.611-.133a50.498 50.498 0 013.082-.21c-5.671.137-11.463-.042-17.134.095.864-.123 7.52-.256 9.369-.281-2.465-.01-7.026.1-7.272.004l-.37.157c-4.438.046.616-.156-.863-.224-8.382.095-4.192.363-6.658.575-1.479.026-2.835.02-4.19.047-.37-.001-.864-.003-1.357.027-.986.028-2.095.023-3.082.051.617-.06.124-.126-.122-.19-3.453.366-4.314-.016-10.724.181-.123-.095 2.959-.178 3.205-.272-3.575.145-8.875.283-9.616.47-4.56.077-9.245.123-13.93.263.37.002 2.22-.023 2.343-.18.124-.158.987-.186 1.48-.247-4.561.267-9.246.47-13.93.737-2.466.054-4.932.14-7.274.194 0-.032.124-.094.37-.188-7.272.099-1.972.245-8.876.409l3.206-.083c-.124 0-.247-.001-.247.03-3.082.115-6.287.23-9.37.376.124-.063.864-.186 1.358-.31-.37.061-.987.154-1.48.246 0 0-.247 0-.617.03-1.356.184-2.959.241-4.438.267 1.48-.12 2.713-.242 3.7-.365l-1.11.122c1.356-.12 2.712-.274 4.068-.395 0-.031.124-.031.124-.063.247-.03.616-.029.986-.059a195.54 195.54 0 01-11.34.116c-.247-.001-.493.03-.74.06-3.822.333-6.906.985-10.36 1.477 3.944.204 7.64.565 10.104 1.111 17.627-.313 35.133-.91 52.637-1.288 1.849.039 2.342-.022 2.835-.052.863-.028 1.726-.025 2.589-.054-.74.06-1.357.185-1.973.246 1.972-.088 2.712-.18 3.575-.271.74-.029 1.603-.026 2.342-.055.123.032 0 .064.123.096.74-.03 1.356-.09 1.726-.12 1.85-.025 3.575-.082 5.424-.106.124 0 .37.001.863-.029.74.035 1.603-.025 2.466-.054 1.109-.027 2.342-.054 3.574-.05 2.466-.053 4.931-.076 7.396-.098.493.033.863.035.986.067.124-.031.247-.063.494-.093l6.163-.072 4.807.018c1.232.162-3.205.083-5.178.202 5.67-.01 3.822-.08 8.136-.223 1.11.005 2.466-.054 3.822-.112 1.849-.024 3.698-.017 5.547-.042-.124 0-.247-.001-.37.03 3.821-.049 2.094.197 5.916.085-.616-.034-1.232-.067-2.095-.102 2.219.008 4.437-.015 6.656-.007.616.002.863.035.369.096 1.972.008 3.452-.05 3.945-.111l3.451.012c-1.479.09-4.561.11-1.11.217l3.205-.114c.493.065 5.547.115 5.3.24 1.725.007 2.095-.055 3.451-.081 1.356.1 2.342.167 4.068.078-7.519-.186-5.3-.177-11.709-.296 0 0 .123-.031.37-.03 5.423.02 10.97.104 16.393.187.493.065-1.233.122-1.603.152 3.944.11 4.191-.11 7.519.028-5.301.044 1.848.133 3.573.235-.985-.162-2.71-.263-6.038-.37 10.846.166 21.569.301 32.416.5.123-.063.247-.157.37-.22.123 0 .247 0 .493.033-.123-.032-.123-.063-.246-.095h-.123v-.032.031l.246.001c-.123-.063-.246-.096-.246-.127zM55.397 2.42c-.246-.001-.493-.002-.862-.035l5.67-.074c-1.603.026-3.205.083-4.808.109zm103.041 1.49c-1.849-.04-1.233-.068-2.095-.103.862.003 1.602.037 2.465.04l-.37.062z" fill="#292929"/>
  <path d="M100.145 1.325l.246-.063c-.246.031-.369.03-.246.063zM186.789 3.416c.124 0 .247.001.37-.03-.246 0-.37.03-.37.03zM188.017 4.684l1.356.1c.616-.03 3.328-.02 2.712-.085l-4.068-.015zM174.828 4.54c4.191.047 2.343-.118 6.533-.07l-3.943-.11-2.59.18zM170.393 4.208l.863-.029c-.863-.003-.986-.004-.863.029z" fill="#292929"/>
  <path d="M173.72 4.378l-1.972-.07c0-.064-1.232-.1-1.478-.133l-1.973.088c.493.002 1.479-.026 1.726.006l-1.603.12 5.3-.011zM165.832 4.222c.123.032.246.033.369.065 0-.032-.123-.032-.369-.065zM113.571 3.711l-3.205.083 2.466.01.739-.093zM94.589 3.988c.124-.031.124-.031.125-.063-.125 0-.25.03-.125.063zM66.236 4.545c-.37.03-.74.029-1.356.058.493.002.986-.028 1.356-.058zM95.08 4.116l.494-.093-1.48.058.987.035zM63.524 4.661l-1.233.122.987-.06c.74.003.986-.059.246-.062zM56.375 4.761l3.205-.051-2.095-.071-1.11.122zM38.757 2.517c-.74.06.37.064.986.098 1.602-.026 3.328-.146 2.342-.18-1.233.216-1.725-.07-3.328.082-.74.06 1.603-.152 0 0zM58.11 2.115c3.945-.08 2.836-.242 4.809-.36-3.328-.013-6.04.26-3.576.27-1.356.026-3.205.083-1.233.09 3.822-.112-1.972-.007 0 0zM90.653 1.542l-1.11-.004-1.233.185 2.343-.181zM114.197 1.346l2.958-.116-4.437.015 1.479.1zM122.578 1.409l-1.356-.069c-1.848-.038-1.232.059-2.588.054l3.944.015zM125.783 1.452l4.684-.014c-.493-.002-.863-.003-1.11-.036l-3.574.05z" fill="#292929"/>
</svg>