<svg width="54" height="54" fill="none" xmlns="http://www.w3.org/2000/svg"><path fill-rule="evenodd" clip-rule="evenodd" d="M30.916 24.837h22.23c-.74-7.892-4.965-14.767-11.123-19.123L30.916 24.837z" fill="#3EEDBF"/><path fill-rule="evenodd" clip-rule="evenodd" d="M15.464 51.434a26.716 26.716 0 0011.11 2.428c3.969 0 7.721-.883 11.107-2.428L26.573 32.312l-11.11 19.122zM30.916 29.82l11.107 19.122c6.158-4.358 10.382-11.23 11.122-19.122h-22.23z" fill="#292929"/><mask id="a" maskUnits="userSpaceOnUse" x="15" y="0" width="23" height="23"><path fill-rule="evenodd" clip-rule="evenodd" d="M15.464.794h22.217v21.55H15.464V.793z" fill="#fff"/></mask><g mask="url(#a)"><path fill-rule="evenodd" clip-rule="evenodd" d="M37.681 3.221A26.68 26.68 0 0026.574.794a26.69 26.69 0 00-11.11 2.427l11.11 19.122L37.68 3.221z" fill="#292929"/></g><mask id="b" maskUnits="userSpaceOnUse" x="0" y="29" width="23" height="20"><path fill-rule="evenodd" clip-rule="evenodd" d="M0 29.82h22.229v19.122H0V29.82z" fill="#fff"/></mask><g mask="url(#b)"><path fill-rule="evenodd" clip-rule="evenodd" d="M22.229 29.82H-.001c.74 7.891 4.965 14.764 11.122 19.122L22.23 29.82z" fill="#292929"/></g><mask id="c" maskUnits="userSpaceOnUse" x="0" y="5" width="23" height="20"><path fill-rule="evenodd" clip-rule="evenodd" d="M0 5.714h22.229v19.122H0V5.715z" fill="#fff"/></mask><g mask="url(#c)"><path fill-rule="evenodd" clip-rule="evenodd" d="M22.229 24.837L11.121 5.713C4.964 10.072.74 16.944 0 24.837h22.229z" fill="#292929"/></g></svg>