<svg width="53" height="33" xmlns="http://www.w3.org/2000/svg"><g fill="none" fill-rule="evenodd"><rect width="53" height="33" rx="3" fill="#292929"/><g fill="#FFF" fill-rule="nonzero"><path d="M8.996 8.876c.414.342.693.828.783 1.35H8.213l.783-1.35m-.045-.243l-1.017 1.755h2.034a2.48 2.48 0 00-1.017-1.755zm-2.43 4.203c.306.144.648.225 1.017.225.36 0 .702-.081 1.017-.225l-1.017-1.755-1.017 1.755zm1.413-1.98l1.017 1.755a2.462 2.462 0 001.017-1.755H7.934zm.621-2.448a2.373 2.373 0 00-1.017-.225c-.36 0-.702.081-1.017.225l1.017 1.755 1.017-1.755zm-1.449 2.421H5.072c.072.729.45 1.359 1.017 1.755l1.017-1.755zm0-.459L6.089 8.615a2.462 2.462 0 00-1.017 1.755h2.034zM45.77 6.059s-3.492.144-3.492 3.771c0 1.908-.018 4.437-.018 4.437 0 2.052-1.341 4.59-4.167 4.59-2.826 0-4.167-2.295-4.167-4.59V4.466L31.073 5.6l-.018 9.009c0 3.384 2.799 6.255 7.038 6.255 4.239 0 7.038-2.871 7.038-6.255V10.46c0-2.457.999-2.79.999-2.79l-.36-1.611zm-18.927 4.572v3.618c0 2.628-1.575 3.285-2.97 3.285-.693 0-1.593-.198-1.593-.198l-.423 1.62s.864.504 2.808.504c1.962 0 5.031-.855 5.031-4.797V9.497l-2.853 1.134zm2.025 9.252l-1.062 1.611 1.062 1.62 1.071-1.62zM16.79 26.237l-1.062 1.62 1.062 1.611 1.071-1.611zm3.123 0l-1.062 1.62 1.062 1.611 1.062-1.611z"/><path d="M39.209 2l-1.071 1.62 1.071 1.611 1.062-1.611zm3.114 0l-1.062 1.62 1.062 1.611 1.071-1.611zM22.874 18.263c0 2.718-1.584 4.662-4.518 4.662-2.934 0-4.518-1.944-4.518-4.662l-.018-2.907-2.853 1.134v1.503c0 4.914 3.645 6.822 7.389 6.822s7.389-1.908 7.389-6.822l-2.871.27z"/></g></g></svg>