<svg width="54" height="55" fill="none" xmlns="http://www.w3.org/2000/svg"><path fill-rule="evenodd" clip-rule="evenodd" d="M30.916 24.998h22.23c-.74-7.94-4.965-14.858-11.123-19.24l-11.107 19.24zM15.464 51.761a26.577 26.577 0 0011.11 2.443c3.969 0 7.721-.889 11.107-2.443l-11.108-19.24-11.11 19.24zm15.452-21.749l11.107 19.241c6.158-4.384 10.382-11.3 11.122-19.24h-22.23z" fill="#292929"/><mask id="a" maskUnits="userSpaceOnUse" x="15" y="0" width="23" height="23"><path fill-rule="evenodd" clip-rule="evenodd" d="M15.464.806h22.217V22.49H15.464V.806z" fill="#fff"/></mask><g mask="url(#a)"><path fill-rule="evenodd" clip-rule="evenodd" d="M37.681 3.249A26.542 26.542 0 0026.574.806a26.53 26.53 0 00-11.11 2.443l11.11 19.24L37.68 3.25z" fill="#292929"/></g><mask id="b" maskUnits="userSpaceOnUse" x="0" y="30" width="23" height="20"><path fill-rule="evenodd" clip-rule="evenodd" d="M0 30.012h22.229v19.241H0v-19.24z" fill="#fff"/></mask><g mask="url(#b)"><path fill-rule="evenodd" clip-rule="evenodd" d="M22.229 30.012H-.001c.74 7.941 4.965 14.857 11.122 19.241l11.108-19.24z" fill="#292929"/></g><mask id="c" maskUnits="userSpaceOnUse" x="0" y="5" width="23" height="20"><path fill-rule="evenodd" clip-rule="evenodd" d="M0 5.757h22.229v19.241H0V5.758z" fill="#fff"/></mask><g mask="url(#c)"><path fill-rule="evenodd" clip-rule="evenodd" d="M22.229 24.998L11.121 5.758C4.964 10.141.74 17.057 0 24.997h22.229z" fill="#292929"/></g></svg>