<svg width="80" height="38" fill="none" xmlns="http://www.w3.org/2000/svg"><rect width="79.5" height="37.5" rx="4.5" fill="#292929"/><path d="M16.258 23.326c-.364.13-1.222.208-1.767.208-1.69 0-2.937-.571-3.665-1.533-.545-.728-.78-1.663-.78-3.17v-3.665H7.63v-2.39h2.417V7.863h2.832v4.911h3.457v2.391h-3.457v4.028c0 .65.104 1.04.338 1.326.286.338.728.52 1.43.52.415 0 .961-.078 1.143-.104l.468 2.39zm36.304 5.25l2.91-6.29-4.729-9.485h3.119l3.092 6.341 2.859-6.34H62.8l-7.276 15.8h-2.963v-.026z" fill="#fff"/><path fill-rule="evenodd" clip-rule="evenodd" d="M24.834 13.633v-.857h2.728v10.576h-2.728v-.857a4.45 4.45 0 01-2.937 1.065c-1.56 0-3.04-.701-3.976-1.793-.832-.935-1.351-2.26-1.351-3.69 0-3.119 2.287-5.51 5.171-5.51 1.195 0 2.261.39 3.093 1.066zm-5.822 4.418a2.989 2.989 0 105.978-.001 2.989 2.989 0 00-5.978 0zm12.552-4.418c.832-.676 1.898-1.065 3.093-1.065 2.885 0 5.197 2.39 5.171 5.483 0 1.43-.52 2.729-1.35 3.69-.937 1.092-2.418 1.793-3.977 1.793-1.066 0-2.053-.337-2.937-1.065v.857h-2.728V7.864h2.728v5.77zm-.13 4.418a2.989 2.989 0 002.989 2.989c1.637 0 2.963-1.352 2.989-2.99a2.989 2.989 0 00-5.978 0zm11.851-4.418c.831-.676 1.897-1.065 3.092-1.065 2.859 0 5.172 2.39 5.172 5.483 0 1.43-.52 2.729-1.352 3.69-.935 1.092-2.416 1.793-3.976 1.793-1.065 0-2.053-.337-2.936-1.065v.857h-2.729V7.864h2.729v5.77zm-.156 4.418a2.989 2.989 0 002.989 2.989c1.637 0 2.962-1.352 2.988-2.99a2.989 2.989 0 00-5.977 0z" fill="#fff"/><path clip-rule="evenodd" d="M68.05 10.748h2.885a3.518 3.518 0 00-1.429-2.494l-1.455 2.494z" stroke="#fff" stroke-width=".5"/><path d="M66.05 14.205a3.37 3.37 0 001.43.312 3.2 3.2 0 001.428-.312L67.48 11.71l-1.43 2.495zm2-2.807l1.43 2.495a3.354 3.354 0 001.43-2.495h-2.86zm.858-3.482a3.37 3.37 0 00-1.429-.312 3.21 3.21 0 00-1.43.312l1.43 2.495 1.43-2.495zm-2.027 3.456h-2.884a3.518 3.518 0 001.43 2.495l1.454-2.495zm0-.65l-1.429-2.494a3.352 3.352 0 00-1.43 2.494h2.86z" fill="#fff"/></svg>