<svg width="35" height="35" xmlns="http://www.w3.org/2000/svg">
  <g fill-rule="nonzero" fill="none">
    <path d="M20.093 15.685H34.48c-.518-5.185-3.24-9.592-7.13-12.444l-7.258 12.444z" fill="#A25EF3"/>
    <path d="M10.111 33.056c2.204 1.037 4.667 1.555 7.13 1.555 2.592 0 5.055-.518 7.13-1.555L17.24 20.61l-7.13 12.445zM20.093 18.926l7.13 12.444c4.018-2.851 6.74-7.259 7.129-12.444h-14.26zM24.5 1.685C22.296.648 19.833.13 17.37.13c-2.592 0-5.055.518-7.13 1.555l7.13 12.445L24.5 1.685zM14.519 18.926H.129C.65 24.11 3.37 28.519 7.26 31.37l7.26-12.444zM14.519 15.685L7.389 3.241C3.37 6.093.649 10.5.259 15.685h14.26z" fill="#3EEDBF"/>
  </g>
</svg>