<?xml version="1.0" encoding="UTF-8"?>
<svg width="92px" height="61px" viewBox="0 0 92 61" version="1.1" xmlns="http://www.w3.org/2000/svg" xmlns:xlink="http://www.w3.org/1999/xlink">
    <desc>Created with Sketch.</desc>
    <g id="Arabic-logo_b2c-landing" stroke="none" stroke-width="1" fill="none" fill-rule="evenodd">
        <g id="Group" transform="translate(0.000000, 13.600000)" fill="#1C1D1B" fill-rule="nonzero">
            <path d="M8.88,1.68 C9.8,2.44 10.42,3.52 10.62,4.68 L7.14,4.68 L8.88,1.68 M8.78,1.14 L6.52,5.04 L11.04,5.04 C10.88,3.44 10.02,2.04 8.78,1.14 L8.78,1.14 Z" id="Shape"></path>
            <path d="M3.38,10.48 C4.06,10.8 4.82,10.98 5.64,10.98 C6.44,10.98 7.2,10.8 7.9,10.48 L5.64,6.58 L3.38,10.48 Z" id="Path"></path>
            <path d="M6.52,6.08 L8.78,9.98 C10.02,9.1 10.88,7.68 11.04,6.08 L6.52,6.08 Z" id="Path"></path>
            <path d="M7.9,0.64 C7.22,0.32 6.46,0.14 5.64,0.14 C4.84,0.14 4.08,0.32 3.38,0.64 L5.64,4.54 L7.9,0.64 Z" id="Path"></path>
            <path d="M4.68,6.02 L0.16,6.02 C0.32,7.64 1.16,9.04 2.42,9.92 L4.68,6.02 Z" id="Path"></path>
            <path d="M4.68,5 L2.42,1.1 C1.18,1.98 0.32,3.4 0.16,5 L4.68,5 Z" id="Path"></path>
        </g>
        <path d="M90.6,9.02 C90.6,9.02 82.84,9.34 82.84,17.4 C82.84,21.64 82.8,27.26 82.8,27.26 C82.8,31.82 79.82,37.46 73.54,37.46 C67.26,37.46 64.28,32.36 64.28,27.26 C64.28,22.16 64.28,5.48 64.28,5.48 L57.94,8 L57.9,28.02 C57.9,35.54 64.12,41.92 73.54,41.92 C82.96,41.92 89.18,35.54 89.18,28.02 C89.18,28.02 89.18,22.18 89.18,18.8 C89.18,13.34 91.4,12.6 91.4,12.6 L90.6,9.02 Z" id="Path" fill="#1C1D1B" fill-rule="nonzero"></path>
        <path d="M48.54,19.18 L48.54,27.22 C48.54,33.06 45.04,34.52 41.94,34.52 C40.4,34.52 38.4,34.08 38.4,34.08 L37.46,37.68 C37.46,37.68 39.38,38.8 43.7,38.8 C48.06,38.8 54.88,36.9 54.88,28.14 L54.88,16.66 L48.54,19.18 Z" id="Path" fill="#1C1D1B" fill-rule="nonzero"></path>
        <polygon id="Path" fill="#1C1D1B" fill-rule="nonzero" points="53.04 39.74 50.68 43.32 53.04 46.92 55.42 43.32"></polygon>
        <g id="Group" transform="translate(23.800000, 53.800000)" fill="#1C1D1B" fill-rule="nonzero">
            <polygon id="Path" points="2.4 0.06 0.04 3.66 2.4 7.24 4.78 3.66"></polygon>
            <polygon id="Path" points="9.34 0.06 6.98 3.66 9.34 7.24 11.7 3.66"></polygon>
        </g>
        <g id="Group" transform="translate(73.600000, 0.000000)" fill="#1C1D1B" fill-rule="nonzero">
            <polygon id="Path" points="2.42 0 0.04 3.6 2.42 7.18 4.78 3.6"></polygon>
            <polygon id="Path" points="9.34 0 6.98 3.6 9.34 7.18 11.72 3.6"></polygon>
        </g>
        <path d="M39.72,36.14 C39.72,42.18 36.2,46.5 29.68,46.5 C23.16,46.5 19.64,42.18 19.64,36.14 L19.6,29.68 L13.26,32.2 L13.26,35.54 C13.26,46.46 21.36,50.7 29.68,50.7 C38,50.7 46.1,46.46 46.1,35.54 L39.72,36.14 Z" id="Path" fill="#1C1D1B" fill-rule="nonzero"></path>
    </g>
</svg>