<svg width="114" height="38" fill="none" xmlns="http://www.w3.org/2000/svg"><path d="M15.57 28.136c-.647.23-2.172.37-3.142.37-3.003 0-5.22-1.017-6.514-2.726-.97-1.294-1.386-2.957-1.386-5.637V13.63H.23V9.38h4.297V.647h5.035v8.732h6.145v4.25H9.563v7.161c0 1.155.185 1.848.601 2.356.508.6 1.294.924 2.541.924.74 0 1.71-.138 2.033-.185l.831 4.25zm64.54 9.332l5.175-11.18-8.408-16.863h5.544l5.498 11.273L93 9.425h5.313l-12.936 28.09H80.11v-.047z" fill="#fff"/><path fill-rule="evenodd" clip-rule="evenodd" d="M30.815 10.903V9.38h4.851v18.803h-4.85v-1.525c-1.525 1.294-3.327 1.895-5.221 1.895-2.772 0-5.406-1.248-7.069-3.188-1.478-1.663-2.402-4.02-2.402-6.56 0-5.545 4.065-9.795 9.194-9.795 2.125 0 4.019.693 5.497 1.894zm-10.348 7.854a5.314 5.314 0 1010.627-.001 5.314 5.314 0 00-10.627.001zm22.314-7.854C44.26 9.702 46.154 9.01 48.28 9.01c5.128 0 9.24 4.25 9.194 9.748 0 2.541-.924 4.851-2.403 6.56-1.663 1.941-4.296 3.188-7.068 3.188-1.894 0-3.65-.6-5.22-1.894v1.525H37.93V.646h4.851v10.257zm-.23 7.854a5.314 5.314 0 005.312 5.313c2.91 0 5.267-2.402 5.313-5.313a5.314 5.314 0 00-10.626 0zm21.066-7.854c1.479-1.201 3.373-1.894 5.498-1.894 5.082 0 9.194 4.25 9.194 9.748 0 2.541-.924 4.851-2.402 6.56-1.664 1.941-4.297 3.188-7.069 3.188-1.894 0-3.65-.6-5.22-1.894v1.525h-4.852V.646h4.851v10.257zm-.277 7.854a5.314 5.314 0 005.313 5.313c2.91 0 5.267-2.402 5.313-5.313a5.314 5.314 0 00-10.626 0z" fill="#fff"/><path clip-rule="evenodd" d="M107.646 5.775h5.128a6.255 6.255 0 00-2.541-4.435l-2.587 4.435z" stroke="#fff" stroke-width=".66"/><path d="M104.089 11.92a5.99 5.99 0 002.541.554c.924 0 1.801-.185 2.541-.554l-2.541-4.436-2.541 4.436zm3.557-4.99l2.541 4.435c1.432-1.016 2.402-2.587 2.541-4.435h-5.082zm1.525-6.19a5.997 5.997 0 00-2.541-.555c-.924 0-1.802.185-2.541.554l2.541 4.435L109.171.74zm-3.604 6.144h-5.128a6.255 6.255 0 002.541 4.435l2.587-4.435zm0-1.155l-2.541-4.435c-1.432 1.016-2.402 2.587-2.541 4.435h5.082z" fill="#fff"/></svg>