<svg width="154" height="52" fill="none" xmlns="http://www.w3.org/2000/svg">
  <path d="M20.988 38.247c-.885.316-2.97.506-4.298.506-4.11 0-7.144-1.39-8.914-3.73-1.328-1.77-1.897-4.046-1.897-7.713v-8.976H0v-5.817h5.88V.632h6.89v11.949h8.408v5.816H12.77v9.799c0 1.58.253 2.528.822 3.224.695.822 1.77 1.264 3.477 1.264 1.012 0 2.339-.19 2.782-.253l1.137 5.816zM109.305 50.954l7.08-15.299-11.506-23.074h7.587l7.523 15.425 6.954-15.425h7.27l-17.701 38.436h-7.207v-.063zM41.914 12.58v2.087c-2.023-1.644-4.615-2.592-7.523-2.592-7.017 0-12.58 5.816-12.58 13.402 0 3.477 1.264 6.701 3.287 8.977 2.276 2.655 5.88 4.362 9.672 4.362 2.592 0 5.058-.822 7.144-2.592v2.086h6.638V12.58h-6.638zM34.96 32.62c-3.983 0-7.27-3.223-7.27-7.27 0-3.982 3.224-7.27 7.27-7.27 3.983 0 7.27 3.225 7.27 7.27a7.231 7.231 0 01-7.27 7.27zM65.747 12.012c-2.908 0-5.5.948-7.523 2.592V.632h-6.638v37.615h6.638v-2.086c2.15 1.77 4.552 2.592 7.144 2.592 3.793 0 7.397-1.707 9.672-4.362 2.023-2.34 3.288-5.5 3.288-8.977.063-7.523-5.563-13.402-12.58-13.402zm-.569 20.609c-3.982 0-7.27-3.224-7.27-7.27 0-3.983 3.224-7.27 7.27-7.27 3.983 0 7.27 3.224 7.27 7.27-.063 4.046-3.287 7.27-7.27 7.27z" fill="#fff"/>
  <path d="M94.259 12.012c-2.909 0-5.5.948-7.523 2.592V.632h-6.638v37.615h6.638v-2.086c2.149 1.77 4.551 2.592 7.143 2.592 3.793 0 7.397-1.707 9.673-4.362 2.023-2.34 3.287-5.5 3.287-8.977 0-7.523-5.626-13.402-12.58-13.402zm-.633 20.609c-3.982 0-7.27-3.224-7.27-7.27 0-3.983 3.224-7.27 7.27-7.27 3.983 0 7.271 3.224 7.271 7.27-.064 4.046-3.288 7.27-7.27 7.27zM150.776 3.287a6.96 6.96 0 011.833 3.161h-3.666l1.833-3.16zm-.316-1.706l-3.477 6.069H154c-.253-2.53-1.58-4.679-3.54-6.07zM142.115 16.057a8.197 8.197 0 003.477.759c1.264 0 2.465-.253 3.477-.759l-3.477-6.069-3.477 6.07zM146.983 9.23l3.477 6.069c1.96-1.39 3.287-3.54 3.477-6.069h-6.954zM149.069.759A8.2 8.2 0 00145.592 0c-1.265 0-2.466.253-3.477.759l3.477 6.069 3.477-6.07zM144.138 9.104h-7.017a8.553 8.553 0 003.477 6.069l3.54-6.07zM144.138 7.523l-3.477-6.069c-1.96 1.39-3.287 3.54-3.477 6.07h6.954z" fill="#fff"/>
</svg>
