<svg width="301" height="6" fill="none" xmlns="http://www.w3.org/2000/svg">
  <g clip-path="url(#clip0)" fill="#fff">
    <path d="M35.559 2.61c6.727-.194 14.608-.779 19.029-.662-.961-.078 4.997-.312-1.538-.156-5.958.312-11.917.624-18.068.78l.577.038z"/>
    <path d="M300.423 3c.193-.117.385-.234.577-.312-.577 0-1.153-.039-1.73-.039-.192-.039-.192-.078-.384-.116 0 .038-.193.077-.193.116-.192-.039-.192-.116-.384-.155 0 .039-.192.077-.384.155a433.555 433.555 0 00-7.112-.194v-.04h-.385c-2.69-.077-5.574-.155-8.265-.233.769-.04 1.73-.04 3.46 0-7.111-.429-20.566-.78-25.948-.623h-.384c-5.19-.273 4.42-.117 7.496-.156-18.645-.624-37.481-.896-56.51-1.091-.384.272-2.114.156-5.19.311l-1.729-.116c.576.039-.577.116 0 .194-9.611-.078-19.414-.078-29.024-.078 1.538-.116 3.268-.233 4.805-.272-8.841.195-17.875 0-26.717.195 1.346-.156 11.725-.351 14.608-.39-3.844 0-10.956.156-11.34.039l-.577.195c-6.92.078.961-.195-1.345-.273-13.071.156-6.536.467-10.38.74-2.306.04-4.421.04-6.535.078-.577 0-1.345 0-2.114.04-1.538.038-3.268.038-4.805.077.961-.078.192-.156-.193-.234-5.381.468-6.727 0-16.722.273-.192-.117 4.613-.234 4.998-.35-5.574.194-13.839.389-14.993.623-7.112.117-14.415.194-21.72.39.577 0 3.46-.04 3.653-.234.192-.195 1.537-.234 2.306-.312-7.112.35-14.416.623-21.72.974-3.844.078-7.688.195-11.34.273 0-.04.192-.117.577-.234-11.34.156-3.076.312-13.84.545l4.998-.117c-.192 0-.384 0-.384.04-4.806.155-9.803.311-14.608.506.192-.078 1.345-.234 2.114-.39-.577.078-1.538.195-2.307.312 0 0-.384 0-.96.039-2.115.234-4.614.312-6.92.35 2.306-.155 4.229-.311 5.766-.467l-1.73.156c2.115-.156 4.229-.35 6.343-.507 0-.039.192-.039.192-.078.385-.039.962-.039 1.538-.077-5.958.194-11.917.272-17.683.194-.385 0-.769.04-1.153.078C10.187 3.234 5.382 4.052 0 4.675 6.15 4.91 11.917 5.338 15.761 6c27.486-.467 54.78-1.286 82.074-1.831 2.883.039 3.652-.04 4.42-.078 1.346-.039 2.691-.039 4.037-.078-1.153.078-2.114.234-3.076.312 3.076-.117 4.229-.234 5.575-.35 1.153-.04 2.498-.04 3.652-.079.192.04 0 .078.192.117 1.153-.039 2.114-.117 2.691-.156 2.883-.039 5.574-.117 8.457-.156.192 0 .577 0 1.345-.039 1.154.04 2.499-.039 3.845-.078a248.52 248.52 0 015.574-.077c3.844-.078 7.688-.117 11.532-.156.769.039 1.346.039 1.538.078.192-.04.384-.078.769-.117l9.61-.117h7.496c1.922.195-4.997.117-8.072.273 8.841-.04 5.958-.117 12.685-.312 1.73 0 3.845-.078 5.959-.156 2.883-.039 5.766-.039 8.649-.078-.192 0-.384 0-.576.04 5.958-.079 3.267.233 9.226.077-.961-.039-1.922-.078-3.268-.117 3.46 0 6.92-.039 10.379-.039.962 0 1.346.04.577.117 3.075 0 5.382-.078 6.151-.156h5.382c-2.307.117-7.112.156-1.73.273l4.997-.156c.769.078 8.65.117 8.265.273 2.691 0 3.268-.078 5.382-.117 2.114.117 3.652.195 6.343.078-11.725-.195-8.265-.195-18.26-.312 0 0 .192-.039.577-.039 8.457 0 17.106.078 25.564.156.768.078-1.923.156-2.499.195 6.151.117 6.535-.156 11.725 0-8.265.078 2.883.156 5.574.273-1.538-.195-4.229-.312-9.419-.429 16.915.156 33.637.273 50.552.468.192-.078.384-.195.576-.273.192 0 .385 0 .769.039-.192-.04-.192-.078-.384-.117h-.193v-.04.04h.385c-.192-.078-.385-.117-.385-.156zM86.11 1.753c-.385 0-.769 0-1.346-.039l8.842-.117c-2.499.04-4.997.117-7.496.156zm160.687 1.364c-2.883-.039-1.922-.078-3.268-.117 1.346 0 2.499.039 3.845.039l-.577.078z"/>
    <path d="M155.882.195l.384-.078c-.384.039-.576.039-.384.078zM291.006 2.377c.192 0 .384 0 .576-.04-.384 0-.576.04-.576.04zM292.927 3.935l2.115.117c.961-.039 5.189-.039 4.228-.117h-6.343zM272.36 3.818c6.535.04 3.652-.156 10.187-.117l-6.15-.117-4.037.234zM265.441 3.429l1.346-.04c-1.346 0-1.538 0-1.346.04z"/>
    <path d="M270.631 3.623l-3.076-.078c0-.077-1.922-.116-2.306-.155l-3.075.117c.768 0 2.306-.04 2.691 0l-2.499.155 8.265-.039zM258.329 3.468c.193.038.385.038.577.077 0-.039-.192-.039-.577-.077zM176.833 3.078l-4.998.117h3.844l1.154-.117zM147.233 3.506c.194-.039.194-.039.194-.078-.194 0-.388.04-.194.078zM103.024 4.325c-.576.039-1.153.039-2.114.078.769 0 1.538-.04 2.114-.078zM148.001 3.662l.769-.117-2.307.078 1.538.04zM98.796 4.48l-1.923.156 1.538-.078c1.153 0 1.538-.078.385-.078zM87.647 4.636l4.998-.078-3.268-.078-1.73.156zM60.161 1.948c-1.153.078.577.078 1.538.117 2.499-.039 5.19-.195 3.652-.234-1.922.273-2.691-.078-5.19.117-1.153.078 2.499-.195 0 0zM90.338 1.364c6.151-.117 4.421-.312 7.497-.468-5.19 0-9.419.35-5.575.35-2.114.04-4.997.118-1.922.118 5.959-.156-3.075 0 0 0zM141.082.507h-1.73L137.43.74l3.652-.233zM177.794.156L182.407 0l-6.92.039 2.307.117zM190.864.195L188.75.117c-2.883-.04-1.922.078-4.036.078h6.15zM195.862.234l7.304-.04c-.769 0-1.346 0-1.73-.038l-5.574.078z"/>
  </g>
  <defs>
    <clipPath id="clip0">
      <path fill="#fff" d="M0 0h301v6H0z"/>
    </clipPath>
  </defs>
</svg>