<svg width="20" height="15" viewBox="0 0 20 15" fill="none" xmlns="http://www.w3.org/2000/svg">
<path d="M0 0.776621C6.6664 3.46581 13.3336 -1.91338 20 0.776621V14.2234C13.3336 11.5342 6.6664 16.9134 0 14.2234V0.776621Z" fill="#006C35"/>
<path d="M8.57357 4.25246C8.58711 4.23992 8.60323 4.23055 8.62077 4.22503C8.64157 4.2218 8.64157 4.25084 8.64157 4.28635C8.58557 4.37187 8.53597 4.40656 8.54637 4.48805C8.55677 4.56955 8.65117 4.43803 8.63677 4.51871C8.62898 4.55811 8.60775 4.59351 8.57677 4.61876C8.51437 4.66314 8.48317 4.67363 8.45277 4.63409C8.40957 4.60021 8.42477 4.59859 8.42477 4.53162C8.43939 4.42352 8.49223 4.32439 8.57357 4.25246Z" fill="white"/>
<path d="M9.46077 4.14515C9.49037 4.08464 9.51197 4.05801 9.52877 4.05236L9.53597 4.04914C9.56557 4.03945 9.58237 4.08706 9.60317 4.13547C9.69037 4.2573 9.65437 4.56309 9.68317 4.77045C9.72077 5.04397 9.79197 5.04961 9.83517 5.04961C9.86941 5.04333 9.90188 5.02961 9.93034 5.00941C9.95879 4.98921 9.98255 4.96301 9.99997 4.93262C10.0344 4.72284 9.93117 4.5994 9.87437 4.49854C9.84833 4.46984 9.82991 4.43497 9.82082 4.39717C9.81173 4.35936 9.81226 4.31985 9.82237 4.28231C9.82189 4.21789 9.84272 4.15514 9.88157 4.104C9.96237 4.02009 10.036 4.00234 10.1056 4.06608C10.1752 4.12982 10.2768 4.26375 10.2448 4.32427C10.2344 4.37913 10.168 4.37913 10.1376 4.37913C10.076 4.40011 10.1424 4.52436 10.1424 4.53082C10.18 4.61473 10.18 4.7414 10.2296 4.82209C10.2784 4.88825 10.376 4.835 10.4264 4.81724C10.4648 4.78497 10.476 4.76722 10.5064 4.74382C10.5368 4.72042 10.58 4.70429 10.58 4.78981C10.58 4.78981 10.5024 5.03106 10.3992 5.10125C10.3696 5.11416 10.3584 5.14159 10.3088 5.11416C10.2808 5.06414 10.3224 5.02541 10.3288 4.99314C10.3288 4.97538 10.2576 4.9649 10.2168 5.02864C10.1896 5.07221 10.1752 5.11013 10.1176 5.22228C10.0712 5.30619 9.88477 5.37074 9.79757 5.35298C9.69357 5.32071 9.69997 5.24325 9.65197 5.20856C9.62973 5.197 9.60408 5.19398 9.5798 5.20007C9.55552 5.20615 9.53426 5.22093 9.51997 5.24164L9.35997 5.43286C9.31293 5.48641 9.24935 5.52239 9.17952 5.53498C9.10969 5.54757 9.0377 5.53604 8.97517 5.50225C8.88397 5.41188 8.85357 5.33766 8.85837 4.97861C8.84157 4.94311 8.81437 4.95925 8.77837 5.03993C8.72557 5.3191 8.64477 5.58051 8.51677 5.55147C8.33917 5.63699 8.08557 5.16741 8.24557 4.66879C8.34717 4.54937 8.35357 5.16983 8.43757 5.23357C8.47197 5.28844 8.52157 5.32475 8.56717 5.16338C8.61757 4.94715 8.69997 4.67201 8.86637 4.48644C8.90157 4.44852 8.98237 4.39688 9.03197 4.48644C9.06477 4.54373 9.05437 4.8471 9.04957 5.03267C9.0527 5.06645 9.06581 5.09851 9.0872 5.12469C9.10859 5.15087 9.13729 5.16997 9.16957 5.17951C9.20574 5.19242 9.24515 5.19277 9.28154 5.18048C9.31792 5.1682 9.34919 5.14401 9.37037 5.11174C9.40585 5.06282 9.43767 5.01131 9.46557 4.95763C9.49358 4.79461 9.47584 4.62693 9.41437 4.47353C9.34797 4.30652 9.43117 4.20566 9.46077 4.14515Z" fill="white"/>
<path d="M9.16157 4.2452C9.18477 4.17823 9.21437 4.14031 9.24157 4.13305H9.24317C9.27037 4.12498 9.29437 4.14676 9.30397 4.20082C9.30029 4.31413 9.27756 4.42598 9.23677 4.53162C9.19437 4.63409 9.10237 4.62522 9.11917 4.54453C9.12455 4.44369 9.13874 4.34352 9.16157 4.2452Z" fill="white"/>
<path d="M10.2631 3.96604C10.2735 3.95313 10.2874 3.94359 10.3032 3.9386L10.3016 3.93698C10.3495 3.93001 10.3984 3.93908 10.4408 3.9628C10.5319 4.02215 10.5471 4.03216 10.6376 4.09183L10.672 4.11449C10.6982 4.14119 10.7228 4.16948 10.7456 4.19921C10.7299 4.11235 10.7402 4.02277 10.7752 3.94183C10.8456 3.83371 10.8448 3.84743 10.8904 3.9031C11.0304 4.07576 11.1512 4.20082 11.1904 4.41221C11.2064 4.53566 11.0864 4.31539 11.1176 4.5284C11.1304 4.57923 11.1496 4.75108 11.1672 4.95441C11.2648 5.08027 11.3464 5.19081 11.3712 5.23115C11.5252 5.45664 11.6678 5.68985 11.7984 5.92987C11.8384 5.97909 11.8544 6.36799 11.7848 6.41398C11.608 6.08833 11.4141 5.7724 11.204 5.46756C11.2088 5.54582 11.2144 5.62005 11.2144 5.68298C11.2168 5.83467 11.2544 6.35427 11.2264 6.61811C11.1856 6.81417 11.0664 6.96343 10.9864 6.97554C11.0094 6.5247 11.006 6.07289 10.976 5.62247C10.9632 5.4369 10.9432 5.25294 10.9168 5.06575C10.7456 4.83984 10.5688 4.62522 10.3848 4.41221C10.3321 4.3634 10.2884 4.30547 10.256 4.24116C10.2377 4.16594 10.2339 4.08788 10.2448 4.01121C10.2464 3.99467 10.2528 3.97896 10.2631 3.96604Z" fill="white"/>
<path d="M13.4496 3.4198C13.4486 3.4198 13.4476 3.41985 13.4465 3.41994C13.4599 3.42191 13.4723 3.4284 13.4816 3.43836L13.7432 3.89422C13.7608 3.93698 13.736 3.98539 13.708 3.98539C13.6897 3.98028 13.6728 3.9712 13.6584 3.95877C13.632 3.95877 13.64 3.96522 13.64 3.99024C13.652 4.05156 13.6648 4.31701 13.6648 4.31781C13.6648 4.31862 13.6776 4.36784 13.6776 4.38075C13.7752 4.51145 13.876 4.64781 13.956 4.76157C13.9136 4.43077 13.8584 4.10803 13.796 3.7853C13.772 3.66185 13.7488 3.52953 13.812 3.46256C13.8792 3.36494 13.9344 3.33992 13.964 3.39237C14.048 3.50613 14.2016 3.92165 14.1768 3.96764C14.152 4.01363 14.1016 3.97975 14.0888 4.01928C14.0911 4.09873 14.1002 4.17782 14.116 4.25569C14.1528 4.38881 14.1744 4.55906 14.196 4.67201C14.2096 4.74463 14.24 4.98184 14.2624 5.18355C14.3752 5.33443 14.5216 5.5313 14.636 5.71606C14.68 5.76609 14.7032 6.15014 14.636 6.19129C14.5264 6.00168 14.4112 5.8153 14.292 5.63457V5.94682C14.2968 6.0751 14.0488 6.37283 14.0568 6.30344C14.0661 5.94743 14.0532 5.59119 14.0184 5.2368C13.9432 5.12868 13.8632 5.02218 13.7832 4.91891C13.7952 5.33443 13.8208 6.07995 13.768 6.2284C13.7352 6.33216 13.6691 6.4219 13.58 6.48337C13.5335 6.52933 13.4721 6.55678 13.4071 6.56064C13.3421 6.56449 13.2779 6.5445 13.2264 6.50434C13.1632 6.48124 13.1078 6.4407 13.0664 6.38735C13.0216 6.3454 12.9288 6.34055 12.8912 6.45593C12.8384 6.5229 12.8376 6.82385 12.7248 6.95859C12.713 6.97935 12.6973 6.99756 12.6785 7.01217C12.6597 7.02678 12.6383 7.0375 12.6154 7.04372C12.5925 7.04995 12.5686 7.05155 12.5451 7.04843C12.5216 7.04531 12.4989 7.03754 12.4784 7.02556C12.4242 7.00647 12.3747 6.97583 12.3333 6.93573C12.2919 6.89564 12.2595 6.84702 12.2384 6.79319C12.1952 6.7238 12.1104 6.37767 12.3016 6.12836C12.3022 6.1257 12.3027 6.12334 12.3032 6.12129C12.3066 6.1059 12.3057 6.10725 12.3032 6.12129C12.2916 6.18494 12.246 6.5095 12.4176 6.71735C12.4307 6.73022 12.4465 6.73987 12.4639 6.74557C12.4813 6.75127 12.4998 6.75285 12.5179 6.7502C12.536 6.74754 12.5532 6.74073 12.5683 6.73027C12.5834 6.71982 12.5958 6.70601 12.6048 6.68992C12.7096 6.47933 12.7792 6.18726 12.9336 6.01459C12.9888 5.95408 13.04 5.92584 13.12 5.98716C13.12 5.98716 13.2736 6.20743 13.312 6.21792C13.3632 6.26229 13.4432 6.20581 13.4432 6.20581C13.4952 6.17677 13.5496 5.93229 13.5544 5.75318C13.5216 5.33765 13.5128 4.95602 13.4808 4.54292C13.328 4.35815 13.176 4.18146 13.0272 4.02009C12.9819 3.97338 12.9516 3.91409 12.94 3.84985C12.9362 3.75136 12.9386 3.65273 12.9472 3.55454C12.9648 3.44078 12.9968 3.50129 13.0488 3.52792C13.1457 3.591 13.2344 3.66608 13.3128 3.75141C13.4576 3.91439 13.132 3.76109 13.3552 3.96684C13.3653 3.97654 13.3749 3.98678 13.384 3.9975C13.3816 3.98217 13.376 3.96764 13.376 3.95231C13.368 3.83774 13.348 3.72237 13.34 3.6086C13.3408 3.55092 13.3641 3.49587 13.4048 3.4553C13.4203 3.42989 13.4338 3.4211 13.4465 3.41994C13.4462 3.41989 13.4459 3.41984 13.4456 3.4198H13.4496Z" fill="white"/>
<path d="M5.24877 4.86969C5.22717 4.8124 5.28077 4.7769 5.32877 4.7769L5.32957 4.77852C5.33621 4.77767 5.34293 4.77767 5.34957 4.77852C5.47437 4.80756 5.48317 4.99394 5.47437 5.04961C5.46077 5.15128 5.41597 5.2602 5.38077 5.25052C5.34557 5.24083 5.37917 5.10206 5.36237 5.06172C5.34397 5.00362 5.23677 4.90277 5.24877 4.86969Z" fill="white"/>
<path d="M14.5352 3.37785C14.556 3.33266 14.5688 3.31169 14.58 3.31169C14.5944 3.30927 14.604 3.33428 14.62 3.36494C14.7 3.48516 14.9288 3.76594 14.8904 3.80789C14.864 3.85469 14.7904 3.81596 14.776 3.85469C14.7772 3.91871 14.7844 3.98247 14.7976 4.0451C14.9104 4.5873 14.9376 5.32959 14.92 6.08963C14.9117 6.23745 14.8748 6.3822 14.8112 6.51564C14.628 6.80529 14.3624 6.84483 14.1376 6.89324C14.0096 6.90211 14.0096 6.794 14.1696 6.68427C14.22 6.63828 14.3752 6.57212 14.4488 6.5116C14.5314 6.42703 14.6053 6.33432 14.6696 6.23486C14.6922 6.17239 14.7073 6.10736 14.7144 6.04122C14.6847 5.2698 14.6094 4.50086 14.4888 3.7385C14.4668 3.61634 14.483 3.49032 14.5352 3.37785Z" fill="white"/>
<path d="M12.1769 3.68502C12.2024 3.64725 12.216 3.62716 12.2248 3.62716V3.62312C12.2408 3.61828 12.2432 3.64975 12.2616 3.68122C12.312 3.80144 12.4728 3.99104 12.5368 4.12901C12.5568 4.24358 12.3712 4.09835 12.4088 4.29522C12.4384 4.40092 12.592 5.52565 12.5984 5.66684C12.6209 5.84122 12.6276 6.0173 12.6184 6.1929C12.5808 6.37364 12.496 6.56486 12.416 6.57696C12.4424 5.76528 12.276 5.01976 12.116 4.20001C12.098 4.026 12.1188 3.85014 12.1768 3.68525L12.1769 3.68502Z" fill="white"/>
<path d="M6.46118 4.71117C6.46929 4.70186 6.47961 4.69478 6.49117 4.69057L6.49037 4.69864C6.50077 4.69553 6.51196 4.69655 6.52163 4.7015C6.5313 4.70646 6.53872 4.71496 6.54237 4.72527C6.54717 4.73737 6.54717 4.78981 6.54717 4.80595V4.80595C6.55597 4.98345 6.35037 5.03186 6.24077 4.99152C6.15917 4.96651 6.16557 4.84306 6.16557 4.83822C6.16237 4.81563 6.16637 4.74221 6.22637 4.73495C6.23657 4.73561 6.24621 4.7399 6.25357 4.74705C6.25823 4.76082 6.26066 4.77526 6.26077 4.78981C6.26077 4.80272 6.26477 4.8116 6.27597 4.8116H6.29837C6.30472 4.81026 6.31038 4.80668 6.31434 4.8015C6.3183 4.79632 6.3203 4.78989 6.31997 4.78336C6.32073 4.769 6.3237 4.75484 6.32877 4.7414C6.33677 4.72688 6.33677 4.72042 6.35197 4.72042C6.35967 4.71728 6.36827 4.71728 6.37597 4.72042C6.38612 4.73129 6.39256 4.74514 6.39437 4.75996C6.39277 4.80918 6.42077 4.8124 6.43677 4.80111C6.45277 4.78981 6.44477 4.76157 6.44477 4.74382C6.44742 4.73172 6.45306 4.72049 6.46118 4.71117Z" fill="white"/>
<path d="M7.86237 4.51065C7.89276 4.48968 7.92663 4.47438 7.96237 4.46546L7.95597 4.46224C7.99725 4.45223 8.04029 4.45223 8.08157 4.46224C8.0989 4.47947 8.11234 4.50027 8.12099 4.52322C8.12964 4.54616 8.13329 4.57071 8.1317 4.5952C8.1301 4.6197 8.1233 4.64356 8.11175 4.66516C8.1002 4.68677 8.08418 4.70562 8.06477 4.72042C8.04397 4.74463 8.04317 4.76561 8.06477 4.78094C8.08637 4.79627 8.10637 4.80595 8.12797 4.82128C8.12797 4.82128 7.70957 5.378 7.62157 5.42479C7.52239 5.45512 7.41958 5.47168 7.31597 5.47401C7.33677 5.41995 7.74397 5.06898 7.90397 4.8713C7.94157 4.83338 7.88557 4.78659 7.83037 4.76964C7.77277 4.70913 7.78957 4.59133 7.86237 4.51065Z" fill="white"/>
<path d="M11.764 3.79095C11.7848 3.74334 11.7984 3.72075 11.8096 3.72075L11.8088 3.71672C11.8224 3.71268 11.8328 3.73608 11.8488 3.76432C11.9288 3.87647 12.0576 4.17662 12.0312 4.22503C12.0048 4.27344 11.9552 4.26375 11.9408 4.28392C11.9296 4.32766 11.9274 4.37324 11.9344 4.41786C12.059 5.03371 12.1095 5.66248 12.0848 6.29053C12.0678 6.43321 12.0212 6.57067 11.948 6.69395C11.7648 7.06187 11.5672 7.22566 11.3424 7.29424C11.208 7.31844 11.1048 7.19661 11.1344 7.15707C11.4112 6.99813 11.6656 6.72138 11.8416 6.50354C11.8863 6.43651 11.9051 6.35526 11.8944 6.2752C11.824 5.53936 11.7912 4.88905 11.684 4.1629C11.6808 4.03426 11.7083 3.90672 11.764 3.79095Z" fill="white"/>
<path d="M5.80499 4.81529C5.8179 4.80311 5.83343 4.79411 5.85037 4.78901L5.84877 4.78981C5.862 4.78717 5.87572 4.7886 5.88813 4.79393C5.90054 4.79925 5.91108 4.80822 5.91837 4.81967C5.99757 4.87695 6.01277 5.13353 6.02717 5.25294C6.02511 5.40564 6.04368 5.55792 6.08237 5.70557C6.11517 5.77254 6.15997 5.78142 6.18157 5.71768C6.20797 5.71203 6.15197 5.65394 6.11597 5.55066C6.06557 5.43932 6.03277 5.18113 6.10237 5.05203C6.10795 5.04167 6.11592 5.03282 6.12561 5.02622C6.1353 5.01963 6.14642 5.01548 6.15803 5.01414C6.16965 5.01279 6.18141 5.01429 6.19233 5.01849C6.20325 5.0227 6.21301 5.0295 6.22077 5.03832C6.26077 5.10448 6.30877 5.13191 6.32477 5.23277C6.34797 5.30538 6.38077 5.33201 6.33917 5.60714C6.33917 5.63376 6.49917 5.73301 6.49917 5.73301C6.51967 5.75467 6.54751 5.76778 6.57714 5.76972C6.60678 5.77166 6.63606 5.7623 6.65917 5.74349C6.66695 5.66451 6.65283 5.5849 6.61837 5.51355C6.50814 5.39069 6.45062 5.22883 6.45837 5.06333C6.49597 4.92859 6.59837 4.90277 6.66877 4.95521C6.71238 4.98129 6.75008 5.01631 6.77943 5.05801C6.80878 5.0997 6.82914 5.14714 6.83917 5.19727C6.82717 5.25052 6.77277 5.26262 6.73757 5.21098C6.72877 5.23922 6.77517 5.30135 6.76637 5.32878C6.82201 5.46351 6.85291 5.60731 6.85757 5.75318C6.85757 5.90728 6.73517 6.02105 6.53757 6.10173C6.40717 6.14772 6.36637 6.07914 6.28637 6.02992C6.23677 6.00652 6.15677 6.01863 6.15677 6.07833C6.11517 6.14772 6.18637 6.39865 6.17677 6.71251C6.16717 7.24663 5.97357 7.21113 5.97357 7.21113C5.9597 6.92928 5.94637 6.64796 5.93357 6.36718C5.90077 6.28811 5.84077 6.29134 5.76077 6.30586C5.67997 6.28004 5.57917 6.24373 5.57917 6.08237V5.59181C5.57597 5.52726 5.53517 5.5313 5.51357 5.58455C5.39757 5.69831 5.57437 6.2631 5.25437 6.25422C4.98957 6.21388 5.01677 5.65797 5.03997 5.3433C5.11997 5.24487 5.15197 5.64425 5.19997 5.80562C5.25437 6.02589 5.33437 5.93472 5.35197 5.8145C5.36223 5.73658 5.37665 5.65928 5.39517 5.58293C5.43117 5.34492 5.56077 5.19081 5.61117 5.19081C5.67437 5.17387 5.69757 5.1892 5.73037 5.25455C5.76317 5.3199 5.77277 5.58858 5.73597 5.76286C5.72877 5.89276 5.88797 6.02831 5.88077 5.76286C5.86247 5.5761 5.82984 5.39104 5.78317 5.20937C5.77146 5.09303 5.76905 4.97593 5.77597 4.8592C5.78215 4.8425 5.79209 4.82747 5.80499 4.81529Z" fill="white"/>
<path d="M6.91997 4.67605C6.94077 4.66879 6.95837 4.65668 6.97437 4.65265L6.97677 4.66556C6.98257 4.66434 6.98857 4.66434 6.99437 4.66556H7.00237H7.00717L7.01597 4.67363C7.07997 4.69622 7.19357 5.01895 7.24717 5.18032C7.19757 5.25052 7.14797 5.21824 7.09357 5.22792C7.13837 5.5434 7.17677 5.84354 7.21837 6.15902C7.34877 6.06381 7.41357 6.07833 7.39917 6.2397C7.41197 6.30586 7.51437 6.28166 7.57197 6.22518C7.65677 5.96941 7.79677 5.96618 7.83117 6.11625C7.83357 6.15256 7.87757 6.15256 7.90237 6.13481C7.90792 6.13072 7.91256 6.1255 7.91597 6.11948C7.91631 6.11626 7.91631 6.11302 7.91597 6.1098C7.92237 6.06542 7.92797 6.02669 7.93437 5.98474C7.93631 5.97668 7.94016 5.9692 7.94557 5.96295C7.99084 5.92422 8.04221 5.89341 8.09757 5.87178C8.09169 6.01713 8.07592 6.16189 8.05037 6.30505C8.03954 6.33913 8.02185 6.37059 7.9984 6.39745C7.97496 6.42431 7.94626 6.446 7.91411 6.46115C7.88196 6.4763 7.84706 6.48459 7.81159 6.4855C7.77611 6.4864 7.74084 6.47991 7.70797 6.46642C7.70001 6.46117 7.69105 6.45766 7.68167 6.45612C7.67228 6.45458 7.66268 6.45504 7.65349 6.45747C7.64429 6.4599 7.6357 6.46426 7.62827 6.47024C7.62085 6.47623 7.61475 6.48373 7.61037 6.49224C7.56717 6.55275 7.36957 6.71896 7.22877 6.58745H7.22397C7.18877 6.6294 7.30237 6.89727 7.18877 7.30069C6.95837 8.0922 5.53997 8.64085 5.48077 7.73396C5.47625 7.64149 5.4808 7.54879 5.49437 7.45722C5.50717 7.30231 5.56717 7.20952 5.61197 7.23937C5.64088 7.27231 5.65681 7.3148 5.65677 7.35878C5.66157 7.47013 5.67517 7.6557 5.72157 7.73638C5.90877 8.09059 7.01117 7.86709 7.04477 6.71896C7.04157 6.69395 7.03277 6.67862 7.02237 6.67862C6.99997 6.67378 6.96717 6.71412 6.95677 6.75043C6.79277 8.04379 5.32397 8.03895 5.76317 6.84806C5.90797 6.72864 5.84717 7.18289 5.90797 7.29343C6.00477 7.46771 6.18637 7.42414 6.41357 7.29343C6.78477 7.04815 6.80237 6.78674 6.78477 6.7593C6.75757 6.74478 6.69357 6.83192 6.61357 6.87549C6.51757 6.9126 6.40797 6.93842 6.31677 6.83837C6.2911 6.73235 6.2911 6.62166 6.31677 6.51564C6.3314 6.43925 6.36696 6.36852 6.41942 6.31148C6.47188 6.25443 6.53914 6.21335 6.61357 6.1929C6.79277 6.16305 6.81917 6.30425 6.92397 6.36073C6.9552 6.35482 6.9829 6.33683 7.00114 6.31059C7.01938 6.28435 7.02671 6.25196 7.02157 6.22034C6.94157 5.73946 6.88877 5.37316 6.80877 4.88905C6.79934 4.84602 6.80534 4.80101 6.8257 4.76202C6.84606 4.72302 6.87946 4.69256 6.91997 4.67605Z" fill="white"/>
<path d="M11.2656 3.95474C11.2416 3.88857 11.304 3.84097 11.36 3.8321V3.82968H11.3832C11.4816 3.85307 11.5512 4.04107 11.528 4.14273C11.5088 4.26779 11.46 4.40737 11.4192 4.3993C11.3784 4.39123 11.4472 4.27263 11.408 4.17016C11.3864 4.10239 11.252 3.99669 11.2656 3.95474Z" fill="white"/>
<path d="M14.2376 3.69273C14.2504 3.68588 14.2647 3.68221 14.2792 3.68202V3.68364C14.2863 3.68284 14.2936 3.68284 14.3008 3.68364C14.3904 3.71833 14.4432 3.96845 14.4336 4.04107C14.4136 4.1742 14.3712 4.31701 14.3336 4.3041C14.296 4.29119 14.3408 4.10884 14.3232 4.05478C14.3032 3.97894 14.1816 3.84743 14.1944 3.80466C14.1895 3.79088 14.188 3.77614 14.19 3.76166C14.1919 3.74718 14.1973 3.73337 14.2055 3.72138C14.2138 3.70939 14.2248 3.69957 14.2376 3.69273Z" fill="white"/>
<path d="M11.5545 4.58423C11.5624 4.57442 11.5725 4.56663 11.584 4.56148V4.56551C11.5888 4.56343 11.5941 4.56237 11.5994 4.56239C11.6047 4.5624 11.6099 4.5635 11.6148 4.56561C11.6196 4.56772 11.624 4.5708 11.6276 4.57467C11.6313 4.57853 11.6341 4.5831 11.636 4.5881C11.6416 4.60101 11.6416 4.65346 11.6416 4.66879C11.6544 4.84548 11.444 4.90761 11.3344 4.87534C11.2528 4.85678 11.2552 4.73253 11.26 4.72688C11.2568 4.70106 11.26 4.63167 11.32 4.62038C11.3296 4.61982 11.339 4.623 11.3464 4.62925C11.3515 4.64293 11.3542 4.6574 11.3544 4.67201C11.3544 4.68492 11.3568 4.69218 11.3688 4.69218C11.3808 4.69218 11.38 4.69703 11.3928 4.69218C11.4056 4.68734 11.4136 4.68008 11.4136 4.66233C11.4145 4.64781 11.4172 4.63345 11.4216 4.61957C11.4304 4.60505 11.4296 4.59778 11.4448 4.59778C11.4525 4.59473 11.4611 4.59473 11.4688 4.59778C11.4789 4.60865 11.4854 4.6225 11.4872 4.63732C11.4864 4.68654 11.516 4.68654 11.5312 4.67443C11.5464 4.66233 11.5336 4.63651 11.5384 4.61796C11.541 4.60559 11.5466 4.59404 11.5545 4.58423Z" fill="white"/>
<path d="M7.85277 5.33927C7.86725 5.32636 7.88496 5.31771 7.90397 5.31426H7.90637C7.92877 5.31264 7.93917 5.33039 7.92877 5.36186C7.90805 5.41015 7.90301 5.46381 7.91437 5.51516C7.92557 5.53856 7.93197 5.55631 7.97997 5.53856C8.08957 5.41673 8.08957 5.47078 8.08957 5.47078C8.08957 5.47078 8.03357 5.6733 7.93837 5.67814C7.92397 5.67975 7.83917 5.73543 7.77837 5.65394C7.71757 5.57245 7.75517 5.40946 7.85277 5.33927Z" fill="white"/>
<path d="M13.0272 4.40905C13.05 4.3865 13.0795 4.37203 13.1112 4.36784L13.1136 4.36945C13.1287 4.3678 13.1439 4.37005 13.1579 4.37598C13.1719 4.3819 13.1842 4.39132 13.1936 4.40334C13.2292 4.46451 13.2483 4.53408 13.2488 4.60505C13.2488 4.63893 13.1944 4.60827 13.164 4.61957C13.1336 4.63087 13.1232 4.66798 13.1232 4.70025C13.1176 4.78981 13.1056 4.92698 13.1056 5.03186C13.0048 5.04397 12.792 4.87937 12.7296 4.77368C12.7203 4.74574 12.7167 4.71622 12.7188 4.68685C12.721 4.65747 12.729 4.62884 12.7424 4.60263C12.78 4.57197 12.8376 4.53566 12.8808 4.55583C12.8808 4.55583 12.9256 4.61231 12.9168 4.62118C12.972 4.63974 12.9952 4.62118 13.0008 4.59778C13.0048 4.55744 12.9848 4.53647 12.9848 4.4929C12.9895 4.46104 13.0044 4.43161 13.0272 4.40905Z" fill="white"/>
<path d="M8.79037 5.53775H8.79437L8.81437 5.54824H8.82157C8.83517 5.54743 8.85677 5.56357 8.90637 5.60391C9.05049 5.83727 9.1331 6.10388 9.14637 6.37848C9.14157 6.43253 9.17117 6.46642 9.19357 6.46642H9.20957C9.22237 6.30909 9.60477 6.00894 9.95437 5.90567C10.008 5.88308 9.98157 5.78464 9.99037 5.73059C9.98193 5.63379 10.0062 5.53695 10.0592 5.45581C10.1122 5.37467 10.1909 5.31398 10.2824 5.2836C10.5304 5.26827 10.6128 5.38768 10.6168 5.591C10.5904 5.98797 10.1864 6.13642 9.95837 6.21307C9.94719 6.21935 9.93717 6.22754 9.92877 6.23728C9.93689 6.24115 9.94551 6.24387 9.95437 6.24535C10.272 6.18241 10.5872 6.11948 10.9072 6.05897L10.9552 6.07753C10.9554 6.08021 10.9554 6.08291 10.9552 6.08559C10.935 6.10346 10.9184 6.12511 10.9064 6.14933C10.8548 6.25005 10.822 6.35944 10.8096 6.47207C10.5263 6.61144 10.2319 6.72668 9.92957 6.81659C9.82637 6.89001 9.76237 6.96747 9.79597 7.04573C9.82957 7.12399 10.0472 7.16595 10.0608 7.1724C10.104 7.19096 10.156 7.24583 10.048 7.39913C9.58317 7.47255 9.22397 7.34345 9.09917 7.08688C9.06157 7.06509 9.02077 7.10221 8.99517 7.14578C8.81357 7.41688 8.63517 7.66458 8.32557 7.83482C8.14077 7.9155 7.95117 7.87355 7.86237 7.76704C7.80317 7.71057 7.80157 7.63795 7.78237 7.6202C7.68237 7.68555 6.82477 8.1866 6.93277 7.99619C7.14237 7.74123 7.50397 7.51934 7.82397 7.24099C7.84717 7.16192 7.88877 6.90373 8.01517 6.79884C8.01677 6.82062 7.99597 6.95294 7.99597 7.00942V7.06752C8.02317 7.04492 8.40477 6.67217 8.43437 6.57292C8.45621 6.51021 8.46037 6.44262 8.44637 6.37767C8.37357 6.19855 8.27117 6.20501 8.23357 6.11787C8.19917 6.00007 8.21437 5.85484 8.28557 5.80159C8.29724 5.78605 8.31189 5.77304 8.32864 5.76334C8.3454 5.75363 8.36392 5.74743 8.38311 5.7451C8.40229 5.74276 8.42175 5.74435 8.44031 5.74975C8.45888 5.75516 8.47617 5.76428 8.49117 5.77657C8.57632 5.84847 8.63517 5.94702 8.65837 6.05655C8.64557 6.0985 8.56077 6.05171 8.52797 6.07349C8.57945 6.12293 8.61393 6.18767 8.62637 6.25826C8.67285 6.40294 8.66719 6.55953 8.61037 6.7004C8.43837 7.09495 8.21837 7.24825 8.02637 7.41768C8.02315 7.44305 8.02762 7.4688 8.03919 7.49155C8.05075 7.5143 8.06887 7.53299 8.09117 7.54516C8.11437 7.56614 8.21517 7.5613 8.33117 7.50159C8.58295 7.31319 8.78309 7.06331 8.91277 6.77544C8.93522 6.58484 8.91387 6.39159 8.85037 6.21065C8.77597 6.04929 8.68557 5.81853 8.68557 5.80723C8.67937 5.7701 8.68086 5.73208 8.68995 5.69556C8.69903 5.65904 8.71552 5.62481 8.73837 5.59504C8.75675 5.57693 8.77411 5.55781 8.79037 5.53775Z" fill="white"/>
<path d="M9.6766 5.52451C9.68466 5.51484 9.69485 5.50722 9.70637 5.50225L9.70397 5.50548C9.70872 5.50327 9.71387 5.50208 9.7191 5.50199C9.72433 5.50191 9.72952 5.50292 9.73434 5.50497C9.73916 5.50702 9.7435 5.51006 9.74709 5.5139C9.75067 5.51774 9.75343 5.52229 9.75517 5.52726C9.75677 5.54017 9.76157 5.59181 9.76157 5.60795C9.82477 5.76528 9.56317 5.84919 9.45357 5.81853C9.37197 5.80078 9.37517 5.67572 9.37997 5.67007C9.37597 5.64425 9.37997 5.57567 9.43997 5.56357C9.44531 5.56279 9.45076 5.56325 9.45589 5.56493C9.46102 5.56661 9.4657 5.56946 9.46957 5.57325C9.47407 5.58676 9.47624 5.60096 9.47597 5.61521C9.47597 5.62812 9.47997 5.63134 9.49197 5.63538C9.50397 5.63941 9.49997 5.63538 9.51437 5.63538C9.52062 5.63342 9.52605 5.62943 9.52982 5.62403C9.53358 5.61863 9.53546 5.61212 9.53517 5.60553C9.5361 5.59066 9.53906 5.576 9.54397 5.56196C9.55197 5.54743 9.55277 5.54017 9.56797 5.54017C9.57161 5.5385 9.57557 5.53763 9.57957 5.53763C9.58357 5.53763 9.58753 5.5385 9.59117 5.54017C9.60146 5.55094 9.60793 5.56484 9.60957 5.57971C9.60797 5.62892 9.63677 5.62812 9.65277 5.61601C9.66877 5.60391 9.65597 5.57729 9.65997 5.55792C9.66284 5.54563 9.66854 5.53418 9.6766 5.52451Z" fill="white"/>
<path d="M13.3768 4.98991C13.3799 4.98918 13.3832 4.98918 13.3864 4.98991V4.98749C13.428 4.98991 13.4168 5.17387 13.3944 5.17387C13.404 5.2126 12.8928 5.63457 12.856 5.62731C12.8312 5.6499 12.8056 5.49418 12.856 5.44174C12.8688 5.4256 13.3768 4.98991 13.3768 4.98991Z" fill="white"/>
<path d="M5.07677 7.03282C5.08637 6.84241 5.47197 6.4753 5.73517 6.44544C5.90957 6.43415 5.86397 6.4995 5.90957 6.56405C5.62717 6.73106 5.35437 6.88275 5.07677 7.03282Z" fill="white"/>
<path d="M13.2494 5.39359C13.2603 5.38485 13.2729 5.37844 13.2864 5.37477L13.2832 5.37316C13.294 5.37116 13.3051 5.37116 13.316 5.37316C13.4056 5.40624 13.4408 5.66604 13.4304 5.73946C13.4336 5.87904 13.3464 6.00088 13.3096 5.98877C13.2728 5.97667 13.3136 5.8145 13.296 5.76205C13.2792 5.68621 13.2032 5.55066 13.216 5.50709C13.2116 5.49375 13.2099 5.47965 13.2111 5.46564C13.2123 5.45163 13.2163 5.43802 13.2229 5.42563C13.2295 5.41324 13.2385 5.40234 13.2494 5.39359Z" fill="white"/>
<path d="M7.53837 6.77625C7.51997 6.71977 7.55837 6.69153 7.59997 6.68185V6.67862C7.6135 6.67662 7.62724 6.67662 7.64077 6.67862C7.72637 6.69718 7.77677 6.87307 7.76717 6.92713C7.75197 7.02717 7.70717 7.1369 7.67197 7.13045C7.63677 7.12399 7.67917 6.98683 7.66237 6.94891C7.65517 6.85128 7.53837 6.81901 7.53837 6.77625Z" fill="white"/>
<path d="M5.10477 7.43624C5.12237 7.41284 5.13597 7.39186 5.14237 7.39186V7.38622C5.15037 7.38137 5.15117 7.40477 5.14237 7.46206C5.12121 7.5954 5.1145 7.73067 5.12237 7.86548C5.12797 7.94455 5.15677 8.03975 5.22637 7.89372C5.25917 7.84692 5.28557 7.85338 5.31837 7.9034C5.34157 7.97279 5.29837 8.17692 5.19997 8.22613C5.16948 8.23566 5.13697 8.23648 5.10604 8.2285C5.07512 8.22053 5.04699 8.20407 5.02477 8.18095C4.93437 8.07284 4.94477 7.69685 5.10477 7.43624Z" fill="white"/>
<path d="M10.4432 6.89082C10.454 6.88295 10.4667 6.87796 10.48 6.87629L10.4784 6.87952C10.4992 6.87653 10.5203 6.8808 10.5384 6.89162C10.5464 6.94084 10.5056 6.99651 10.5184 7.06187C10.5296 7.08688 10.5376 7.11593 10.5872 7.09414C10.6521 7.03146 10.7344 6.99011 10.8232 6.97554C10.8848 6.96666 10.8872 7.07236 10.848 7.08043C10.7366 7.13051 10.6296 7.18989 10.528 7.25793C10.5156 7.26985 10.4994 7.27683 10.4823 7.27757C10.4652 7.27831 10.4485 7.27277 10.4352 7.26196C10.4352 7.25712 10.4048 7.23857 10.4256 7.16676C10.4296 7.11189 10.3968 7.0772 10.3632 7.10221C10.3296 7.12722 10.2896 7.1369 10.2832 7.10947C10.2768 7.08204 10.2744 7.06832 10.296 7.04734C10.3388 6.98955 10.3882 6.93702 10.4432 6.89082Z" fill="white"/>
<path d="M13.8264 6.44867C13.8568 6.44222 13.8776 6.43415 13.8976 6.43415L13.9024 6.43334C13.9242 6.43086 13.9462 6.43086 13.968 6.43334C14.02 6.44544 14.0344 6.46642 14.02 6.50112C14.0098 6.5295 13.9964 6.55659 13.98 6.5818C13.9568 6.6286 14.0056 6.6286 14.0208 6.6286C14.052 6.6286 14.0992 6.60681 14.12 6.6286C14.1241 6.64268 14.1244 6.65764 14.1207 6.67186C14.117 6.68608 14.1096 6.69901 14.0992 6.70928C14.0992 6.7117 13.8792 6.87872 13.784 6.86339C13.7328 6.86339 13.7432 6.81336 13.76 6.7827C13.7952 6.74559 13.8208 6.72461 13.8568 6.68749C13.8928 6.63747 13.8784 6.61407 13.8568 6.58825C13.816 6.56808 13.7768 6.57534 13.7768 6.51564C13.7824 6.47449 13.796 6.45513 13.8264 6.44867Z" fill="white"/>
<path d="M12.4184 9.83578C12.3168 9.7801 12.3096 9.61551 12.4696 9.54854L12.4688 9.555H12.4736C12.4816 9.56468 12.4888 9.60663 12.5008 9.62277C12.5021 9.62305 12.5035 9.62305 12.5048 9.62277H12.5104C12.5197 9.61959 12.5295 9.61837 12.5393 9.61921C12.549 9.62004 12.5585 9.6229 12.5672 9.62761C12.6152 9.6615 12.576 9.78172 12.5544 9.81399C12.7556 9.78419 12.9583 9.76561 13.1616 9.75832C13.1616 9.75832 13.3448 9.71394 13.4104 9.69619C13.6872 9.63326 13.7 10.0585 13.7 10.0585C13.6968 10.3078 13.6008 10.3328 13.4792 10.3747C13.4096 10.3901 13.3728 10.3433 13.3368 10.2941C13.2824 10.3183 12.6912 10.3965 12.5864 10.4062L12.5854 10.408C12.5639 10.4457 12.535 10.4965 12.4712 10.4917H12.4648H12.4608C12.4064 10.4635 12.3304 10.2763 12.4 10.1408C11.4224 10.2892 7.98717 11.0388 7.24557 11.1195C6.85037 11.1743 6.54797 11.1509 6.33997 10.8685C6.35837 10.8718 7.33037 10.7741 7.63837 10.716C8.18717 10.6499 10.7488 10.1214 12.4184 9.83578Z" fill="white"/>
<path d="M20 14.2234C13.3336 11.5342 6.6664 16.9134 0 14.2234V0.776621C6.6664 3.46581 13.3336 -1.91338 20 0.776621V14.2234Z" fill="url(#paint0_linear)"/>
<defs>
<linearGradient id="paint0_linear" x1="-0.5032" y1="6.57294" x2="20.5059" y2="8.396" gradientUnits="userSpaceOnUse">
<stop stop-opacity="0.1"/>
<stop offset="0.08" stop-color="#202020" stop-opacity="0.11"/>
<stop offset="0.18" stop-color="#797979" stop-opacity="0.15"/>
<stop offset="0.3" stop-color="white" stop-opacity="0.2"/>
<stop offset="0.38" stop-color="#969696" stop-opacity="0.2"/>
<stop offset="0.47" stop-color="#424242" stop-opacity="0.2"/>
<stop offset="0.57" stop-color="#101010" stop-opacity="0.2"/>
<stop offset="0.7" stop-opacity="0.2"/>
<stop offset="0.84" stop-color="white" stop-opacity="0.05"/>
<stop offset="1" stop-opacity="0.2"/>
</linearGradient>
</defs>
</svg>
