<svg width="20" height="15" viewBox="0 0 20 15" fill="none" xmlns="http://www.w3.org/2000/svg">
<path d="M0 0.776377C6.66664 3.46583 13.3334 -1.91307 20 0.776377C20 2.27053 20 3.76468 20 5.25883C13.3334 2.56938 6.66664 7.94828 0 5.25883C0 3.76468 0 2.27053 0 0.776377Z" fill="#009E49"/>
<path d="M0 5.2588C6.66664 7.94825 13.3334 2.56935 20 5.2588C20 6.75295 20 8.2471 20 9.74125C13.3334 7.0518 6.66664 12.4307 0 9.74125C0 8.24699 0 6.75295 0 5.2588Z" fill="white"/>
<path d="M0 9.74122C6.66664 12.4307 13.3334 7.05177 20 9.74122C20 11.2354 20 12.7295 20 14.2237C13.3334 11.5342 6.66664 16.9131 0 14.2237C0 12.7295 0 11.2354 0 9.74122Z" fill="black"/>
<path d="M0 0.775879C1.66664 1.44824 3.33336 1.61639 5 1.53226C5 6.01471 5 10.4971 5 14.9795C3.33336 15.0635 1.66664 14.8955 0 14.2231C0 9.74067 0 5.25833 0 0.775879Z" fill="#CE1126"/>
<path d="M20 14.2236C13.3334 11.5342 6.66664 16.9131 0 14.2236C0 9.74117 0 5.25883 0 0.776377C6.66664 3.46583 13.3334 -1.91307 20 0.776377C20 5.25883 20 9.74117 20 14.2236Z" fill="url(#paint0_linear)"/>
<defs>
<linearGradient id="paint0_linear" x1="-0.358136" y1="6.28138" x2="20.4288" y2="7.63379" gradientUnits="userSpaceOnUse">
<stop stop-opacity="0.1"/>
<stop offset="0.0273" stop-color="#060606" stop-opacity="0.1091"/>
<stop offset="0.0651" stop-color="#181818" stop-opacity="0.1217"/>
<stop offset="0.109" stop-color="#363636" stop-opacity="0.1363"/>
<stop offset="0.1576" stop-color="#5F5F5F" stop-opacity="0.1525"/>
<stop offset="0.2099" stop-color="#939393" stop-opacity="0.17"/>
<stop offset="0.2646" stop-color="#D2D2D2" stop-opacity="0.1882"/>
<stop offset="0.3" stop-color="white" stop-opacity="0.2"/>
<stop offset="0.3251" stop-color="#DADADA" stop-opacity="0.2"/>
<stop offset="0.364" stop-color="#A7A7A7" stop-opacity="0.2"/>
<stop offset="0.4048" stop-color="#7B7B7B" stop-opacity="0.2"/>
<stop offset="0.4467" stop-color="#555555" stop-opacity="0.2"/>
<stop offset="0.49" stop-color="#363636" stop-opacity="0.2"/>
<stop offset="0.5351" stop-color="#1E1E1E" stop-opacity="0.2"/>
<stop offset="0.5829" stop-color="#0D0D0D" stop-opacity="0.2"/>
<stop offset="0.6351" stop-color="#030303" stop-opacity="0.2"/>
<stop offset="0.7" stop-opacity="0.2"/>
<stop offset="0.843" stop-color="white" stop-opacity="0.05"/>
<stop offset="0.9959" stop-opacity="0.2"/>
</linearGradient>
</defs>
</svg>
